<svg xmlns="http://www.w3.org/2000/svg" viewBox="0 0 249 250"><path fill="#fff" d="M248 13a19 19 0 0 0-18-13H59a19 19 0 0 0-3 1h-1l-1 1h-1v1h-1l-1 1h-1v1h-1v1L5 45c-3 3-5 7-5 12v177c0 9 7 16 16 16h177c5 0 9-2 12-5l39-46 2-2 1-1v-2h1v-3h1V19l-1-6Zm-18-7a13 13 0 0 1 9 3h1a15 15 0 0 1 1 2c2 3 2 5 2 8v172l-2 3-1 1v1h-1v1a13 13 0 0 1-3 2h-2l-1 1H62a13 13 0 0 1-13-13V16h1v-3h1v-1l1-1a13 13 0 0 1 5-4l1-1h172Z"/><path fill="#fff" d="M135 103v-3l-22-1a11 11 0 0 0 0 7h22v-3Z"/><path fill="#fff" d="M124 114h3V92a11 11 0 0 0-7 0v22h4Z"/><path fill="#fff" d="M135 103v-3l-22-1a11 11 0 0 0 0 7h22v-3Zm45 0v-3l-22-1a11 11 0 0 0 0 7h22v-3Z"/><path fill="#fff" d="M124 114h3V92a11 11 0 0 0-7 0v22h4Zm45 0h3V92a11 11 0 0 0-6 0v22h3Z"/><circle cx="168.9" cy="102.7" r="11.4" fill="#fff"/></svg>