<svg xmlns="http://www.w3.org/2000/svg" fill="none" viewBox="0 0 256 256"><path fill="url(#a)" d="M158 108c-19-19-47-47-82-47-38 0-69 30-70 68v2h31v-2c0-21 18-37 39-37 19 0 30 10 73 50a5662 5662 0 0 0 19 18c10 9 18 17 37 17 25 0 45-21 45-46v-2h-31v2c0 4-1 8-4 11a14 14 0 0 1-10 4c-10 0-24-15-34-25l-13-13z"/><path fill="url(#b)" d="m181 132-10-11-11-11 3-3 5-4c10-9 18-17 37-17 24 0 45 21 45 43v2h-31v-2c0-9-10-12-14-12-7 0-16 7-24 15z"/><path fill="url(#c)" d="M138 132a6955 6955 0 0 1 22 21l-2 2c-19 19-47 47-82 47-38 0-70-32-70-71v-2h31v2c0 22 17 40 39 40 18 0 28-8 62-39z"/><defs><linearGradient id="a" x1="96" x2="180.3" y1="82.3" y2="165.5" gradientUnits="userSpaceOnUse"><stop stop-color="#F46837"/><stop offset=".5" stop-color="#945DD6"/><stop offset="1" stop-color="#13ADC7"/></linearGradient><linearGradient id="b" x1="171.1" x2="202" y1="121.5" y2="91" gradientUnits="userSpaceOnUse"><stop stop-color="#1497B8"/><stop offset=".5" stop-color="#13ADC7"/></linearGradient><linearGradient id="c" x1="76.8" x2="131.9" y1="132.5" y2="186.9" gradientUnits="userSpaceOnUse"><stop stop-color="#F46837"/><stop offset=".6" stop-color="#945DD6"/><stop offset="1" stop-color="#7E51C2"/></linearGradient></defs></svg>