<svg xmlns="http://www.w3.org/2000/svg" data-name="Layer 1" viewBox="0 0 756 597"><path fill="#1d63ed" d="M744 245c-19-12-67-18-103-8-2-35-20-65-53-91l-12-8-9 12c-16 25-23 57-20 87 2 18 8 39 20 54-46 26-88 20-276 20H0a306 306 0 0 0 77 212c42 43 106 74 201 74 146 0 271-79 347-269 25 0 91 4 123-58l8-16-12-9Zm-554-39h-82v82h82v-82Zm105 0h-81v82h81v-82Zm106 0h-82v82h82v-82Zm105 0h-81v82h81v-82Zm-422 0H2v82h82v-82Zm106-103h-82v82h82v-82Zm105 0h-81v82h81v-82Zm106 0h-82v82h82v-82Zm0-103h-82v82h82V0Z"/></svg>