<svg xmlns="http://www.w3.org/2000/svg" fill="none" class="styles-module--logo--355b2" viewBox="0 0 256 256"><path fill="url(#a)" d="M167 168a57 57 0 0 1-17-43c0-17 5-31 17-43a60 60 0 0 1 20-13 59 59 0 0 1 23-5c16 0 30 6 41 16 2 2 2 3 1 5l-14 13c-1 2-3 2-4 0-6-5-14-8-23-8s-17 3-23 10a34 34 0 0 0-7 11 34 34 0 0 0-2 13c0 10 2 18 9 25a32 32 0 0 0 11 7 31 31 0 0 0 12 3c9 0 17-3 23-9 2-1 3-1 5 1l13 14v4a57 57 0 0 1-42 16 59 59 0 0 1-23-4 60 60 0 0 1-20-13Z"/><path fill="url(#b)" d="M3 182V68a3 3 0 0 1 0-2l1-1a3 3 0 0 1 2-1h41c17 2 29 7 41 18 11 12 16 25 17 43 2 16-5 31-17 42a56 56 0 0 1-18 14 55 55 0 0 1-23 4H6a3 3 0 0 1-1 0 3 3 0 0 1-1-1 3 3 0 0 1-1-1 3 3 0 0 1 0-1Zm26-87v65h16c10 0 17-4 24-10 6-7 9-16 9-25 0-10-3-18-9-25a31 31 0 0 0-11-8 30 30 0 0 0-13-2H29v5Z"/><path fill="url(#c)" d="m153 104-25 57h-1l-27-61c3 8 5 16 5 25 1 12-2 23-8 32l26 59 3 2h2l3-2 27-59c-5-10-8-21-8-32l3-21Z"/><defs><linearGradient id="a" x1="201.3" x2="201.3" y1="125" y2="185.4" gradientUnits="userSpaceOnUse"><stop stop-color="#F46837"/><stop offset="1" stop-color="#DD5236"/></linearGradient><linearGradient id="b" x1="54.3" x2="54.3" y1="125" y2="185.2" gradientUnits="userSpaceOnUse"><stop stop-color="#13ADC7"/><stop offset="1" stop-color="#1497B8"/></linearGradient><linearGradient id="c" x1="104.6" x2="104.6" y1="160.1" y2="217.4" gradientUnits="userSpaceOnUse"><stop stop-color="#7E51C2"/><stop offset="1" stop-color="#945DD6"/></linearGradient></defs></svg>