<svg xmlns="http://www.w3.org/2000/svg" viewBox="0 0 32.786777 26.386204"><path fill="#ea4335" d="M20.804686 7.2659235h1l2.85-2.85.14-1.21a12.81 12.81 0 0 0-20.8400004 6.25 1.55 1.55 0 0 1 1-.06l5.7000004-.94s.29-.48.44-.45a7.11 7.11 0 0 1 9.73-.74z"/><path fill="#4285f4" d="M28.714686 9.4559235a12.84 12.84 0 0 0-3.87-6.24l-4 4a7.11 7.11 0 0 1 2.61 5.6399995v.71a3.56 3.56 0 1 1 0 7.12h-7.12l-.71.72v4.27l.71.71h7.12a9.26 9.26 0 0 0 5.26-16.9299995z"/><path fill="#34a853" d="M9.2046856 26.345923h7.1200004v-5.7H9.2046856a3.54 3.54 0 0 1-1.47-.32l-1 .31-2.87 2.85-.25 1a9.21 9.21 0 0 0 5.59 1.86z"/><path fill="#fbbc05" d="M9.2046856 7.8559235a9.26 9.26 0 0 0-5.59 16.5999995l4.13-4.13a3.56 3.56 0 1 1 4.7100004-4.71l4.13-4.13a9.25 9.25 0 0 0-7.3800004-3.6299995Z"/></svg>