<svg xmlns="http://www.w3.org/2000/svg" fill="none" class="FooterLogo astro-SCINLFMN" viewBox="0 0 121.62 123.0824"><path fill="#fff" d="M60.809995 123.0824c-11.54 0-21.91-2.349-31.11-7.047-9.2-4.698-16.45-11.509-21.7499999-20.435003-5.3-8.926-7.94999998-19.653-7.94999998-32.18v-3.758c0-12.528 2.64999998-23.254 7.94999998-32.18 5.2999999-8.926 12.5499999-15.7379 21.7499999-20.4356995 9.2-4.6978 19.57-7.04670004 31.11-7.04670004s21.91 2.34890004 31.11 7.04670004C101.12 11.744497 108.37 18.556397 113.67 27.482397c5.3 8.926 7.95 19.652 7.95 32.18v3.758c0 12.527-2.65 23.254-7.95 32.18-5.3 8.926003-12.55 15.737003-21.750005 20.435003-9.2 4.698-19.57 7.047-31.11 7.047zm0-26.308003c9.04 0 16.53-2.897 22.45-8.691 5.93-5.95 8.89-14.406 8.89-25.368v-2.349c0-10.961-2.96-19.339-8.89-25.133-5.77-5.95-13.25-8.926-22.45-8.926-9.04 0-16.53 2.976-22.45 8.926-5.93 5.794-8.89 14.172-8.89 25.133v2.349c0 10.962 2.96 19.418 8.89 25.368 5.92 5.794 13.41 8.691 22.45 8.691z" class="astro-SCINLFMN"/><path fill="#cac5b8" d="M81.839995 46.072397c.28.171.87-.048.83.535 0 .365-.36.199-.56.252-.36 0-.76-.091-.83-.423-.08-.332.35-.508.56-.364z" class="astro-SCINLFMN"/><path fill="#cac5b8" d="M56.859995 86.358397c-.58-.257-1.19-.482-1.76-.782-.42-.225-.84-.262-1.07.214-.23.477.09.675.47.846.57.17 1.08.469 1.5.873.58.643 1.32 1.12 2.15 1.381.89.333 1.81.607 2.74.82.27.035.53.152.74.335.21.183.36.424.43.693-.18.013-.36-.013-.53-.075-1.08-.311-1.42-.124-1.44.953 0 .76-.49.669-.9.535-.65-.187-1.02-.112-1.02.616 0 .835-.41.899-1.14.733-.85-.145-1.71-.17-2.56-.075-.39 0-.58.616-1.01.375-1.25-.68-2.66-.407-3.95-.508-1.78-.203-3.54-.562-5.26-1.071-1.57-.456-3.12-.992-4.64-1.607-3.1-1.145-5.49-3.169-7.66-5.434-1.19-1.248-2.35-2.533-3.55-3.791-1.58-1.592-2.89-3.427-3.89-5.435-1.46-3.116-1.9-6.478-2.23-9.852-.11-1.129-.19-2.254-.27-3.383-.15-2.217-.6-4.418-.14-6.645.03-.161 0-.311.22-.396.7-.284.88-.589.44-1.098-.5-.589-.34-1.226-.47-1.853-.15-.706.42-1.129.46-1.745.13-2.233 1.2-4.23 1.75-6.356.03-.112.15-.283.23-.294.82-.07.67-.123.99-.83.39-.851 0-1.762.44-2.559.78-1.453 1.68-2.843 2.68-4.155 1.46-1.933 2.88-3.893 4.74-5.499.71-.621 1.54-1.114 2.32-1.671.05.059.07.126.09.196.01.071.01.143 0 .214-.01.07-.04.137-.08.196-.04.06-.09.11-.16.149-.42.364-.6.911-.18 1.216.42.305.67-.316.98-.536.05-.037.06-.123.1-.171.31-.411.7-.753 1.15-1.002.45-.249.94-.4 1.45-.444.84-.048.97-.466.61-1.071-.2-.337-.15-.444.16-.599.4-.194.79-.409 1.17-.643.21-.139.45-.284.66-.091.21.193-.07.364-.15.536-.15.358-.09.813.25.755 1.05-.172 2.37-.402 2.79-1.28.7-1.483 1.94-1.344 3.13-1.505.32-.042.78-.241 1.03.22.08.156.2.292.33.401.14.109.3.189.47.233.18.044.35.053.53.025.17-.028.34-.092.49-.188 1.27-.76 2.75-1.095 4.22-.958.87.107 2.14-.761 2.44.905 0 .069.24.171.34.144.76-.203 1.91.621 2.25-.771.03-.085.09-.156.17-.198.08-.041.17-.049.26-.021.62.315 1.3.112 1.94.251 1.88.407 3.75.75 5.63 1.178 1.72.3 3.36.888 4.88 1.74-.13.096-.26.181-.4.252-.3.118-.87-.113-.75.535.09.536.5.311.84.381.75.083 1.47.37 2.07.829.15.145.3.488.58.263.27-.225 0-.423-.08-.648-.07-.225-.4-.391-.15-.621.25-.23.44 0 .66.096 1.46.712 2.94 1.408 4.4 2.142.12.059.27.182.28.294.19 1.435 1.6 1.815 2.47 2.678.16.16.62.224.7-.118.18-.803.65-.354.91-.188.67.423 1.23.996 1.9 1.403 3.14 1.863 5.64 4.626 7.19 7.93.11.188.16.402.15.619 0 .217-.07.427-.19.607-.54.862-.07 1.558.97 1.494.34 0 .62-.086.8.219.54.918.96 1.902 1.24 2.929-.37-.439-.6-.573-.92-.321-.31.252-.13.396 0 .621.14.225.21.568.32.846.32.782.81 1.729.48 2.404-.44.91-.26 1.751-.33 2.624-.06.712.04 1.44-.03 2.141-.04.364-.33.755.26.852.49.08.54-.38.59-.68.27-.732.28-1.535.04-2.276-.36-.84.46-1.531.42-2.383-.03-.851-.41-1.74-.44-2.918 1.04 2.094 1.26 4.107 1.8 6.029.08.289 0 .402-.24.38-.53-.037-.53.306-.53.659v1.644c0 .573.05 1.071.83.632.36-.209.36.198.37.23.19.679.28 1.387.25 2.093-.42 2.324.09 4.691-.39 7.004-.31 1.483-.22 3.009-.61 4.492-.58 2.201-1.26 4.369-1.93 6.543-.04.272-.16.527-.34.732-.18.205-.42.353-.69.425-.04-.678.01-1.358.14-2.024.18-.661.13-1.364-.15-1.992-.1-.236-.16-.493-.45-.45-.3.043-.18.327-.19.503.03.881-.04 1.761-.19 2.629-.12.536-.23 1.334.05 1.607.79.69.04 1.145-.05 1.692 0 .06-.02.118-.06.168-.03.049-.08.089-.13.113-.06.025-.12.034-.18.027-.06-.007-.12-.03-.17-.068-1.18-.733-2.47-1.279-3.69-1.948-2.26-1.248-4.39-2.731-6.6-4.07-2.06-1.247-4.2-2.372-6.24-3.662-1.65-1.055-3.24-2.199-4.76-3.427-.59-.466-1.61-.83-1.38-1.847.28-1.117.28-2.283 0-3.4-.04-.161-.13-.45.11-.535.11-.038.3.176.49.299.04-.926-.16-1.846-.57-2.677-.83-1.997-.58-4.09-.48-6.173.06-1.242.59-2.303 1.04-3.427.69-1.767 2.3-2.618 3.67-3.7 1.14-.966 2.61-1.455 4.1-1.365 2.23.081 4.41.618 6.43 1.579 1.85.921 3.46 2.008 4.31 3.963.17.39.26.915.73 1.194.2.123.36.353.63.251.28-.102.22-.417.19-.616-.35-1.729-1.34-3.261-2.78-4.283-1.26-1-2.69-1.775-4.22-2.292-.25-.053-.47-.194-.63-.397-.15-.204-.23-.456-.22-.711-.03-.782-1.04-1.419-2.14-1.301-.61.07-1.7-.214-1.6 1.033 0 .439-.34.375-.59.359-.89-.09-1.79.011-2.64.297-.84.285-1.62.748-2.27 1.358-1.02.947-2.33 1.542-3.14 2.757-1.07 1.649-2.02 3.33-2.07 5.354-.11 1.427-.09 2.862.09 4.284.32 1.353.79 2.666 1.41 3.914-.97-.806-2.12-1.381-3.35-1.682-.48-.132-1-.088-1.46.123-.46.212-.82.578-1.04 1.034-.39.873-.47 1.854-.22 2.777.25.923.82 1.731 1.59 2.288.1.091.21.156.34.189.13.033.26.033.39-.001.12-.033.24-.098.33-.189.1-.091.17-.205.21-.331.14-.413.21-.852.18-1.29 0-.182-.08-.434.21-.509.29-.075.45.091.61.295.39.535.17 1.017 0 1.536-.21.675.42 2.046 1 1.976.58-.07.8.257 1.07.535.13.156.18.365.45.322.73-.113 1.18.31 1.75.669.77.493 1.44 1.114 2.22 1.574 1.88 1.114 3.84 2.115 5.63 3.352 2.14 1.494 4.47 2.709 6.66 4.123 1.34.862 2.76 1.606 4.14 2.425.18.107.68 2.993.53 3.111-.2.125-.41.237-.63.337-.53.332-1.2.461-1.79.734-2.63 1.221-2.07 1.499-2.67-1.28-.16-.717.08-1.606-.72-2.141-.16-.108-.11-.536-.49-.306-.11.06-.19.157-.23.273-.03.116-.03.242.02.354.43 1.146.45 2.366.7 3.539.13.605 0 .755-.56.883-2.05.44-4.07.98-6.12 1.393-.85.185-1.71.235-2.58.15-2.01-.268-4.05-.3-6.07-.686-2.86-.535-5.71-1.14-8.52-1.869-1.93-.416-3.82-.997-5.64-1.734zm40.52-18.296c.35-1.319.53-2.677.53-4.042 0-.295-.03-.536-.38-.6-.36-.064-.41.171-.48.439-.31 1.108-.24 2.249-.4 3.373-.07.386.28.568.73.83zm-20.68-1.606c.33-.059.29-.396.19-.744-.27-.894-.45-1.812-.53-2.742 0-.353-.19-.873-.58-.851-.49 0-.15.535-.24.835-.01.101-.01.204 0 .305-.07.921.32 1.767.44 2.677.03.161.13.303.26.398.13.095.3.136.46.116zm-3.85-11.137c-.33-.07-.41.316-.43.46-.18 1.166-.11 2.354.2 3.491.02.084.08.157.15.204.07.048.16.067.24.053.25-.042.17-.262.17-.407v-3.212c.02-.062.03-.127.02-.191-.01-.064-.03-.126-.06-.182-.03-.056-.07-.106-.12-.146-.05-.039-.11-.069-.17-.086zm1.33 9.879c-.47 0-.33.578-.35.937v.776c-.32.899.41 1.719.72 2.629.01.096.06.186.12.263.06.077.13.138.22.18.09.042.19.062.29.059.09-.002.19-.028.28-.074.39-.219.28-.535.09-.873-.51-.906-.81-1.919-.87-2.96-.01-.413-.04-.954-.5-.937zm2.51-14.339c-.38-.236-.46.23-.62.45-.57.754-1.39 1.376-1.41 2.43 0 .343-.06.809.36.852.42.043.44-.413.5-.734.12-.594.41-1.14.84-1.569.17-.166.41-.289.41-.535 0-.246.08-.798-.08-.894zm.49 4.883c-.99.38-1.45 2.302-.71 3.314.34-1.146.84-2.147.71-3.314zm10.65 11.699c-.17-.064-.53-.075-.58 0-.33.744-.72 1.46-1.17 2.142 0 .401.13.562.33.632.1.047.21.055.31.023s.18-.102.23-.195c.48-.64.82-1.368 1.02-2.142.02-.155-.05-.423-.14-.46zm-.07-6.425c-.14-.032-.29-.012-.41.056-.13.068-.22.179-.27.313-.31.996-1.05 1.906-.65 3.341.74-.981 1.27-2.112 1.53-3.314.04-.128.04-.332-.21-.38zm-1.85 16.159c.61-.285 1.14-.719 1.54-1.264.04-.06.08-.13.1-.204.02-.075.02-.153 0-.229-.01-.076-.04-.147-.08-.21-.05-.063-.11-.116-.17-.154-.13-.034-.26-.022-.38.034-.11.056-.2.153-.26.271-.08.168-.2.313-.36.422-.15.108-.33.177-.52.199-.15.038-.29.123-.39.241-.11.119-.17.266-.19.423.08.412.36.648.71.471zm-1.68-18.74c-1.55 1.569-1.74 2.966-.48 3.861-.32-1.334.82-2.399.5-3.839zm-.54 14.355c0-.204-.17-.386-.32-.278-.53.369-.49.937-.5 1.499.93-.038.9-.605.87-1.2zm-.62-2.211c.53 0 .37-.536.42-.878.13-.825.3-1.639.41-2.463.02-.22.18-.584-.22-.68-.41-.097-.35.305-.46.535-.44.825-.32 1.762-.58 2.452.06.53-.05 1.055.47 1.055zm-1.72-2.678c.53.043.49-.492.44-.835-.1-.653.44-1.247.16-1.879-.12-.268-.18-.755-.65-.659-.37.075-.39.455-.33.755.1.595-.25 1.114-.23 1.751-.03.103-.03.211-.01.315.02.105.06.204.12.29.07.086.15.157.24.208.1.051.2.081.3.087zm-1.01-7.18c.11.311.18.793.54.766.35-.027.31-.487.27-.776-.1-.595.29-1.114.22-1.698 0-.155.07-.358-.15-.439-.04-.012-.09-.016-.13-.011-.05.005-.09.019-.13.04-.03.022-.07.051-.1.085-.02.035-.04.074-.05.117-.21.492-.66.91-.49 1.429 0 .176.02.351.07.52zm-.25 13.199c-.02-.97-.22-1.927-.6-2.822-.02-.083-.07-.154-.14-.2-.07-.046-.16-.063-.24-.046-.17 0-.21.112-.26.251-.15.659.57 2.453 1.29 2.849zm-1.17-5.997c.13.144.28.332.54.15.25-.182.3-.263.16-.503-.23-.413-.34-.877-.33-1.347.01-.47.14-.929.39-1.331.1-.225.11-.599-.21-.706-.32-.107-.49.203-.58.433-.26.564-.42 1.175-.46 1.799.18.493.13 1.087.52 1.537zm2.83-17.428c-.28-.466-.77-.118-1.07.069-1.57.916-1.89 1.965-1.23 3.748.06.193.07.396.03.593-.04.196-.13.38-.25.537-.45.712-1.08 1.44-.68 2.399.14.017.29-.017.41-.096s.21-.199.25-.338c.35-.722.74-1.422 1.18-2.093.24-.488.72-.884-.11-1.414-.62-.391 0-2.056.99-2.474.61-.198.74-.546.53-.899zm1.22 2.955c-.24-.112-.38 0-.58.214-.47.579-.53 1.296-.8 1.842 0 .289-.02.536.21.621.31.145.49-.166.53-.316.2-.607.49-1.179.88-1.691.24-.225.1-.504-.19-.638zm1.39-2.061c-.53.032-.43.492-.45.894-.07.316.15.626.45.562.31-.064.4-.535.4-.867 0-.332-.04-.578-.36-.562zm2.68 1.906c-.14-.423-.46-.166-.67-.102-.82.247-1.47.691-1.61 1.424 0 .44-.08.782.24.9.33.118.47-.236.63-.418.34-.364.39-.958 1.14-.963.42.026.41-.472.31-.809zm1.11 2.795c-.53.198-.53.996-.96 1.494-.16.17-.28.389-.32.626-.04.237 0 .48.11.696.02.048.06.088.11.116.04.028.1.043.15.043.06 0 .11-.015.16-.043.05-.028.08-.068.11-.116.65-.669 1.1-1.511 1.28-2.425.06-.225-.04-.423-.6-.359zm-2.88-18.456c-.12-.034-.24-.024-.36.025-.11.05-.2.138-.26.248-.03.06-.06.127-.06.197-.01.07 0 .14.02.206.03.066.06.126.11.176.05.049.11.087.18.111.59.257 1.08.714 1.37 1.291.08.155.34.321.13.535-.07.055-.16.085-.25.085s-.17-.03-.24-.085c-.38-.241-.71-.16-.86.22-.16.38.17.648.47.814 1.08.61 2.02.053 2.03-1.168 0-.69-1.58-2.532-2.28-2.655zm9.29 37.046c.4.246.54-.048.7-.327.54-.947.63-2.007.94-2.789 0-.605.06-1.071-.48-1.071-.55 0-.28.493-.37.766-.31.878-.58 1.772-.93 2.639-.12.322-.18.579.14.782zm-.15-9.584c.4 0 .45-.289.54-.616.17-.825.24-1.669.2-2.511 0-.316 0-.68-.41-.696-.41-.016-.3.444-.35.632-.18.814 0 1.681-.34 2.404.12.337-.15.771.36.787zm-1.36-10.655c.33.401.06 1.392.92 1.188.73-.171.13-.813.14-1.252-.03-.569-.11-1.133-.24-1.687 0-.043-.01-.085-.03-.123-.02-.038-.05-.072-.08-.098-.03-.027-.07-.046-.11-.056-.05-.01-.09-.01-.13-.001-.07-.002-.13.023-.18.069-.05.046-.08.109-.09.177-.07.46-.15.921-.21 1.247-.05.327-.05.45.02.536zm-.83 13.278c.35-.578.08-1.199.2-1.788-.12-.535.16-1.146-.17-1.687-.09-.139-.1-.358-.33-.31-.12 0-.3.161-.3.241 0 1.189-.25 2.372-.08 3.56.03.188 0 .423.29.45.3.027.29-.284.39-.466zm-1.07 10.816c.02.086.07.163.14.216.07.054.16.082.24.079.31-.038.25-.338.2-.482-.36-.927-.11-1.88-.2-2.811-.02-.289.21-.745-.38-.761-.69 0-.39.498-.45.809-.02.285-.02.571 0 .857-.2.674.25 1.349.47 2.093zm-.88-15.324c.07-.482-.07-1.033-.54-1.071-.32 0-.53.536-.53.991.06.607 0 1.221-.18 1.804-.04.146-.03.304.04.44s.19.239.34.288c.15.011.3-.04.41-.14.12-.101.19-.243.2-.395 0-.589.41-1.103.25-1.606 0-.104.01-.208.03-.311zm.57 7.282c-.54 0-.54.509-.57.905-.09.696-.28 1.375-.57 2.013-.12.343-.14.734.24.889.39.155.58-.22.7-.466.35-.718.58-1.483.69-2.27-.01-.514.14-1.066-.47-1.071zm.97-12.749c-.16.718-.3 1.441-.45 2.142-.04.257.12.455.19.675.08.219.03.417.34.423.3.005.26-.22.32-.413.27-.862.23-1.788.6-2.634.13-.284-.07-.535-.39-.616-.07-.02-.14-.024-.21-.013-.07.011-.14.038-.2.079-.06.04-.1.093-.14.155-.04.062-.06.131-.06.202zm-.6-9.937c.73 1.03 1.27 2.178 1.61 3.394.03.118.16.215.28.359.38-.3.66-.642.53-1.028-.28-1.136-.82-2.192-1.57-3.089-.07-.1-.18-.169-.3-.192-.12-.023-.24.002-.34.069-.15.123-.37.267-.21.487zm.45-3.561c.47 0 .27-.535.33-.873-.05-1.242-.97-2.141-1.6-3.11-.18-.268-.39-.059-.45.128-.04.145-.05.297-.02.445.03.147.1.285.19.401.44.702 1.04 1.36 1.04 2.249-.02.418.18.798.51.782zm-.84 1.73c.13-1.071-1.33-3.545-2.14-3.813-.19-.064-.41-.107-.54.156-.13.262-.35.482-.03.712 1.08.782 1.59 2.008 2.71 2.966zm-7.02-2.838c.84.594 1.51 1.36 2.59 1.654.83.225 1.25 1.007 1.58 1.762.11.268.19.535.53.423.07-.024.13-.062.18-.111.05-.049.09-.108.11-.174.03-.065.04-.135.03-.205 0-.07-.02-.139-.05-.201-.45-.787-.66-1.761-1.71-2.141-1.06-.381-1.88-1.136-2.77-1.8-.28-.186-.57-.356-.87-.508-.06.11-.11.233-.13.362-.01.128-.01.259.03.384.04.124.1.24.18.339.08.1.19.18.3.237zm.42 44.307c.09.008.19-.002.28-.031.09-.029.17-.076.24-.138.08-.062.13-.137.18-.223.04-.085.06-.177.07-.272.05-.846 0-1.692 0-2.538 0-.103-.04-.202-.1-.281-.07-.079-.16-.131-.26-.148-.24-.048-.35.156-.46.332-.54.825.07 1.815-.42 2.549-.01.45.08.734.47.771zm-4.02-.386c.08.327.4.204.62.193.83-.043 2.07-1.312 2.09-2.142 0-.284 0-.6-.39-.691-.39-.091-.58.097-.66.461-.18.755-.95 1.007-1.42 1.504-.11.079-.19.187-.23.311-.04.124-.05.259-.01.386zm-18-27.441c-.46-1.472-.18-2.966-.19-4.449v-.712c0-.236-.08-.584-.41-.594-.33-.011-.43.273-.43.572v2.303c-.07.986 0 1.977.21 2.945.09.299.23.498.53.476.31-.021.35-.332.29-.519zm6.63-21.369c-.65.714-1.3 1.419-1.96 2.115-.1.074-.16.177-.19.292-.03.116-.02.237.03.346.05.101.18.171.27.262.33-.134.63-.315.91-.536.53-.605 1.07-1.21 1.6-1.783.2-.192.54-.535.17-.883-.38-.348-.58-.064-.83.209zm.53-2.141c-.08-.093-.19-.156-.31-.176-.13-.021-.25.002-.36.063-.56.299-1.1.641-1.61 1.023-.11.086-.31.294-.16.535.07.104.17.185.28.233.11.049.24.063.36.04.8-.128 1.22-.803 1.8-1.236.09-.054.07-.359-.01-.477zm-1.12 8.336c-.34.072-.66.245-.9.499-.24.253-.4.574-.46.92 0 .1.02.199.06.289.16.273.54.439.68.215.39-.611 1.44-.536 1.54-1.307.07-.557-.63-.375-.92-.616zm-.21-1.445c.36-.156.65-.332.48-.745-.2-.535-.64-.149-.87-.075-1.41.545-2.66 1.453-3.61 2.635-.11.099-.19.235-.21.383-.02.147.01.298.09.425.02.054.06.099.11.132.05.032.11.05.17.05.36-.145.69-.368.96-.653.77-.935 1.76-1.676 2.87-2.163zm-37.04 20.207c.13.209.21.412.41.455.43.053.53-.214.43-.428-.43-.889-.63-1.917-1.51-2.538-.17-.124-.42-.391-.7-.075-.27.316 0 .535.14.615.68.493.81 1.318 1.22 1.976zm-.39 2.714c.43.895.77 1.858 1.72 2.399.09.037.17.063.26.075.35-.048.35-.198.21-.423-.47-.771-.92-1.553-1.4-2.318-.12-.204-.37-.129-.57-.113-.05-.003-.1.007-.14.028-.04.022-.07.054-.1.094-.02.04-.03.086-.03.132 0 .047.01.092.04.132zm-.58-7.03c.18.354.57.482.93.659.38-.032.33-.348.2-.498-.81-.916-.98-2.099-1.41-3.17-.05-.163-.16-.302-.31-.394-.14-.091-.31-.13-.48-.109-.36.08-.34.535-.22.787.38.926.82 1.815 1.27 2.731zm-.48-7.978c.4 1.243.53 2.619 1.95 3.577-.19-1.51-.88-2.677-1.25-3.946-.02-.041-.04-.079-.07-.109-.03-.03-.07-.053-.11-.066-.05-.014-.09-.018-.13-.011-.05.006-.09.022-.12.047-.2.123-.36.3-.29.514zm1.24-2.677c.11.289.07.68.48.643.4-.038.41-.402.34-.878-.4-.921.1-1.874.4-2.86.08-.262.25-.615-.25-.722-.07-.019-.15-.022-.23-.007-.07.015-.14.046-.21.091-.06.045-.11.104-.15.172-.04.067-.06.143-.07.22-.24 1.082-.75 2.153-.34 3.325zm.72 8.032c-.07.384-.06.78.03 1.161.09.38.27.737.51 1.045.08.117.19.305.4.208.08-.031.15-.091.19-.169.04-.078.05-.168.03-.254-.23-.738-.25-1.558-1.18-2.029zm.92-4.792.93 2.205c.08.193.19.386.43.354.25-.032.21-.273.17-.402-.35-1.194-.5-2.479-1.54-3.432-.4.466-.17.846 0 1.237zm1.53 4.99c-.08.094-.15.194-.21.3.26.372.5.762.7 1.167.36.835 1.02 1.504 1.28 2.399.08.294.43.669.8.476.38-.193-.04-.535-.13-.744-.4-.926-.87-1.815-1.29-2.731-.17-.334-.41-.63-.71-.867-.02-.039-.05-.072-.09-.096-.04-.023-.08-.038-.13-.041-.04-.004-.09.003-.13.02-.04.018-.08.045-.11.079zm3.6 5.354c-.01.239.03.479.13.696.59.958 1.29 1.84 2.09 2.629.19.193.44.311.64.112.21-.198-.07-.348-.18-.492-.7-.866-1.27-1.827-1.69-2.854-.05-.163-.15-.308-.28-.418-.13-.111-.29-.183-.46-.208-.41-.049-.21.332-.27.519zm1.53 5.751c-.43-.247-.64.171-.96.385.13.166.18.3.29.364.75.411 1.45.892 2.11 1.435.15.145.3.091.45-.037.15-.129.04-.306-.04-.429-.46-.728-1.11-1.325-1.87-1.735zm-3.93 1.499c-.13-.145-.28-.322-.54-.15-.1.06-.18.157-.22.272-.03.115-.02.239.03.349.04.202.15.387.29.535 1.26.852 2.14 2.142 3.5 2.897l.22-.209c-1.1-1.246-2.2-2.482-3.3-3.71zm.27-3.882c.35.42.74.811 1.17 1.167.18.193.42.321.63.15.22-.171.14-.439-.07-.61-.9-.771-1.33-1.858-2.02-2.774-.17-.241-.38-.535-.76-.423-.17.038-.19.171-.18.402.35.637.73 1.386 1.21 2.072zm-.39-13.193c-.09.889.3 1.606.53 2.308.12.326.31.712.73.535.34-.145.17-.498.08-.798-.2-.669-.37-1.349-.53-2.034-.09-.418 0-1.044-.6-.964-.6.08-.12.669-.23.937zm1.6 5.311c.77.397.98 1.275 1.8 1.917-.15-1.13-.36-2.008-1.27-2.565-.22-.133-.48-.251-.63 0-.1.172-.17.493.11.632zm1.44-3.33c.09.396-.23 1.392.62 1.199.76-.171.14-1.012.05-1.402-.24-1.023-.15-2.228-1.38-3.181-.07 1.328.48 2.324.71 3.368zm.98 3.545c-.06.027-.11.066-.16.114-.04.049-.07.106-.09.168-.02.062-.03.127-.02.192 0 .065.02.127.05.184.27.61 2.53 3.213 3.11 3.491-.67-1.82-1.5-3.154-2.9-4.166zm1.67-.911c.63.878.67 2.094 1.77 2.736-.1-1.067-.45-2.095-1.03-2.998-.01-.056-.04-.109-.07-.155-.03-.046-.07-.084-.12-.112-.05-.029-.11-.046-.17-.051-.05-.005-.11.003-.16.022-.06.019-.11.049-.15.089-.04.039-.07.087-.09.14-.02.053-.03.11-.03.167.01.057.02.112.05.162zm.43-16.534c.54.075.3-.401.42-.632.33-.626.68-1.242 1.04-1.847.19-.316.36-.648-.05-.878-.41-.23-.49.166-.64.418-.44.701-.91 1.386-1.36 2.077.13.407.12.787.59.846zm-1.07 4.953c-.06.444.06.535.28.659.34.166.4-.038.54-.247.53-.835.83-1.826 1.6-2.532.19-.172.1-.45-.11-.627-.05-.046-.1-.082-.15-.108-.06-.025-.12-.038-.18-.038-.07 0-.13.013-.18.038-.06.026-.11.062-.15.108-.68.824-1.23 1.745-1.63 2.731zm2.22.98c-.24.702-.57 1.369-.98 1.986-.1.145-.23.257-.21.413 0 .11.03.219.09.308.07.089.16.154.27.184.09.038.2.041.3.01.1-.031.18-.095.23-.181.44-.814 1.1-1.532 1.18-2.506.03-.327 0-.643-.37-.755-.46-.177-.4.273-.49.525zm-.31 5.145c-.2-.401-.42-.444-.69-.348-.41.145-.06.396 0 .536.61 1.22.73 2.639 1.6 3.748.12.144.07.465.35.364.38 0 .25-.161.18-.311-.57-1.285-.77-2.714-1.43-4.005zm1.32 6.238c-.06.021-.13.057-.18.106-.05.048-.09.107-.11.173-.02.065-.03.135-.03.205.01.069.03.137.07.196.76 1.344 1.68 2.589 2.75 3.705.16.124.34.216.53.268.29.027.45-.048.54-.209.08-.161-.1-.3-.22-.396-1.25-1.012-1.8-2.511-2.74-3.748-.15-.246-.26-.471-.59-.316zm.19 4.439 3.62 3.303c.12.113.27.289.43.134.07-.071.11-.167.11-.268 0-.1-.04-.196-.11-.267-.43-.536-.96-.959-1.41-1.489-.64-.664-1.34-1.283-2.07-1.852-.09-.073-.2-.121-.32-.138-.12-.016-.24-.002-.35.041-.06 0-.1.14-.16.225.1.091.18.209.28.295zm-.08 3.394v.311c.05.316 2.14 2.259 2.48 2.259.13.015.27-.015.39-.085.11-.097 0-.236-.07-.348-.54-.675-1.07-1.371-1.68-2.019-.09-.142-.23-.25-.38-.308-.16-.058-.34-.063-.5-.013-.08.051-.16.114-.23.187zm3.58-7.678c-.46-1.215-.53-2.548-1.18-3.71-.1-.182-.31-.471-.57-.343-.18.086-.24.386-.33.536.41 1.236.6 2.473 1.27 3.544.08.113.18.204.31.26.12.057.26.078.39.061.07-.021.16-.267.12-.364zm-2.35-5.793c.28.166.53-.086.7-.289.17-.204.36-.3.4-.573.13-.921.29-1.837.41-2.758 0-.219.16-.572-.32-.642-.53.075-.67.535-.7.958-.07.868-.07 1.719-.61 2.49-.08.127-.11.28-.09.429.03.148.11.281.24.369zm.43-6.468c.22.161.31-.038.43-.134.93-.798 1.19-1.933 1.49-3.025.1-.353-.21-.589-.49-.691-.1-.037-.48.263-.49.418-.09.944-.44 1.843-1.03 2.591-.04.081-.07.17-.08.263 0 .283.03.423.19.562zm1.79-7.389c1.11-.396 1.8-1.306 2.62-2.045.17-.15.08-.445-.29-.477-.53-.048-2.78 1.606-2.81 2.142.05.241.09.509.49.364zm.59 8.952c.04.014.08.019.13.015.04-.003.08-.015.12-.034.03-.02.07-.046.09-.079.03-.032.05-.07.06-.11.39-1.071 1.16-1.949 1.65-2.972.07-.15.06-.327-.18-.535-.99.904-1.92 1.831-2.1 3.25 0 .155-.06.412.25.455zm1.88 10.008c-.2-.654-.81-1.264-.05-1.992.2-.188.11-.734.04-1.071-.2-.78-.35-1.572-.44-2.372.01-.137-.03-.271-.11-.384-.08-.112-.19-.195-.32-.237-.19-.048-.36 0-.37.235-.06 1.028.19 2.094-.49 2.94.47 1.537.72 3.025 1.71 4.23.11.128.21.391.48.225.26-.166 0-.295 0-.445 0-.444-.34-.744-.45-1.129zm.39 4.444c-.36.171.11.739.25 1.113.14.375.25.616.37.921.07.188.14.391.43.332.08-.009.15-.034.21-.073.07-.039.13-.092.17-.154.04-.062.07-.133.08-.207.02-.074.02-.151 0-.224-.09-.319-.23-.623-.4-.905-.27-.434-.56-1.06-1.11-.803zm2.04-11.721c.18-.535.04-.932-.4-1.039-.53-.123-.5.375-.56.761-.1.583-.27 1.156-.4 1.649.09.209.19.332.19.455 0 .418.14.878.53.857.54-.033.33-.589.31-.911-.01-.606.1-1.209.33-1.772zm-1.42-4.819c.07.042.15.071.22.083.08.013.16.01.24-.009.07-.019.15-.054.21-.101.06-.048.11-.108.15-.176.49-.798.77-1.665 1.61-2.313.36-.279.42-1.317.7-1.987.18-.423-.17-.326-.41-.369-.08 0-.25 0-.27.069-.29.895-1.45 1.227-1.56 2.239 0 .317-.07.631-.22.912-.15.28-.36.519-.63.694-.08.05-.14.118-.19.199-.04.081-.07.172-.07.265-.01.093.01.186.05.27.04.084.1.157.17.214zm1.54 11.614c-.02.115-.02.232 0 .348-.05.459.01.922.15 1.359.15.437.39.839.7 1.179.18.214.44.439.7.241.27-.199.12-.482-.11-.68-.59-.536-.61-1.237-.6-1.949v-.407c0-.461-.08-1.141-.54-1.141-.65.016-.16.707-.3 1.05zm8.08-11.892c.19.385.49.332.88.144.86-.491 1.64-1.126 2.3-1.879.05-.036.09-.084.12-.139.02-.055.04-.115.04-.177 0-.061-.02-.122-.04-.177-.03-.055-.07-.103-.12-.139-.93-.535-.29-.862.08-1.29.41-.371.87-.678 1.36-.91.16-.106.28-.257.35-.435.07-.177.08-.372.03-.556 0-.198-.1-.321-.46-.252-.49.217-.93.51-1.32.868-.46.535-1.02.974-1.47 1.515-.32.386-.63.734-.25 1.21.26.337 0 .477-.2.675-.3.282-.65.5-1.04.642-.08.036-.16.091-.22.159s-.1.149-.13.237c-.02.088-.03.18-.01.27.01.089.05.175.1.25zm.25 4.562c.41.123.49-.284.62-.536.24-.562.6-1.061 1.07-1.461.29-.241.46-.536.13-.868-.33-.332-.65 0-.81.145-.6.535-1.36.996-1.34 2.056-.01.209-.02.578.32.68zm-.12-6.79c.11-.332 0-.615-.66-.535-.6.329-1.09.836-1.4 1.451-.16.375.26.685.63.535.33-.124.62-.316.86-.563.25-.246.44-.541.56-.866zm-.98-2.752c.19-.283.27-.626 0-.824-.27-.198-.5.075-.72.257-.82.696-1.41 1.606-2.39 2.168-.2.107-.25.461-.36.68.14.407.32.723.74.364 1.04-.736 1.96-1.62 2.75-2.623zm-3.43 14.366c.02-.168.01-.34-.05-.499-.06-.159-.16-.301-.29-.411-.14-.107-.1-.455-.41-.322-.05.015-.1.04-.14.074-.03.033-.07.074-.09.121-.02.046-.03.097-.03.148-.01.051 0 .102.02.15l.36 3.288c.04.342.37.481.54.712.06.086.15.146.26.17.1.023.21.009.3-.042.2-.123.15-.343.05-.535-.42-.883-.6-1.859-.53-2.833zm.77 9.937c-.6-.669-.74-1.563-1.25-2.275-.05-.11-.14-.198-.25-.25-.11-.052-.24-.064-.36-.034-.34.102-.14.402-.25.766.48.674 1 1.44 1.56 2.184.07.044.15.071.23.079.08.009.16-.002.24-.031.04-.02.07-.049.09-.084.03-.034.05-.074.05-.116.01-.042.01-.085 0-.126-.01-.042-.03-.08-.06-.113zm-.83-19.088c.22-.299.82-.696.16-1.07-.45-.247-.81.091-1.07.508-.54.948-1.37 1.746-1.68 2.838-.07.194-.11.398-.13.605-.01.229.06.455.19.643.07.133 0 .38.21.406.2.027.35-.305.35-.406.05-1.505 1.19-2.415 1.99-3.524zm-3.29-10.103c.17.503.53.289.84.134.74-.45 1.55-.787 2.4-1.002.06-.011.12-.036.18-.072.05-.036.1-.083.14-.138.04-.055.06-.117.07-.182.02-.065.02-.132 0-.196-.05-.258-.36-.274-.79-.236-.87.196-1.72.47-2.54.819-.15.077-.27.212-.33.376-.05.163-.04.342.04.497zm1.22 2.923c-.32.198-.25.536-.14.841.01.043.03.082.06.114.03.033.07.056.11.069.04.012.08.013.13.003.04-.011.08-.032.11-.063 1.02-.803 2.38-.814 3.5-1.387.15-.075.59-.075.37-.444-.06-.139-.17-.257-.29-.343-.13-.086-.28-.136-.43-.144-1.02.599-2.34.685-3.41 1.36zm4.35.643c.38.385.53-.123.75-.279.6-.374 1.07-.974 1.82-1.119.15-.026.39-.176.39-.273 0-.931.65-.963 1.35-1.071.32-.058.94-.107.81-.701-.12-.493-.6-.364-1.08-.385-.49.085-1.18.048-1.21.931 0 .38-.33.412-.63.536-.78.356-1.49.86-2.08 1.483-.29.262-.38.61-.11.867zm4.63-.364c.04.085.1.159.17.216.08.057.17.096.26.114.09.018.19.013.28-.012.09-.026.17-.073.24-.136.91-.643 1.89-1.216 2.37-2.319.21-.498 0-.578-.25-.722-.43 0-.51.273-.69.46-.54.535-.89 1.28-1.81 1.43-.1.02-.2.062-.29.124-.08.061-.16.141-.21.233-.05.091-.09.193-.1.299-.01.106 0 .212.04.313zm1.35 27.194c-.27-.656-.29-1.39-.04-2.056.1-.225-.1-.391-.3-.466-.2-.075-.4.038-.54.279-.27.428-.05.867-.12 1.071-.05.441-.05.886 0 1.327.07.268.32.595.67.536.07-.022.13-.058.19-.105.05-.047.09-.105.13-.169.03-.065.05-.135.05-.206 0-.072-.01-.143-.03-.211zm-.4-14.569c.03-.134.01-.276-.05-.399-.06-.123-.17-.219-.3-.27-.28-.097-.46.166-.57.348-.29.484-.54.988-.76 1.51-.06.128-.06.273-.01.404.05.131.15.238.27.297.11.043.24.048.35.013.12-.035.22-.107.28-.206.41-.491.68-1.074.8-1.697zm-4.39 15.528c.88.84 1.45 1.981 2.57 2.736.11-.455.18-.664-.15-.991-.63-.598-1.11-1.33-1.42-2.142-.02-.084-.05-.163-.1-.232-.06-.069-.12-.125-.2-.166-.07-.041-.16-.065-.24-.07-.09-.005-.18.009-.26.04-.47.145-.33.701-.16.835zm1.03-3.288c-.9-1.285-1.13-2.902-2.14-4.364-.35 1.628.76 3.845 2.15 4.375zm-2.43-8.342h.27c.41-1.237.25-2.506.14-3.748-.02-.152-.1-.291-.22-.393-.11-.102-.26-.162-.41-.169-.21 0-.35.203-.32.423.18 1.301.37 2.602.55 3.903zm-.57-6.109c.41.032.37-.38.49-.659.13-.556.41-1.067.81-1.483.07-.049.12-.114.17-.19.04-.075.06-.159.07-.245 0-.086-.01-.173-.05-.252-.03-.08-.08-.15-.15-.207-.34-.305-.65.037-.83.268-.44.506-.75 1.11-.91 1.761.01.584-.05.985.41 1.023zm-4.1 24.469c.15.096.39.278.44.187.48-.921 1.14-.107 1.7-.176.25-.032.53-.027.64-.273.41-.879 1.04-1.676 1.01-2.715.06-2.094-1.6-4.171-3.54-4.417-1.03-.129-1.97 0-2.68.813-.43.429-.72.988-.81 1.592-.08.604.03 1.22.32 1.755.67 1.329 1.68 2.453 2.93 3.25zm-2.38.535c.07.059.2.059.32.091.12.033.21-.085.24-.15.03-.094.04-.197.01-.293-.03-.097-.09-.181-.17-.242-1.28-1.075-2.71-1.951-4.25-2.597-.18-.069-.37-.219-.53.032-.17.252 0 .407.16.509 1.46.808 2.98 1.531 4.23 2.666zm-6.71 4.851c.77.573 1.73.118 2.37.589.34-.064.65.075.7-.294.03-.284.02-.509-.38-.573-.81-.123-1.61-.337-2.39-.466-.16 0-.48-.348-.57.08-.05.129-.04.268.01.392.06.124.15.227.27.288zm-.35-6.162c.77.728 1.57 1.429 2.39 2.098.33.268.51-.085.38-.289-.63-.98-1.25-1.991-2.4-2.516l-.2-.102c-.38.225-.46.546-.15.825zm-.27 4.047c.21-.219.03-.385-.09-.535-.56-.59-1.25-1.028-2.03-1.274-.49-.209-.67.31-.47.589.54.696 1.29 1.196 2.14 1.424.09.007.17-.006.25-.038.08-.033.15-.084.21-.15zm-7.39 1.189c1.6.76 2.83 2.142 4.45 2.881.23.107.54.487.8.042.26-.444-.27-.353-.45-.481-1.27-.911-2.58-1.783-3.82-2.726-.3-.156-.61-.296-.93-.417-.2-.129-.31 0-.34.198-.02.108-.01.22.05.316.05.096.14.17.24.208zm-3.25-3.395c.54.418 1.07 1.012 1.85.975.22 0 .54.134.64-.177.09-.31-.11-.476-.37-.642-.84-.536-1.65-1.071-2.48-1.607-.41-.262-.61-.819-1.45-.797.36.925.99 1.718 1.82 2.27zm-4.82-2.816c.85 1.499 1.58 3.079 3.03 4.166.13.096.33.069.53-.14-1.03-1.137-1.89-2.417-2.56-3.801-.15-.229-.37-.404-.63-.498-.15-.059-.51.005-.35.294zm-1.68.059c.07.101.17.176.28.213.12.037.24.034.36-.01.22-.107.1-.358.16-.594-.28-.621-.41-1.355-1.13-1.751-.04-.03-.09-.05-.14-.056-.05-.007-.11-.001-.15.018-.05.018-.1.048-.13.088-.03.039-.06.087-.07.138.04.736.34 1.434.84 1.975zm-1.67-12.085c-.23-.203-.47-.535-.78-.337-.31.198 0 .498.14.766.58 1.348 1.22 2.665 1.94 3.946.04.071.06.151.06.233 0 .081-.02.161-.06.233-1 1.006.38 1.654.4 2.505.23.092.48.157.72.193.14 0 0-.31 0-.407-.16-.399-.29-.813-.38-1.237-.07-1.884-.99-3.496-1.67-5.193-.06-.252-.18-.485-.34-.68zm1.42-6.869c-.15-.819-.29-1.644-.49-2.452-.04-.166-.24-.445-.54-.381-.16.038-.26.209-.22.455.42 1.302.4 2.72.69 4.091.09.829.27 1.645.53 2.436.15.332.31.595.66.461.35-.134.12-.429.04-.675-.44-1.269-.42-2.629-.67-3.935zm1-3.416c-.47 1.167-.34 2.249-.38 3.325 0 .371.12.733.34 1.033.04.049.1.089.16.116.06.028.12.043.18.045.2 0 .17-.188.17-.311-.05-1.11.02-2.223.2-3.319.11-.445-.32-.611-.68-.889zm.4 9.166c-.22.065-.39.209-.3.423.44.82.81 1.674 1.11 2.554.02.043.04.081.07.109.04.029.08.046.12.049.05.002.09-.009.13-.032.04-.023.06-.058.08-.099.4-.675-.21-1.205-.31-1.804-.06-.252-.17-.488-.33-.694-.16-.206-.35-.378-.58-.506zm1.15-14.617c-.21.694-.28 1.421-.22 2.142v1.606c0 .193.08.321.31.321.04.005.08 0 .12-.015.04-.015.08-.039.11-.07.03-.031.05-.068.06-.109.02-.041.02-.085.01-.127.04-1.281.15-2.56.33-3.828 0-.044 0-.088-.02-.129-.01-.041-.04-.078-.07-.108-.03-.031-.07-.054-.11-.067-.04-.014-.08-.018-.13-.012-.1.007-.2.052-.27.125-.08.074-.13.172-.13.276zm2.97-8.229c-.32.152-.6.352-.86.594-.71.51-1.27 1.209-1.6 2.018-.17.386-.17.67.22.841.07.03.15.044.23.041.08-.002.15-.02.23-.054.07-.034.13-.082.18-.141.06-.06.1-.129.12-.205.31-.893.84-1.695 1.54-2.329.05-.054.09-.117.11-.185.02-.068.03-.14.02-.211 0-.072-.02-.141-.06-.205-.03-.063-.08-.119-.13-.164zm1.91 3.748c-.06-.041-.12-.07-.19-.085s-.14-.016-.21-.003c-.07.013-.14.04-.2.079s-.11.089-.15.148c-.6 1.135-1.42 2.179-1.61 3.491-.02.119-.01.244.05.351.06.107.16.188.28.227.35.107.41-.294.43-.439.18-1.205 1.14-2.019 1.57-3.095.1-.251.35-.487.04-.674zm.49 6.96c-.23.659-.62 1.285-.54 2.115-.04.176-.04.36 0 .535.15.311.17.836.66.788.48-.049.39-.498.37-.825-.04-.775.1-1.549.4-2.265.07-.209.17-.578-.16-.717-.14-.045-.3-.031-.44.038-.13.069-.24.187-.29.331zm.88-3.892c.49-.303.87-.758 1.07-1.296.16-.289-.14-.396-.42-.375-.28.021-1.29 1.071-1.16 1.328.07.128.04.562.52.326zm2.59-8.326c-.22-.182-.58-.198-.67-.081-.74.937-1.56 1.837-1.84 2.833-.05.615.24.905.53.974.39.091.43-.284.51-.599.27-.934.75-1.794 1.4-2.517.11-.145.37-.385.08-.626zm1.12 5.477c-.1-.009-.2.002-.29.035-.09.032-.18.084-.25.152-.68 1.109-1.3 2.249-1.31 3.604 1.24-.825 1.55-2.142 2-3.363.04-.15.05-.412-.15-.439zm.29 5.285c-.14.094-.26.202-.37.321-.5.778-.91 1.606-1.24 2.468-.03.066-.04.136-.04.207.01.07.03.139.06.202s.07.119.13.163c.06.044.12.075.19.092.26.097.37-.101.53-.278.73-.696.65-1.719 1.18-2.495.19-.257-.01-.605-.44-.696zm.36 5.354c-.46.032-.23.407-.31.675.2.567.39 1.178.64 1.756.36.798.37 1.697.84 2.452.13.209.23.482.53.375.3-.107.17-.369.11-.535-.4-1.409-.83-2.811-1.24-4.22-.1-.337-.24-.551-.57-.524zm.78-14.992c-.22.278-.46.723-.08.996.29.209.74-.07.91-.3.6-.918 1.4-1.69 2.34-2.259.04-.017.08-.043.11-.077.02-.033.04-.072.05-.114.01-.042.01-.085 0-.127-.01-.041-.04-.079-.07-.111-.13-.182-.31-.257-.69-.219-.19.037-.37.107-.53.209-.76.562-1.45 1.219-2.05 1.954zm8.33-7.325c-.19-.203-.43-.064-.64.107-1.39 1.211-3.11 1.757-4.85 2.26-.3.086-.58.171-.48.535.07.247.31.354.62.15 1.74-.717 3.78-.942 5.28-2.318.06-.041.11-.094.14-.154.03-.061.06-.129.06-.198.01-.07 0-.14-.02-.206-.03-.065-.07-.125-.11-.176zm.79 2.581c-.14-.193-.31-.535-.64-.332-.99.653-1.96 1.333-2.93 2.024-.08.059-.07.252-.1.38.13.611.54.466.86.268.89-.535 1.75-1.157 2.61-1.756.17-.134.36-.37.2-.584zm1.16 2.388c-.03-.082-.08-.156-.15-.216-.07-.06-.14-.105-.23-.132-.08-.027-.17-.035-.26-.024-.09.011-.17.041-.25.088-.44.172-.86.421-1.22.734-.9.809-1.68 1.748-2.31 2.784-.12.177-.18.393-.17.611.04.16-.14.471.25.535.16.019.32-.019.45-.107.13-.089.23-.221.28-.375.31-1.071 1.16-1.692 1.9-2.42.31-.373.73-.641 1.2-.766.43-.112.65-.326.51-.717zm-1.87 7.796c-.18.155-.41.289-.4.61 0 .161.12.22.27.322.1.068.22.098.34.084.12-.014.23-.07.31-.159.82-1.034 2-1.682 2.94-2.586.34-.322.57-.718.22-1.071-.36-.354-.66.053-.93.294-.92.852-1.84 1.671-2.75 2.506zm5.11-9.579c-.45.573-.89 1.13-1.68 1.226-.36.043-.47.161-.46.498.01.338.27.316.53.338 1.54.155 2.59-.836 2.31-2.19.81-.268 1.56.267 2.35.15.41-.059.93.064.92-.536 0-.535-.47-.487-.86-.492-.86.062-1.73-.003-2.57-.193-.11-.032-.27.107-.39.091-.21-.057-.44-.033-.64.065-.19.099-.35.266-.43.47-.14.605.65.193.92.568zm4.14-3.245c-1.02-.111-2.05-.143-3.08-.096-.43 0-.77-.252-1.2-.15-.31.075-.68.064-.67.455 0 .316.33.391.63.38 1.45.026 2.89.169 4.32.429.34-.075.8.348.88-.236.08-.583-.5-.744-.88-.782zm7.13 0c-.07-.208-.12-.497-.47-.428-.63.129-1.26.257-1.89.412-.3.075-.63.252-.53.573.1.322.4-.037.62.032.14.017.28.017.41 0 .48.156.99-.198 1.54-.224.15-.011.39-.091.3-.37zm.67 2.297c-.26-.054-.53-.078-.8-.069-.82 0-1.54-.246-1.5.808 0 .3-.6.364-.95.397-.35.032-.47-.241-.47-.536.02-.096.01-.195-.02-.287-.03-.092-.08-.175-.16-.24-.07-.065-.16-.11-.25-.13-.1-.02-.2-.015-.29.015-.75.107-1.48.278-2.22.38-.1.004-.2.032-.29.08-.09.048-.16.116-.22.198-.06.083-.1.177-.11.276-.02.099-.01.201.02.297.11.471.5.391.92.225.44-.221.93-.313 1.41-.262.18.037.47-.102.54.182.07.283-.17.337-.37.428l-2.32 1.119c-.3.15-.68.337-.49.712.18.375.58.268.92.113.93-.429 1.87-.852 2.79-1.291.42-.198.78-.535 1.31-.289.05.021.1.031.15.028.06-.002.11-.017.15-.043.05-.026.09-.063.12-.106.03-.044.04-.094.05-.147.05-1.606 1.27-.712 1.98-.883.32-.075.76.685.99 0 .24-.685-.42-.857-.91-.98zm3.96-.08c-.26-.264-.56-.473-.9-.612-.34-.14-.7-.206-1.07-.196-.26.128-.81-.279-.85.38-.02.573.46.594.86.642.51.021 1 .19 1.42.488.05.049.11.088.17.113.07.025.14.036.21.032.07-.004.13-.023.2-.055.06-.033.11-.078.15-.133.3-.338-.03-.504-.22-.664zm.41 4.316c-.66-.6-1.65-.873-1.92-1.858-.04-.139-.2-.091-.34 0-.93.492-2.01.348-2.99.648-.29.091-.76-.129-.72.449.03.579.49.316.78.375.15.014.31.014.46 0 .4-.008.79-.053 1.18-.134.25-.12.53-.147.8-.075.26.072.5.238.65.466.37.503 1.2.595 1.68 1.103.16.166.34 0 .43-.128.06-.059.1-.128.13-.203.02-.074.04-.154.03-.233 0-.08-.02-.158-.05-.23-.04-.073-.08-.137-.14-.191zm1.8.203c-.24 0-.5.102-.51.284 0 .115.03.229.09.325.06.097.15.17.26.21.61.175 1.18.484 1.66.905.05.048.11.085.18.106.06.022.14.029.21.02.07-.009.13-.033.19-.07.06-.037.11-.088.15-.147.05-.042.08-.093.1-.15.03-.056.04-.117.03-.178 0-.062-.02-.121-.04-.175-.03-.055-.07-.102-.12-.139-.62-.547-1.4-.896-2.22-1.002zm-.39 6.736c-.04.348.1.594.54.669.21-.052.4-.158.56-.306.16-.147.28-.333.35-.54.12-.348-.14-.578-.54-.594-.11-.018-.22-.011-.33.019-.11.03-.22.083-.3.155-.09.073-.16.163-.21.265-.05.102-.08.213-.08.327zm8.47-6.152c-.45-.469-.97-.863-1.54-1.167-1.4-.6-2.8-1.205-4.14-1.939-.53-.289-.74-.043-.89.268 0 .375.16.535.37.594 1.33.486 2.62 1.075 3.85 1.762.59.311 1.14.708 1.61 1.178.24.209.54.535.78.31.07-.069.12-.15.15-.24.03-.089.05-.185.04-.28 0-.095-.03-.187-.07-.272-.05-.085-.11-.159-.18-.22zm-5.22.535c0 .252.19.493.61.536.5.085.97.276 1.39.562.27.182.49.578.78.16.06-.078.1-.168.12-.263.01-.095.01-.192-.02-.286-.02-.093-.07-.179-.13-.252-.07-.072-.15-.13-.24-.168-.5-.219-1.01-.412-1.54-.578-.6-.027-.97 0-.99.3zm8.94 1.382c0-.691-.58-.707-.98-.68-.47-.14-.82-.081-.84.267-.04.691.66.846 1.11 1.071.33.177.68-.321.69-.648zm-.63 3.828c.22-.455-.2-.664-.58-.91-1.24-.814-2.75-1.044-4.01-1.815-.19-.08-.39-.132-.59-.156-.49-.059-.95.14-1.02.536-.07.396.43.498.8.535.36.038.42.188.62.332.19.145.53.466.68.412 1.37-.535 2.05.686 3.04 1.071.33.15.78.552 1.04.006zm-3.84 5.354c.48-.187.6-.492.46-.851-.14-.359-.54-.364-.85-.171-.58.348-1.22.187-1.83.166-.61-.022-.73.24-.88.765 1.08.15 2.04.536 3.09.15zm-3.48-5.193c.82 1.547 2.47 1.766 3.9 2.35.4.212.78.482 1.11.803.11-.085.3-.155.3-.241.03-.188-.02-.38-.13-.535-.45-.493-1.02-.861-1.65-1.071-1.02-.246-1.97-.385-2.47-1.606-.27-.68-1.36-.959-2.14-1.253-.38-.139-.53.182-.36.471.18.334.48.595.83.739.2.112.5.203.59.375zm-.6 3.362c.26-.187.5-.428.29-.771-.2-.343-.53-.337-.88-.118-.44.326-.97.495-1.52.482-.27 0-.71.091-.69.573 0 .348.16.685.53.594.75-.16 1.59-.225 2.26-.728zm-3.98 6.077c.36.412.66 0 .92-.219.57-.504 1.02-1.13 1.32-1.832-.02-.164-.08-.321-.18-.45-.11-.129-.25-.224-.41-.272-.26-.086-.37.192-.49.412-.24.473-.6.88-1.03 1.183-.11.051-.21.129-.28.228-.08.099-.12.215-.14.337-.01.121.01.245.05.358.05.113.13.212.22.287zm-.95-1.89c.05-.028.1-.067.14-.115.03-.047.06-.102.08-.16.02-.059.02-.12.01-.181-.01-.06-.03-.118-.06-.17-.03-.094-.09-.173-.18-.228-.08-.054-.18-.079-.28-.072-.32 0-3.84 2.779-3.89 3.057-.05.13-.05.271-.02.403.04.133.12.25.23.336.24.177.36 0 .53-.128 1.2-.798 2.15-1.944 3.42-2.71zm-4.38 12.904c.31.07.33-.214.39-.45.4-1.371.83-2.736 1.23-4.107.09-.299.09-.712-.27-.776-.15-.003-.31.05-.43.148-.12.098-.2.235-.23.387-.42 1.372-.72 2.774-.92 4.193-.04.268-.06.573.22.637zm-.05-7.464c0-.375.15-1.023-.4-.958-.55.064-.67.739-.64 1.36.13.23-.29.808.36.797.81.016.68-.653.67-1.167zm2.85 28.672c.33-.289.61-.824.11-1.247-.5-.423-.77-.139-1.07.348-.6.937-2.19 1.038-3.11.273-.24-.198-.45-.429-.67-.653-.33-.338-.74-.466-1.07-.113-.08.08-.14.177-.17.283-.04.107-.05.22-.03.331.01.111.05.217.11.311.07.093.15.17.25.226 1.02.461 2.81 1.997 5.65.241z" class="astro-SCINLFMN"/><path fill="#fff" d="M69.709995 69.893397c-1.28-.15-.78 1.328 0 1.944-5.39-1.965-12.32-.268-14.63 5.552-.77 1.949-1.81 6.329-.32 8.203 1.39 1.751 6.1 2.677 8.18 2.859 5.32.498 10.81 3.084 16.42 2.281 2.54-.356 5.04-.878 7.5-1.563 1.53-.434 6.43-1.071 6.79-2.854.31-1.478-1.3-2.045-2.14-2.816-.85-.771-1.33-1.714-2.32-2.372-1.92-1.285-4.21-2.212-6.25-3.384-4.15-2.388-8-5.322-12.32-7.496-.33.075-.05.198-.18.38z" class="astro-SCINLFMN"/><path fill="#cac5b8" d="M53.959995 71.537397c-.41-1.135-1.3-1.815-1.15-3.052 1.05.782 1.24 1.735 1.15 3.052z" class="astro-SCINLFMN"/><path fill="url(#a)" d="M55.619995 108.4124c-1.84-.377-3.62-1.004-5.3-1.863-.07-.022-.14-.063-.2-.118-.06-.056-.1-.125-.12-.2-.03-.076-.03-.157-.02-.235.02-.078.05-.151.1-.213.31-.495.42-1.086.32-1.66-.06-.594.23-.739.74-.594.77.161 1.56.219 2.35.171.28.015.56.015.84 0 1.53-.16 2.15.562 2.4 2.249 0 .605-.07 1.208-.2 1.799-.03.637-.41.75-.91.664z" class="astro-SCINLFMN"/><path fill="url(#b)" d="M48.029995 105.3654c-.54-.449-1.11-.797-1.66-1.194-.9-.593-1.7-1.329-2.36-2.179.17-.093.37-.135.57-.122.2.013.39.081.55.197.97.566 2.04.949 3.15 1.13 1.02.187 1.29.701 1.07 1.719-.19.749-.72.963-1.32.449z" class="astro-SCINLFMN"/><path fill="url(#c)" d="M62.409995 108.8464c-1.39-.088-2.79-.104-4.19-.048-1.16.117-1.03-.466-.8-1.071.39-.824.48-1.763.24-2.645-.4-1.237-.41-1.376.85-1.489 1.16-.107 2.49-.76 3.52.327 1.04 1.087 1.68 2.2 1.69 2.998-.05 2.115.17 1.928-1.31 1.928z" class="astro-SCINLFMN"/><path fill="url(#d)" d="M70.569995 106.9664c.18.536.07.879-.46 1.002-1.4.321-2.75.835-4.23.872-.43-.123-1.2.338-1.13-.674.07-.859-.06-1.721-.36-2.527s-.78-1.535-1.4-2.137c-.17-.182-.53-.594-.23-.771.95-.535 1.97-1.001 2.98-1.478.06-.032.2.038.27.097 1.98 1.52 3.73 3.212 4.56 5.616z" class="astro-SCINLFMN"/><path fill="url(#e)" d="M85.739995 90.641397c0-.15.17-.262.36-.3 1.92-.492 3.81-1.096 5.66-1.809.09 1.879-.81 3.276-1.9 4.599-.39.471-.66.166-.93-.091-.81-.856-1.79-1.541-2.87-2.013-.07-.036-.15-.089-.2-.156-.06-.067-.1-.145-.12-.23z" class="astro-SCINLFMN"/><path fill="url(#f)" d="M67.959995 101.5754c-1.12-1.071-1.02-1.018-.28-2.297003.59-1.023 1.03-1.805 2.41-.943.69.429 1.77.793 1.92 1.382.29 1.183003 1.31 1.445003 1.99 2.141003.97.959 1.88 1.933 2.14 3.277-.06.247.07.477-.23.653-1.15.664-2.24 1.393-3.6 1.671-.43.091-.49-.155-.53-.337-.68-2.26-2.15-3.968-3.82-5.547z" class="astro-SCINLFMN"/><path fill="url(#g)" d="M79.939995 92.596397c-.23-.054-.58-.108-.61-.456-.03-.439.4-.449.65-.535 1.07-.295 2.2-.214 3.18-.632.53-.043 2.95 1.109 3.79 1.772 2.15 1.692 2.15 1.874.24 3.797-.85.846-.97.824-1.68-.086-1.45-1.82-3.17-3.298-5.57-3.86z" class="astro-SCINLFMN"/><path fill="url(#h)" d="M75.469995 100.0494c.45-.257003 1.37-.386003 1.33-1.296003 0-.321-.36-1.023.57-.803.47.112.84-.675 1.39-.177.92.825 1.91 1.606 2.23 2.854003.02.165.11.315.24.419.13.105.29.156.46.143.38 0 .41-.412.37-.728-.16-.734003-.56-1.392003-1.14-1.869003-1.94-1.916-4.35-3.212-6.64-4.626-.6-.307-1.16-.694-1.65-1.151-.07-.092-.11-.197-.14-.307-.02-.111-.02-.225.01-.335.02-.11.07-.214.14-.304.07-.091.15-.166.25-.221.48-.257 1.82 0 2.01.364.2.364.28.99 1.15.701 1.46.536 3.21.391 4.78 1.189 1.57.798 2.55 1.997 3.78 3.025.39.327 1.28.975.61 1.681-.59.611-1.12 1.269-1.73 1.858003-1.61 1.607-3.57 2.726-5.36 4.07-.36.267-.85.332-.99-.049-.45-1.204-1.35-2.088-2.04-3.116-.34-.498-.4-.894.37-1.322z" class="astro-SCINLFMN"/><path fill="#12110d" d="M66.529995 97.339397c-1.24-.262-2.49-.503-3.71-.824-3.16-.83-6.47-.611-9.64-1.376-2.93-.702-5.96-.889-8.9-1.665-3.03-.733-5.92-1.987-8.53-3.706-2.14-1.461-4.16-2.982-5.74-5.102-1.44-1.922-3.34-3.502-4.76-5.494-1.15-1.7-2.05-3.555-2.68-5.509-.71-2.008-.8-4.139-1.11-6.227-.46-3.052-.48-6.126-.84-9.172 0-1.499.31-2.961.44-4.439.21-3.013.88-5.977 1.99-8.786.77-1.853 1.29-3.813 2.44-5.51.15-.225.2-.509.58-.401.14.037-.08.615.32.203.2-.193.29-.535.06-.616-.54-.23-.21-.535-.07-.712.62-.712 1.07-1.558 1.64-2.297 1.07-1.328 2.14-2.677 3.21-3.935.64-.797 1.38-1.502 2.21-2.094 1.85-1.124 3.76-2.142 5.73-3.046 1.13-.577 2.32-1.002 3.56-1.264 2.36-.434 4.67-1.071 7.13-1.167 2.46-.097 5.05-.091 7.56-.118 2.67.041 5.31.386 7.9 1.028 1 .225 2.05.273 3.03.535 2.54.787 5.01 1.764 7.39 2.924 2.92 1.338 5.85 2.645 8.48 4.492 2.5 1.756 5.19 3.293 7.14 5.702.76.937 1.78 1.725 2.35 2.753 1.83 3.346 3.58 6.73 4.68 10.408.98 3.422 1.59 6.941 1.810005 10.495.09 1.269-.260005 2.495-.250005 3.748 0 .471-.13 3.212-.2 4.176-.05 1.376-.23 2.744-.54 4.085-.88 3.154-1.57 6.361-2.97 9.365-.14.311-.41.685.22 1.071.14.095.25.23.32.387.06.158.08.331.05.499-.03.167-.12.321-.24.443-.12.121-.27.205-.44.24-1.58.455-3.33.755-2.9 3.03 0 .069-.02.137-.05.198-.85 2.255-2.27 4.225-3.69 6.12-1.42 1.896-3.39 3.561-5.11 5.355003-1.16 1.193-2.47 2.241-3.88 3.121-1.66 1.034-3.25 2.174-5.01 3.074-1.78.864-3.64 1.551-5.55 2.05-1.39.439-2.84.621-4.29.536-1.19-.055-2.38-.034-3.56.064-1.97.064-3.91-.225-5.89-.225-.69.016-1.38-.091-2.03-.316-2.97-1.124-5.85-2.372-8.39-4.283-.67-.432-1.32-.9-1.95-1.403-.98-.937-1.71-2.104-2.8-2.972-.4-.316-.85-.931003-.54-1.408003.31-.476.98-.166 1.38.107 1 .691003 2.21.873003 3.27 1.424003.67.348 1.39.878 2.15.895 1.38.032 2.67.471 4.06.535 2.35.075 4.67.337 7.04 0 2.65-.338 5.17-1.334 7.34-2.897003.42-.375.78-.818 1.07-1.312.38-.465.22-.68-.29-.787zm23.32-4.181c1.07-1.323 1.99-2.715 1.91-4.6-1.85.714-3.75 1.318-5.67 1.81-.18.043-.37.15-.35.3.02.083.06.16.11.226.06.066.13.118.2.154 1.08.472 2.06 1.157 2.87 2.013.28.257.55.563.93.097zm-2.68 3.4c1.94-1.928 1.93-2.105-.23-3.797-.85-.663-3.28-1.815-3.8-1.772-.98.418-2.14.338-3.18.632-.24.07-.68.086-.64.535.02.348.38.402.61.456 2.4.562 4.11 2.04 5.56 3.881.74.889.85.911 1.7.038zm-9.04 8.004003c1.79-1.349 3.75-2.489 5.35-4.069.61-.594003 1.15-1.253003 1.73-1.858003.68-.707-.21-1.354-.6-1.681-1.23-1.028-2.26-2.265-3.78-3.025-1.52-.761-3.32-.664-4.79-1.189-.87.289-.93-.321-1.14-.701-.22-.381-1.54-.627-2.02-.364-.09.055-.18.13-.25.22-.06.091-.11.194-.14.305-.02.11-.02.224 0 .335.02.11.07.215.13.307.5.456 1.05.844 1.65 1.151 2.3 1.424 4.7 2.709 6.64 4.626.58.476.99 1.135 1.14 1.869003.05.316 0 .701-.37.728-.16.012-.33-.039-.46-.143-.13-.104-.21-.254-.24-.419-.31-1.237003-1.3-2.024003-2.22-2.854003-.54-.498-.92.289-1.39.177-.93-.22-.58.481-.57.803.03.91-.89 1.038-1.34 1.295003-.77.434-.71.83-.37 1.334.69 1.033 1.61 1.916 2.04 3.116.14.348.64.289 1 .037zm-5.79 2.892c1.35-.279 2.45-1.007 3.6-1.671.3-.177.17-.401.23-.653-.29-1.344-1.2-2.319-2.14-3.277-.68-.669-1.71-.937-2-2.142003-.14-.594-1.22-.953-1.91-1.381-1.39-.862-1.82-.08-2.41.942-.74 1.275003-.84 1.248003.27 2.297003 1.68 1.58 3.14 3.288 3.83 5.521.03.192.09.433.52.342zm-1.35-16.015003c-.41-.295-.83-.568-1.36-.236l-.15.097c.14.251.3.332.48.31.37-.048.57.761 1.03.188.08-.129.14-.279 0-.375zm-22.7 11.779003c-1.11-.181-2.17-.564-3.15-1.129-.16-.116-.35-.184-.55-.198-.2-.013-.4.029-.57.123.66.849 1.46 1.585 2.36 2.179.54.396 1.14.744 1.66 1.194.53.45 1.14.3 1.31-.45.22-1.039-.04-1.553-1.06-1.74zm8.45 2.747c-.24-1.686-.87-2.409-2.4-2.249-.28.015-.56.015-.84 0-.79.048-1.58-.009-2.35-.171-.51-.145-.8 0-.74.594.1.574-.01 1.165-.32 1.66-.05.062-.08.135-.1.213-.01.078-.01.159.02.235.02.075.06.144.12.2.06.055.13.096.2.118 1.68.859 3.46 1.486 5.3 1.863.5.091.88 0 .92-.664.12-.597.19-1.205.19-1.815zm1.77-2.35c-1.26.112-1.25.251-.85 1.488.24.882.15 1.821-.24 2.645-.23.578-.36 1.162.8 1.071 1.4-.056 2.8-.04 4.19.048 1.48 0 1.26.209 1.3-1.901 0-.797-.71-1.975-1.69-2.998-.98-1.023-2.35-.477-3.51-.369zm7.5-2.249c-.08-.059-.22-.129-.28-.097-1 .472-2.02.916-2.98 1.478-.3.177.07.589.24.771.61.602 1.09 1.331 1.39 2.137.31.806.43 1.668.36 2.527-.07 1.012.71.535 1.13.674 1.48-.037 2.84-.535 4.24-.872.53-.123.64-.455.45-1.002-.82-2.42-2.57-4.112-4.55-5.632zm5.03-11.351003c2.02.38 4.06.412 6.08.685.86.086 1.73.035 2.57-.15 2.05-.412 4.07-.948 6.12-1.392.58-.123.69-.278.57-.883-.26-1.178-.28-2.394-.71-3.54-.05-.111-.05-.238-.01-.354.03-.116.12-.213.22-.272.38-.236.33.198.5.305.79.536.53 1.414.71 2.142.6 2.779.04 2.5 2.68 1.28.58-.274 1.23-.402 1.78-.734.22-.1.43-.213.64-.337.15-.118-.35-3.004-.54-3.111-1.38-.809-2.79-1.564-4.13-2.426-2.2-1.413-4.52-2.629-6.67-4.122-1.78-1.243-3.75-2.239-5.62-3.352-.79-.466-1.46-1.071-2.23-1.574-.57-.364-1.02-.782-1.75-.67-.27.043-.31-.166-.45-.321-.26-.305-.45-.632-1.07-.535-.62.096-1.21-1.296-1-1.976.16-.536.37-1.023 0-1.537-.16-.203-.33-.369-.61-.294-.29.075-.19.321-.21.508.03.439-.04.877-.18 1.291-.04.125-.11.239-.2.33-.1.091-.21.157-.34.19-.13.033-.26.034-.39.001s-.24-.098-.34-.189c-.77-.557-1.33-1.366-1.58-2.289s-.18-1.903.21-2.776c.22-.457.58-.823 1.04-1.034.46-.212.98-.255 1.46-.123 1.23.301 2.38.875 3.35 1.681-.62-1.247-1.09-2.56-1.41-3.914-.17-1.421-.2-2.856-.09-4.283.05-2.019.98-3.7 2.07-5.354.81-1.216 2.15-1.81 3.14-2.758.65-.609 1.43-1.072 2.28-1.358.84-.285 1.74-.386 2.63-.296.26 0 .61.08.59-.359-.07-1.248 1.01-.964 1.6-1.033 1.07-.118 2.1.535 2.15 1.301-.02.255.06.507.21.71.16.204.38.345.63.398 1.53.517 2.96 1.292 4.22 2.292 1.44 1.022 2.43 2.554 2.78 4.283.03.198.13.498-.19.616-.31.118-.43-.129-.63-.252-.47-.273-.54-.803-.73-1.194-.85-1.96-2.46-3.041-4.31-3.962-2.01-.961-4.2-1.499-6.43-1.58-1.49-.09-2.96.4-4.1 1.366-1.37 1.071-2.97 1.933-3.67 3.7-.44 1.124-.97 2.184-1.04 3.426-.1 2.083-.35 4.177.48 6.174.41.831.61 1.751.58 2.677-.2-.123-.38-.337-.5-.3-.24.075-.15.364-.1.536.27 1.117.27 2.283 0 3.4-.22 1.017.78 1.376 1.37 1.847 1.52 1.228 3.11 2.372 4.76 3.427 2.04 1.29 4.18 2.414 6.24 3.662 2.21 1.338 4.34 2.822 6.61 4.069 1.21.669 2.5 1.216 3.69 1.949.04.037.1.061.16.068.06.007.12-.002.18-.027.05-.025.1-.064.13-.114.04-.049.06-.108.06-.168.09-.535.84-1.001.06-1.692-.29-.251-.18-1.071-.06-1.606.15-.868.22-1.749.19-2.629 0-.182-.1-.466.19-.503.29-.038.35.219.45.449.28.628.33 1.331.15 1.992-.13.667-.18 1.347-.14 2.024.27-.072.51-.219.69-.424.18-.206.3-.46.35-.732.67-2.174 1.35-4.337 1.92-6.543.38-1.484.3-3.009.61-4.493.48-2.313-.03-4.674.39-7.003.03-.707-.05-1.414-.25-2.094 0-.032 0-.433-.37-.23-.78.45-.85-.043-.83-.632.01-.589 0-1.07 0-1.643 0-.354-.04-.696.53-.659.27 0 .33-.096.25-.38-.54-1.922-.77-3.936-1.81-6.029.03 1.173.41 2.024.45 2.918.03.894-.78 1.537-.43 2.383.25.74.23 1.543-.04 2.275-.08.3-.1.755-.58.68-.6-.096-.31-.487-.27-.851.07-.712 0-1.435.04-2.142.06-.867-.12-1.713.32-2.623.33-.675-.16-1.607-.47-2.404-.12-.279-.19-.579-.33-.846-.14-.268-.24-.413 0-.622.25-.208.54-.117.92.322-.28-1.027-.7-2.012-1.24-2.929-.17-.305-.46-.241-.8-.22-1.03.065-1.48-.631-.97-1.493.12-.181.19-.391.2-.607 0-.217-.05-.431-.16-.62-1.55-3.304-4.05-6.066-7.19-7.929-.67-.407-1.24-.98-1.9-1.403-.26-.166-.73-.616-.91.187-.08.343-.54.273-.7.118-.86-.851-2.27-1.226-2.47-2.677 0-.107-.16-.236-.28-.295-1.46-.712-2.93-1.408-4.4-2.141-.22-.107-.45-.3-.66-.097-.22.204.09.423.15.621.07.199.29.466.08.648-.22.182-.42-.117-.58-.262-.6-.46-1.31-.747-2.07-.83-.34-.07-.75.134-.84-.38-.12-.653.45-.423.75-.536.14-.071.27-.155.4-.251-1.52-.852-3.16-1.441-4.88-1.74-1.86-.429-3.74-.771-5.62-1.178-.65-.139-1.33.064-1.95-.252-.09-.027-.18-.019-.26.022-.08.041-.14.112-.17.198-.34 1.392-1.49.567-2.25.771-.1 0-.33-.075-.34-.145-.28-1.665-1.57-.798-2.44-.905-1.45-.14-2.9.176-4.16.905-.15.096-.32.16-.49.188-.18.028-.35.019-.53-.025-.17-.044-.33-.123-.47-.233-.13-.109-.25-.245-.33-.401-.25-.461-.71-.262-1.03-.22-1.19.161-2.43 0-3.13 1.505-.42.878-1.74 1.114-2.79 1.28-.34.053-.4-.402-.25-.755.07-.166.36-.338.15-.536s-.44-.048-.66.091c-.38.234-.77.449-1.17.643-.31.155-.37.257-.16.599.36.595.23 1.012-.61 1.071-.51.044-1 .195-1.45.444-.45.249-.84.591-1.15 1.002-.04.053-.05.134-.1.171-.31.247-.58.857-.98.536-.4-.322-.24-.852.18-1.216.07-.039.12-.089.16-.149.04-.059.07-.126.08-.196.01-.071.01-.143 0-.214-.02-.07-.04-.137-.09-.196-.78.536-1.6 1.071-2.32 1.671-1.86 1.606-3.28 3.566-4.74 5.499-1 1.312-1.9 2.702-2.68 4.155-.43.797-.05 1.713-.44 2.559-.32.707-.17.76-.99.83-.09 0-.21.182-.23.294-.54 2.142-1.61 4.129-1.75 6.356-.04.616-.61 1.039-.46 1.745.14.622-.03 1.264.47 1.853.44.509.26.814-.44 1.098-.22.091-.19.241-.22.396-.46 2.227 0 4.428.14 6.645.08 1.129.16 2.259.27 3.383.33 3.374.77 6.742 2.23 9.852 1 2.008 2.31 3.843 3.89 5.435 1.19 1.253 2.36 2.543 3.55 3.791 2.15 2.265 4.56 4.283 7.66 5.434 1.52.615 3.07 1.151 4.64 1.607 1.72.51 3.48.868 5.26 1.071 1.3.101 2.68-.177 3.95.508.43.241.62-.353 1.01-.375.85-.095 1.71-.07 2.56.075.73.166 1.15.102 1.14-.733 0-.728.37-.803 1.02-.616.4.118.89.214.9-.535 0-1.071.34-1.264 1.44-.953.17.062.35.088.53.075-.07-.269-.22-.51-.43-.693-.21-.183-.47-.3-.74-.335-.93-.213-1.85-.487-2.74-.82-.83-.261-1.57-.738-2.15-1.381-.42-.404-.93-.703-1.5-.873-.38-.171-.68-.428-.47-.846.2-.417.64-.439 1.07-.214.57.3 1.18.535 1.76.782 1.83.752 3.73 1.345 5.67 1.772 2.73.728 5.58 1.328 8.44 1.869zm10.23-43.568c.07.326.46.418.83.423.2-.048.53.118.56-.252.04-.578-.54-.364-.83-.535-.29-.172-.62.064-.55.353z" class="astro-SCINLFMN"/><path fill="#12110d" d="M50.619995 66.135397c.7-.814 1.64-.948 2.68-.814 1.92.241 3.61 2.324 3.54 4.417 0 1.039-.6 1.842-1.01 2.715-.12.241-.38.235-.64.273-.54.075-1.22-.739-1.7.176-.05.097-.29-.091-.44-.187-1.24-.791-2.24-1.9-2.9-3.213-.3-.535-.42-1.155-.33-1.763.08-.609.36-1.172.8-1.604zm3.34 5.397c.09-1.317-.1-2.27-1.15-3.052-.15 1.242.74 1.917 1.15 3.057zm11.24-41.062c-.71.166-1.93-.718-1.98.883-.01.052-.03.103-.06.146-.03.044-.06.081-.11.107-.05.026-.1.041-.15.043-.05.003-.1-.007-.15-.028-.54-.236-.89.091-1.31.289-.93.439-1.86.862-2.79 1.29-.34.156-.74.252-.93-.112-.18-.364.2-.535.5-.712l2.32-1.119c.19-.091.41-.198.36-.429-.04-.23-.33-.144-.53-.182-.49-.05-.98.041-1.41.263-.42.16-.81.246-.93-.225-.03-.097-.04-.201-.03-.303.02-.102.06-.2.11-.285.06-.085.14-.155.23-.204.09-.05.19-.077.29-.081.75-.107 1.48-.278 2.23-.38.09-.03.19-.035.28-.014.1.02.19.065.26.129.07.065.13.148.16.24.03.093.04.192.02.287 0 .316.15.584.47.536.32-.048.96-.096.95-.396-.04-1.071.67-.782 1.5-.809.27-.008.53.015.8.07.49.134 1.07.364.87.985-.19.621-.65-.064-.97.011zm-4.99 13.139c.39-.132.76-.343 1.07-.621.17-.198.46-.337.19-.675-.38-.481-.06-.824.25-1.21.45-.535 1.02-.969 1.47-1.515.39-.362.82-.66 1.3-.883.37-.07.44.053.47.251.05.184.03.379-.03.556-.07.178-.19.33-.35.435-.5.232-.96.539-1.36.91-.37.423-1.02.771-.09 1.29.05.037.09.084.12.139.03.055.04.116.04.177 0 .062-.01.123-.04.178-.03.054-.07.102-.12.138-.65.753-1.43 1.389-2.3 1.88-.39.187-.68.241-.88-.145-.05-.074-.08-.159-.1-.247-.01-.088-.01-.179.02-.265.02-.086.07-.166.13-.234.05-.068.13-.122.21-.159zm21.07 7.866c-1 .412-1.6 2.077-.99 2.473.83.536.36.927.11 1.414-.43.671-.83 1.371-1.17 2.093-.05.139-.14.259-.26.338-.12.08-.26.114-.41.096-.37-.958.24-1.687.68-2.399.13-.156.21-.341.25-.537.04-.197.03-.4-.02-.592-.66-1.794-.35-2.849 1.22-3.748.33-.188.82-.536 1.07-.07.24.337.12.685-.48.932zm-18.89 29.218c.35-.359.75-.225 1.07.112.22.225.43.455.66.654.92.771 2.52.664 3.11-.273.31-.488.58-.772 1.08-.349.49.423.21.959-.11 1.248-2.83 1.746-4.62.209-5.68-.241-.1-.058-.18-.138-.24-.232s-.1-.201-.11-.312c-.01-.111 0-.224.04-.329.04-.105.1-.2.18-.278zm-8.87-51.385c.13 0 .28-.123.39-.091.84.19 1.71.255 2.58.192.39 0 .85-.032.85.493 0 .605-.53.482-.91.536-.81.123-1.56-.413-2.36-.15.28 1.36-.77 2.35-2.3 2.19-.24 0-.5.032-.54-.338-.04-.369.1-.455.47-.498.78-.096 1.23-.653 1.67-1.226-.26-.375-1.07.038-.93-.567.08-.209.24-.38.44-.48.2-.1.43-.122.64-.061zm-3.73 29.106c-.27.166-.37-.091-.48-.225-.99-1.21-1.24-2.677-1.71-4.23.68-.846.43-1.917.49-2.94 0-.224.19-.283.37-.235.13.042.24.125.32.237.08.113.12.247.11.384.09.8.24 1.592.44 2.372.07.359.15.905-.04 1.071-.77.733-.15 1.338.05 1.992.11.385.45.685.45 1.113 0 .166.24.321 0 .461zm29.03-23.216c-.47-.471-1.01-.868-1.6-1.178-1.24-.688-2.53-1.277-3.86-1.762-.2-.059-.35-.219-.37-.594.15-.316.37-.536.9-.268 1.33.734 2.73 1.339 4.14 1.938.57.305 1.09.699 1.53 1.168.08.061.13.137.17.222.05.085.07.177.07.272.01.094-.01.188-.04.276-.04.088-.09.169-.15.236-.27.236-.56-.102-.79-.31zm-9.56-.525c-.47-.536-1.31-.6-1.68-1.103-.15-.229-.38-.394-.65-.466-.26-.072-.55-.045-.79.075-.39.081-.79.126-1.19.134-.15.013-.3.013-.46 0-.29-.059-.75.209-.78-.375-.03-.584.43-.359.72-.45.98-.3 2.06-.16 2.99-.648.14-.075.31-.117.34 0 .28.986 1.26 1.264 1.92 1.858.11.113.17.262.17.418 0 .156-.06.305-.17.418-.08.144-.27.305-.42.139zm4.63 4.685c-.16-.289 0-.616.36-.471.8.294 1.89.573 2.14 1.253.5 1.22 1.44 1.36 2.47 1.606.63.209 1.2.578 1.65 1.071.11.154.16.347.13.535 0 .08-.19.155-.31.241-.32-.321-.7-.592-1.1-.803-1.43-.584-3.08-.809-3.9-2.351-.09-.171-.4-.262-.62-.348-.35-.143-.64-.402-.82-.733zm4.66-.182c-.15.059-.47-.252-.68-.413-.22-.16-.34-.321-.63-.332-.28-.01-.87-.08-.79-.535.07-.455.53-.6 1.02-.535.2.023.4.075.59.155 1.26.771 2.77 1.001 4.01 1.815.37.246.8.45.58.91-.27.536-.73.145-1.07 0-.98-.38-1.66-1.579-3.03-1.065zm5.76 3.212c.88.664 1.69 1.435 2.76 1.799 1.08.364 1.27 1.328 1.72 2.142.03.062.05.131.05.201s-.01.14-.03.205c-.03.065-.07.125-.12.174-.05.049-.11.087-.17.111-.36.134-.45-.155-.54-.423-.32-.755-.75-1.537-1.57-1.762-1.07-.294-1.75-1.071-2.59-1.654-.11-.059-.2-.14-.28-.237-.08-.097-.14-.208-.17-.327-.03-.12-.04-.244-.03-.367.02-.123.06-.242.12-.349.29.146.58.309.85.487zm-57.73 22.446c.08.423.21.837.38 1.236 0 .102.15.434 0 .407-.25-.036-.49-.101-.73-.192 0-.852-1.4-1.5-.4-2.506.04-.072.06-.152.06-.233 0-.081-.02-.161-.06-.233-.71-1.281-1.36-2.598-1.94-3.946-.14-.268-.5-.536-.14-.766.35-.23.53.134.79.337.17.198.3.437.36.696.68 1.703 1.6 3.315 1.68 5.2zm58.94-23.377c-.29-.172-.63-.423-.47-.814.15-.391.48-.461.86-.22.07.055.15.086.24.086s.18-.031.25-.086c.21-.203-.05-.369-.13-.535-.29-.577-.78-1.034-1.37-1.291-.07-.024-.13-.062-.18-.111-.05-.05-.09-.11-.11-.176-.02-.066-.03-.136-.02-.206 0-.07.02-.137.06-.197.06-.11.15-.198.26-.248.12-.049.24-.059.36-.025.7.118 2.28 1.959 2.28 2.65-.03 1.226-.96 1.783-2.03 1.173zm-35.89-8.546c-.47.125-.88.393-1.19.766-.75.728-1.61 1.355-1.91 2.42-.04.154-.14.286-.28.375-.13.088-.29.126-.45.107-.38-.048-.2-.364-.24-.535-.02-.218.04-.434.17-.611.62-1.036 1.4-1.975 2.3-2.784.37-.313.78-.562 1.23-.734.07-.047.16-.077.24-.088.09-.011.18-.003.27.024.08.027.16.072.22.132.07.06.12.134.16.216.14.402-.08.616-.52.712zm10.48 2.897c.3-.129.61-.161.63-.535.03-.884.72-.846 1.21-.932.49 0 .97-.107 1.07.385.14.595-.47.643-.8.702-.69.128-1.36.16-1.35 1.071 0 .091-.25.241-.39.273-.76.15-1.21.744-1.82 1.119-.25.155-.37.664-.75.278-.27-.273-.18-.621.11-.894.59-.618 1.3-1.116 2.09-1.467zm-33.54 20.86c-.35.134-.54-.128-.66-.46-.26-.791-.44-1.608-.53-2.436-.29-1.371-.27-2.79-.69-4.091-.04-.246.06-.418.23-.455.28-.065.48.214.53.38.2.808.33 1.606.49 2.452.26 1.307.24 2.677.69 3.936.06.246.33.53-.06.674zm24.68-14.483c.11-1.017 1.27-1.344 1.56-2.238 0-.048.19-.048.27-.07.24.043.59-.053.41.37-.28.669-.33 1.708-.7 1.986-.85.648-1.12 1.515-1.61 2.313-.04.057-.1.103-.17.137-.06.033-.13.053-.21.057-.07.004-.14-.007-.21-.032-.07-.026-.14-.065-.19-.116-.05-.051-.09-.112-.12-.18-.03-.068-.05-.142-.04-.215 0-.074.01-.146.04-.213.03-.068.08-.128.13-.177.27-.177.48-.419.63-.703.15-.284.22-.6.21-.919zm13.89 2.945c-.27.285-.59.508-.96.653-.06-.001-.11-.018-.16-.051-.05-.032-.09-.077-.12-.131-.07-.127-.11-.278-.08-.426.02-.147.09-.283.2-.383.95-1.181 2.2-2.09 3.62-2.634.22-.075.66-.45.87.075.16.412-.12.589-.48.744-1.12.483-2.11 1.22-2.89 2.153zm.69 5.734c-.11-.086-.18-.203-.22-.336-.04-.132-.03-.273.01-.403.05-.278 3.58-3.041 3.9-3.057.09-.007.19.018.28.073.08.054.14.133.18.227.03.052.05.11.06.171 0 .06 0 .121-.02.18-.01.058-.04.113-.08.16-.04.048-.09.087-.14.115-1.27.766-2.22 1.917-3.44 2.742-.16.112-.26.283-.53.128zm-12.5-2.206c-.22-.032-.13-.273-.2-.407-.13-.187-.2-.413-.19-.642.01-.207.06-.411.13-.605.3-1.071 1.12-1.89 1.68-2.838.24-.418.61-.755 1.07-.509.66.364.06.761-.16 1.071-.79 1.108-1.94 2.013-1.96 3.534-.01.08-.08.434-.37.396zm-1.38-11.426c.35.332.12.728-.21 1.071-.95.905-2.15 1.547-2.95 2.586-.08.089-.19.146-.31.16-.12.013-.23-.017-.33-.085-.16-.107-.29-.161-.28-.321 0-.321.23-.455.4-.611.92-.829 1.84-1.654 2.75-2.484.28-.262.62-.632.93-.316zm-8 20.454c.95 1.226 1.49 2.725 2.75 3.748.11.091.31.192.21.396-.1.203-.24.235-.54.209-.19-.053-.37-.144-.53-.268-1.07-1.116-1.99-2.361-2.75-3.705-.03-.06-.06-.127-.06-.196-.01-.07 0-.14.02-.206.03-.065.07-.124.12-.173.05-.048.11-.084.17-.105.32-.166.43.059.61.3zm17.43 2.018c-.21-.967-.28-1.958-.21-2.945v-2.302c0-.295.09-.584.43-.573.34.011.42.3.41.594-.01.295 0 .477 0 .712 0 1.484-.27 2.977.19 4.45.06.187.12.535-.26.535s-.47-.171-.56-.471zm-3.85-31.51c-1.42-.26-2.87-.403-4.32-.428-.3 0-.61-.064-.62-.38 0-.397.35-.381.67-.455.43-.102.76.176 1.19.149 1.03-.046 2.06-.014 3.09.097.39.043.97.171.88.776-.08.605-.56.172-.89.241zm18.02 40.902c.18.353.3.653-.1.872-.09.046-.18.072-.28.074-.1.003-.19-.017-.28-.059-.09-.042-.17-.103-.23-.18s-.1-.167-.12-.263c-.31-.91-1.04-1.73-.71-2.629v-.776c0-.359-.13-.921.34-.937.47-.016.49.535.5.937.06 1.041.36 2.054.88 2.961zm-32.7-38.819c-.31.203-.54.096-.62-.15-.1-.343.19-.428.48-.535 1.74-.509 3.46-1.071 4.85-2.26.21-.177.45-.31.64-.107.04.05.08.11.1.174.02.064.03.133.02.2-.01.068-.03.133-.06.192s-.08.111-.13.151c-1.5 1.393-3.54 1.617-5.28 2.335zm13.55 11.892c-.42.359-.6.037-.74-.364.11-.22.17-.568.36-.68.98-.536 1.57-1.478 2.39-2.169.22-.182.47-.45.72-.257s.18.536 0 .825c-.78 1.009-1.7 1.9-2.73 2.645zm-24.07 30.155c.83.536 1.64 1.071 2.48 1.606.26.166.47.338.37.643-.11.305-.42.166-.64.177-.8.043-1.33-.536-1.85-.975-.82-.55-1.45-1.339-1.8-2.259.83-.011 1.03.54 1.44.808zm33.77-16.229c.03-.152.11-.29.23-.388.12-.098.27-.15.43-.147.36.064.36.476.27.776-.4 1.371-.83 2.736-1.23 4.107-.07.23-.09.535-.39.45-.3-.086-.26-.364-.24-.605.2-1.42.51-2.821.93-4.193zm-1.17-20.673c.18-.192.26-.46.69-.46.23.144.46.219.25.723-.48 1.108-1.46 1.676-2.37 2.318-.07.064-.15.11-.24.136-.09.026-.19.03-.28.012-.09-.017-.18-.056-.26-.114-.07-.057-.13-.131-.17-.216-.04-.101-.05-.209-.04-.315.02-.106.05-.209.1-.3.06-.092.13-.172.22-.233.09-.061.19-.102.29-.121.92-.155 1.27-.894 1.81-1.43zm-21.79-2.896c.03.031.05.069.06.111.01.041.01.085.01.127-.01.042-.03.081-.06.114s-.06.059-.1.076c-.94.569-1.74 1.341-2.35 2.26-.17.235-.61.535-.91.299-.37-.273-.14-.712.08-.995.6-.755 1.29-1.43 2.06-2.008.16-.102.35-.172.54-.209.35-.022.53.043.67.225zm54.37 30.889c.36.075.39.31.39.599-.01 1.365-.19 2.724-.54 4.043-.45-.263-.8-.445-.74-.836.16-1.119.08-2.264.39-3.373.1-.262.1-.514.5-.433zm-6.09-16.079c.1-.067.22-.092.34-.069.12.023.23.092.3.192.75.897 1.29 1.954 1.57 3.089.11.386-.17.728-.53 1.028-.12-.144-.26-.241-.28-.358-.34-1.217-.88-2.365-1.61-3.395-.16-.236.06-.38.21-.487zm-33.71-10.671c.22.374-.22.369-.37.444-1.12.573-2.48.584-3.5 1.387-.03.03-.07.052-.11.063-.04.01-.09.009-.13-.004-.04-.012-.08-.036-.11-.068-.03-.032-.05-.072-.06-.114-.11-.289-.18-.638.14-.841 1.07-.669 2.39-.76 3.42-1.36.15.009.3.06.43.146.13.087.23.207.29.347zm-11.51 20.892c-.67-1.071-.86-2.308-1.27-3.544.09-.15.15-.445.33-.536.26-.134.47.155.57.343.64 1.156.72 2.495 1.18 3.71.04.097-.05.343-.1.348-.14.017-.28-.004-.4-.061-.12-.056-.23-.147-.31-.26zm-10.21 18.922c.31.122.62.261.92.418 1.25.942 2.55 1.815 3.83 2.725.18.129.65.086.45.482-.21.396-.57.064-.8-.043-1.61-.766-2.84-2.142-4.46-2.88-.1-.039-.18-.11-.23-.202-.05-.091-.07-.198-.06-.302.03-.203.14-.326.35-.198zm4.9-22.247c.05.182.1.471-.11.535-.22.065-.39-.166-.54-.374-.47-.755-.48-1.655-.83-2.453-.26-.578-.44-1.188-.65-1.756.09-.268-.15-.642.31-.675.33 0 .47.188.54.493.44 1.435.87 2.838 1.28 4.23zm47.26-11.18c-.31-.23-.07-.476.04-.712.1-.235.32-.219.53-.155.78.268 2.24 2.72 2.14 3.812-1.16-.958-1.67-2.184-2.71-2.945zm-52.29-6.489c-.07.321-.12.691-.51.6-.31-.07-.59-.359-.53-.975.28-.99 1.1-1.89 1.84-2.832.09-.118.46-.102.67.08.22.182.03.482-.06.605-.66.724-1.14 1.586-1.41 2.522zm10.42 33.507c.17-.252.36-.102.54-.032 1.54.646 2.97 1.521 4.25 2.597.08.06.14.145.16.242.03.096.03.199-.01.293 0 .07-.16.102-.23.15-.08.048-.25-.027-.32-.091-1.25-1.135-2.77-1.858-4.23-2.677-.18-.075-.33-.257-.16-.482zm2.51-39.665c-.86.605-1.72 1.2-2.61 1.757-.31.198-.73.337-.85-.268.03-.129 0-.316.1-.38.96-.691 1.93-1.371 2.92-2.024.33-.22.54.139.65.332.11.193-.04.455-.21.583zm-3.64 18.023c.04-.396.16-.883.71-.958.47.075.33.423.31.642-.11.921-.28 1.837-.41 2.758-.03.273-.23.401-.39.572-.16.172-.43.456-.71.29-.12-.095-.2-.234-.22-.387-.02-.153.02-.309.11-.433.53-.765.54-1.611.6-2.484zm50.2 22.82c.1-.268-.24-.787.37-.766.61.022.48.482.48 1.071-.3.777-.42 1.842-.93 2.79-.16.278-.31.573-.7.326-.39-.246-.27-.46-.14-.792.34-.857.59-1.751.92-2.629zm-39.17-13.975c-.09.051-.2.065-.31.042-.1-.024-.19-.084-.26-.17-.19-.231-.53-.364-.53-.712l-.36-3.288c-.02-.048-.03-.099-.03-.15 0-.051.02-.102.04-.148.02-.047.05-.088.09-.121.04-.034.09-.059.13-.073.32-.14.28.208.42.321.13.11.23.252.28.411.06.159.08.331.05.499-.07.976.12 1.955.54 2.838.09.187.13.433-.06.551zm-21.47 12.77c-.15-.148-.25-.333-.3-.535-.05-.11-.06-.234-.02-.349.04-.115.11-.212.22-.272.24-.172.39 0 .53.15 1.1 1.224 2.2 2.45 3.29 3.678l-.22.209c-1.37-.718-2.24-2.029-3.5-2.881zm47.14 14.853c.08-.364.31-.535.66-.46.36.075.42.406.4.69 0 .836-1.27 2.104-2.1 2.142-.21 0-.53.134-.62-.193-.03-.124-.03-.254.02-.375.04-.121.11-.227.22-.305.48-.492 1.25-.739 1.42-1.499zm-38.46-23.634c.11-.043.23-.058.35-.041.11.017.23.065.32.138.73.569 1.43 1.188 2.07 1.852.44.536.97.964 1.41 1.489.07.071.11.167.11.267 0 .101-.04.197-.11.268-.16.155-.31 0-.43-.134l-3.62-3.303c-.1-.091-.18-.198-.29-.327.08-.07.12-.193.19-.209zm-14.46-5.873c.17-.021.34.017.49.109.14.092.25.231.3.394.44 1.071.59 2.249 1.41 3.17.14.15.18.465-.2.498-.35-.177-.74-.306-.93-.659-.45-.9-.89-1.804-1.29-2.725-.1-.279-.14-.712.22-.787zm5.45 1.033c.3.237.54.533.71.867.42.916.89 1.81 1.29 2.731.09.225.57.535.13.744-.44.209-.72-.176-.8-.476-.26-.894-.92-1.564-1.28-2.399-.2-.405-.44-.795-.7-1.167.06-.105.13-.206.21-.3.03-.033.06-.059.1-.077.04-.018.08-.027.12-.027.04 0 .09.009.12.027.04.018.08.044.1.077zm56.28 17.401c-.13.247-.34.616-.7.472-.36-.145-.36-.536-.24-.889.29-.638.49-1.317.58-2.014 0-.396.02-.91.56-.904.53.005.45.535.49 1.07-.11.785-.35 1.549-.69 2.265zm-58.93-29.421c.5.107.33.46.25.722-.3.986-.8 1.939-.4 2.86.07.476.04.84-.34.878-.39.037-.38-.354-.48-.643-.42-1.172.09-2.243.3-3.341.01-.078.03-.154.07-.222.04-.068.09-.127.16-.173.06-.045.13-.076.21-.09.08-.014.16-.011.23.009zm.02-1.949c0 .144-.09.535-.44.439-.11-.04-.21-.121-.27-.228-.06-.106-.07-.232-.05-.351.2-1.311 1.02-2.356 1.61-3.491.04-.058.09-.109.15-.147.06-.039.13-.066.2-.079.07-.013.14-.012.21.003.07.015.13.044.19.084.32.193.05.429-.05.68-.41 1.092-1.37 1.906-1.55 3.09zm37.78-3.497c-.58.573-1.1 1.178-1.61 1.783-.27.221-.58.401-.9.536-.1-.091-.22-.161-.28-.263-.05-.108-.06-.229-.03-.345.03-.115.09-.218.19-.292.66-.696 1.32-1.401 1.96-2.115.25-.278.53-.498.85-.198.33.3.01.702-.18.894zm-16.88-5.215c.82-.349 1.67-.623 2.55-.819.42-.038.73 0 .78.236.02.064.02.131.01.196-.02.065-.04.127-.08.182-.04.055-.08.102-.14.138-.06.036-.12.061-.18.073-.85.214-1.66.551-2.4 1.001-.29.155-.67.375-.84-.134-.04-.077-.06-.161-.07-.247 0-.086.01-.172.04-.253.03-.081.07-.155.13-.22.06-.064.12-.116.2-.153zm22.87 29.208c.09-.289-.24-.809.25-.836.38 0 .53.498.57.852.08.93.26 1.848.53 2.741.1.348.14.691-.18.744-.17.026-.35-.016-.49-.116s-.23-.25-.26-.419c-.12-.894-.51-1.74-.44-2.677 0-.097 0-.194.02-.289zm-41.17-.268c.39-.091.59.188.77.423.68.916 1.12 2.003 2.02 2.774.2.176.3.428.07.61-.23.182-.45.043-.64-.15-.42-.356-.81-.747-1.17-1.167-.48-.686-.85-1.435-1.23-2.094-.01-.225.01-.358.18-.396zm8.05-20.421c.21.177.3.455.11.626-.77.707-1.07 1.698-1.6 2.533-.14.203-.2.412-.54.246-.22-.107-.33-.214-.28-.658.41-.991.96-1.915 1.65-2.742.04-.046.09-.083.14-.109.06-.025.12-.039.18-.039.07-.001.13.012.19.036.05.025.1.061.15.107zm-12.41-4.214c-.02.075-.06.145-.11.205-.06.059-.12.107-.19.141-.07.033-.15.052-.23.054-.08.002-.16-.012-.23-.041-.39-.172-.39-.455-.22-.841.33-.809.89-1.509 1.6-2.018.26-.242.55-.443.86-.595.06.044.11.099.14.162.04.064.06.133.07.205.01.072 0 .145-.02.215-.02.069-.06.134-.1.189-.71.631-1.25 1.43-1.57 2.324zm4.62 7.207c.33.139.22.535.15.717-.3.716-.43 1.49-.4 2.265.03.327.08.782-.37.825-.45.043-.51-.477-.65-.787-.04-.176-.04-.36 0-.536-.09-.83.31-1.456.54-2.115.05-.145.15-.264.29-.333.13-.069.29-.082.44-.036zm3.17 16.015c.17.025.33.097.46.208.13.11.23.255.28.418.43 1.027.99 1.988 1.69 2.854.12.144.4.284.19.492-.22.209-.45.075-.64-.112-.81-.789-1.51-1.671-2.09-2.629-.1-.217-.15-.457-.14-.696.06-.187-.14-.568.25-.535zm-9.54 9.423c.25.095.48.269.63.498.66 1.384 1.53 2.664 2.56 3.802-.18.208-.39.235-.54.139-1.44-1.071-2.18-2.677-3.02-4.166-.15-.284.21-.348.37-.273zm55.94 13.477c.11-.177.22-.38.46-.332.1.017.19.069.26.148.06.078.1.178.1.28 0 .846.04 1.692 0 2.538-.01.095-.03.188-.07.273-.04.085-.1.161-.18.223-.07.062-.15.109-.24.138-.09.029-.19.039-.28.03-.39 0-.49-.321-.46-.744.49-.739-.1-1.73.41-2.554zm-39.18-39.74c.59-.748.94-1.647 1.03-2.591 0-.155.39-.455.49-.418.28.107.59.343.49.691-.31 1.071-.53 2.222-1.49 3.025-.11.096-.21.295-.42.134-.22-.161-.19-.279-.18-.578.01-.093.04-.182.08-.263zm25.89 4.273c.43-.303.79-.71 1.03-1.183.11-.22.23-.498.49-.413.16.049.3.144.41.273.1.128.16.285.18.45-.3.702-.75 1.328-1.33 1.831-.25.215-.53.632-.91.22-.09-.075-.16-.172-.21-.28-.04-.109-.06-.227-.04-.343.01-.117.05-.229.12-.325.06-.097.15-.176.26-.23zm-32.87-1.333c-.19.177-.3.375-.53.278-.07-.017-.14-.048-.19-.092-.06-.044-.1-.1-.14-.163-.03-.063-.05-.132-.05-.202 0-.071.01-.141.04-.207.32-.862.74-1.69 1.23-2.468.12-.119.24-.227.37-.321.43.091.63.433.46.68-.54.792-.46 1.804-1.19 2.495zm-10.62 5.483c0 .123.03.31-.17.31-.07-.002-.13-.017-.19-.044-.06-.028-.11-.067-.15-.117-.22-.299-.34-.661-.34-1.033.04-1.071-.1-2.142.38-3.325.35.279.78.445.67.889-.18 1.096-.25 2.209-.2 3.32zm9.18-10.152c0-1.355.63-2.495 1.31-3.604.07-.068.16-.12.25-.152.09-.033.19-.044.29-.035.2 0 .18.295.13.428-.43 1.237-.74 2.538-1.98 3.363zm5.36 18.954c-.59-.252-2.85-2.881-3.11-3.491-.03-.057-.05-.119-.06-.184-.01-.065 0-.13.02-.192s.05-.119.1-.168c.04-.048.09-.087.15-.114 1.4 1.011 2.23 2.345 2.9 4.149zm1.28-15.452c-.08.974-.74 1.692-1.18 2.505-.05.086-.14.15-.23.182-.1.031-.21.027-.3-.01-.11-.03-.2-.095-.27-.184-.06-.09-.1-.198-.09-.309 0-.155.11-.273.21-.412.41-.617.74-1.285.98-1.987.09-.251.03-.696.53-.535.35.107.38.423.35.75zm48.32 21.534c-.17-1.188.1-2.371.08-3.56 0-.08.19-.214.3-.241.23-.054.24.171.33.311.33.535.06 1.129.17 1.686-.11.594.16 1.21-.19 1.788-.11.182 0 .498-.39.466-.39-.032-.27-.257-.3-.45zm-1.62-27.322c.06-.182.27-.397.44-.129.66.996 1.58 1.874 1.61 3.111-.06.364.14.857-.34.873-.32 0-.53-.364-.53-.766 0-.889-.6-1.547-1.04-2.249-.08-.118-.15-.256-.17-.402-.03-.146-.02-.296.03-.438zm-37.7 14.927c.44 0 .5.68.53 1.141v.407c0 .712 0 1.408.61 1.949.22.203.39.471.11.68-.28.209-.53-.027-.71-.241-.31-.34-.54-.742-.69-1.179-.15-.437-.2-.9-.16-1.359-.01-.116-.01-.233 0-.348.11-.359-.37-1.05.31-1.05zm-1.08-3.078c-.39 0-.54-.439-.54-.857 0-.123-.1-.246-.19-.455.13-.498.31-1.071.4-1.649.07-.38.05-.884.57-.761.43.102.58.509.39 1.039-.22.563-.33 1.166-.32 1.772.01.322.19.879-.31.911zm25.22.026c-.43.429-.72.975-.84 1.569-.06.321-.11.777-.5.734-.38-.043-.35-.536-.36-.852 0-1.07.83-1.67 1.41-2.43.16-.22.24-.686.62-.45.16.096.08.567.08.873 0 .305-.24.39-.41.556zm-33.08 3.176c-.27.101-.23-.22-.34-.365-.88-1.108-.99-2.532-1.6-3.748-.09-.16-.44-.417 0-.535.27-.096.48-.054.69.348.65 1.29.85 2.72 1.46 4.016.05.123.17.278-.21.284zm33.32-10.682c.61 0 1.25.182 1.83-.166.33-.193.71-.182.85.171s0 .664-.46.851c-1.07.413-2.03.049-3.1-.091.15-.524.33-.787.88-.765zm-16.46 17.91c-1.39-.536-2.5-2.747-2.14-4.364 1.01 1.467 1.24 3.084 2.14 4.364zm1.1-16.363c.16-.144.47-.482.81-.144.33.337.16.626-.14.867-.46.4-.83.9-1.07 1.462-.12.262-.2.669-.62.535-.41-.134-.33-.471-.32-.675-.02-1.049.73-1.515 1.34-2.045zm10.7-2.356c0-.482.41-.589.69-.573.54.014 1.08-.156 1.52-.482.35-.219.66-.257.88.118.23.375-.03.584-.29.771-.67.503-1.51.568-2.29.766-.36.086-.52-.252-.51-.6zm-36.68 7.046c.58-.08.53.536.6.964.14.686.31 1.366.53 2.035.09.294.26.648-.08.798-.42.187-.61-.204-.73-.536-.25-.723-.64-1.419-.53-2.308.07-.262-.31-.883.21-.953zm13.96-15.655c.37.037.45.326.29.476-.83.739-1.52 1.649-2.63 2.045-.4.145-.44-.128-.48-.374.04-.52 2.29-2.201 2.82-2.147zm43.19 21.979c.32.069.53.326.39.616-.37.846-.34 1.772-.6 2.634-.06.193 0 .418-.33.412-.33-.005-.27-.23-.33-.423-.07-.193-.24-.417-.2-.674.15-.718.29-1.441.45-2.142.01-.071.03-.141.06-.202.04-.062.09-.115.15-.156.06-.04.12-.067.19-.079.07-.011.15-.006.22.014zm-53.68-3.588c.09.391.71 1.232-.05 1.403-.84.188-.53-.803-.61-1.199-.23-1.071-.77-2.04-.72-3.384 1.23.953 1.14 2.158 1.38 3.18zm51.31 11.357c-.01.152-.08.294-.19.395-.12.1-.27.151-.42.14-.15-.049-.27-.152-.34-.288-.07-.136-.08-.294-.04-.44.18-.583.24-1.197.18-1.804 0-.434.2-1.012.54-.991.47.032.6.579.53 1.071v.305c.16.509-.28 1.023-.26 1.612zm-10.55-.889c.32.107.31.482.2.707-.24.402-.38.861-.39 1.331-.01.469.11.934.33 1.346.14.241 0 .38-.16.503s-.39 0-.53-.15c-.41-.449-.36-1.07-.51-1.499.04-.624.19-1.235.46-1.799.13-.257.31-.541.6-.439zm-49.7-13.809c.04-.024.08-.04.13-.047.04-.006.08-.002.12.011.05.014.08.036.12.067.03.03.05.067.07.109.37 1.263 1.07 2.436 1.25 3.946-1.41-.959-1.56-2.335-1.95-3.577-.08-.219.08-.396.26-.509zm27.7-.385c.15.007.3.067.42.169.11.102.19.241.22.393.09 1.264.26 2.533-.15 3.748h-.27c-.18-1.301-.37-2.602-.53-3.903-.04-.204.1-.429.31-.407zm1.83 15.115c.08-.031.17-.045.25-.04.09.005.17.029.25.07.07.041.14.097.19.166.05.069.09.148.11.232.3.812.78 1.544 1.41 2.142.34.327.26.536.16.991-1.13-.761-1.7-1.896-2.57-2.736-.15-.124-.29-.68.2-.825zm21.69.171c-.05-.305-.03-.685.34-.755.47-.096.53.391.64.659.28.632-.25 1.232-.15 1.879.05.348.1.878-.44.836-.1-.014-.2-.047-.28-.099-.09-.052-.16-.12-.22-.202-.06-.082-.09-.174-.11-.272-.02-.097-.02-.198 0-.295-.02-.637.31-1.162.22-1.751zm-38.48-28.618c.42.23.24.562.05.878-.36.61-.71 1.226-1.04 1.847-.12.23.14.707-.41.632-.47-.059-.46-.439-.6-.873.46-.691.92-1.376 1.36-2.077.18-.241.25-.643.64-.407zm30.66 22.418c0 .15.07.364-.17.407-.09.013-.17-.005-.25-.053-.07-.048-.12-.12-.14-.204-.31-1.137-.38-2.326-.21-3.491 0-.145.09-.535.43-.46.11.032.21.104.28.202.06.099.09.217.07.333v1.606c0 .536 0 1.119-.01 1.66zm10.53 7.469c.41.097.25.461.22.68-.1.825-.27 1.644-.4 2.463-.05.348.1.878-.43.878s-.4-.535-.43-1.07c.27-.691.14-1.607.58-2.453.12-.198.01-.605.46-.498zm-34.37-23.467c.24.219.24.396.17.535-.48 1.023-1.25 1.895-1.64 2.972-.01.04-.03.078-.06.11s-.06.059-.1.079c-.03.019-.08.031-.12.034-.04.004-.08-.001-.12-.015-.31-.042-.25-.299-.23-.476.17-1.408 1.1-2.335 2.1-3.239zm41.38 32.468c.06-.311-.24-.83.45-.809.6 0 .36.472.38.761.1.937-.16 1.89.2 2.811.06.144.12.439-.2.482-.08.003-.17-.025-.24-.079-.07-.053-.12-.13-.14-.216-.22-.728-.67-1.419-.46-2.093-.01-.286-.01-.572.01-.857zm-33.08-30.107c.18-.225.49-.573.83-.268.07.057.12.127.15.207.04.079.05.166.05.252-.01.086-.03.17-.07.246-.05.075-.1.14-.17.189-.4.416-.68.927-.81 1.483-.12.273-.08.691-.49.659-.4-.032-.4-.466-.4-1.007.16-.651.47-1.255.91-1.761zm-13.88 25.658.2.101c1.14.536 1.76 1.532 2.39 2.517.13.198-.04.535-.37.289-.83-.669-1.61-1.371-2.39-2.099-.3-.284-.22-.605.17-.808zm-14.58-28.03c-.18 1.268-.29 2.547-.32 3.828 0 .042 0 .086-.01.127-.01.041-.04.078-.07.109-.03.031-.06.055-.1.07-.04.015-.09.02-.13.015-.22 0-.3-.134-.3-.321v-1.606c-.07-.721.01-1.448.21-2.142.01-.103.05-.199.13-.273.07-.073.16-.119.27-.129.04-.006.09-.001.13.012.04.014.08.038.11.069.03.031.06.069.07.11.01.042.02.087.01.131zm14.51 21.899c.16-.05.33-.045.49.013.16.058.3.166.39.308.58.648 1.11 1.344 1.68 2.019.09.112.17.251.07.348-.12.07-.26.1-.39.085-.32 0-2.43-1.943-2.48-2.259v-.311c.06-.08.15-.149.24-.203zm50.69-3.1c.05-.182-.03-.648.35-.632.38.016.41.38.41.696.04.842-.03 1.686-.2 2.511-.09.327-.14.632-.54.616-.53 0-.24-.45-.36-.787.33-.723.16-1.585.34-2.404zm-7.94 2.837c-.4-1.44.34-2.345.65-3.341.05-.134.14-.245.27-.313.12-.068.27-.088.41-.056.24.048.24.252.2.396-.26 1.203-.79 2.333-1.53 3.314zm.54-5.804c-.11-.216-.14-.459-.11-.696.04-.237.16-.456.33-.626.4-.498.41-1.301.95-1.494.54-.064.66.134.63.407-.19.915-.63 1.757-1.28 2.425-.03.044-.07.079-.12.103-.04.024-.1.036-.15.034-.05-.001-.1-.016-.15-.043-.04-.027-.08-.064-.1-.11zm-18.26-28.843c-.41-.298-.91-.467-1.42-.487-.4-.043-.88-.065-.85-.643.03-.658.58-.246.84-.38.37-.01.73.057 1.07.196.34.139.65.348.9.612.18.166.54.332.2.654-.04.056-.09.103-.15.136-.07.034-.13.053-.21.058-.07.004-.14-.006-.2-.031-.07-.026-.13-.065-.18-.115zm-24.49 47.262c.81.129 1.61.337 2.39.466.41.064.42.284.38.573-.05.369-.35.23-.7.294-.63-.471-1.61 0-2.36-.589-.12-.062-.21-.162-.26-.282-.05-.121-.06-.256-.02-.382.1-.428.41-.101.57-.08zm42.56-23.189c-.75 0-.81.599-1.14.964-.16.182-.3.535-.62.417-.33-.118-.22-.46-.24-.899.14-.734.78-1.178 1.6-1.425.22-.064.54-.321.67.102.11.337.12.835-.27.841zm6.46-1.51c0-.068.03-.131.08-.177.05-.046.12-.071.19-.069.04-.009.08-.008.12.001.04.01.08.029.11.056.04.026.07.06.08.098.02.039.03.08.03.123.13.554.21 1.118.24 1.687 0 .439.6 1.07-.13 1.252-.86.199-.6-.792-.92-1.188-.07-.086 0-.263 0-.536s.12-.787.2-1.247zm-9.01 5.799c.32 1.44-.82 2.505-.48 3.86-1.25-.894-1.07-2.286.48-3.86zm-43.51 16.314c-.2-.278 0-.798.47-.589.78.246 1.47.684 2.03 1.274.12.15.3.316.09.536-.05.068-.12.122-.2.158-.08.035-.17.051-.25.045-.85-.229-1.6-.729-2.14-1.424zm26.87-28.399c-.15.225-.54.059-.68-.214-.04-.091-.06-.19-.06-.289.06-.347.22-.668.46-.921.24-.253.56-.427.9-.498.29.241 1 .053.92.615-.11.782-1.15.691-1.54 1.307zm6.1-10.805c-.03.06-.08.111-.14.149-.06.038-.13.062-.2.071-.07.009-.15.002-.21-.021-.07-.022-.13-.059-.18-.108-.48-.421-1.05-.73-1.66-.905-.11-.04-.2-.114-.26-.21-.06-.097-.09-.211-.09-.325 0-.182.26-.3.51-.284.82.113 1.58.465 2.2 1.012.04.037.08.083.11.135.02.052.04.109.04.167.01.059 0 .117-.02.172-.02.055-.05.105-.1.147zm12.7 34.642c-.2-.069-.34-.23-.33-.632.45-.681.84-1.397 1.17-2.141.05-.086.41-.075.58 0 .09.037.16.305.13.444-.2.774-.55 1.501-1.03 2.142-.04.092-.12.162-.22.197s-.2.031-.3-.01zm-22.83-4.519c-.35.086-.6-.241-.67-.535-.05-.442-.05-.887 0-1.328.07-.209-.15-.648.13-1.071.15-.246.27-.38.53-.278.26.101.4.241.3.465-.24.666-.23 1.4.04 2.057.02.066.03.137.03.208 0 .071-.02.141-.05.205-.03.065-.07.122-.13.17-.05.047-.11.084-.18.107zm-32.21-.032c.48.766.94 1.547 1.4 2.318.14.225.14.375-.2.423-.09-.012-.18-.037-.26-.074-.95-.536-1.29-1.505-1.72-2.399-.02-.038-.03-.08-.04-.123 0-.043.02-.085.04-.123.02-.038.05-.069.08-.092.04-.022.08-.035.13-.037.2-.021.45-.075.57.107zm-1.62-4.423c-.13-.085-.37-.353-.14-.615.23-.263.53-.043.69.075.88.621 1.07 1.649 1.51 2.538.1.214 0 .481-.43.428-.2-.043-.28-.241-.41-.455-.4-.653-.53-1.478-1.22-1.971zm26.65 3.01c-.08.028-.16.039-.25.03-.08-.008-.16-.035-.23-.079-.53-.744-1.07-1.51-1.55-2.184.11-.364-.08-.664.25-.766.12-.03.24-.018.35.034.11.052.2.14.26.25.51.712.65 1.606 1.25 2.275.02.033.04.071.05.113.02.041.02.084.01.126-.01.042-.03.082-.05.116-.03.035-.06.064-.09.085zm-22.47-10.655c.04.133.07.374-.17.401-.23.027-.36-.155-.44-.353l-.92-2.206c-.16-.391-.39-.771 0-1.28 1.03.958 1.18 2.244 1.53 3.438zm28.15-1.253c-.12-.06-.22-.167-.27-.298-.05-.131-.05-.276.01-.404.22-.521.47-1.026.76-1.51.11-.182.29-.444.57-.348.13.052.24.148.3.271.06.123.08.264.05.398-.12.622-.39 1.206-.79 1.698-.06.098-.16.17-.28.205-.11.035-.24.031-.35-.012zm-21.15 17.358c-.16.123-.3.182-.45.038-.66-.544-1.36-1.024-2.11-1.435-.1-.065-.16-.198-.29-.364.33-.215.53-.632.96-.386.75.408 1.39.999 1.85 1.719.1.123.27.257.04.428zm26-32.142c-.15-.23.05-.444.16-.535.51-.382 1.05-.724 1.61-1.023.1-.061.23-.084.35-.063.12.02.23.083.32.176.08.118.1.423 0 .482-.59.433-1.01 1.108-1.81 1.236-.12.023-.24.009-.36-.04-.11-.048-.2-.129-.27-.233zm8.38-2.778c.52.165 1.04.358 1.54.578.09.038.17.095.24.168.06.073.11.159.13.252.03.093.03.191.01.286-.01.095-.05.185-.11.263-.29.412-.53 0-.79-.161-.41-.285-.89-.477-1.38-.562-.42-.053-.62-.294-.61-.535.01-.241.39-.338.97-.289zm-33.85 21.556c.58.903.94 1.931 1.04 2.998-1.11-.642-1.15-1.858-1.77-2.736-.03-.05-.05-.105-.05-.162 0-.057.01-.114.03-.167.02-.053.05-.101.09-.14.04-.04.09-.07.14-.089.06-.019.11-.027.17-.022.06.005.11.022.16.051.05.028.09.066.13.112.03.046.05.099.06.155zm17.21-12.588c-.37.155-.79-.15-.63-.535.31-.616.8-1.122 1.4-1.451.64-.102.77.176.66.535-.12.329-.31.629-.56.879-.25.251-.54.445-.87.572zm27.13 32.297c.19-.022.37-.091.52-.199.16-.109.28-.254.37-.422.05-.118.14-.215.25-.271.12-.056.25-.068.38-.034.06.038.12.091.17.154.04.063.07.135.09.21.01.076.01.154-.01.229-.02.074-.05.144-.1.205-.4.544-.92.978-1.53 1.263-.39.177-.66-.059-.72-.476.02-.156.09-.302.19-.42.1-.117.24-.201.39-.239zm-8.62-20.298c.13 1.167-.36 2.174-.71 3.314-.73-1.012-.28-2.934.71-3.314zm-51.31 13.145c.72.396.86 1.129 1.13 1.751-.06.235.06.492-.16.594-.12.043-.24.047-.36.01-.11-.037-.21-.112-.28-.214-.49-.538-.78-1.228-.82-1.954.01-.051.04-.098.07-.138.04-.039.08-.069.13-.088.05-.019.1-.025.15-.018.05.007.1.026.14.057zm56.52-13.049c-.05.145-.23.461-.54.316-.23-.107-.2-.332-.2-.621.28-.535.32-1.263.79-1.842.2-.235.34-.321.58-.214.24.107.44.418.24.675-.38.51-.68 1.08-.87 1.686zm-3.23 15.04c.08-.016.17.001.24.047.07.045.12.117.14.2.38.895.58 1.852.6 2.821-.71-.396-1.44-2.189-1.24-2.816.05-.139.09-.241.26-.252zm-28.32-8.77c.17.282.31.587.4.905.02.074.02.15 0 .224-.01.075-.04.145-.08.208-.05.062-.1.114-.17.153-.06.039-.13.064-.21.074-.28.053-.36-.145-.43-.332-.12-.306-.26-.611-.37-.921-.11-.311-.61-.943-.25-1.114.55-.262.84.364 1.11.803zm-22.3-1.296c-.02.041-.05.076-.09.099-.03.024-.08.035-.12.032-.05-.003-.09-.02-.12-.048-.04-.028-.06-.067-.07-.109-.3-.881-.68-1.735-1.12-2.554-.09-.214.09-.364.31-.423.22.129.41.302.57.509.15.207.26.444.33.695.1.573.7 1.109.31 1.799zm52.32-1.975c.02-.043.04-.082.06-.117.03-.034.06-.063.1-.085.04-.021.08-.035.13-.04.04-.004.08-.001.13.011.21.075.13.284.15.44.08.583-.32 1.102-.22 1.697.05.289.08.755-.28.776-.35.022-.44-.455-.53-.765-.03-.164-.03-.33 0-.493-.19-.514.26-.937.46-1.424zm-16.57-31.291c-.53 0-1.07.38-1.53.225-.14.016-.27.016-.41 0-.22-.069-.54.327-.63-.032-.09-.359.26-.498.54-.573.63-.15 1.26-.284 1.89-.412.34-.07.4.219.47.428.06.209-.13.359-.33.364zm-27.11 29.095c.9.536 1.12 1.441 1.26 2.565-.82-.642-1.02-1.521-1.79-1.917-.27-.139-.2-.46-.1-.637.13-.278.38-.15.63-.011zm27.16-2.811c-.04-.615 0-1.29.64-1.36.64-.069.4.589.4.959 0 .535.14 1.189-.68 1.199-.65.011-.21-.567-.36-.798zm18.23-16.732c-.45-.214-1.15-.369-1.11-1.071 0-.342.37-.407.84-.267.4-.032.98 0 .97.68 0 .321-.35.819-.7.658zm-50.13 21.541c-.2.101-.32-.086-.4-.209-.24-.308-.41-.664-.5-1.045-.1-.381-.11-.777-.03-1.161.93.471.95 1.29 1.18 1.992.02.088.01.181-.04.26-.04.078-.12.136-.21.163zm2.95-18.553c.28 0 .57.086.42.375-.21.538-.58.993-1.07 1.295-.48.241-.45-.198-.54-.337-.1-.278.84-1.322 1.19-1.333zm36.6-.203c.38 0 .64.246.54.594-.07.206-.19.392-.35.54-.16.148-.35.253-.56.306-.43-.075-.58-.321-.54-.669 0-.113.03-.223.08-.325.05-.101.12-.191.2-.263.09-.073.19-.127.3-.158.11-.032.22-.04.33-.025zm12.42 12.994c-.31.065-.54-.246-.45-.562 0-.401-.09-.862.45-.894.31 0 .4.294.4.594s-.02.782-.4.862zm-.99 19.656c.15-.107.3.075.32.278.05.595.06 1.162-.82 1.227.01-.568-.02-1.136.5-1.505z" class="astro-SCINLFMN"/><defs class="astro-SCINLFMN"><linearGradient id="a" x1="1271.9301" x2="1265.04" y1="185.395" y2="189.02499" class="astro-SCINLFMN" gradientTransform="translate(-1215.38 -81.917603)" gradientUnits="userSpaceOnUse"><stop class="astro-SCINLFMN" stop-color="#FF702C"/><stop class="astro-SCINLFMN" offset="1" stop-color="#FFC1E6"/></linearGradient><linearGradient id="b" x1="1264.66" x2="1259.26" y1="183.786" y2="186.776" class="astro-SCINLFMN" gradientTransform="translate(-1215.38 -81.917603)" gradientUnits="userSpaceOnUse"><stop class="astro-SCINLFMN" stop-color="#FF702C"/><stop class="astro-SCINLFMN" offset="1" stop-color="#FFC1E6"/></linearGradient><linearGradient id="c" x1="1278.9301" x2="1271.9399" y1="185.21899" y2="188.364" class="astro-SCINLFMN" gradientTransform="translate(-1215.38 -81.917603)" gradientUnits="userSpaceOnUse"><stop class="astro-SCINLFMN" stop-color="#FF702C"/><stop class="astro-SCINLFMN" offset="1" stop-color="#FFC1E6"/></linearGradient><linearGradient id="d" x1="1285.8199" x2="1276.87" y1="183.16299" y2="186.80901" class="astro-SCINLFMN" gradientTransform="translate(-1215.38 -81.917603)" gradientUnits="userSpaceOnUse"><stop class="astro-SCINLFMN" stop-color="#FF702C"/><stop class="astro-SCINLFMN" offset="1" stop-color="#FFC1E6"/></linearGradient><linearGradient id="e" x1="1306.99" x2="1300.61" y1="170.45" y2="173.51401" class="astro-SCINLFMN" gradientTransform="translate(-1215.38 -81.917603)" gradientUnits="userSpaceOnUse"><stop class="astro-SCINLFMN" stop-color="#FF702C"/><stop class="astro-SCINLFMN" offset="1" stop-color="#FFC1E6"/></linearGradient><linearGradient id="f" x1="1291.28" x2="1280.92" y1="179.883" y2="183.679" class="astro-SCINLFMN" gradientTransform="translate(-1215.38 -81.917603)" gradientUnits="userSpaceOnUse"><stop class="astro-SCINLFMN" stop-color="#FF702C"/><stop class="astro-SCINLFMN" offset="1" stop-color="#FFC1E6"/></linearGradient><linearGradient id="g" x1="1303.73" x2="1294.6899" y1="172.89" y2="178.119" class="astro-SCINLFMN" gradientTransform="translate(-1215.38 -81.917603)" gradientUnits="userSpaceOnUse"><stop class="astro-SCINLFMN" stop-color="#FF702C"/><stop class="astro-SCINLFMN" offset="1" stop-color="#FFC1E6"/></linearGradient><linearGradient id="h" x1="1300.5" x2="1285.72" y1="173.46201" y2="179.078" class="astro-SCINLFMN" gradientTransform="translate(-1215.38 -81.917603)" gradientUnits="userSpaceOnUse"><stop class="astro-SCINLFMN" stop-color="#FF702C"/><stop class="astro-SCINLFMN" offset="1" stop-color="#FFC1E6"/></linearGradient></defs></svg>