<svg xmlns="http://www.w3.org/2000/svg" xmlns:dc="http://purl.org/dc/elements/1.1/" xmlns:ns1="http://sodipodi.sourceforge.net/DTD/sodipodi-0.dtd" xmlns:ns2="http://www.inkscape.org/namespaces/inkscape" xmlns:ns4="http://creativecommons.org/ns#" xmlns:rdf="http://www.w3.org/1999/02/22-rdf-syntax-ns#" version="1.1" viewBox="0.0 0.0 799.7900262467192 575.2125984251968" fill="none" stroke="none" stroke-linecap="square" stroke-miterlimit="10" id="svg4613" ns1:docname="Copy of ML Ops Venn.svg" ns2:version="1.0.2 (e86c8708, 2021-01-15)" ns2:export-filename="/home/cristianob/ml-ops-venn.png" ns2:export-xdpi="180.05" ns2:export-ydpi="180.05">
  <metadata id="metadata4619">
    <rdf:RDF>
      <ns4:Work rdf:about="">
        <dc:format>image/svg+xml</dc:format>
        <dc:type rdf:resource="http://purl.org/dc/dcmitype/StillImage" />
      </ns4:Work>
    </rdf:RDF>
  </metadata>
  <defs id="defs4617" />
  <ns1:namedview pagecolor="#ffffff" bordercolor="#666666" borderopacity="1" objecttolerance="10" gridtolerance="10" guidetolerance="10" ns2:pageopacity="0" ns2:pageshadow="2" ns2:window-width="2560" ns2:window-height="1395" id="namedview4615" showgrid="false" ns2:zoom="1.4321303" ns2:cx="176.36944" ns2:cy="271.06793" ns2:window-x="0" ns2:window-y="23" ns2:window-maximized="1" ns2:current-layer="svg4613" ns2:document-rotation="0" />
  <clipPath id="p.0">
    <path d="m0 0l799.79004 0l0 575.2126l-799.79004 0l0 -575.2126z" clip-rule="nonzero" id="path4572" />
  </clipPath>
  <path style="fill:#000000;fill-opacity:0;fill-rule:evenodd" ns2:connector-curvature="0" id="path4575" d="M 0,0 H 799.79004 V 575.2126 H 0 Z" />
  <path style="fill:#fff2cc;fill-opacity:0.47490001;fill-rule:evenodd" ns2:connector-curvature="0" id="path4579" d="m 246.9029,393.3609 v 0 c 0,-84.49524 68.49689,-152.99214 152.99213,-152.99214 v 0 c 40.57602,0 79.49017,16.11876 108.18176,44.81035 28.69159,28.69159 44.81036,67.60574 44.81036,108.18179 v 0 c 0,84.49521 -68.49692,152.99213 -152.99213,152.99213 v 0 c -84.49524,0 -152.99213,-68.49692 -152.99213,-152.99213 z" ns2:export-xdpi="96" ns2:export-ydpi="96" />
  <path style="fill-rule:evenodd;stroke:#f1c232;stroke-width:1;stroke-linecap:butt;stroke-linejoin:round" ns2:connector-curvature="0" id="path4581" d="m 246.9029,393.3609 v 0 c 0,-84.49524 68.49689,-152.99214 152.99213,-152.99214 v 0 c 40.57602,0 79.49017,16.11876 108.18176,44.81035 28.69159,28.69159 44.81036,67.60574 44.81036,108.18179 v 0 c 0,84.49521 -68.49692,152.99213 -152.99213,152.99213 v 0 c -84.49524,0 -152.99213,-68.49692 -152.99213,-152.99213 z" ns2:export-xdpi="96" ns2:export-ydpi="96" />
  <path style="fill:#000000;fill-rule:nonzero" ns2:connector-curvature="0" id="path4583" d="m 369.41064,447.26266 v -22.75 h 6.42187 q 2.96875,0 5.25,1.3125 2.28125,1.3125 3.51563,3.73437 1.25,2.42188 1.26562,5.5625 v 1.45313 q 0,3.21875 -1.25,5.64062 -1.23437,2.42188 -3.54687,3.71875 -2.29688,1.29688 -5.35938,1.32813 z m 3,-20.28125 v 17.82812 h 3.15625 q 3.46875,0 5.39062,-2.15625 1.9375,-2.15625 1.9375,-6.14062 v -1.32813 q 0,-3.875 -1.82812,-6.01562 -1.8125,-2.15625 -5.15625,-2.1875 z m 27.96875,20.28125 q -0.25,-0.5 -0.40625,-1.78125 -2.01563,2.09375 -4.8125,2.09375 -2.5,0 -4.10938,-1.40625 -1.59375,-1.42188 -1.59375,-3.59375 0,-2.64063 2,-4.09375 2.01563,-1.46875 5.65625,-1.46875 h 2.8125 v -1.32813 q 0,-1.51562 -0.90625,-2.40625 -0.90625,-0.90625 -2.67187,-0.90625 -1.54688,0 -2.59375,0.78125 -1.04688,0.78125 -1.04688,1.89063 h -2.90625 q 0,-1.26563 0.89063,-2.4375 0.90625,-1.1875 2.4375,-1.875 1.54687,-0.6875 3.39062,-0.6875 2.92188,0 4.57813,1.46875 1.65625,1.45312 1.71875,4.01562 v 7.78125 q 0,2.32813 0.59375,3.70313 v 0.25 z m -4.79688,-2.20313 q 1.35938,0 2.57813,-0.70312 1.21875,-0.70313 1.76562,-1.82813 v -3.46875 h -2.26562 q -5.3125,0 -5.3125,3.10938 0,1.35937 0.90625,2.125 0.90625,0.76562 2.32812,0.76562 z m 15.6875,-18.79687 v 4.09375 h 3.15625 v 2.23437 h -3.15625 v 10.48438 q 0,1.01562 0.42188,1.53125 0.42187,0.5 1.4375,0.5 0.5,0 1.375,-0.1875 v 2.34375 q -1.14063,0.3125 -2.21875,0.3125 -1.9375,0 -2.92188,-1.17188 -0.98437,-1.17187 -0.98437,-3.32812 v -10.48438 h -3.07813 v -2.23437 h 3.07813 v -4.09375 z m 16.96875,21 q -0.25,-0.5 -0.40625,-1.78125 -2.01562,2.09375 -4.8125,2.09375 -2.5,0 -4.10937,-1.40625 -1.59375,-1.42188 -1.59375,-3.59375 0,-2.64063 2,-4.09375 2.01562,-1.46875 5.65625,-1.46875 h 2.8125 v -1.32813 q 0,-1.51562 -0.90625,-2.40625 -0.90625,-0.90625 -2.67188,-0.90625 -1.54687,0 -2.59375,0.78125 -1.04687,0.78125 -1.04687,1.89063 h -2.90625 q 0,-1.26563 0.89062,-2.4375 0.90625,-1.1875 2.4375,-1.875 1.54688,-0.6875 3.39063,-0.6875 2.92187,0 4.57812,1.46875 1.65625,1.45312 1.71875,4.01562 v 7.78125 q 0,2.32813 0.59375,3.70313 v 0.25 z m -4.79687,-2.20313 q 1.35937,0 2.57812,-0.70312 1.21875,-0.70313 1.76563,-1.82813 v -3.46875 h -2.26563 q -5.3125,0 -5.3125,3.10938 0,1.35937 0.90625,2.125 0.90625,0.76562 2.32813,0.76562 z" ns2:export-xdpi="96" ns2:export-ydpi="96" />
  <path style="fill:#000000;fill-rule:nonzero" ns2:connector-curvature="0" id="path4585" d="m 331.73096,474.74704 h -9.85938 v 8.0625 h 11.45313 v 2.45313 h -14.45313 v -22.75 h 14.29688 v 2.46875 h -11.29688 v 7.3125 h 9.85938 z m 7.60937,-6.39062 0.0937,2.125 q 1.9375,-2.4375 5.0625,-2.4375 5.35938,0 5.40625,6.04687 v 11.17188 h -2.89062 v -11.1875 q -0.0156,-1.82813 -0.84375,-2.70313 -0.8125,-0.875 -2.54688,-0.875 -1.40625,0 -2.46875,0.75 -1.0625,0.75 -1.65625,1.96875 v 12.04688 h -2.89062 v -16.90625 z m 14.23438,8.3125 q 0,-3.95313 1.82812,-6.28125 1.82813,-2.34375 4.84375,-2.34375 3.09375,0 4.82813,2.1875 l 0.14062,-1.875 h 2.64063 v 16.5 q 0,3.28125 -1.95313,5.17187 -1.9375,1.89063 -5.21875,1.89063 -1.82812,0 -3.57812,-0.78125 -1.75,-0.78125 -2.67188,-2.14063 l 1.5,-1.73437 q 1.85938,2.29687 4.54688,2.29687 2.10937,0 3.28125,-1.1875 1.1875,-1.1875 1.1875,-3.34375 v -1.45312 q -1.73438,2 -4.73438,2 -2.96875,0 -4.8125,-2.39063 -1.82812,-2.39062 -1.82812,-6.51562 z m 2.90625,0.32812 q 0,2.85938 1.17187,4.5 1.17188,1.625 3.28125,1.625 2.73438,0 4.01563,-2.48437 v -7.71875 q -1.32813,-2.42188 -3.98438,-2.42188 -2.10937,0 -3.29687,1.64063 -1.1875,1.64062 -1.1875,4.85937 z m 18.875,8.26563 h -2.89063 v -16.90625 h 2.89063 z m -3.125,-21.39063 q 0,-0.70312 0.42187,-1.1875 0.4375,-0.48437 1.28125,-0.48437 0.84375,0 1.28125,0.48437 0.4375,0.48438 0.4375,1.1875 0,0.70313 -0.4375,1.17188 -0.4375,0.46875 -1.28125,0.46875 -0.84375,0 -1.28125,-0.46875 -0.42187,-0.46875 -0.42187,-1.17188 z m 10.48437,4.48438 0.0937,2.125 q 1.9375,-2.4375 5.0625,-2.4375 5.35938,0 5.40625,6.04687 v 11.17188 h -2.89062 v -11.1875 q -0.0156,-1.82813 -0.84375,-2.70313 -0.8125,-0.875 -2.54688,-0.875 -1.40625,0 -2.46875,0.75 -1.0625,0.75 -1.65625,1.96875 v 12.04688 h -2.89062 v -16.90625 z m 21.9375,17.21875 q -3.4375,0 -5.59375,-2.25 -2.15625,-2.26563 -2.15625,-6.04688 v -0.53125 q 0,-2.51562 0.95313,-4.48437 0.96875,-1.98438 2.6875,-3.09375 1.73437,-1.125 3.75,-1.125 3.29687,0 5.125,2.17187 1.82812,2.17188 1.82812,6.21875 v 1.20313 h -11.45312 q 0.0625,2.5 1.45312,4.04687 1.40625,1.53125 3.5625,1.53125 1.53125,0 2.59375,-0.625 1.0625,-0.625 1.85938,-1.65625 l 1.76562,1.375 q -2.125,3.26563 -6.375,3.26563 z m -0.35937,-15.15625 q -1.75,0 -2.9375,1.28125 -1.1875,1.26562 -1.46875,3.5625 h 8.46875 v -0.21875 q -0.125,-2.20313 -1.1875,-3.40625 -1.0625,-1.21875 -2.875,-1.21875 z m 17.3125,15.15625 q -3.4375,0 -5.59375,-2.25 -2.15625,-2.26563 -2.15625,-6.04688 v -0.53125 q 0,-2.51562 0.95312,-4.48437 0.96875,-1.98438 2.6875,-3.09375 1.73438,-1.125 3.75,-1.125 3.29688,0 5.125,2.17187 1.82813,2.17188 1.82813,6.21875 v 1.20313 h -11.45313 q 0.0625,2.5 1.45313,4.04687 1.40625,1.53125 3.5625,1.53125 1.53125,0 2.59375,-0.625 1.0625,-0.625 1.85937,-1.65625 l 1.76563,1.375 q -2.125,3.26563 -6.375,3.26563 z m -0.35938,-15.15625 q -1.75,0 -2.9375,1.28125 -1.1875,1.26562 -1.46875,3.5625 h 8.46875 v -0.21875 q -0.125,-2.20313 -1.1875,-3.40625 -1.0625,-1.21875 -2.875,-1.21875 z m 18.46875,0.53125 q -0.65625,-0.10938 -1.42187,-0.10938 -2.84375,0 -3.85938,2.42188 v 12 h -2.89062 v -16.90625 h 2.8125 l 0.0469,1.95312 q 1.42188,-2.26562 4.03125,-2.26562 0.84375,0 1.28125,0.21875 z m 5.79688,14.3125 h -2.89063 v -16.90625 h 2.89063 z m -3.125,-21.39063 q 0,-0.70312 0.42187,-1.1875 0.4375,-0.48437 1.28125,-0.48437 0.84375,0 1.28125,0.48437 0.4375,0.48438 0.4375,1.1875 0,0.70313 -0.4375,1.17188 -0.4375,0.46875 -1.28125,0.46875 -0.84375,0 -1.28125,-0.46875 -0.42187,-0.46875 -0.42187,-1.17188 z m 10.48437,4.48438 0.0937,2.125 q 1.9375,-2.4375 5.0625,-2.4375 5.35938,0 5.40625,6.04687 v 11.17188 h -2.89062 v -11.1875 q -0.0156,-1.82813 -0.84375,-2.70313 -0.8125,-0.875 -2.54688,-0.875 -1.40625,0 -2.46875,0.75 -1.0625,0.75 -1.65625,1.96875 v 12.04688 h -2.89062 v -16.90625 z m 14.23438,8.3125 q 0,-3.95313 1.82812,-6.28125 1.82813,-2.34375 4.84375,-2.34375 3.09375,0 4.82813,2.1875 l 0.14062,-1.875 h 2.64063 v 16.5 q 0,3.28125 -1.95313,5.17187 -1.9375,1.89063 -5.21875,1.89063 -1.82812,0 -3.57812,-0.78125 -1.75,-0.78125 -2.67188,-2.14063 l 1.5,-1.73437 q 1.85938,2.29687 4.54688,2.29687 2.10937,0 3.28125,-1.1875 1.1875,-1.1875 1.1875,-3.34375 v -1.45312 q -1.73438,2 -4.73438,2 -2.96875,0 -4.8125,-2.39063 -1.82812,-2.39062 -1.82812,-6.51562 z m 2.90625,0.32812 q 0,2.85938 1.17187,4.5 1.17188,1.625 3.28125,1.625 2.73438,0 4.01563,-2.48437 v -7.71875 q -1.32813,-2.42188 -3.98438,-2.42188 -2.10937,0 -3.29687,1.64063 -1.1875,1.64062 -1.1875,4.85937 z" ns2:export-xdpi="96" ns2:export-ydpi="96" />
  <path style="fill:#cfe2f3;fill-opacity:0.51399997;fill-rule:evenodd" ns2:connector-curvature="0" id="path4587" d="m 139.10236,283.24014 v 0 c 0,-84.49521 68.49692,-152.99211 152.99213,-152.99211 v 0 c 40.57605,0 79.49017,16.11877 108.18176,44.81035 28.69159,28.69159 44.81036,67.60574 44.81036,108.18176 v 0 c 0,84.49524 -68.49692,152.99213 -152.99213,152.99213 v 0 c -84.49521,0 -152.99213,-68.49689 -152.99213,-152.99213 z" ns2:export-xdpi="96" ns2:export-ydpi="96" />
  <path style="fill-rule:evenodd;stroke:#3d85c6;stroke-width:1;stroke-linecap:butt;stroke-linejoin:round" ns2:connector-curvature="0" id="path4589" d="m 139.10236,283.24014 v 0 c 0,-84.49521 68.49692,-152.99211 152.99213,-152.99211 v 0 c 40.57605,0 79.49017,16.11877 108.18176,44.81035 28.69159,28.69159 44.81036,67.60574 44.81036,108.18176 v 0 c 0,84.49524 -68.49692,152.99213 -152.99213,152.99213 v 0 c -84.49521,0 -152.99213,-68.49689 -152.99213,-152.99213 z" ns2:export-xdpi="96" ns2:export-ydpi="96" />
  <path style="fill:#000000;fill-rule:nonzero" ns2:connector-curvature="0" id="path4591" d="m 199.42834,192.02838 7.4375,18.5625 7.4375,-18.5625 h 3.89062 v 22.75 h -3 V 205.919 l 0.28125,-9.5625 -7.46875,18.42188 h -2.29687 l -7.45313,-18.375 0.29688,9.51562 v 8.85938 h -3 v -22.75 z m 34.04687,22.75 q -0.25,-0.5 -0.40625,-1.78125 -2.01562,2.09375 -4.8125,2.09375 -2.5,0 -4.10937,-1.40625 -1.59375,-1.42188 -1.59375,-3.59375 0,-2.64063 2,-4.09375 2.01562,-1.46875 5.65625,-1.46875 h 2.8125 v -1.32813 q 0,-1.51562 -0.90625,-2.40625 -0.90625,-0.90625 -2.67188,-0.90625 -1.54687,0 -2.59375,0.78125 -1.04687,0.78125 -1.04687,1.89063 h -2.90625 q 0,-1.26563 0.89062,-2.4375 0.90625,-1.1875 2.4375,-1.875 1.54688,-0.6875 3.39063,-0.6875 2.92187,0 4.57812,1.46875 1.65625,1.45312 1.71875,4.01562 v 7.78125 q 0,2.32813 0.59375,3.70313 v 0.25 z m -4.79687,-2.20313 q 1.35937,0 2.57812,-0.70312 1.21875,-0.70313 1.76563,-1.82813 v -3.46875 h -2.26563 q -5.3125,0 -5.3125,3.10938 0,1.35937 0.90625,2.125 0.90625,0.76562 2.32813,0.76562 z m 18.54687,0.15625 q 1.54688,0 2.70313,-0.9375 1.15625,-0.9375 1.28125,-2.34375 h 2.73437 q -0.0781,1.45313 -1,2.76563 -0.92187,1.3125 -2.46875,2.09375 -1.53125,0.78125 -3.25,0.78125 -3.45312,0 -5.5,-2.29688 -2.03125,-2.3125 -2.03125,-6.3125 v -0.48437 q 0,-2.46875 0.90625,-4.39063 0.90625,-1.92187 2.59375,-2.98437 1.70313,-1.0625 4.01563,-1.0625 2.84375,0 4.71875,1.70312 1.89062,1.70313 2.01562,4.42188 h -2.73437 q -0.125,-1.64063 -1.25,-2.6875 -1.10938,-1.0625 -2.75,-1.0625 -2.20313,0 -3.42188,1.59375 -1.20312,1.57812 -1.20312,4.57812 v 0.54688 q 0,2.92187 1.20312,4.5 1.20313,1.57812 3.4375,1.57812 z m 12.85938,-12.8125 q 1.92187,-2.35937 5,-2.35937 5.35937,0 5.40625,6.04687 v 11.17188 h -2.89063 v -11.1875 q -0.0156,-1.82813 -0.84375,-2.70313 -0.8125,-0.875 -2.54687,-0.875 -1.40625,0 -2.46875,0.75 -1.0625,0.75 -1.65625,1.96875 v 12.04688 h -2.89063 v -24 h 2.89063 z m 17.875,14.85938 h -2.89063 v -16.90625 h 2.89063 z m -3.125,-21.39063 q 0,-0.70312 0.42187,-1.1875 0.4375,-0.48437 1.28125,-0.48437 0.84375,0 1.28125,0.48437 0.4375,0.48438 0.4375,1.1875 0,0.70313 -0.4375,1.17188 -0.4375,0.46875 -1.28125,0.46875 -0.84375,0 -1.28125,-0.46875 -0.42187,-0.46875 -0.42187,-1.17188 z m 10.48437,4.48438 0.0937,2.125 q 1.9375,-2.4375 5.0625,-2.4375 5.35938,0 5.40625,6.04687 v 11.17188 h -2.89062 v -11.1875 q -0.0156,-1.82813 -0.84375,-2.70313 -0.8125,-0.875 -2.54688,-0.875 -1.40625,0 -2.46875,0.75 -1.0625,0.75 -1.65625,1.96875 v 12.04688 h -2.89062 v -16.90625 z m 21.9375,17.21875 q -3.4375,0 -5.59375,-2.25 -2.15625,-2.26563 -2.15625,-6.04688 v -0.53125 q 0,-2.51562 0.95313,-4.48437 0.96875,-1.98438 2.6875,-3.09375 1.73437,-1.125 3.75,-1.125 3.29687,0 5.125,2.17187 1.82812,2.17188 1.82812,6.21875 v 1.20313 h -11.45312 q 0.0625,2.5 1.45312,4.04687 1.40625,1.53125 3.5625,1.53125 1.53125,0 2.59375,-0.625 1.0625,-0.625 1.85938,-1.65625 l 1.76562,1.375 q -2.125,3.26563 -6.375,3.26563 z m -0.35937,-15.15625 q -1.75,0 -2.9375,1.28125 -1.1875,1.26562 -1.46875,3.5625 h 8.46875 v -0.21875 q -0.125,-2.20313 -1.1875,-3.40625 -1.0625,-1.21875 -2.875,-1.21875 z" ns2:export-xdpi="96" ns2:export-ydpi="96" />
  <path style="fill:#000000;fill-rule:nonzero" ns2:connector-curvature="0" id="path4593" d="m 198.56897,250.32526 h 10.78125 v 2.45312 h -13.79688 v -22.75 h 3.01563 z m 20.76562,2.76562 q -3.4375,0 -5.59375,-2.25 -2.15625,-2.26562 -2.15625,-6.04687 v -0.53125 q 0,-2.51563 0.95313,-4.48438 0.96875,-1.98437 2.6875,-3.09375 1.73437,-1.125 3.75,-1.125 3.29687,0 5.125,2.17188 1.82812,2.17187 1.82812,6.21875 v 1.20312 h -11.45312 q 0.0625,2.5 1.45312,4.04688 1.40625,1.53125 3.5625,1.53125 1.53125,0 2.59375,-0.625 1.0625,-0.625 1.85938,-1.65625 l 1.76562,1.375 q -2.125,3.26562 -6.375,3.26562 z m -0.35937,-15.15625 q -1.75,0 -2.9375,1.28125 -1.1875,1.26563 -1.46875,3.5625 h 8.46875 v -0.21875 q -0.125,-2.20312 -1.1875,-3.40625 -1.0625,-1.21875 -2.875,-1.21875 z m 20.73437,14.84375 q -0.25,-0.5 -0.40625,-1.78125 -2.01562,2.09375 -4.8125,2.09375 -2.5,0 -4.10937,-1.40625 -1.59375,-1.42187 -1.59375,-3.59375 0,-2.64062 2,-4.09375 2.01562,-1.46875 5.65625,-1.46875 h 2.8125 v -1.32812 q 0,-1.51563 -0.90625,-2.40625 -0.90625,-0.90625 -2.67188,-0.90625 -1.54687,0 -2.59375,0.78125 -1.04687,0.78125 -1.04687,1.89062 h -2.90625 q 0,-1.26562 0.89062,-2.4375 0.90625,-1.1875 2.4375,-1.875 1.54688,-0.6875 3.39063,-0.6875 2.92187,0 4.57812,1.46875 1.65625,1.45313 1.71875,4.01563 v 7.78125 q 0,2.32812 0.59375,3.70312 v 0.25 z m -4.79687,-2.20312 q 1.35937,0 2.57812,-0.70313 1.21875,-0.70312 1.76563,-1.82812 v -3.46875 h -2.26563 q -5.3125,0 -5.3125,3.10937 0,1.35938 0.90625,2.125 0.90625,0.76563 2.32813,0.76563 z m 19.9375,-12.10938 q -0.65625,-0.10937 -1.42188,-0.10937 -2.84375,0 -3.85937,2.42187 v 12 h -2.89063 v -16.90625 h 2.8125 l 0.0469,1.95313 q 1.42187,-2.26563 4.03125,-2.26563 0.84375,0 1.28125,0.21875 z m 5.39063,-2.59375 0.0937,2.125 q 1.9375,-2.4375 5.0625,-2.4375 5.35937,0 5.40625,6.04688 v 11.17187 h -2.89063 v -11.1875 q -0.0156,-1.82812 -0.84375,-2.70312 -0.8125,-0.875 -2.54687,-0.875 -1.40625,0 -2.46875,0.75 -1.0625,0.75 -1.65625,1.96875 v 12.04687 h -2.89063 v -16.90625 z m 18.0625,16.90625 h -2.89063 v -16.90625 h 2.89063 z m -3.125,-21.39062 q 0,-0.70313 0.42187,-1.1875 0.4375,-0.48438 1.28125,-0.48438 0.84375,0 1.28125,0.48438 0.4375,0.48437 0.4375,1.1875 0,0.70312 -0.4375,1.17187 -0.4375,0.46875 -1.28125,0.46875 -0.84375,0 -1.28125,-0.46875 -0.42187,-0.46875 -0.42187,-1.17187 z m 10.48437,4.48437 0.0937,2.125 q 1.9375,-2.4375 5.0625,-2.4375 5.35938,0 5.40625,6.04688 v 11.17187 h -2.89062 v -11.1875 q -0.0156,-1.82812 -0.84375,-2.70312 -0.8125,-0.875 -2.54688,-0.875 -1.40625,0 -2.46875,0.75 -1.0625,0.75 -1.65625,1.96875 v 12.04687 h -2.89062 v -16.90625 z m 14.23438,8.3125 q 0,-3.95312 1.82812,-6.28125 1.82813,-2.34375 4.84375,-2.34375 3.09375,0 4.82813,2.1875 l 0.14062,-1.875 h 2.64063 v 16.5 q 0,3.28125 -1.95313,5.17188 -1.9375,1.89062 -5.21875,1.89062 -1.82812,0 -3.57812,-0.78125 -1.75,-0.78125 -2.67188,-2.14062 l 1.5,-1.73438 q 1.85938,2.29688 4.54688,2.29688 2.10937,0 3.28125,-1.1875 1.1875,-1.1875 1.1875,-3.34375 v -1.45313 q -1.73438,2 -4.73438,2 -2.96875,0 -4.8125,-2.39062 -1.82812,-2.39063 -1.82812,-6.51563 z m 2.90625,0.32813 q 0,2.85937 1.17187,4.5 1.17188,1.625 3.28125,1.625 2.73438,0 4.01563,-2.48438 v -7.71875 q -1.32813,-2.42187 -3.98438,-2.42187 -2.10937,0 -3.29687,1.64062 -1.1875,1.64063 -1.1875,4.85938 z" ns2:export-xdpi="96" ns2:export-ydpi="96" />
  <path style="fill:#d9ead3;fill-opacity:0.53070003;fill-rule:evenodd" ns2:connector-curvature="0" id="path4595" d="m 354.7034,283.24014 v 0 c 0,-84.49521 68.49692,-152.99211 152.99213,-152.99211 v 0 c 40.57602,0 79.4902,16.11877 108.18179,44.81035 28.69159,28.69159 44.81036,67.60574 44.81036,108.18176 v 0 c 0,84.49524 -68.49695,152.99213 -152.99216,152.99213 v 0 c -84.49521,0 -152.99213,-68.49689 -152.99213,-152.99213 z" ns2:export-xdpi="96" ns2:export-ydpi="96" />
  <path style="fill-rule:evenodd;stroke:#6aa84f;stroke-width:1;stroke-linecap:butt;stroke-linejoin:round" ns2:connector-curvature="0" id="path4597" d="m 354.7034,283.24014 v 0 c 0,-84.49521 68.49692,-152.99211 152.99213,-152.99211 v 0 c 40.57602,0 79.4902,16.11877 108.18179,44.81035 28.69159,28.69159 44.81036,67.60574 44.81036,108.18176 v 0 c 0,84.49524 -68.49695,152.99213 -152.99216,152.99213 v 0 c -84.49521,0 -152.99213,-68.49689 -152.99213,-152.99213 z" ns2:export-xdpi="96" ns2:export-ydpi="96" />
  <path style="fill:#000000;fill-rule:nonzero" ns2:connector-curvature="0" id="path4599" d="m 499.83044,214.77838 v -22.75 h 6.42187 q 2.96875,0 5.25,1.3125 2.28125,1.3125 3.51563,3.73437 1.25,2.42188 1.26562,5.5625 v 1.45313 q 0,3.21875 -1.25,5.64062 -1.23437,2.42188 -3.54687,3.71875 -2.29688,1.29688 -5.35938,1.32813 z m 3,-20.28125 v 17.82812 h 3.15625 q 3.46875,0 5.39062,-2.15625 1.9375,-2.15625 1.9375,-6.14062 v -1.32813 q 0,-3.875 -1.82812,-6.01562 -1.8125,-2.15625 -5.15625,-2.1875 z m 24.54687,20.59375 q -3.4375,0 -5.59375,-2.25 -2.15625,-2.26563 -2.15625,-6.04688 v -0.53125 q 0,-2.51562 0.95313,-4.48437 0.96875,-1.98438 2.6875,-3.09375 1.73437,-1.125 3.75,-1.125 3.29687,0 5.125,2.17187 1.82812,2.17188 1.82812,6.21875 v 1.20313 h -11.45312 q 0.0625,2.5 1.45312,4.04687 1.40625,1.53125 3.5625,1.53125 1.53125,0 2.59375,-0.625 1.0625,-0.625 1.85938,-1.65625 l 1.76562,1.375 q -2.125,3.26563 -6.375,3.26563 z m -0.35937,-15.15625 q -1.75,0 -2.9375,1.28125 -1.1875,1.26562 -1.46875,3.5625 h 8.46875 v -0.21875 q -0.125,-2.20313 -1.1875,-3.40625 -1.0625,-1.21875 -2.875,-1.21875 z m 15.67187,10.92187 4.1875,-12.98437 h 2.95313 l -6.0625,16.90625 h -2.20313 l -6.125,-16.90625 h 2.95313 z m 27.875,-6.71875 q 0,3.34375 -1.125,5.84375 -1.125,2.48438 -3.1875,3.79688 -2.0625,1.3125 -4.8125,1.3125 -2.6875,0 -4.76562,-1.3125 -2.07813,-1.32813 -3.23438,-3.76563 -1.14062,-2.45312 -1.17187,-5.67187 v -1.64063 q 0,-3.28125 1.14062,-5.79687 1.14063,-2.51563 3.21875,-3.84375 2.09375,-1.34375 4.78125,-1.34375 2.73438,0 4.8125,1.32812 2.09375,1.3125 3.21875,3.82813 1.125,2.5 1.125,5.82812 z m -2.98437,-1.46875 q 0,-4.04687 -1.625,-6.20312 -1.625,-2.17188 -4.54688,-2.17188 -2.84375,0 -4.48437,2.17188 -1.625,2.15625 -1.67188,6 v 1.67187 q 0,3.92188 1.64063,6.17188 1.65625,2.23437 4.54687,2.23437 2.90625,0 4.5,-2.10937 1.59375,-2.125 1.64063,-6.07813 z m 21.3125,3.84375 q 0,3.85938 -1.76563,6.21875 -1.76562,2.35938 -4.78125,2.35938 -3.07812,0 -4.84375,-1.95313 v 8.14063 h -2.89062 v -23.40625 h 2.64062 l 0.14063,1.875 q 1.76562,-2.1875 4.90625,-2.1875 3.04687,0 4.8125,2.29687 1.78125,2.29688 1.78125,6.39063 z m -2.89063,-0.32812 q 0,-2.85938 -1.21875,-4.51563 -1.21875,-1.65625 -3.34375,-1.65625 -2.625,0 -3.9375,2.32813 v 8.07812 q 1.29688,2.3125 3.96875,2.3125 2.07813,0 3.29688,-1.64062 1.23437,-1.65625 1.23437,-4.90625 z m 16.40625,4.10937 q 0,-1.17187 -0.89062,-1.8125 -0.875,-0.65625 -3.07813,-1.125 -2.1875,-0.46875 -3.48437,-1.125 -1.28125,-0.65625 -1.90625,-1.5625 -0.60938,-0.90625 -0.60938,-2.15625 0,-2.07812 1.75,-3.51562 1.76563,-1.4375 4.5,-1.4375 2.875,0 4.65625,1.48437 1.79688,1.48438 1.79688,3.79688 h -2.90625 q 0,-1.1875 -1.01563,-2.04688 -1,-0.85937 -2.53125,-0.85937 -1.57812,0 -2.46875,0.6875 -0.89062,0.6875 -0.89062,1.79687 0,1.04688 0.82812,1.57813 0.82813,0.53125 2.98438,1.01562 2.17187,0.48438 3.51562,1.15625 1.34375,0.67188 1.98438,1.625 0.65625,0.9375 0.65625,2.29688 0,2.26562 -1.8125,3.64062 -1.8125,1.35938 -4.70313,1.35938 -2.03125,0 -3.59375,-0.71875 -1.5625,-0.71875 -2.45312,-2 -0.875,-1.29688 -0.875,-2.79688 h 2.89062 q 0.0781,1.45313 1.15625,2.3125 1.09375,0.84375 2.875,0.84375 1.64063,0 2.625,-0.65625 1,-0.67187 1,-1.78125 z" ns2:export-xdpi="96" ns2:export-ydpi="96" />
  <path style="fill:#000000;fill-opacity:0;fill-rule:evenodd" ns2:connector-curvature="0" id="path4601" d="M 214.58792,28.859581 H 585.20209 V 111.66273 H 214.58792 Z" ns2:export-xdpi="96" ns2:export-ydpi="96" />
  <path style="fill:#000000;fill-rule:nonzero" ns2:connector-curvature="0" id="path4603" d="m 335.06691,53.216156 8.76562,24.75 8.71875,-24.75 h 9.23438 v 34.125 h -7.04688 v -9.328125 l 0.70313,-16.109375 -9.21875,25.4375 h -4.82813 l -9.1875,-25.40625 0.70313,16.078125 v 9.328125 h -7.03125 v -34.125 z m 39.89062,28.46875 h 14.9375 v 5.65625 h -21.96875 v -34.125 h 7.03125 z m 46.94532,-10.640625 c 0,3.364583 -0.59375,6.3125 -1.78125,8.84375 -1.1875,2.53125 -2.88542,4.484375 -5.09375,5.859375 -2.20833,1.375 -4.74479,2.0625 -7.60938,2.0625 -2.82291,0 -5.34375,-0.677083 -7.5625,-2.03125 -2.21875,-1.364583 -3.9375,-3.307292 -5.15625,-5.828125 -1.21875,-2.53125 -1.83854,-5.4375 -1.85937,-8.71875 v -1.6875 c 0,-3.354167 0.60417,-6.307292 1.8125,-8.859375 1.21875,-2.5625 2.93229,-4.526042 5.14062,-5.890625 2.20833,-1.364583 4.73438,-2.046875 7.57813,-2.046875 2.84375,0 5.36979,0.682292 7.57812,2.046875 2.21875,1.364583 3.9323,3.328125 5.14063,5.890625 1.20833,2.552083 1.8125,5.5 1.8125,8.84375 z m -7.125,-1.546875 c 0,-3.572917 -0.64063,-6.286458 -1.92188,-8.140625 -1.28125,-1.864583 -3.10937,-2.796875 -5.48437,-2.796875 -2.35417,0 -4.17188,0.916667 -5.45313,2.75 -1.28125,1.833333 -1.93229,4.526042 -1.95312,8.078125 v 1.65625 c 0,3.489583 0.64062,6.197917 1.92187,8.125 1.28125,1.916667 3.125,2.875 5.53125,2.875 2.36459,0 4.17709,-0.927083 5.4375,-2.78125 1.27083,-1.854167 1.91146,-4.552083 1.92188,-8.09375 z m 34.625,5.390625 c 0,3.90625 -0.89063,7.036458 -2.67188,9.390625 -1.77083,2.354167 -4.16146,3.53125 -7.17187,3.53125 -2.5625,0 -4.63542,-0.890625 -6.21875,-2.671875 v 11.953125 h -6.76563 V 61.981781 h 6.28125 l 0.23438,2.484375 c 1.63541,-1.96875 3.77604,-2.953125 6.42187,-2.953125 3.125,0 5.55208,1.15625 7.28125,3.46875 1.73959,2.3125 2.60938,5.5 2.60938,9.5625 z m -6.78125,-0.484375 c 0,-2.364583 -0.41667,-4.1875 -1.25,-5.46875 -0.83333,-1.28125 -2.04688,-1.921875 -3.64063,-1.921875 -2.125,0 -3.58854,0.8125 -4.39062,2.4375 v 10.390625 c 0.83333,1.666667 2.3125,2.5 4.4375,2.5 3.22917,0 4.84375,-2.645833 4.84375,-7.9375 z m 24.7109,5.921875 c 0,-0.822917 -0.41146,-1.473958 -1.23437,-1.953125 -0.82292,-0.479167 -2.14062,-0.90625 -3.9531,-1.28125 -6.03125,-1.260417 -9.04687,-3.822917 -9.04687,-7.6875 0,-2.25 0.93229,-4.125 2.79687,-5.625 1.875,-1.510417 4.31771,-2.265625 7.32813,-2.265625 3.21873,0 5.79163,0.760417 7.71872,2.28125 1.9375,1.510417 2.90625,3.473958 2.90625,5.890625 h -6.78125 c 0,-0.96875 -0.3125,-1.765625 -0.9375,-2.390625 -0.625,-0.635417 -1.59895,-0.953125 -2.92185,-0.953125 -1.14583,0 -2.03125,0.260417 -2.65625,0.78125 -0.625,0.510417 -0.9375,1.161458 -0.9375,1.953125 0,0.75 0.35417,1.359375 1.0625,1.828125 0.71875,0.458333 1.92187,0.854167 3.60935,1.1875 1.6875,0.333333 3.10937,0.713542 4.26562,1.140625 3.57292,1.3125 5.35938,3.583333 5.35938,6.8125 0,2.3125 -0.99479,4.1875 -2.98438,5.625 -1.97917,1.427083 -4.53645,2.140625 -7.67184,2.140625 -2.125,0 -4.01563,-0.380208 -5.67188,-1.140625 -1.64583,-0.760417 -2.9375,-1.796875 -3.875,-3.109375 -0.9375,-1.322917 -1.40625,-2.75 -1.40625,-4.28125 h 6.42188 c 0.0625,1.197917 0.50517,2.119792 1.32812,2.765625 0.83333,0.635417 1.94792,0.953125 3.34375,0.953125 1.29165,0 2.2708,-0.244792 2.93747,-0.734375 0.66667,-0.489583 1,-1.135417 1,-1.9375 z" ns1:nodetypes="cccccccccccccccccccccccsssscccscssccssscsscscsccsscsccccccscsssssccsssscscsccccscscscscscccccsss" ns2:export-xdpi="96" ns2:export-ydpi="96" />
  <path style="fill:#000000;fill-opacity:0;fill-rule:evenodd" ns2:connector-curvature="0" id="path4605" d="M 399.89502,111.66273 V 297.45802" ns2:export-xdpi="96" ns2:export-ydpi="96" />
  <path style="fill:#79e1d9;fill-opacity:0.47490001;fill-rule:evenodd;stroke:#67c6b5;stroke-opacity:1" d="m 399.89503,240.36876 c -14.04911,0 -27.65101,1.90321 -40.57422,5.44922 -3.01108,11.97627 -4.61718,24.51131 -4.61718,37.42188 0,42.43934 17.28347,80.83935 45.1914,108.55468 27.90852,-27.71541 45.19141,-66.11484 45.19141,-108.55468 0,-12.71568 -1.58382,-25.26874 -4.64063,-37.39453 -13.09855,-3.60101 -26.72806,-5.47657 -40.55078,-5.47657 z" id="path4579-3" ns2:connector-curvature="0" ns2:export-xdpi="96" ns2:export-ydpi="96" />
  <path style="fill-rule:evenodd;stroke:#666666;stroke-width:3;stroke-linecap:butt;stroke-linejoin:round" ns2:connector-curvature="0" id="path4607" d="M 399.89502,111.66273 V 279.45802" ns2:export-xdpi="96" ns2:export-ydpi="96" />
  <path style="fill:#666666;fill-rule:evenodd;stroke:#666666;stroke-width:3;stroke-linecap:butt" ns2:connector-curvature="0" id="path4609" d="m 394.93982,279.458 4.9552,13.61429 4.9552,-13.61429 z" ns2:export-xdpi="96" ns2:export-ydpi="96" />
</svg>