<svg xmlns="http://www.w3.org/2000/svg" fill="none" stroke-linecap="square" stroke-miterlimit="10" viewBox="0 0 799.8 575.2"><path fill="none" d="M0 0h800v575H0Z" style="fill:#000;fill-opacity:0;fill-rule:evenodd"/><path d="M247 393a153 153 0 1 1 306 0 153 153 0 1 1-306 0z" style="fill:#fff2cc;fill-opacity:.47490001;fill-rule:evenodd"/><path d="M247 393a153 153 0 1 1 306 0 153 153 0 1 1-306 0z" style="fill-rule:evenodd;stroke:#f1c232;stroke-width:1;stroke-linecap:butt;stroke-linejoin:round"/><path d="M369 447v-22h7l5 1 4 4 1 5v2l-1 5-4 4-5 1zm3-20v18h4q3 0 5-2l2-6v-2q0-4-2-6t-5-2zm28 20v-2q-2 3-5 3l-4-2q-2-1-2-3 0-3 2-5l6-1h3v-1l-1-3-3-1-2 1-1 2h-3l1-2 2-2 4-1 4 2q2 1 2 4v11zm-4-2 2-1 2-1v-4h-2q-6 0-6 3l1 2 3 1zm15-19v4h3v3h-3v10l1 2h3v2l-3 1q-2 0-3-2l-1-3v-10h-3v-3h3v-4zm17 21v-2q-2 3-5 3l-4-2q-2-1-2-3 0-3 2-5l6-1h3v-1l-1-3-3-1-2 1-1 2h-3l1-2q0-2 2-2l3-1q3 0 5 2 2 1 2 4v11zm-5-2 3-1 2-1v-4h-2q-6 0-6 3l1 2 2 1zM332 475h-10v8h11v2h-14v-22h14v2h-11v7h10zm7-7v2q2-2 5-2 6 0 6 6v11h-3v-11l-1-3-2-1-3 1-2 2v12h-2v-17zm15 9 1-7q2-2 5-2t5 2v-2h3v17q0 3-2 5t-5 2l-4-1-3-2 2-2q2 3 4 3 3 0 4-2l1-3v-1q-2 2-5 2t-5-3l-1-6zm2 0q0 3 2 4 1 2 3 2 3 0 4-2v-8q-1-3-4-3-2 0-3 2-2 2-2 5zm19 8h-3v-17h3zm-3-21 1-1 1-1 1 1 1 1-1 1-1 1-1-1-1-1zm11 4v2q2-2 5-2 5 0 5 6v11h-3v-14l-3-1-2 1-2 2v12h-3v-17zm22 18q-4 0-6-3-2-2-2-6l1-5 3-3 3-1q4 0 5 2 2 2 2 6v2h-11l1 4 4 1h2l2-2 2 1q-2 4-6 4zm-1-16-3 2-1 3h8l-1-3q-1-2-3-2zm18 16q-4 0-6-3-2-2-2-6l1-5 2-3 4-1q4 0 5 2 2 2 2 6v2h-11l1 4 4 1h2l2-2 2 1q-2 4-6 4zm-1-16q-2 0-3 2l-1 3h8l-1-3q-1-2-3-2zm19 1h-2q-3 0-4 2v12h-2v-17h2v2l4-2h2zm6 14h-3v-17h3zm-4-21 1-1 1-1 1 1 1 1-1 1-1 1-1-1-1-1zm11 4v2q2-2 5-2 5 0 5 6v11h-2v-11l-1-3-3-1-2 1-2 2v12h-3v-17zm14 9q0-4 2-7 2-2 5-2t5 2v-2h2v17q0 3-2 5t-5 2l-3-1-3-2 1-2q2 3 5 3 2 0 3-2l1-3v-1q-1 2-4 2t-5-3q-2-2-2-6zm3 0 1 4q1 2 3 2 3 0 4-2v-8q-1-3-4-3-2 0-3 2l-1 5z" style="fill:#f2f2f2;fill-rule:nonzero"/><path d="M139 283a153 153 0 1 1 306 0 153 153 0 1 1-306 0z" style="fill:#cfe2f3;fill-opacity:.51399997;fill-rule:evenodd"/><path d="M139 283a153 153 0 1 1 306 0 153 153 0 1 1-306 0z" style="fill-rule:evenodd;stroke:#3d85c6;stroke-width:1;stroke-linecap:butt;stroke-linejoin:round"/><path d="m199 192 8 19 7-19h4v23h-3v-19l-7 19h-2l-8-19 1 10v9h-3v-23zm34 23v-2q-2 2-5 2l-4-1-1-4q0-3 2-4l5-1h3v-2l-1-2-3-1-2 1-1 2h-3l1-3 2-2h4l4 1q2 1 2 4v8l1 4zm-4-2 2-1 2-2v-3h-2q-6 0-6 3l1 2 3 1zm18 0 3-1 1-3h3l-1 3q-1 2-3 2l-3 1q-3 0-5-2-2-3-2-7l1-4 2-3 4-1 5 1q2 2 2 5h-3l-1-3-3-1q-2 0-3 2l-1 4v1l1 4q1 2 3 2zm13-13q2-2 5-2 5 0 5 6v11h-2v-11l-1-3-3-1-2 1-2 2v12h-3v-24h3zm18 15h-3v-17h3zm-3-22v-1h3v3h-3v-2zm10 5v2q2-2 5-2 6 0 6 6v11h-3v-11l-1-3-2-1-3 1-2 2v12h-2v-17zm22 17q-3 0-5-2t-2-6v-5l3-3 4-1q3 0 5 2t2 6v1h-12q0 3 2 4 1 2 3 2l3-1 2-2 2 2q-2 3-7 3zm0-15-3 1-2 4h9l-1-4-3-1zM199 250h10v3h-13v-23h3zm20 3q-3 0-5-2t-2-6v-1l1-4 2-3 4-1q3 0 5 2t2 6v1h-12l2 4q1 2 3 2l3-1 2-2 2 2q-2 3-7 3zm0-15-3 1-1 4h8l-1-4-3-1zm21 15-1-2q-2 2-5 2l-4-1-1-4q0-3 2-4l5-1h3v-2l-1-2-2-1-3 1-1 2h-3l1-3 2-2h4l4 1q2 1 2 4v8l1 4zm-5-2 2-1 2-2v-3h-2q-5 0-5 3l1 2 2 1zm20-13h-2q-2 0-3 3v12h-3v-17h2l1 2q1-2 4-2h1zm5-2v2q2-2 5-2 6 0 6 6v11h-3v-11l-1-3-2-1-3 1-2 2v12h-2v-17zm18 17h-3v-17h3zm-3-22 1-1h2l1 1-1 2h-2l-1-2zm11 5v2q2-2 5-2 5 0 5 6v11h-3v-11l-1-3-2-1-3 1-1 2v12h-3v-17zm14 8q0-4 2-6t5-2q3 0 4 2l1-2h2v16q0 4-2 6l-5 1h-4l-2-2 1-2q2 2 5 2l3-1 1-3v-2q-1 2-4 2t-5-2q-2-3-2-7zm3 1 1 4q1 2 3 2 3 0 4-3v-8q-1-2-4-2-2 0-3 2l-1 5z" style="fill:#f2f2f2;fill-rule:nonzero"/><path d="M355 283a153 153 0 1 1 306 0 153 153 0 1 1-306 0z" style="fill:#d9ead3;fill-opacity:.53070003;fill-rule:evenodd"/><path d="M355 283a153 153 0 1 1 306 0 153 153 0 1 1-306 0z" style="fill-rule:evenodd;stroke:#6aa84f;stroke-width:1;stroke-linecap:butt;stroke-linejoin:round"/><path d="M500 215v-23h6l6 1 3 4 1 6v1l-1 6-4 3q-2 2-5 2zm3-21v18h3q3 0 5-2t2-6v-1q0-4-2-6-1-2-5-3zm24 21q-3 0-5-2t-2-6v-1l1-4 2-3 4-1q3 0 5 2t2 6v1h-11l1 4q1 2 4 2l2-1 2-2 2 2q-2 3-7 3zm0-15-3 1-1 4h8l-1-4-3-1zm16 11 4-13h3l-6 17h-2l-7-17h3zm28-7-2 6-3 4-5 1-4-1-4-4-1-6v-1l1-6 4-4 4-1 5 1 3 4q2 2 2 6zm-3-1q0-4-2-7-2-2-5-2l-4 2-2 6v2q0 4 2 6 2 3 4 3 3 0 5-3 2-2 2-6zm21 4-2 6q-2 2-5 2t-4-2v8h-3v-23h2v2q2-2 5-2t5 2q2 2 2 6zm-3-1-1-4q-1-2-4-2-2 0-3 2v8q1 3 3 3 3 0 4-2l1-5zm16 4v-2l-4-1-3-1-2-1-1-2q0-3 2-4l5-1 4 1 2 4h-3l-1-2-2-1-3 1-1 1 1 2 3 1 4 1 2 2v2l-2 4-4 1-4-1-2-2-1-2h3l1 2 3 1 2-1 1-2z" style="fill:#f2f2f2;fill-rule:nonzero"/><path fill="none" d="M215 29h370v83H215Z" style="fill:#000;fill-opacity:0;fill-rule:evenodd"/><path d="m335 53 9 25 9-25h9v34h-7V62l-9 25h-5l-9-25 1 16v9h-7V53zm40 29h15v5h-22V53h7zm47-11-2 9a13 13 0 0 1-13 8l-7-2-5-6c-2-3-2-5-2-9v-1c0-4 0-7 2-9a14 14 0 0 1 12-8c3 0 6 0 8 2 2 1 4 3 5 6l2 9zm-7-2-2-8c-1-2-3-2-6-2-2 0-4 0-5 2l-2 8v2l2 8c1 2 3 3 5 3 3 0 5-1 6-3l2-8zm34 6c0 4 0 7-2 9-2 3-4 4-7 4s-5-1-7-3v12h-6V62h6v2c2-2 4-2 7-2s5 1 7 3 2 5 2 10zm-6-1-2-5-3-2-5 2v11c1 2 3 2 5 2 3 0 5-2 5-8zm24 6-1-2-4-1c-6-1-9-4-9-8 0-2 1-4 3-5 2-2 4-2 7-2s6 0 8 2c2 1 3 3 3 6h-7l-1-3-3-1-2 1-1 2 1 2 3 1 5 1c3 2 5 4 5 7l-3 6-8 2-5-1-4-3-2-5h7l1 3 3 1 3-1 1-2z" style="fill:#f2f2f2;fill-rule:nonzero"/><path fill="none" d="M400 112v185" style="fill:#000;fill-opacity:0;fill-rule:evenodd"/><path d="M400 240c-14 0-28 2-41 6a153 153 0 0 0 41 146 153 153 0 0 0 40-146c-13-4-26-6-40-6z" style="fill:#79e1d9;fill-opacity:.47490001;fill-rule:evenodd;stroke:#67c6b5;stroke-opacity:1"/><path d="M400 112v167" style="fill-rule:evenodd;stroke:#666;stroke-width:3;stroke-linecap:butt;stroke-linejoin:round"/><path d="m395 279 5 14 5-14z" style="fill:#666;fill-rule:evenodd;stroke:#666;stroke-width:3;stroke-linecap:butt"/></svg>