<svg xmlns="http://www.w3.org/2000/svg" xmlns:xlink="http://www.w3.org/1999/xlink" width="122.8" height="134.7" version="1.0"><defs><linearGradient id="c"><stop offset="0" style="stop-color:#b8b8b8;stop-opacity:.49803922"/><stop offset="1" style="stop-color:#7f7f7f;stop-opacity:0"/></linearGradient><linearGradient id="a"><stop offset="0" style="stop-color:#ffd43b;stop-opacity:1"/><stop offset="1" style="stop-color:#ffe873;stop-opacity:1"/></linearGradient><linearGradient id="b"><stop offset="0" style="stop-color:#5a9fd4;stop-opacity:1"/><stop offset="1" style="stop-color:#306998;stop-opacity:1"/></linearGradient><linearGradient xlink:href="#a" id="e" x1="151" x2="112" y1="192.4" y2="137.3" gradientTransform="matrix(.562541 0 0 .567972 -15 -12)" gradientUnits="userSpaceOnUse"/><linearGradient xlink:href="#b" id="d" x1="26.6" x2="135.7" y1="20.6" y2="114.4" gradientTransform="matrix(.562541 0 0 .567972 -15 -12)" gradientUnits="userSpaceOnUse"/><radialGradient xlink:href="#c" id="f" cx="61.5" cy="132.3" r="29" fx="61.5" fy="132.3" gradientTransform="matrix(2e-8 -.23994696 1.054668 3.8e-7 -84 142)" gradientUnits="userSpaceOnUse"/></defs><path d="M55 0 42 1C31 3 29 7 29 15v10h27v4H19c-8 0-15 4-17 13-3 10-3 17 0 28 2 7 6 13 14 13h9V71c0-9 8-17 17-17h27c7 0 13-6 13-13V15c0-7-6-13-13-14L55 0ZM40 8c3 0 5 3 5 5 0 3-2 5-5 5-2 0-5-2-5-5 0-2 3-5 5-5z" style="fill:url(#d);fill-opacity:1"/><path d="M86 29v12c0 9-8 17-17 17H42c-7 0-13 6-13 13v26c0 7 6 11 13 13 9 3 17 3 27 0 7-2 13-6 13-13V87H56v-4h40c7 0 10-5 13-13 3-9 3-17 0-28-2-8-5-13-13-13zM71 93c2 0 5 3 5 5 0 3-3 6-5 6-3 0-5-3-5-6 0-2 2-5 5-5z" style="fill:url(#e);fill-opacity:1"/><ellipse cx="55.8" cy="127.7" rx="35.9" ry="7" style="opacity:.44382;fill:url(#f);fill-opacity:1;fill-rule:nonzero;stroke:none;stroke-width:15.4174;stroke-miterlimit:4;stroke-dasharray:none;stroke-opacity:1"/><script/></svg>