<svg xmlns="http://www.w3.org/2000/svg" width="751.7" height="990.8" viewBox="0 0 704.7 928.9"><path fill="#dedd5e" d="M261 927c-17-3-30-9-43-21-7-6-11-12-11-17l-2-7c-4-9-2-21 6-32l12-13c14-15 30-33 30-35s-5-2-11-1h-17c-5 1-8 1-14-2-5-2-5-2-10-1-7 2-13 1-17-3l-3-3-7 2c-15 3-31 0-43-9a53 53 0 0 1-20-48c4-19 23-39 42-42 6-1 6-1 7-6 2-6 6-10 11-11 2-1 3-1 4-5 1-8 5-14 12-14 2-1 2-2 3-6l5-8 7-4c2 0 3-1 4-5 2-8 5-12 11-15 5-2 5-3 6-8 0-5 3-9 9-11 4-2 5-3 6-8 2-12 9-20 17-20 3 0 4 0 6-5 4-7 12-15 19-19 3-2 6-3 5-4l-16-7-19-9c-7-4-19-14-35-29-13-13-16-15-18-15s-3 2-3 5c-2 7-5 15-10 19-5 5-5 5-5 11 0 8-3 14-10 19-5 3-5 4-5 7 0 5-3 11-6 14l-3 3-4 8c-2 4-3 6-2 9l-1 11c-2 14-8 27-17 36-7 7-14 12-24 15-7 3-9 3-19 2-8 0-12-1-17-4-8-4-16-11-20-19-2-6-3-8-3-19l1-16c0-3 0-5-2-8-1-3-2-5-1-8 0-3 0-4-2-7-2-1-3-4-4-7 0-4 0-5 3-8l3-4-3-2-3-2c-2 0-4-6-4-9l2-8 3-4-2-5c-2-4-2-6-2-10 1-4 1-5-2-8l-3-8c0-6 0-6-4-7-3-1-10-8-12-12l-1-7c0-3-1-5-5-10-5-4-6-7-8-14-2-8-2-9-1-13 1-6 2-7 9-12 5-3 6-3 6-8 0-4 0-6 3-9 3-4 11-11 15-12 1-1 1-2-1-6-6-15-7-19-7-37v-17l4-8c5-9 12-16 18-19 9-2 20 2 25 10 4 6 4 19 1 35-4 19-4 39 0 48l6 11c11 14 17 43 13 58-2 4-2 4 2 7 3 4 4 8 2 12-1 2-1 3 2 6s4 3 3 10l-1 10c-2 4 2 2 5-2l6-6c4-1 4-2 5-7s3-11 5-11l4-3c3-2 4-3 4-7s0-6 4-10l3-9 2-8c1-3 1-4-1-8-3-7-4-23-1-31 5-18 17-29 38-35 7-1 8-2 14-9 12-14 25-23 46-32l11-5-1-6c-2-4-3-5-5-4l-8 3c-8 3-25 3-32 1-9-3-22-18-45-52a756 756 0 0 1-53-94c1-14 6-27 17-50l7-17c0-2-1-5-3-7-4-4-9-4-16 1-4 3-8 4-11 5h-5l5-5c9-10 11-20 5-25-3-3-5-4-19-5-11-1-11-3-2-6 12-4 19-10 23-23 2-4 2-6 1-16-2-15-1-16 5-7 4 5 10 9 15 9 8 0 17-7 19-15l3-7 2-2 2 3 3 10c1 10 3 15 8 18s12 3 18 0c9-5 9-4 4 7-5 10-7 15-6 21 1 4 2 7 5 9 4 4 10 6 31 9l42 10c3 1 3 3 4 6 0 4 2 8 7 15a285 285 0 0 1 21 36c7 10 15 23 14 26s7 21 9 21l2-3c1-4 4-3 8 2l14 32c6 11 5 18 0 27s-13 18-20 23l-6 6c0 2 8 16 10 17 1 1 3 1 8-1 14-6 33-10 51-12 16-1 19 0 26 7l4 5 6-3c13-5 24-5 35 1 8 4 14 9 18 18 2 5 3 7 3 15l-1 11 1 3c5 1 6 2 7 6 1 3 2 4 4 5 5 1 7 4 8 10 1 5 1 5 4 5 6 0 12 6 12 11s0 5 3 5c4 0 7 2 8 8l2 3 5 1c3 2 3 2 7-1 11-6 23-6 33 1 9 5 13 11 16 21 2 8 3 27 2 31v5c1 2 2 3 6 3 4 1 8 3 12 9 1 3 3 3 6 3s4 1 7 4l3 4 4 1c4 0 9 5 11 10 1 2 2 3 5 2 6-1 8 1 11 9 2 5 4 7 6 7 5 1 21 13 30 23l11 17c9 19 12 28 12 44 1 14 1 15-2 24-6 17-17 31-29 37-11 5-14 5-21 2-6-3-7-4-9-9-3-6-3-8-2-13l1-4-6 3c-9 6-16 7-23 5-5-2-11-9-12-14 0-4-7-14-9-14l-5 3c-3 2-3 2-1 7v7c-1 3-6 9-12 12-5 3-5 3-4 8s0 5-5 10l-6 6 2 4c1 3 2 6 1 7-1 3-5 8-9 10-4 3-4 3-3 7 3 9-9 19-28 23-5 1-7 2-8 4s0 3 3 8l4 6 14-1 21-1c10-1 47 2 57 4 28 5 46 16 55 30 3 7 5 18 3 34s-3 19-9 25c-8 8-45 27-52 28-9 0-52-11-79-21a374 374 0 0 0-74-18l-14-4c-9-3-11-4-15-8-5-6-6-9-5-16l1-15c1-13 2-18 9-26 4-5 7-7 14-10l12-4c3 0 5-1 5-2 5-5 10-10 15-11 6-3 6-5 0-10-7-4-11-12-12-20-1-7 2-13 8-17 4-2 6-5 3-6-1-1-1-10 1-13l5-5c3-2 3-2 2-8 0-9 2-13 10-16 4-2 5-3 4-6l-1-5-3 2c-5 4-10 6-15 5-3-1-4 0-5 2-2 5-5 7-11 9-4 1-5 2-7 6-3 4-4 6-8 7l-9 2c-3 0-4 1-9 6a76 76 0 0 1-39 23l-17 4c-14 4-22 4-40 1-11-1-18-3-25-6-8-3-10-3-12-2-5 3-9 4-15 4-6-1-6-1-9 3-2 2-6 5-8 5l-5 5c-3 7-4 8-9 11-4 1-6 3-7 5l-5 5c-3 2-4 3-4 6 0 2-2 4-7 9-6 6-9 11-6 13h9c6 0 8 1 10 2 3 2 4 2 8 2 3-1 5 0 7 1h7c4-2 11-2 14 0 4 2 9 7 10 10 1 4 4 2 11-7 8-9 13-12 22-14 7-2 13 0 22 5 5 4 8 4 12 4 9 0 15 5 21 19 2 5 2 7 2 14-1 11-3 17-16 43-11 21-14 29-17 45-5 27-14 44-32 60a57 57 0 0 1-53 15zM88 627c1-2-2-4-4-3-1 1 0 4 2 4l2-1zm37-9-1-1-2 1 1 1 2-1zm-57-30-1-2c-1 0-2-2-2-5 0-2 0-3-1-2l-1 3v6c2 2 5 2 5 0zm541-12c4-2 4-2 3-4-3-2-5-1-7 3s-2 4 4 1zm-242-23 4-1-1-6-1-7-6 2c-6 2-6 2-6 6 0 8 2 10 10 6zm78-17 8 1c4 1 5 1 8-1l7-4c2 0 5-2 6-4 7-8 17-12 27-12 4 0 6-1 10-4l8-3 4-2-3-5c-3-5-3-5-9-5-10 0-21-3-27-9-8-7-9-11-9-22 0-7-1-9-2-9-2 0-8-6-8-8 0-1-1-2-3-2-5-1-8-5-9-9-1-3-2-4-4-4s-2 1-3 10l-2 15-3 16c-4 21-5 25-8 31-6 8-14 15-23 18s-10 5-2 7c6 1 13 5 19 9l5 3 5-3 8-4zM276 312l5-3c7-2 8-2 2-12a255 255 0 0 0-18-29c-2 0-12 6-13 8-1 1 3 11 10 20l6 11c3 5 5 7 8 5zm34-53h-2l-1 2h1l2-2zm-4-64-1-1-1 1 1 2 1-2zm-161-69c2-3 3-4 3-11 0-19-2-28-4-18l-6 32c0 2 3 1 7-3zm-5-45 12-8c4-2 6-4 6-5-3-6-17-22-22-24-11-5-22 5-18 18 2 7 13 24 15 24l7-5zm4-11c-3-3-3-6-1-5 2 0 5 6 4 7l-3-2zm-20-2c-1-1 0-1 1-1l1 1-1 1-1-1z"/><path fill="#61b19b" d="M261 927c-17-3-30-9-43-21-7-6-11-12-11-17l-2-7c-4-9-2-21 6-32l12-13c14-15 30-33 30-35s-5-2-11-1h-17c-5 1-8 1-14-2-5-2-5-2-10-1-7 2-13 1-17-3l-3-3-7 2c-15 3-31 0-43-9a53 53 0 0 1-20-48c4-19 23-39 42-42 6-1 6-1 7-6 2-6 6-10 11-11 2-1 3-1 4-5 1-8 5-14 12-14 2-1 2-2 3-6l5-8 6-3c3 0 5-3 5-7 0-5 5-11 11-14 5-2 5-3 6-8 0-5 3-9 9-11 4-2 5-3 6-8 2-12 9-20 17-20 3 0 4 0 6-5 4-7 12-15 19-19 3-2 6-3 5-4l-16-7-19-9c-7-4-19-14-35-29-13-13-16-15-18-15s-3 2-3 5c-2 7-5 15-10 19-5 5-5 5-5 10 0 9-3 15-10 20-5 3-5 4-5 7 0 5-3 11-6 14l-3 3-4 8c-2 4-3 6-2 9l-1 11c-2 14-8 27-17 36-7 7-14 12-24 15-7 3-9 3-19 2-8 0-12-1-17-4-8-4-16-11-20-19-2-6-3-8-3-19l1-16c0-3 0-5-2-8-1-3-2-5-1-8 0-3 0-4-2-7-2-1-3-4-4-7 0-4 0-5 3-8l3-4-3-2-3-2c-1 0-4-6-4-9l3-8 3-5-2-3c-2-2-2-4-2-9s0-7-2-9c-3-3-3-5-4-11 0-3-1-4-4-5-2 0-5-3-7-6-5-4-6-8-6-14 0-2-2-5-5-8-8-9-12-24-8-32 1-2 4-5 8-7 6-4 6-4 6-9 0-4 0-6 3-10 3-3 11-10 15-11l-2-11c-4-13-6-23-6-35 0-20 12-39 26-41 5-1 7 0 12 2 9 5 11 10 11 22l-2 23c-5 25-3 44 6 56 11 16 17 40 14 57-2 6-2 6 1 9s4 8 3 12c-1 2-1 3 2 6s4 4 3 10l-1 10c-2 3 2 3 5-2l6-6c4-1 4-2 5-7s3-11 5-11l4-3c3-2 4-3 4-7s0-6 4-10l3-9 2-8c1-3 1-4-1-8-3-7-4-23-1-31 5-18 16-28 38-35 7-1 8-2 14-8 12-15 25-24 46-33l11-5-1-6c-2-4-3-5-5-4l-8 3c-8 3-25 3-32 1-9-3-22-18-45-52a338645 338645 0 0 1-26-40 518 518 0 0 1-25-44c-3-4-3-7-1-18 3-12 10-30 18-45 4-7 6-14 6-15l-3-6c-3-3-5-4-9-4s-6 1-10 4c-5 4-9 6-9 4l3-6c4-4 7-11 7-15 0-8-7-13-19-13H77c-4 0-2-2 4-4a34 34 0 0 0 24-40l-1-11c1-1 4 2 4 4l4 5c8 7 18 6 26-1 2-1 4-4 5-7 2-6 4-9 6-7l1 4 2 9c1 6 2 8 6 12s5 5 11 5 8-1 12-3l4-2-3 7c-5 11-7 16-6 23 1 4 2 7 4 8 3 3 14 7 25 8 21 3 49 10 52 13l2 5c0 3 2 8 9 19a496 496 0 0 1 41 77c2 2 2 2 3-1 1-6 6-2 13 14 14 28 15 34 9 45-3 8-13 19-21 25l-6 6c0 1 8 15 10 16 2 2 3 1 10-1 20-7 42-11 58-11h11l6 6 5 6 5-3c18-8 37-4 49 11 6 8 8 16 7 27 0 8 0 9 2 9 3 0 5 3 6 7 0 3 1 3 4 4s6 6 8 12c0 2 1 3 3 3 4 0 10 3 11 6l1 7c0 3 0 3 4 3s8 4 8 8l1 3 5 2c3 2 4 2 8-1 17-11 41-2 48 18 2 7 3 10 3 24 0 17 0 17 2 18l6 2c3 0 6 2 9 7 1 3 2 3 6 3 3 0 4 1 8 4 2 3 5 5 8 5 4 1 8 5 10 10 1 2 2 3 5 2 5-1 9 2 12 9l3 7c4 2 6 2 14 8 19 14 26 24 38 54 2 7 3 11 3 23 1 13 1 14-2 23-6 17-17 31-29 37-11 5-14 5-21 2-6-3-7-4-9-9-3-6-3-8-2-13l1-4-6 3c-9 6-16 7-23 5-5-2-11-9-12-14 0-4-7-14-9-14l-5 3c-3 2-3 2-1 7v7c-1 3-6 9-12 12-5 3-5 3-4 8s0 5-5 10l-6 6 2 4c1 3 2 6 1 7-1 3-5 8-9 10-4 3-4 3-3 7 3 9-9 19-28 23-5 1-7 2-8 4s0 3 3 8l4 6 15-1 21-1c9-1 46 2 56 4 27 5 46 16 55 30 3 7 5 18 3 34s-3 19-9 25c-8 8-45 27-52 28-9 0-52-11-79-21a374 374 0 0 0-74-18l-14-4c-9-3-11-4-15-8-5-6-6-9-5-16l1-15c1-13 2-18 9-26 4-5 7-7 14-10l12-4c3 0 5-1 5-2 5-5 10-10 15-11 6-3 6-5 0-10-7-4-11-12-12-20-1-7 2-13 8-17 4-2 6-5 3-6-1-1-1-10 1-13l5-5c3-2 3-2 2-8 0-9 2-13 10-16 4-2 5-3 4-6l-1-5-3 2c-5 4-10 6-15 5-3-1-4 0-5 2-2 5-5 7-11 9-4 1-5 2-7 6-3 4-4 6-8 7l-9 2c-3 0-4 1-9 6a76 76 0 0 1-39 23l-17 4c-14 4-22 4-40 1-11-1-18-3-25-6-8-3-10-3-12-2-5 3-9 4-15 4-6-1-6-1-9 3-2 2-6 5-8 5l-5 5c-3 7-4 8-9 11-4 1-6 3-7 5l-5 5c-3 2-4 3-4 6 0 2-2 4-7 9-6 6-9 11-6 13h9c6 0 8 1 10 2 3 2 4 2 8 2 3-1 5 0 7 1h7c8-4 17-1 22 7s4 7 7 3c12-14 14-16 20-19 11-5 20-4 31 4 4 3 7 3 10 3 10 0 16 5 22 19 2 5 2 7 2 14-1 11-3 17-16 43-11 21-14 29-17 45-5 27-14 44-32 60a57 57 0 0 1-53 15zm403-140-1-3c-2 1-2 3-1 7 0 2 0 2 1 1l1-5zm-3-5c4-5 5-8 3-14-5-11-20-21-45-29-11-3-14-3-19-3l-7-1-12 1c-2 1-2 1-1-1v-2l-18-2a80963 80963 0 0 1-43 0c-2 5 0 5 15 6a516 516 0 0 1 38 1c5-2 6-2 5 1 0 2 0 2 4 2l3 1c-1 2 12 6 20 6 9 1 16 3 29 11 12 8 21 17 21 20 0 2 2 6 4 6l3-3zm-132-83c7-3 13-10 13-13 0-8-5-6-14 6-7 10-7 11 1 7zm13-22c7-4 11-9 12-14 0-3 0-4-2-5s-10 4-11 6l-4 8-3 7c0 2 3 1 8-2zm12-24c6-3 10-9 10-12s-2-3-7 0c-3 1-5 3-5 5l-3 5c-2 2-2 4-1 4l6-2zm116-12c11-5 21-19 25-33 2-5 2-9 2-21-1-14-1-17-5-27-6-18-13-29-23-39-9-9-20-17-22-15l-3 9-4 12c-2 5-9 11-16 14-5 3-6 3-8 12l-3 11c0 3 4 7 8 10 2 1 1 1-4 4-8 4-13 8-15 13-2 4-2 11 0 13l4-4c5-6 8-8 14-11 7-4 9-3 3 1-8 5-14 14-14 20 0 4 2 8 5 11 2 2 5 3 9 3 6 1 6 0 18-7 19-12 22-16 13-16-6 0-10-2-14-7-7-6-7-8-8-22 0-12 0-14 2-18l2-4-1 7 1 14c3 19 13 29 25 23 7-4 9-13 2-23-3-6-4-7-1-6 1 1 1 0 2-1 1-5 2-5 3 0 0 4 2 8 3 10 5 10 4 16-7 29-13 17-16 26-13 35 4 7 10 8 20 3zm-100-12c6-6 10-12 9-16-2-6-12 0-17 11l-6 10c-6 7 4 3 14-5zm-467 5c16-4 33-18 37-34 1-3 1-3-9 10l-9 8c-12 6-35 7-44 1-6-3-10-10-12-18l-3-9c-2-2-2-2 1-2 4 1 5-1 3-5l-2-8-2-6v-7l-2-8c0-6-1-10-3-16l-1-10c1-3 0-5-1-6v-3l-1-5c-3-8-4-12-3-13v-6c-2-6-1-7 5-7 7 0 14-6 17-13l3-2c6 0 11-9 11-19 0-12-2-20-6-24l-7-12c-5-11-7-13-13-13-7 0-16 9-18 19 0 2-1 3-2 3s-2-4-1-6l1-4c0-3 6-12 9-14 4-2 2-6-7-10-6-3-9-3-14 0-4 3-10 13-9 16l4 2c6 1 6 3 0 3-8 0-15 5-16 13s4 23 8 24c3 1 4-1 2-6s-1-7 3-3l3 3 6-3c5-4 6-4 6-2l-7 6c-11 9-12 15-4 24 3 3 4 4 8 4 7 0 16-5 20-11l4-4c1 3-3 9-11 16-7 6-8 6-8 12 0 4 1 6 4 9 2 3 2 4 1 6-2 2 0 9 4 13 3 3 3 3 1 5-3 2-5 6-4 12 1 4 2 5 6 9l4 4-2 3c-5 4-4 11 2 15 3 3 3 4 2 5-3 3-3 9 0 15l1 3c-4-2-5 1-6 8-1 27 22 44 51 38zM60 457c0-3 1-5 3-5 3 0 3 2 0 4-2 2-3 2-3 1zm516 151c8-5 15-13 15-17 0-1-3-1-7 2-5 2-18 16-17 17s5 1 9-2zm14-23c14-12 24-31 23-46-2-19-15-36-30-40-9-2-20-1-25 1l-9 5c-6 3-12 9-13 12-1 2 1 5 3 5l3-3c4-4 17-9 24-9 13 0 23 4 30 12 3 4 5 13 5 21a82 82 0 0 1-13 33l-6 10c-7 8-1 7 8-1zm-169-4c3-4 9-10 14-12 3-2 5 0 3 3v9l2-1c0-3 0-3 2-1 2 3 3 1 5-4 2-7 9-14 13-15 3-1 3-1 3 3 0 6 2 8 4 4l3-4 11-14c2-2 4-4 6-4l4-1c2-2 2-2 1 1-2 8-3 18-2 19 1 2 1 2 2 0l3-11c2-7 3-8 8-13l6-6 4-3 6-4c2-2 2-2 3 0 2 2 4 1 8-6s4-8 1-7l-2-1c0-3-16 3-24 10l-6 6 1-4 1-3h-5c-7 1-13 5-20 13-5 5-6 6-9 5l-8 4-5 4-2-3c-1-2-2-2-6-1-11 2-19 10-27 27l-4 11c0 3 4 3 6-1zm20-9 1-4 1-1c0 4-1 7-2 5zm168 4c4-2 5-3 2-4-2-1-3 0-5 2-5 5-4 6 3 2zm-459-17c3-10 0-16-9-19-5-2-10-1-10 2l6 8c4 4 6 7 7 11 1 3 2 5 3 4l3-6zm219-6c1-2 2-12 0-13l-6 1c-6 2-6 2-6 6 0 7 1 8 6 8l6-2zm-211-7c2-5 2-18 0-22-1-3-3-5-7-6-5-3-5-3-9-1-6 3-6 4 0 10 5 4 8 9 11 17 2 7 2 7 5 2zm284-9h10c5 1 6 1 10-2l6-2c1 0 4-2 6-5l8-7c5-3 16-6 19-5l9-3 8-4c3 0 5-1 5-2l-3-5c-3-5-3-5-9-5-10 0-21-3-27-9-8-7-9-11-9-22 0-7-1-9-2-9-2 0-8-6-8-8 0-1-1-2-3-2-5-1-8-5-9-9-1-3-2-4-4-4s-2 1-3 10l-2 15-3 17c-4 21-5 24-9 30-6 9-14 15-22 18-9 3-10 5-3 7s14 5 20 9l5 3 3-2 7-4zm-272-9c2-5 3-7 3-14v-9l-5-4c-5-5-12-8-15-7-2 1-4 6-2 8l4 5c5 5 7 11 7 19l1 7c2 2 4 0 7-5zm250-15 8-6a249 249 0 0 0 8-126c-6-33-22-71-36-85-4-5-5-5-10-5-14 0-16 2-9 9 4 4 8 12 15 25a218 218 0 0 1 13 39c8 20 11 36 11 76 0 35-1 47-6 63-4 13-4 14-2 14l8-4zm222-5c0-6-3-14-7-15-7-1-8 5-2 10l4 5 4 4 1-4zm-457-11c2-4 3-7 3-11 0-8-3-11-11-14s-12-3-13 0c-1 1-1 3 4 8 7 7 7 8 9 17 1 9 3 9 8 0zm442 1-1-6c-2-10-11-16-11-7 0 3 1 5 5 9 5 6 5 6 7 4zm-15-12c0-5-4-12-7-14-7-4-10 2-4 8l6 7c4 5 5 5 5-1zm-417-9c2-5 5-13 5-18 0-7-3-11-9-13-8-4-13-4-16-1-2 3-1 5 3 8 5 3 11 11 12 18 2 11 2 11 5 6zm19-2c20-9 36-32 38-52 1-12-4-27-10-32-3-3-3-2-2 3l2 12c2 10 0 20-5 33-5 11-14 20-25 25-7 4-9 6-9 11 0 4 2 4 11 0zm380 1c1-2-1-9-4-12-3-4-7-4-9-1s-1 4 3 7l6 5c1 3 3 4 4 1zm-16-11c-1-6-2-8-4-8-2 1-2 7 0 10 3 4 5 2 4-2zm-15-2-1-1-2 1 2 1 1-1zm7-5c2-2 5-10 5-18 0-28-21-50-43-43-6 2-7 4-6 8 0 2 1 2 11 3l14 2c6 3 11 9 14 16 3 8 4 21 2 27-2 5 0 7 3 5zM82 423l-3-5 2 11c2 3 2 3 3 0l-2-6zm442-11c2-3-5-14-9-13-2 1-2 3 2 9 3 5 5 6 7 4zM72 400c-5-6-9-30-7-50l2-23c1-12 1-13-2-17-4-5-7-7-13-5-8 2-15 12-19 26-2 11 0 35 5 47l5 11 7 6c5 5 7 6 11 6l8 3c3 2 3 2 4 0l-1-4zm439 1c0-2-1-7-3-10-2-4-7-4-8 0-1 2 0 3 4 7 5 5 6 5 7 3zm-15-20c0-2-5-9-8-9-1 0-3 4-3 7 0 1 1 2 3 2l4 2c1 2 4 1 4-2zm-15-16c0-4-5-9-7-8v10l4 1c2 0 3-1 3-3zm-12-15c0-2-2-4-4-4-1 0-2 3-1 5 2 2 5 1 5-1zm-7-15c-1-9-1-11-4-17-8-16-20-24-35-24-13 0-17 3-12 8 1 1 3 2 8 2 11 0 16 2 24 8l9 9c3 5 6 14 6 18s2 8 3 7l1-11zm-182-25 7-3c1-1-7-16-12-25l-7-10-3-4c-2 0-12 6-13 8-1 1 3 11 10 20l6 11 4 5 8-2zm30-11c0-2-14-29-19-35l-5-5c-4 0-3 1 6 17l7 9 5 7 1 3 1 3c0 2 0 3 2 3l2-2zm3-34c5-5 9-11 11-15l6-9c2 0 3-2 3-5 0-4-1-7-5-15l-8-18c-4-8-5-10-6-7s-3 2-5-1c-3-3-4-3-6 1l-3 4-6-3c-6-4-6-4-8-1-1 1 0 3 1 5l3 12c2 9 3 10 7 14s4 4 14 4c7 1 11 1 13 3 3 2 4 4 1 3l-4 4-11 16-10 12c0 2 3 4 4 4l9-8zm-13-83c-3-3-4-2-1 2l2 3-1-5zm-15-1c5-4 10-9 10-11l-4-7c-4-5-4-6-5-4l-7 8c-4 3-6 6-6 7l5 11 7-4zm-48-20-2-1c-2 0-3 2-2 3s4 0 4-2zm15-4c6-6 8-10 5-10s-19 14-18 16 7-1 13-6zm23-19c0-3-23-40-28-44l-25-8c-28-7-32-8-43-8-10-1-10 0 0 4l12 4c15 7 18 8 34 8 13 0 14 0 9 1l-5 2 5 7 8 8c0 1 2 2 5 1 9-1 14 3 15 11l1 9c1 4 1 5 5 5l5 1c1 1 2 0 2-1zm-130-12c3-3 3-3 3-17l-1-16c-1-2-3 0-4 4l-5 32c0 2 3 1 7-3zm-33-38c1-2-1-3-2 0v2l2-2zm28-7 13-9 6-4-3-4-4-5c-3-6-13-15-17-16-7-2-12 0-16 4l-4 8c-1 6 4 18 15 31 2 2 3 1 10-5zm4-11c-3-3-3-6-1-5 2 0 5 6 4 7l-3-2zm-20-2 1-1 1 1-1 1-1-1zm-3 17c2-2 1-4-1-7-2-2-4-3-6-2-3 1-4 5-1 5s5 2 4 3c-1 2 2 2 4 1zm-10-19c0-6-3-12-6-12-2 0-6 3-6 5l-2 1c-3 0-9 3-8 4l6 1c6 0 9 1 12 4 2 3 4 2 4-3zm-8-6c-1-3-1-4 1-4l1 3c1 4 0 4-2 1zm70 4-1-4-1-4c-2-13-3-15-8-13-2 0-2 1 0 2 2 2 2 3 1 4v6l2 4 1 1-2 1c-3 0-3 3-1 4l5 1c4 2 4 1 4-2zm-64-13c0-1 1-2 3-2l2-4c-1-1 0-2 1-2 4-1 8-6 7-7l-1-1c0-2 3-2 5 1 2 2 4 2 10-1l5-3v3c0 4 2 4 4 2l4-2 2-2c0-2-1-2-3-2-5 0-6-1-4-3h2c1 2 5 1 5-1s-1-3-2-2c-2 0-3-1-3-2l-1-2h-1l-1-1-1 4c0 4-1 5-6 4h-13c-12 0-12 0-13 2l3 5 3 3-3 2-8 11c1 2 4 2 4 0zm50-9c0-2-4-3-5-2-1 2 1 3 3 3l2-1zm16 0-2-2c-3-2-4-1-2 1s4 3 4 1zm-64-4c0-2 0-3-1-1v2c1 2 1 1 1-1z"/><path fill="#0f8bf1" d="M257 925c-14-3-25-8-35-17-9-8-14-14-14-18l-1-6-3-11c-1-13 4-20 33-51l18-20c0-2-7-4-12-2-5 1-8 1-12-1h-6c-5 3-8 2-14-1s-6-3-10-1c-6 2-11 1-16-3l-4-3-7 2c-16 4-33 0-45-11-6-5-8-8-12-16-6-11-7-21-4-31 5-19 23-37 41-39h6l1-6c2-7 7-11 11-11 3 0 3 0 4-8 1-6 6-11 10-11 3 0 5-3 5-7s6-10 10-10 5-2 5-4c0-4 4-12 7-14l5-3c5-2 6-3 6-8s3-9 9-12l5-2c0-4 3-13 5-17 4-5 6-7 13-8 3-1 4-2 8-8 5-8 11-14 19-17 3-2 5-3 4-4l-18-8c-9-4-20-9-23-12-7-4-28-23-39-35-6-6-7-7-10-6-2 0-3 2-4 5-2 9-6 16-10 20-5 5-5 5-5 11 0 8-3 13-10 18-5 4-6 5-6 8 0 5-2 10-5 13l-3 4-3 8c-3 4-4 6-4 16a61 61 0 0 1-40 54c-7 3-9 3-19 2-8 0-11-1-17-4-8-4-14-9-18-17-3-7-4-8-4-20l1-16c1-3 1-4-1-8-2-3-2-5-2-8 1-4 0-5-3-7-4-4-4-10 0-14l3-5-4-3-5-4c-2-3-1-9 2-14l2-5-2-4c-2-3-2-5-2-9 1-5 1-6-2-9-2-3-3-5-3-9s0-5-5-7c-3-1-6-4-8-7-3-4-4-6-4-10 0-5 0-6-5-11-5-4-6-7-8-13-4-13-2-19 7-25 6-3 7-4 6-7-1-6 6-16 15-21 6-2 6-1 0-16-4-13-6-32-4-42 1-6 7-18 10-22 9-9 19-11 28-5 3 1 6 4 7 6 4 6 4 20 1 36-4 18-4 37 0 46l6 12c11 16 18 46 12 60-1 2 0 3 3 6s4 7 2 12c-1 1 0 2 2 5 3 3 3 3 3 10l-1 10c-1 4 3 4 6-1l7-6c4-2 4-3 5-8 1-7 1-8 7-12 5-3 5-4 6-9 0-4 1-7 4-10l3-9 2-8c1-3 1-4-1-8-2-7-4-23-2-30 5-18 16-28 37-34 8-3 9-4 21-16 14-13 23-20 41-27l11-5-2-6c-3-6-3-6-13-2-7 2-22 3-30 1-8-1-24-19-45-50l-12-16a563 563 0 0 1-42-71c-2-3-2-5 0-14 3-13 8-25 18-45l7-17-4-6c-3-3-5-4-9-4s-6 1-10 4c-5 4-9 6-9 4l3-6c9-10 8-22-1-26-3-1-9-2-20-2-5 0-3-2 3-4a34 34 0 0 0 24-40l-1-11c1-1 4 2 4 4 0 3 8 9 13 9 9 2 19-4 22-12 2-6 4-9 6-7l1 4 2 9c1 6 2 8 6 12s5 5 11 5 8-1 12-3l4-2-3 7c-5 10-7 16-6 23 1 9 7 13 23 16l51 10 7 3 1 4a747 747 0 0 1 54 99v-2c0-3 2-4 4-2 2 1 11 19 18 34 4 11 4 16 0 25-4 7-13 18-21 25l-6 6c0 2 9 17 11 18l13-3c20-7 35-9 52-10 13 0 15 1 19 7 3 4 5 5 11 2 9-3 16-4 23-3 13 2 23 10 29 21 2 5 3 8 3 15l-1 11c-1 3 0 3 2 3 3 0 6 4 6 7s1 4 3 4c5 1 8 4 9 9 1 7 1 7 5 7 6 0 10 5 10 11v5h4c5 0 6 0 8 6 1 4 2 5 3 5l4 1c2 2 4 2 10-2 5-3 7-3 15-3s9 0 15 4c13 7 18 19 18 40v14c-2 2 2 6 6 7 6 1 8 2 11 7 2 4 5 6 7 5s7 2 9 5 3 4 6 4c4 0 8 3 11 9 1 3 2 4 4 3 6-1 8 0 11 8 3 6 4 8 7 8 4 1 16 10 25 18 7 7 9 9 15 21 9 19 12 27 12 44 1 14 1 15-2 24-6 17-16 30-28 36-10 4-15 5-22 2-8-4-11-13-9-22l1-5-6 3c-11 8-19 9-26 4-5-3-9-9-9-12s-8-14-10-14l-5 2c-4 3-4 2-2 12 1 4-3 10-10 15-7 4-7 4-6 8s-1 7-7 12l-4 4 2 5c3 6 0 13-8 17-5 2-6 4-4 6 2 1 2 6-1 10-4 5-13 10-23 12-8 2-12 4-12 7 0 2 5 9 8 13l9 1 29-2c32-1 51 1 73 8 19 7 30 14 37 28 2 4 2 5 2 21 0 28-2 32-25 45-17 10-31 17-36 17a482 482 0 0 1-107-29 1167 1167 0 0 0-68-17c-3-2-9-9-10-12v-9l1-10 1-14c1-8 2-8 7-15 7-7 16-13 26-14l7-3c3-5 6-8 11-10l7-2c2-2 1-5-2-7-9-6-14-15-14-24 0-5 2-11 6-13 7-4 7-3 5-8-3-7 0-15 6-18 3-1 3-1 3-8-1-9 0-12 8-15l5-3v-6c-1-7-2-9-3-6s-6 7-9 8l-8 1c-4-1-5-1-6 2-2 5-4 7-10 9-5 1-6 2-8 6-3 6-6 8-14 9-5 0-6 1-11 6a78 78 0 0 1-39 23l-16 4c-8 2-12 3-22 3-19 0-33-3-51-10-3-1-4-1-7 1s-5 3-11 3c-8 0-8 0-12 3-2 3-5 5-8 6-3 0-4 1-5 4-1 6-3 8-9 11l-7 5c0 2-2 4-5 6s-4 3-4 5c0 4-4 9-8 11-3 2-5 4-5 7-2 5 0 7 10 6 7 0 8 1 10 2 2 2 3 3 7 2s6 0 8 1h7c9-4 17-1 22 9 3 6 6 8 6 6s11-16 15-20c5-4 14-7 19-7s13 3 20 8c3 2 5 2 9 2 9 0 12 3 18 15 7 14 5 25-11 58-11 21-14 29-17 44-6 29-14 45-31 61a57 57 0 0 1-58 15zm30-17c5-1 9-4 12-6l10-6c7-3 8-4 15-13 6-8 7-11 10-21a421 421 0 0 1 29-75c11-24 9-41-4-48-4-2-4-2-2 3 2 8 2 15-4 30l-4 10a395 395 0 0 0-23 61 141 141 0 0 1-18 36 96 96 0 0 1-26 24c-3 2-20 7-24 7-3 0-3 0-1 1 4 2 20 0 30-3zm-10-9c10-4 23-17 31-32 7-12 7-13 1-16l-6-3c-2 0-3 0-3 3l-7 14-6 11c-3 5-5 9-7 10l-2 2-1 2-6 4-9 7-3 2c0 1 12-1 18-4zm40-49c0-2-7-6-9-5 0 1 6 7 8 7l1-2zm7-18 7-18 18-45c3-9 4-11 4-19-1-10-3-12-9-10s-9 9-8 17c0 4 0 6-3 13l-5 10-2 5-1 5-3 5-4 9c-2 2-3 6-3 9 0 4-1 5-4 8s-3 5-3 7c1 3 0 4-1 6-2 1-2 1 0 4l11 8c1 0 4-6 6-14zm301-9-2-2c-2 0-2 1-2 2s0 3 2 2l2-2zm37-27c2-7 3-12 1-12l-2 2-4 5c-1 2-2 3 0 4v6c0 4 0 4 1 3l4-8zm-27 0 5-2 3-1 8-4 6-4c2 0 7-6 8-9 2-8-9-21-22-27a113 113 0 0 0-50-13c0-2-4-2-8-1-6 2-7 2-5 0v-2l-19-2a2302 2302 0 0 1-42-1l-1 4c0 2-8 10-13 13-4 2-7 2-15 2-11 0-12 1-5 5 13 8 19 11 28 12l13 2c3 1 4 1 10-5a128 128 0 0 1 41-26c3 0-2 3-9 7-12 6-33 22-33 26 0 1 3 1 5-1l31-24 11-4c4 0 3 1-6 6-8 4-18 11-25 18-5 5-6 6-2 5 1 0 2 0 1 1l-4 1c-3 0-3 0-1 2l5 2c3 0 4 0 7-3 2-2 3-2 4-1l1 3c-1 2 0 2 1 2l8 2 7 1a56 56 0 0 1 28 9l2 3c2 3 2 4 9 4l9 1h3l6-1zm-369-22c5-13 2-25-7-31-7-5-9-3-5 3 2 5 3 16 1 20-2 5-2 6 2 11l3 5c0 2 0 2 2 0l4-8zm17-2c3-6 3-17 0-22-2-5-7-9-13-9-4-1-5 1-2 3 4 3 7 26 4 31-1 1-1 2 1 4l2 2 3-2 5-7zm29 4c6-5 9-10 9-18s-3-10-10-9c-9 1-15 6-8 7 3 0 6 5 6 9s-3 9-7 11c-5 3-5 5 0 5 4 0 6-1 10-5zm-3-3 1-1 1 1-1 1-1-1zm-61-3c4-9 4-16 0-23-2-6-10-12-11-11v6c1 5 1 11-1 23-1 1 0 2 1 2 3 1 5 3 6 8l1 3 4-8zm-21 1c5-7 5-10 6-19 0-7-1-11-5-14-2-3-3-2-3 5 0 6-2 11-7 18v3l5 11c0 2 0 2 4-4zm69 3c7-2 9-5 9-10 0-4-1-5-3-5h-7c-4 1-4 2-5 5l-1 8c-1 4 0 4 7 2zm-87-9c8-11 14-28 11-34-1-2-1-2-5 0-14 9-22 11-34 7-6-2-12-7-16-17l-3-6-6 1c-4 0-6 1-7 3l-2 3c-3 2-5 17-3 26 2 5 3 7 7 11l7 4 6 3c7 4 18 5 25 2 8-3 10-3 12 0 1 2 3 3 3 2l5-5zm-6 1 2-1v1l-1 1-1-1zm299-24c7-3 9-6 10-12l-1-8c-2-1-2-2-3 0-1 3-7 8-10 9l-9-1c-5-2-5-2-7 1-2 2-2 4-2 5l-1 3c-1 2-1 3 3 4 6 2 15 1 20-1zm-298-9c7-3 13-9 13-11l-5-1c-11 1-23-4-28-13l-4-4c-3 0-5 23-2 27 5 5 16 6 26 2zm296-8c3-3 8-15 6-16l-8-1-7-1-2 4c-3 8-3 12 1 14 4 3 7 2 10 0zm-280-11c5-2 9-6 9-9l-6-1c-11 0-21-6-25-15-2-3-3-6-4-5-2 0-4 7-4 11l1 9 1 3c-1 2 0 3 5 7 7 3 16 3 23 0zm297-11c9-2 14-4 21-10 3-4 4-5 4-8-1-3-1-3-3-3l-6 2c-4 3-13 5-21 3-7-1-19-6-21-9l-2-1 1 2c1 2 2 2 1 4-2 2-1 9 2 11l5 6c3 4 7 4 19 3zm-357-3c0-2-3-2-6 0-2 1-2 1 2 1l4-1zm72-3c7-3 7-5 1-6-9-1-18-8-20-14l-4-7c-2-2-2-2-3 0-2 1-2 3-1 7 0 4 0 5-2 7s-2 3-1 3l3 1c3-2 3-2 4 3 1 4 2 6 8 8 6 1 9 1 15-2zm17-16c7-4 7-6 0-7-8-2-14-6-18-13l-3-6-3-7c-2 0-5 8-5 16l-1 11c0 1 0 2 4 6 7 6 17 6 26 0zm286-1c11-4 19-12 19-19 0-4-3-4-11 0s-18 5-25 4c-6-1-14-4-17-6-4-2-4-2-4 5 0 5 0 6 5 10l5 7c0 2 2 2 13 2 6 0 11-1 15-3zm-274-12 7-3 3-3-4-2-5-2c-2 0-10-9-15-16l-6-7-2 3v23c-1 1-1 2 2 4 5 4 12 5 20 3zm273-8 7-2 4-1c7 0 19-10 19-16 0-4-1-4-8 0-6 3-7 3-17 3-12 0-12 0-20-4l-9-4 1 6c0 6 4 13 6 13l2 3c1 3 4 4 15 2zm-246-6-7-4c-6-3-15-11-19-18l-5-7c-1-2-1-1-2 4l2 9c1 2 0 3-1 4l-2 2c0 1 13 10 17 11l12 1 8 1-3-3zm127-8 13-8 4-4-4-2c-7-5-12-10-16-18-3-6-4-8-4-14 1-12 3-22 9-34l6-10-3-3c-2-2-14-7-18-7-3 0-3 1-2 5 3 10-5 20-21 27l-14 6-4 1v2c-2 2-5 1-5-1 0-1-1-2-3-2-3 0-4 0-3 2l1 6c0 3 0 4 2 4 2 1 3 3 0 4l-1 3-2 4c-1 2 2 7 5 6 2-1 3 2 1 4-2 1-7 10-7 12l4 2c4 0 5 2 2 3-4 2-3 4 3 8 4 2 5 3 7 2s3-1 8 1l8 5c3 2 5 2 15 1 7 0 10-1 19-5zm-57-24v-4c1 0 3 2 3 4h-3zm312 19c11-5 21-19 25-33 2-5 2-9 2-21-1-14-1-17-5-27-6-18-13-29-23-39-9-9-20-17-22-15l-3 9-3 11c-3 5-11 13-17 15-5 3-5 3-8 12l-3 11c0 3 4 7 8 10 2 1 1 1-4 4-8 4-13 8-15 13-2 4-2 11 0 13l4-4c5-6 8-8 14-11 7-4 9-3 3 1-8 5-14 14-14 20 0 4 2 8 5 11 2 2 5 3 9 3 6 1 6 0 18-7 19-12 22-16 13-16-6 0-10-2-14-7-7-6-7-8-8-22 0-12 0-14 2-18l2-4-1 7 1 14c3 19 13 29 25 23 7-4 9-13 2-23-3-6-4-7-1-6 1 1 1 0 2-1 1-5 2-5 3 0 0 4 2 8 3 10 5 10 4 16-7 29-13 17-16 26-13 35 4 7 10 8 20 3zm-112-4c8-4 20-15 21-20 1-7-3-8-10-4-8 6-25 6-37 1-5-3-7-3-9-2-7 2-4 10 7 21l3 5 10 1c8 0 10 0 15-2zm-455-3c15-3 28-14 35-28 5-11 6-23 4-26l-4-7c-2-6-9-15-14-18-4-2-10-2-11-1l1 4v9c-1 5-7 12-10 14l-8 6c-11 8-24 10-32 5l-3-2 6 1h13c10-3 18-7 18-10 3-12 3-17 3-19-1-1-2-1-6 2l-9 4-4 5c0 2 0 3-3 3s-4 0-5-2c-1-1-3-2-7-2l-5-2 9-2c12-1 18-4 18-8 0-1 1-4 3-5 1-2 2-4 1-6l-1-3c0-1-2-2-4 0-4 1-17 5-22 5l-6-2c8-1 18-3 22-5 5-2 5-2 4-3-3-1-3-4 0-10 2-3 3-11 2-11l-9 2c-9 3-18 4-22 2s-2-3 4-3c4 1 8 1 12-1 6-1 6-2 9-8s4-10 2-10l-7 2c-5 2-8 3-14 3l-10-1c-4-1-1-2 8-2 11-1 13-2 13-6l3-5c2-2 2-5 2-8l-1-5-3 3c-5 7-21 13-24 10-1-2 2-3 6-3 7 0 14-6 17-13l4-2c5 0 10-9 10-19 0-12-2-20-6-24l-7-12c-5-11-7-13-13-13-7 0-16 9-18 19 0 2-1 3-2 3s-2-4-1-6l1-4c0-3 6-12 9-14 4-2 2-6-7-10-6-3-9-3-14 0-4 3-10 13-9 16l4 2c6 1 6 3 0 3-9 0-16 6-16 15 0 13 6 26 11 22l-1-6c-2-5-1-7 3-3l3 3 6-3c5-4 6-4 6-2l-7 6c-11 8-12 15-5 23 4 5 5 5 9 5 7 0 16-5 20-11l4-5c2 2-2 8-10 16-10 9-10 10-10 13l4 8c3 4 3 5 2 7-2 2 0 9 4 13l3 3-3 2c-6 5-4 16 3 21 5 4 5 5 2 6s-5 5-4 9l5 7c4 4 5 4 2 5-3 2-2 8 1 14 2 5 2 5 0 4-4-2-5 0-5 8 0 28 22 44 51 38zM60 457c0-3 1-5 3-5 3 0 3 2 0 4-2 2-3 2-3 1zm364 162c-2-3-2-3 0-5h6c2 0 3 0 4-2 2-3 2-9 0-9s-2-1 1-6c2-3 3-6 3-10l2-7 1-3 1 3 1 8 2 9c1 4 1 4 3 3l6-1c4 0 5-2 5-19l1-19c2-4 3-1 4 9 0 13 2 19 4 18l6-1c8 0 12-7 12-20l1-11 2-8 2-5c2-1 2-1 1 2-2 10-3 18-2 20l2 7c0 4 0 5 1 4l4-2c3 0 4 0 5-3 0-2 1-3 3-3 3 1 6-7 6-14 0-9 4-23 7-27 3-2 4-3 4 0 0 4 4 1 8-6s4-8 1-7l-2-1c0-3-16 3-24 10l-6 6 1-4 1-3h-5c-7 1-13 5-20 13-5 5-6 6-9 5l-8 4-5 4-2-3c-2-2-2-2-8-1-10 2-18 11-25 27-4 8-4 9-4 20-1 16 0 20 6 27l4 4-1-3zm-5-10c-1-2 1-4 3-3 3 1 2 4 0 4l-3-1zm22-37 1-4 1-1c0 4-1 7-2 5zm127 39c6-1 13-5 18-11 4-4 6-9 5-10s-4 1-8 3c-6 3-8 4-17 5s-10 1-17-1l-15-7-8-4c-1 4 0 11 4 15l3 5c-1 2 0 2 7 5 6 2 18 2 28 0zm-119-4h-1c0 1 1 3 2 2l-1-2zm129-15c5-1 7-2 12-7 9-7 16-18 20-29 3-8 3-10 3-17-2-25-21-43-44-41-9 0-18 4-27 12-5 4-14 20-12 22v10c-2 3 0 21 3 25 0 2 4 6 7 10 5 5 7 6 13 8 10 3 12 5 11 7 0 2 0 2 4 1l10-1zm-13-36h4c2 1 1 1-1 1l-3-1zm-11-4 2-2 1-2c0-1 5-5 7-5 1 0 1 5-1 7h-3l-3 1c-1 2-3 3-3 1zm53 26 7-4c0-1-3-4-5-4l-6 6-4 6 8-4zm-260 1-1-2-2 2 2 1 1-1zm30-4c20-9 25-24 12-32l-3-2-2 4c-4 8-7 11-23 16-8 2-11 3-12 5l-4 3c-3 0-2 3 1 3 2 0 2 1 2 2-1 3 3 4 13 4 7 0 10-1 16-3zm-228-13c4-10 3-15-6-26l-5-7h-9c-8 0-14 2-13 4l6 4c7 4 18 16 21 23l3 6 3-4zm217-7c5-2 13-10 13-14l1-5-4 1-6 1-15 4 1 8c0 6 0 6 3 6l7-1zm6-10v-5c2-2 3 2 2 6-1 2-1 2-2-1zm-262 5-1-1-1 1 1 1 1-1zm48-4 1-12c0-6 0-8-4-15-3-6-4-8-5-7-1 0-3 0-4-2-4-3-9-4-14-3-8 1-11 3-11 8 0 3 1 4 4 4 6 1 16 6 20 11 3 3 6 9 9 18 1 3 2 2 4-2zm279-5c5-4 12-5 16-3 3 1 4 1 8-1l7-4c2 0 6-3 9-7 5-5 8-6 13-8l11-2c3 1 5 0 8-2l10-5c5-1 7-3 4-5l-3-4c-1-3-1-3-11-4-13-1-20-3-27-11-5-6-7-13-6-22 0-6 0-6-3-7-4-2-7-5-7-7 0-3 0-3-3-3-5 0-10-5-10-10 0-3 0-3-3-3l-4 1-1 12-2 14-2 11c-5 25-5 29-10 35-5 8-12 14-21 17-7 2-11 5-9 7l8 2c5 1 9 3 14 6l8 5 6-2zm84-2 1-7-4 8 3-1zm104-3c3-2 6-5 4-6l-2 1c-1 1-2 2-4 1-1 0-2 1-2 3-1 3-1 3 4 1zm-457-5c3-4 5-11 5-18 0-9-6-28-10-31l-10-1c-10-1-16 1-17 4-2 8-2 9 3 11 14 6 22 17 23 31 1 9 2 10 6 4zm221-5 8-3 28-13c3-3 4-5 7-15 9-33 10-79 4-114-6-33-22-71-36-85-4-5-5-5-10-5l-13 1a904 904 0 0 0-61 11c-12 4-12 4-10 6l7 2c0-3 1-3 3-1l1 4c-1 3 0 3 2 0 1-3 6-4 7-2v3c-2 2-2 5 0 5 3 1 3 4 2 6l-4 1c-2-1-2-1-1 1 2 1 2 3 2 3l4 4 3 6c0 5 2 10 4 11l5 5 3 5 1 2v1l-2 2c-1 2 0 3 3 4 3 2 5 5 2 5v2l-1 3-1 4v2l3-2c3-2 8-3 8-1l-3 5c-3 4-3 5 1 5s6 2 4 5c-1 2-2 2-4 1l-3 1 4 1c3 0 3 1 0 4-2 2-2 6 1 7l1 5 5 20v3c-1 2 2 11 4 11l1 5c-1 4-1 4 1 4h4c2 0 2 4 0 5s-2 4 0 6c1 1 1 1-1 3l-2 2a206 206 0 0 1 3 21c1 5 4 28 3 30-1 1 0 2 4 1l9-3zm-12-126 1-2c2-1 4 0 3 2h-4zm1-14 1-4 2-1c1-1 1 0 1 2l-2 5c-2 2-2 2-2-2zm-10-20-3-10c0-1 3-1 4 1 2 2 4 2 4-2 0-2 0-2 2-2l2 1v5l-1 3-2 2c0 2-4 3-6 2zm-5-17-3-3-2-5c-1-2-1-3 1-3l2 2 4 3c4 1 6 3 3 3l-2 2c-1 3-3 4-3 1zm2-13c-2-1-4-2-7-1-4 0-5-2-3-6s5-5 6-3l2 1c2-1 7 5 7 8 0 4 0 4-5 1zm-11-15v-3c1-1 3 1 3 3 0 1-1 2-3 0zm-7-4-2-4c-2-2-1-3 4-3 4 0 5 0 6 2s0 4-2 3l-4 2c-2 2-2 2-2 0zm-6-15c-2-2 1-3 4-1l2 2c0 1-5 1-6-1zm284 223 4-4c2 0 3 3 3 5-1 2 0 2 1 2 2 0 3-2 4-4 0-3 2-5 3-6l2-7c1-6 0-8-2-12-1-3-3-5-5-6-5-1-5 0-5 7 0 8-3 17-8 23-1 3-2 6 0 6l3-4zm-4-9 4-11 2-7-1-6c-2-7-6-13-9-11-2 0-2 1-2 5 1 6 0 14-2 19-1 3-1 4 2 9l3 7 3-5zm-436-19c2-3 3-8 3-11a49 49 0 0 0-7-23l-2-3c-2-3-4-3-10-4-11-1-13 0-18 4-4 4-5 9-2 10 16 5 25 14 27 27 1 8 1 8 4 7l5-7zm425 5 2-11c0-9-2-16-7-19s-7-2-8 7l-3 10c-2 5-1 6 7 11l7 5 2-3zm-23-12 3-1c3 2 5-14 3-20-3-6-5-8-8-8s-5 4-4 6l-1 4-2 4-2 6c-3 5-2 8 3 9l4 1c2 1 2 1 4-1zm-19-3 9-14c2-5 2-6 1-10l-3-6-4 5-10 14-7 7 4 4c5 4 7 4 10 0zm-373-11c4-7 5-15 4-23l-3-10c-2-5-10-12-11-10l-7 1c-7 0-14 4-15 8s0 5 4 6c6 1 13 6 17 11 3 5 7 14 7 18 0 2 1 3 2 3l2-4zm19-1c20-9 36-32 38-52 1-12-3-26-10-32-4-4-6-2-4 2l1 3-2-2-1-1c-1 1-3-1-5-3l-4-2c0 2-2 2-5-1-1-2-3-3-5-3l-4-1c-2-2-6 0-6 2l-1 3c-1 1-2-2-1-3 2-2 0-3-3-3h-3l-5-1c-4 0-4 0-4 2 1 1 0 2-1 3h-5v2c0 3-2 7-5 7l-3 1h-3c-2 0-3 0-3 2l-1 4c-3 3-4 12-3 17l1 5c0 1 3 2 9 2 7 0 9 1 13 4 11 7 17 25 15 43-1 5-1 5 1 5l9-3zm-41-59c0-1 0-2 1-1 2 0 2 2 1 2l-2-1zm391 51c9-12 10-15 10-24 2-30-20-53-42-46l-6 4c-1 1 0 4 1 6 4 10 1 25-5 34l-3 5 3 1c3 0 4 0 4 2l4 6c3 2 4 4 4 5l3 3c3 0 4 1 4 4l-2 5c-2 0-1 1 4 1s6 0 7 2c1 3 1 3 4 1l10-9zm-10-51c-4-2-6-4-3-4 2 0 7 3 7 5s1 2-4-1zm-34 20c4-6 4-7 4-16 0-11-1-15-5-19-3-3-5-2-5 4s-5 17-12 25l-5 7h11c3-2 9 1 5 3l-1 2c0 3 2 1 8-6zM82 423l-3-5 2 11c2 3 2 3 3 0l-2-6zm419 1c11-13 12-36 3-36-4 0-5 2-5 6l-3 8-3 6-6 8-6 6 4 2h5l3 1 4 3 4-4zm-8-1c0-2 3-4 4-3v2c-1 2-4 2-4 1zm-7-16-2-2c-2-3-1-4 2-1l3 1c3-2 6-10 6-18 1-8 1-8-2-11-2-2-4-4-5-3l-3 5-5 12-4 7 3 3c1 1 2 3 1 4 0 2 0 2 2 3 3 2 4 2 4 0zm-414-7c-5-6-8-30-7-50 3-27 3-35 1-38-2-5-7-8-11-8-3 0-11 5-14 8-2 3-7 15-8 21-2 12 0 34 5 45l5 11 7 6c5 5 7 6 11 7l8 2c3 2 3 2 4 0l-1-4zm400 5-2-1 1 1c2 2 3 2 1 0zm0-12 4-7c3-4 4-6 4-14 1-10 1-10-2-13-1-2-3-3-4-2l-2 6-1 7-9 16c-3 3-3 5 2 7l4 2c-1 3 2 2 4-2zm-6-26 3-11c1-7-4-14-5-8-2 8-4 13-9 19-5 7-4 8 0 9 3 0 3 1 3 3 0 5 6-4 8-12zm-14-5c3-2 6-7 7-11 3-7 3-9 3-17-1-8-1-10-4-16-8-16-20-24-35-24-13 0-17 3-12 8l4 7 4 5 3 4c0 2 0 2 2 1s5-1 5 1h-2c-2 0-2 0-2 2s1 3 3 4l9 9 8 8 1 4c0 11 1 20 2 20l4-5zm-10-24h1l2 1h-2l-1-1zm-161-27 8-5c0-1-1-4-14-26-8-15-10-16-15-12l-6 4c-5 2-5 4-1 12l8 14 6 11c2 5 3 6 14 2zm26-10c2 0 3-1 3-2 0-4-20-39-23-40-1-1-12 2-14 3-1 1 0 2 2 7l7 8c4 2 7 7 6 10l2 5 3 4 2 4c2 2 3 3 5 2l7-1zm-9-9c0-3 1-5 3-5l1 3c0 3-3 4-4 2zm15-27c5-5 9-11 11-15l6-9c2 0 3-2 3-5 0-4-1-7-5-15l-8-18c-4-8-5-10-6-7s-3 2-6-1l-3-3-3 4-2 4-6-3c-6-4-8-4-9 0s-3 8-5 7c-1 0-3 0-5-2-6-2-7-2-8 4l-2 5-7-2-7-2-3 11 2 2 2 2c0 2 3 8 5 9 1 0 2 2 2 5l2 6 19-6c13-5 37-6 44-2 3 2 3 3 0 3-2-1-3 0-3 1 0 3-7 14-15 22l-7 8 5 5 9-8zm-36-37h1c2 0 2 1 0 1-1 0-2 0-1-1zm-28 43 2-1c0-2-5-1-5 1h3zm-4-69 7-3 26-14c6-2 15-11 16-14 1-1 0-4-3-8l-5-6-2 4c-2 3-9 10-21 17l-8 6c0 4-3 6-10 6s-12-2-14-7c-3-4-4-4-5 0-1 3 1 4 4 4s4 1 4 2c0 2-1 3-2 3-2 2 0 4 3 4l4 2-2 1c-2 0-3 2-2 5 1 1 1 2 3 1l7-3zm9-9c-3-1-2-2 0-2l3 2h-3zm48-5-4-8c-3-2-3-1 0 4 2 4 4 6 4 4zm-55-4-2-1c-1 0-4-2-6-5-4-5-5-7-5-10s1-5 2-5c2-1 1-3-1-3-3 0-4 2-4 7 0 11 6 18 13 18 2 0 4 0 3-1zm-115-3h-1c0 2 1 4 2 3l-1-3zm95-7c-2-6-2-12 0-12l2-2 8-4 11-7c12-10 18-12 25-10 3 1 3-1-2-9l-24-36-25-8c-42-10-51-11-62-6l-3 3 7 8 11 9 4 4 4-2c7-2 7-2 3-6-2-2-2-4-1-3 5 2 15 3 21 2l33-1-8 2c-14 1-20 3-21 4s0 1 1 1c3 0 6 3 6 5l3 3 4 4 2 3 1 2 2 4 2 5c0 4 0 5-2 5l-2-1-3-4c-3-3-3-3-1-5s2-2 1-3l-4-1-8-6c-9-9-10-9-13-9-4 0-11 3-11 4 1 1 0 3-1 4-3 3-3 5 0 5l2-2 2-2c2 0 3 3 2 9 0 4 0 4 2 5l2 3c-1 1 1 2 4 3 8 2 15 11 9 11l-3 1-2 1c-3 1-2 3 2 2 5 0 11 2 12 5 2 4 1 5-5 4h-6c0 2 2 2 6 2 2-1 2 0 1 1-1 2-1 5 2 9l2 5 4 4 4 1v-4zm-5-3 1-1v1l-1 1v-1zm16-22-4-5c-3-3-4-7 0-6s9 5 11 8c1 3 1 3-1 5-3 2-5 1-6-2zm5-2-2-1v1l1 1 1-1zm4-9c1-8 9-13 14-9l2 4c0 2-1 2-4 2-4 0-5 1-8 3-3 5-5 4-4 0zm-8-9c-2-4-1-7 1-10 3-4 6-6 10-6 5 0 13 6 10 8l-5-1c-5-2-9 0-10 4l-1 5c-1 4-4 4-5 0zm-113 42c-1-3-3-4-3-1 0 1 3 6 4 5l-1-4zm129 3 11-7-2-1-4-6c-3-4-3-6-2-9 2-7-2-5-13 4-5 5-7 7-6 8l1 4c0 8 6 10 15 7zm-8-2c0-1 0-2 1-1l1 2-1 1-1-2zm10-4c-2-3-2-4 0-4 1 0 2 0 1 1s0 1 1 1v4l-2-2zm-4-12 1-1 1 1-2 1v-1zm26 3c4-3 1-12-5-14-7-4-9-3-9 4s10 15 14 10zm-11-12 1-1 2 1-1 1-2-1zm-123-20c5-5 5-8 4-23-1-11-2-13-3-14l-3 4c-2 4-7 37-6 38s4 0 8-5zm45-6-1-2-1 2 1 1 1-1zm-78-33c1-2-1-3-2 0v2l2-2zm29-6 12-8 6-5c0-2-6-10-13-18s-13-10-19-9c-5 1-11 7-12 13s4 18 15 31c2 2 4 1 11-4zm-20 3c2-2 1-4-1-7-2-2-4-3-6-2-3 1-4 5-1 5s5 2 4 3c-1 2 2 2 4 1zm-10-19c0-6-3-12-6-12-2 0-6 3-6 5l-2 1c-3 0-9 3-8 4l6 1c6 0 9 1 12 4 2 3 4 2 4-3zm-7-6c-2-3-2-4 0-4l1 3c1 4 0 4-2 1zm69 4-1-4-1-4c-2-13-3-15-8-13-2 0-2 1 0 2 2 2 2 3 1 4v6l2 4 1 1-2 1c-3 0-3 3-1 4l5 1c4 2 4 1 4-2zm-64-13c0-1 1-2 3-2l2-4c-1-1 0-2 1-2 4-1 8-6 7-7l-1-1c0-2 3-2 5 1 2 2 4 2 10-1l5-3v3c0 4 2 4 4 2l4-2 2-2c0-2-1-2-3-2-5 0-6-1-4-3h2c1 2 5 1 5-1s-1-3-2-2c-2 0-3-1-3-2l-1-2h-1l-1-1-1 4c0 4-1 5-6 4h-13c-12 0-12 0-13 2l3 5 3 3-3 2-8 11c1 2 4 2 4 0zm50-9c0-2-4-3-5-2-1 2 1 3 3 3l2-1zm16 0-2-3c-3-1-4 0-2 2s4 3 4 1zm-64-4c0-2 0-3-1-1v2c1 2 1 1 1-1z"/><path fill="#539471" d="M257 925c-14-3-25-8-35-17-9-8-14-14-14-18l-1-6-3-11c-1-13 4-20 33-51l18-20c0-2-7-4-12-2-5 1-8 1-12-1h-6c-5 3-8 2-14-1s-6-3-10-1c-6 2-11 1-16-3l-4-3-7 2c-16 4-33 0-45-11-6-5-8-8-12-16-6-11-7-21-4-31 5-19 23-37 41-39h6l1-6c2-7 7-11 11-11 3 0 3 0 4-8 1-6 6-11 10-11 3 0 5-3 5-7s6-10 10-10 5-2 5-4c0-4 4-12 7-14l5-3c5-2 6-3 6-8s3-9 9-12l5-2c0-4 3-13 5-17 4-5 6-7 13-8 3-1 4-2 8-8 5-8 11-14 19-17 3-2 5-3 4-4l-18-8c-9-4-20-9-23-12-7-4-28-23-39-35-6-6-7-7-10-6-2 0-3 2-4 5-2 9-6 16-10 20-5 5-5 5-5 11 0 8-3 13-10 18-5 4-6 5-6 8 0 5-2 10-5 13l-3 4-3 8c-3 4-4 6-4 16a61 61 0 0 1-40 54c-7 3-9 3-19 2-8 0-11-1-17-4-8-4-14-9-18-17-3-7-4-8-4-20l1-16c1-3 1-4-1-8-2-3-2-5-2-8 1-4 0-5-3-7-4-4-4-10 0-14l3-5-4-3-5-4c-2-3-1-9 2-14l2-5-2-4c-2-3-2-5-2-9 1-5 1-6-2-9-2-3-3-5-3-9s0-5-5-7c-3-1-6-4-8-7-3-4-4-6-4-10 0-5 0-6-5-11-5-4-6-7-8-13-4-13-2-19 7-25 6-3 7-4 6-7-1-6 6-16 15-21 6-2 6-1 0-16-4-13-6-32-4-42 1-6 7-18 10-22 9-9 19-11 28-5 3 1 6 4 7 6 4 6 4 20 1 36-4 18-4 37 0 46l6 12c11 16 18 46 12 60-1 2 0 3 3 6s4 7 2 12c-1 1 0 2 2 5 3 3 3 3 3 10l-1 10c-1 4 3 4 6-1l7-6c4-2 4-3 5-8 1-7 1-8 7-12 5-3 5-4 6-9 0-4 1-7 4-10l3-9 2-8c1-3 1-4-1-8-2-7-4-23-2-30 5-18 16-28 37-34 8-3 9-4 21-16 14-13 23-20 41-27l11-5-2-6c-3-6-3-6-13-2-7 2-22 3-30 1-8-1-24-19-45-50l-12-16a563 563 0 0 1-42-71c-2-3-2-5 0-14 3-13 8-25 18-45l7-17-4-6c-3-3-5-4-9-4s-6 1-10 4c-5 4-9 6-9 4l3-6c9-10 8-22-1-26-3-1-9-2-20-2-5 0-3-2 3-4a34 34 0 0 0 24-40l-1-11c1-1 4 2 4 4 0 3 8 9 13 9 9 2 19-4 22-12 2-6 4-9 6-7l1 4 2 9c1 6 2 8 6 12s5 5 11 5 8-1 12-3l4-2-3 7c-5 10-7 16-6 23 1 9 7 13 23 16l51 10 7 3 1 4a747 747 0 0 1 54 99v-2c0-3 2-4 4-2 2 1 11 19 18 34 4 11 4 16 0 25-4 7-13 18-21 25l-6 6c0 2 9 17 11 18l13-3c20-7 35-9 52-10 13 0 15 1 19 7 3 4 5 5 11 2 9-3 16-4 23-3 13 2 23 10 29 21 2 5 3 8 3 15l-1 11c-1 3 0 3 2 3 3 0 6 4 6 7s1 4 3 4c5 1 8 4 9 9 1 7 1 7 5 7 6 0 10 5 10 11v5h4c5 0 6 0 8 6 1 4 2 5 3 5l4 1c2 2 4 2 10-2 5-3 7-3 15-3s9 0 15 4c13 7 18 19 18 40v14c-2 2 2 6 6 7 6 1 8 2 11 7 2 4 5 6 7 5s7 2 9 5 3 4 6 4c4 0 8 3 11 9 1 3 2 4 4 3 6-1 8 0 11 8 3 6 4 8 7 8 4 1 16 10 25 18 7 7 9 9 15 21 9 19 12 27 12 44 1 14 1 15-2 24-6 17-16 30-28 36-10 4-15 5-22 2-8-4-11-13-9-22l1-5-6 3c-11 8-19 9-26 4-5-3-9-9-9-12s-8-14-10-14l-5 2c-4 3-4 2-2 12 1 4-3 10-10 15-7 4-7 4-6 8s-1 7-7 12l-4 4 2 5c3 6 0 13-8 17-5 2-6 4-4 6 2 1 2 6-1 10-4 5-13 10-23 12-8 2-12 4-12 7 0 2 5 9 8 13l9 1 29-2c32-1 51 1 73 8 19 7 30 14 37 28 2 4 2 5 2 21 0 28-2 32-25 45-17 10-31 17-36 17a482 482 0 0 1-107-29 1167 1167 0 0 0-68-17c-3-2-9-9-10-12v-9l1-10 1-14c1-8 2-8 7-15 7-7 16-13 26-14l7-3c3-5 6-8 11-10l7-2c2-2 1-5-2-7-9-6-14-15-14-24 0-5 2-11 6-13 7-4 7-3 5-8-3-7 0-15 6-18 3-1 3-1 3-8-1-9 0-12 8-15l5-3v-6c-1-7-2-9-3-6s-6 7-9 8l-8 1c-4-1-5-1-6 2-2 5-4 7-10 9-5 1-6 2-8 6-3 6-6 8-14 9-5 0-6 1-11 6a78 78 0 0 1-39 23l-16 4c-8 2-12 3-22 3-19 0-33-3-51-10-3-1-4-1-7 1s-5 3-11 3c-8 0-8 0-12 3-2 3-5 5-8 6-3 0-4 1-5 4-1 6-3 8-9 11l-7 5c0 2-2 4-5 6s-4 3-4 5c0 4-4 9-8 11-3 2-5 4-5 7-2 5 0 7 10 6 7 0 8 1 10 2 2 2 3 3 7 2s6 0 8 1h7c9-4 17-1 22 9 3 6 6 8 6 6s11-16 15-20c5-4 14-7 19-7s13 3 20 8c3 2 5 2 9 2 9 0 12 3 18 15 7 14 5 25-11 58-11 21-14 29-17 44-6 29-14 45-31 61a57 57 0 0 1-58 15zm30-17c5-1 9-4 12-6l10-6c7-3 8-4 15-13 6-8 7-11 10-21a421 421 0 0 1 29-75c11-24 9-41-4-48-4-2-4-2-2 3 2 8 2 15-4 30l-4 10a395 395 0 0 0-23 61 141 141 0 0 1-18 36 96 96 0 0 1-26 24c-3 2-20 7-24 7-3 0-3 0-1 1 4 2 20 0 30-3zm-10-9c10-4 23-17 31-32 7-12 7-13 1-16l-6-3c-2 0-3 0-3 3l-7 14-6 11c-3 5-5 9-7 10l-2 2-1 2-6 4-9 7-3 2c0 1 12-1 18-4zm-26-1 7-4c2 0 9-10 9-14 2-5-3-19-8-25-4-5-4-7-1-12 4-5 4-7-3-8l-14 1-9 1-6 6c-8 9-13 21-13 31 0 12 11 24 25 27 6 2 8 1 13-3zm66-48c0-2-7-6-9-5 0 1 6 7 8 7l1-2zm7-18 7-18 18-45c3-9 4-11 4-19-1-10-3-12-9-10s-9 9-8 17c0 4 0 6-3 13l-5 10-2 5-1 5-3 5-4 9c-2 2-3 6-3 9 0 4-1 5-4 8s-3 5-3 7c1 3 0 4-1 6-2 1-2 1 0 4l11 8c1 0 4-6 6-14zm283 0c2-1 2-2 2-5-1-3 0-5 1-7 3-5 2-6-7-6l-12-1-13-3a2124 2124 0 0 1-58-14l-64-14a50 50 0 0 1-24-15c-1 0-1 8 1 13 1 3 2 5 7 7 10 6 27 11 52 16a255 255 0 0 1 35 10l30 9c26 9 46 12 50 10zm-339-7 6-7c1-2 3-6 5-7 4-3 8-10 13-20l2-6-2-2c-4-4-7-3-13 3l-8 7c-4 1-13 10-20 21l-9 11c-3 2 0 3 11 3 10 0 12-1 15-3zm357-2-2-2c-2 0-2 1-2 2s0 3 2 2l2-2zm-21-17c1-3-4-6-8-6l-11-2c-3-2-9-2-12-2l-7-2-15-3c-12-2-12-3-12-5-1-3-1-3-4-3l-8 7a665 665 0 0 1 54 14c14 5 22 5 23 2zm58-10c2-7 3-12 1-12l-2 2-4 5c-1 2-2 3 0 4v6c0 4 0 4 1 3l4-8zm-27 0 5-2 3-1 8-4 6-4c2 0 7-6 8-9 2-8-9-21-22-27a113 113 0 0 0-50-13c0-2-4-2-8-1-6 2-7 2-5 0v-2l-19-2a2302 2302 0 0 1-42-1l-1 4c0 2-8 10-13 13-4 2-7 2-15 2-11 0-12 1-5 5 13 8 19 11 28 12l13 2c3 1 4 1 10-5a128 128 0 0 1 41-26c3 0-2 3-9 7-12 6-33 22-33 26 0 1 3 1 5-1l31-24 11-4c4 0 3 1-6 6-8 4-18 11-25 18-5 5-6 6-2 5 1 0 2 0 1 1l-4 1c-3 0-3 0-1 2l5 2c3 0 4 0 7-3 2-2 3-2 4-1l1 3c-1 2 0 2 1 2l8 2 7 1a56 56 0 0 1 28 9l2 3c2 3 2 4 9 4l9 1h3l6-1zm-384-7c9-5 12-8 15-15 5-13 2-25-7-31-7-5-9-3-5 3 2 5 3 16 1 20-2 5-2 6 1 10l3 4-3-2c-3-1-4 0-10 6-10 9-10 9-5 9 2 0 6-1 10-4zm-20 0c16-8 24-28 17-42-2-6-10-12-11-11v6c1 5 1 10-1 23a9426 9426 0 0 0 4 3l3 8c0 2-5 2-6 0l-3-1c-3 0-5 1-8 5l-8 8-4 4c0 1 12-1 17-3zm35 0c5-2 8-5 6-7-1-1-4 0-11 6-3 4-4 4-1 4l6-3zm-58-2 9-6 4-3-2-3c-2-4-3-4-6-4-3 1-6 2-8 5l-16 12v1c2 2 14 1 19-2zm316 1 3-4c2-2 2-6 0-6-1 0-8 10-8 12h2l3-2zm-8-1 3-6c1-2 2-4 1-5l-7-1c-7 0-14-2-14-4 0-3-5-7-12-9l-9-4-4-2c-4 0-5-1-5-9l-2-9-3-7c-1-4-2-4-9 0-10 6-20 19-21 27-1 4 0 5 4 9 6 6 13 10 26 12l36 7c13 3 16 4 16 1zm-341 0 8-3c5-1 12-5 13-8l3-5c2-3 2-3 3-2 1 2 2 1 6-4 9-11 15-28 12-34-1-2-1-2-5 0-9 6-16 9-22 9-9 0-17-3-21-8-7-7-14-25-12-31 1-4-2-4-9 1-9 4-14 8-17 12-8 8-13 24-12 35l5 14c7 14 19 22 35 24l8 1 5-1zm-16-21c-4-1-11-7-11-8l4 2c2 2 6 4 9 4 4 2 6 4 3 4l-5-2zm44 0 2-1v1l-1 1-1-1zm-58-13-2-6c0-4 0-4 2 3v3zm138 19c3-6 3-17 0-22-2-5-7-9-13-9-4-1-5 1-2 3 4 4 7 26 4 31-1 1-1 2 1 4l2 2 3-2 5-7zm29 4c6-5 9-10 9-18s-3-10-10-9c-9 1-15 6-8 7 3 0 6 5 6 9s-3 9-7 11c-5 3-5 5 0 5 4 0 6-1 10-5zm-3-3 1-1 1 1-1 1-1-1zm-82-2c5-7 5-10 6-19 0-7-1-11-5-14-2-3-3-2-3 5 0 6-2 11-7 18v3l5 11c0 2 0 2 4-4zm69 3c7-2 9-5 9-10 0-4-1-5-3-5h-7c-4 1-4 2-5 5l-1 8c-1 4 0 4 7 2zm206-32c7-3 9-6 10-12l-1-8c-2-1-2-2-3 0-1 3-7 8-10 9l-8-1-6-1c-1 0-3-6-3-10s-2-3-6 1c-5 5-7 9-6 12 2 6 7 9 10 7 2-2 2-2 1 0-2 2-2 2 2 4 6 2 15 1 20-1zm-298-9c7-3 13-9 13-11l-5-1c-7 1-15-1-21-5s-13-16-14-23c-1-6-2-7-4-6-4 2-5 7-6 18l1 15c2 4 5 6 7 4 1-1 2-1 2 2 0 9 14 13 27 7zm296-8c3-3 8-15 6-16l-8-1-7-1-2 4c-3 8-3 12 1 14 4 3 7 2 10 0zm-280-11c5-2 9-6 9-9l-6-1c-7 0-11-2-17-6-4-2-6-5-10-13-3-5-5-11-5-13-1-6-4-6-8 0-3 6-4 16-2 23 2 5 4 7 7 3 2-2 2-2 2 0v3l1 2 1 4c-1 2 0 3 5 7 7 3 16 3 23 0zm297-11c9-2 14-4 21-10 3-4 4-5 4-8-1-3-1-3-3-3l-6 2c-4 3-13 5-21 3-7-1-19-6-21-9l-2-1 1 2c1 2 2 2 1 4-2 2-1 9 2 11l5 6c3 4 7 4 19 3zm-285-6c7-3 7-5 1-6-8-1-18-8-20-12l-4-9-3-13c0-7-2-9-6-4-6 7-6 23 0 31 2 4 3 5 5 4 3-2 3-2 4 3 1 4 2 6 8 8 6 1 9 1 15-2zm17-16c7-4 7-6 0-7-10-3-18-10-21-19l-3-8-1-11-1-8c-2-1-6 4-10 11-3 6-3 8-3 17 0 10 1 13 5 13l3-4 2-5v7l-1 8c0 1 0 2 4 6 7 6 17 6 26 0zm286-1c11-4 19-12 19-19 0-4-3-4-11 0s-18 5-25 4c-6-1-14-4-17-6-4-2-4-2-4 5 0 5 0 6 5 10l5 7c0 2 2 2 13 2 6 0 11-1 15-3zm-274-12 7-3 3-3-4-2-5-2c-2 0-10-8-15-15-9-13-9-14-9-24l-1-10c-3-2-10 13-10 21 0 6 2 16 4 18 1 1 2 1 4-2 3-3 3-3 4 7v8c-1 1-1 2 2 4 5 4 12 5 20 3zm273-8 7-2 4-1c7 0 19-10 19-16 0-4-1-4-8 0-6 3-7 3-17 3-12 0-12 0-20-4l-9-4 1 6c0 6 4 14 6 14l2 2c1 3 4 4 15 2zm-246-6-7-4c-5-2-15-11-18-16-9-13-9-13-10-27l1-18 1-6c-1-1-8 7-10 12-5 11-5 29 0 37 4 5 6 6 8 3 2-2 2-2 3 2v5l-2 2c0 1 13 10 17 11l12 1 8 1-3-3zm30 1c1-1-7-9-10-11-2 0-4-3-5-5-2-3-3-4-5-4-5 0-8-1-9-4l-2-5c0-2 5-2 9 1 2 2 3 2 4 0l3-6c1-4 1-5-1-7-3-4-6-12-6-16 0-9 4-16 10-18l6-3 2-2-2-5c-3-4-3-6-3-11l2-8c0-3 0-3-5-2l-9 2-8 4c-5 3-15 11-22 19-2 3-5 7-7 14-2 8-3 10-2 19 0 11 2 15 12 26 8 8 18 14 35 21 5 2 12 2 13 1zm97-9 13-8 4-4-4-2c-7-5-12-10-16-18-3-6-4-8-4-14 1-12 3-22 9-34l6-10-3-3c-2-2-14-6-18-6-3 0-3 0-2 4 3 10-5 20-21 27l-14 6-4 1v2c-2 2-5 1-5-1 0-1-1-2-3-2-3 0-4 0-3 2l1 6c0 3 0 4 2 4 2 1 3 3 0 4l-1 3-2 4c-1 2 2 7 5 6 2 0 3 2 1 4-2 1-7 10-7 12l4 2c4 0 5 2 2 3-4 2-3 4 3 8 4 2 5 3 7 2s3-1 8 1l8 5c3 2 5 2 15 1 7 0 10-1 19-5zm-57-24v-4c1 0 3 2 3 4h-3zm312 19c11-5 21-19 25-33 2-5 2-9 2-21-1-14-1-17-5-27-6-18-13-29-23-39-9-9-20-17-22-15l-3 9-3 11c-3 5-11 13-17 15-5 3-5 3-8 12l-3 11c0 3 4 7 8 10 2 1 1 1-4 4-8 4-13 8-15 13-2 4-2 11 0 13l4-4c5-6 8-8 14-11 7-4 9-3 3 1-8 5-14 14-14 20 0 4 2 8 5 11 2 2 5 3 9 3 6 1 6 0 18-7 19-12 22-16 13-16-6 0-10-2-14-7-7-6-7-8-8-22 0-12 0-14 2-18l2-4-1 7 1 14c3 19 13 29 25 23 7-4 9-13 2-23-3-6-4-7-1-6 1 1 1 0 2-1 1-5 2-5 3 0 0 4 2 8 3 10 5 10 4 16-7 29-13 17-16 26-13 35 4 7 10 8 20 3zm-112-4c8-4 20-15 21-20 1-7-3-8-10-4-8 6-25 6-37 1-5-3-7-3-9-2-7 2-4 10 7 21l3 5 10 1c8 0 10 0 15-2zm-455-3c15-3 28-14 35-28 5-11 6-23 4-26l-4-7c-3-9-13-19-20-20-3 0-3 0-3-3 0-2-1-3-2-3l-1 2 2 10c2 6-4 18-10 22l-8 6c-11 8-24 10-32 5l-3-2 6 1h13c7-2 17-6 18-9l1-4 1-3v-13c0-1-2-1-5 2l-9 4-4 5c0 2 0 3-3 3s-4 0-5-2c-1-1-3-2-7-2l-5-2 9-2c12-1 18-4 18-8 1-4 4-8 8-8 2 0 3 0 3-2 0-1-1-2-4-2l-4-1c0-2-1-3-4-1-4 1-17 5-22 5l-6-2c8-1 18-3 22-5 5-2 5-2 4-3-3-1-3-4 0-10 2-3 3-11 2-11l-9 2c-9 3-18 4-22 2s-2-3 4-3c4 1 8 1 12-1 6-1 6-2 9-7 3-7 4-11 2-11l-7 2c-5 2-8 3-14 3l-10-1c-4-1-1-2 8-2 11-1 13-2 13-6l3-5c2-2 2-5 2-8l-1-5-3 3c-5 7-21 13-24 10-1-2 2-3 6-3 7 0 14-6 17-13l4-2c5 0 10-9 10-19 0-12-2-20-6-24l-7-12c-5-10-7-13-13-13-7 0-16 9-18 19 0 2-1 3-2 3s-2-4-1-6l1-4c0-3 6-12 9-14 4-2 2-6-7-10-6-3-9-3-14 0-4 3-10 14-9 16l4 2c6 1 6 3 0 3-9 0-16 6-16 15 0 13 6 26 11 22l-1-6c-2-5-1-6 3-3l3 3 6-3c5-4 6-4 6-2l-7 6c-11 8-12 15-5 24 4 4 5 4 9 4 7 0 16-5 20-11l4-5c2 2-2 8-10 16-10 9-10 10-10 13l4 8c3 4 3 5 2 7-2 2 0 9 4 13l3 3-3 2c-6 5-4 16 3 21 5 4 5 5 2 6s-5 5-4 9l5 7c4 4 5 4 2 5-3 2-2 8 1 14 2 5 2 5 0 4-4-2-5 0-5 8 0 28 22 44 51 38zM60 457c0-3 1-5 3-5 3 0 3 2 0 4-2 2-3 2-3 1zm364 162c-2-3-2-3 0-5h6c2 0 3 0 4-2 2-3 2-9 0-9s-2-1 1-6c2-3 3-6 3-10l2-7 1-3 1 3 1 8 2 9c1 4 1 4 3 3l6-1c4 0 5-2 5-19l1-19c2-4 3-1 4 9 0 13 2 19 4 18l6-1c8 0 12-7 12-20l1-11 2-8 2-5c2-1 2-1 1 2-2 10-3 18-2 20l2 7c0 4 0 5 1 4l4-2c3 0 4 0 5-3 0-2 1-3 3-3 3 1 6-7 6-14 0-9 4-23 7-27 3-2 4-2 4 0 0 4 4 1 8-6s4-8 1-7l-2-1c0-3-16 3-24 10l-6 6 1-4 1-3h-5c-7 1-13 5-20 13-5 5-6 6-9 5l-8 4-5 4-2-3c-2-2-2-2-8-1-10 2-18 11-25 27-4 8-4 9-4 20-1 16 0 20 6 27l4 4-1-3zm-5-10c-1-2 1-4 3-3 3 1 2 4 0 4l-3-1zm22-37 1-4 1-1c0 4-1 7-2 5zm127 39c6-1 13-5 18-11 4-4 6-9 5-10s-4 1-8 3c-6 3-8 4-17 5s-10 1-17-1l-15-7-8-4c-1 4 0 11 4 15l3 5c-1 2 0 2 7 5 6 2 18 2 28 0zm-119-4h-1c0 1 1 3 2 2l-1-2zm129-15c5-1 7-2 12-7 9-7 16-18 20-29 3-8 3-10 3-17-2-25-21-43-44-41-9 0-18 4-27 12-5 4-14 20-12 22v10c-2 3 0 21 3 25 0 2 4 6 7 10 5 5 7 6 13 8 10 3 12 5 11 7 0 2 0 2 4 1l10-1zm-13-36h4c2 1 1 1-1 1l-3-1zm-11-4 2-2 1-2c0-1 5-5 7-5 1 0 1 5-1 7h-3l-3 1c-1 2-3 3-3 1zm53 26 7-4c0-1-3-4-5-4l-6 6-4 6 8-4zm-260 1-1-2-2 2 2 1 1-1zm30-4c20-9 25-23 12-32l-3-2-2 4c-4 8-7 11-23 16-8 2-11 3-12 5l-4 3c-3 0-2 3 1 3 2 0 2 1 2 2-1 3 3 4 13 4 7 0 10-1 16-3zm-228-13c4-10 3-15-6-26l-5-7h-9c-8 0-14 2-13 4l6 4c7 4 18 16 21 23l3 6 3-4zm-54-4-1-1-1 1 1 1 1-1zm258-6v-7c0-3-1-3-3-2a230 230 0 0 1-14 3c-6 2 3 10 11 10 5 0 5-1 6-4zm13 3c5-2 13-10 13-14l1-5-4 1-6 1-15 4 1 8c0 6 0 6 3 6l7-1zm6-10v-5c2-2 3 2 2 6-1 2-1 2-2-1zm-47 6c1-2 1-2-1-2s-3 0-3 2l1 2 3-2zm-215-1-1-1-1 1 1 1 1-1zm48-4 1-12c0-6 0-8-4-15-3-6-4-8-5-7-1 0-3 0-4-2-4-3-9-4-14-3-8 1-11 3-11 8 0 3 1 4 4 4 6 1 16 6 20 11 3 3 6 9 9 18 1 3 2 2 4-2zm279-5c5-4 12-5 16-3 3 1 4 1 8-1l7-4c2 0 6-3 9-7 5-5 8-6 13-8l11-2c3 1 5 0 8-2s7-4 10-4c5-2 7-4 4-6l-3-4c-1-3-1-3-11-4-13-1-20-3-27-11-5-6-7-13-6-22 0-6 0-6-3-7-4-2-7-5-7-7 0-3 0-3-3-3-5 0-10-5-10-10 0-3 0-3-3-3l-4 1-1 12-2 14-2 11c-5 25-5 29-10 35-5 8-12 14-21 17-7 2-11 5-9 7l8 2c5 1 9 3 14 6l8 5 6-2zm-103-2c8-2 15-4 17-6l-4-7-3-6c0-2-3-5-4-5-3-1-7-9-7-14l-1-5v-1l4-2v-5l-2-6c0-3-3-6-4-5l-1 4c0 6-2 7-5 2l-2-12c0-7 0-9-3-11l-2-5-3-3c-3-2-6-11-6-17l-2-6-5-21c0-3-1-7-3-9l-3-5-3-4-2-10c0-6 0-9-3-13l-4-6c-2-1-5-6-5-12l-1-5-1-5-1-5-1-4c-1-2-2-4-5-5l-4-2-7 3c-20 10-61 35-61 38l6 1c19 3 28 7 40 19 9 10 13 19 13 33 0 19-7 32-23 49-4 4-19 14-24 16a269 269 0 0 0 60 47l14 8 10 5h15l26-3zm187 0 1-7-4 8 3-1zm104-3c3-2 6-5 4-6l-2 1c-1 1-2 2-4 1-1 0-2 1-2 3-1 3-1 3 4 1zm-457-5c3-4 5-11 5-18 0-9-6-28-10-31l-10-1c-10-1-16 1-17 4-2 8-2 9 3 11 14 6 22 17 23 31 1 9 2 10 6 4zm221-5 8-3 28-13c3-3 4-5 7-15 9-33 10-79 4-114-6-33-22-71-36-85-4-5-5-5-10-5l-13 1a904 904 0 0 0-61 11c-12 4-12 4-10 6l7 2c0-3 1-3 3-1l1 4c-1 3 0 3 2 0 1-3 6-4 7-2v3c-2 2-2 5 0 5 3 1 3 4 2 6l-4 1c-2-1-2-1-1 1 2 1 2 3 2 3l4 4 3 6c0 5 2 10 4 11l5 5 3 5 1 2v1l-2 2c-1 2 0 3 3 4 3 2 5 5 2 5v2l-1 3-1 4v2l3-2c3-2 8-3 8-1l-3 5c-3 4-3 5 1 5s6 2 4 5c-1 2-2 2-4 1l-3 1 4 1c3 0 3 1 0 4-2 2-2 6 1 7l1 5 5 20v3c-1 2 2 11 4 11l1 5c-1 4-1 4 1 4h4c2 0 2 4 0 5s-2 4 0 6c1 1 1 1-1 3l-2 2a206 206 0 0 1 3 21c1 5 4 28 3 30-1 1 0 1 4 1l9-3zm-12-126 1-2c2-1 4 0 3 2h-4zm1-14 1-4 2-1c1-1 1 0 1 2l-2 5c-2 2-2 2-2-2zm-10-20-3-10c0-1 3-1 4 1 2 2 4 2 4-2 0-2 0-2 2-2l2 1v5l-1 3-2 2c0 2-4 3-6 2zm-5-17-3-3-2-5c-1-2-1-3 1-3l2 2 4 3c4 1 6 3 3 3l-2 2c-1 3-3 4-3 1zm2-13c-2-1-4-2-7-1-4 0-5-2-3-6s5-5 6-3l2 1c2-1 7 5 7 8 0 4 0 4-5 1zm-11-15v-3c1-1 3 1 3 3 0 1-1 2-3 0zm-7-4-2-4c-2-2-1-3 4-3 4 0 5 0 6 2s0 4-2 3l-4 2c-2 2-2 2-2 0zm-6-15c-2-2 1-3 4-1l2 2c0 1-5 1-6-1zm284 223 4-4c2 0 3 3 3 5-1 2 0 2 1 2 2 0 3-2 4-4 0-3 2-5 3-6l2-7c1-6 0-8-2-12-1-3-3-5-5-6-5-1-5 0-5 7 0 8-3 17-8 23-1 3-2 6 0 6l3-4zm-4-9 4-11 2-7-1-6c-2-7-6-13-9-11-2 0-2 1-2 5 1 6 0 14-2 19-1 3-1 4 2 9l3 7 3-5zm-436-19c2-3 3-8 3-11a49 49 0 0 0-7-23l-2-3c-2-3-4-3-10-4-11-1-13 0-18 4-4 4-5 9-2 10 16 5 25 14 27 27 1 8 1 8 4 7l5-7zm158 3-3-1c-1-1-1 0-1 2v3c1 1 4-2 4-4zm267 2 2-11c0-9-2-16-7-19s-7-2-8 7l-3 10c-2 5-1 6 7 11l7 5 2-3zm-66-2 3-2c2 0 5-4 4-5-1-3-9-3-16-1l-8 3c-1 1 8 7 12 7l5-2zm43-10 3-1c3 2 5-14 3-20-3-6-5-8-8-8s-5 4-4 6l-1 4-2 4-2 6c-3 5-2 8 3 9l4 1c2 1 2 1 4-1zm-58-2c11-3 12-4 11-6l-5-2-6-2-9-6c-3-1-6-3-6-5l-4-3-5-4c0-2-1-2-5-2l-11 1c-6 0-6 0-6 2 0 7 10 20 19 25 9 4 15 5 27 2zm39-1 9-14c2-5 2-6 1-10l-3-6-4 5-10 14-7 7 4 4c5 4 7 4 10 0zm-373-11c4-7 5-15 4-23l-3-10c-2-5-10-12-11-10l-7 1c-7 0-14 4-15 8s0 5 4 6c6 1 13 6 17 11 3 5 7 14 7 18 0 2 1 3 2 3l2-4zm19-1c20-9 36-32 38-52 1-12-3-26-10-32-4-4-6-2-4 2l1 3-2-2-1-1c-1 1-3-1-5-3l-4-2c0 2-2 2-5-1-1-2-3-3-5-3l-4-1c-2-2-6 0-6 2l-1 3c-1 1-2-2-1-3 2-2 0-3-3-3h-3l-5-1c-4 0-4 0-4 2 1 1 0 2-1 3h-5v2c0 3-2 7-5 7l-3 1h-3c-2 0-3 0-3 2l-1 4c-3 3-4 12-3 17l1 5c0 1 3 2 9 2 7 0 9 1 13 4 11 7 17 25 15 43-1 5-1 5 1 5l9-3zm-41-59c0-1 0-2 1-1 2 0 2 2 1 2l-2-1zm391 51c9-12 10-15 10-24 2-30-20-53-42-46l-6 4c-1 1 0 4 1 6 4 10 1 25-5 34l-3 5 3 1c3 0 4 0 4 2l4 6c3 2 4 4 4 5l3 3c3 0 4 1 4 4l-2 5c-2 0-1 1 4 1s6 0 7 2c1 3 1 3 4 1l10-9zm-10-51c-4-2-6-4-3-4 2 0 7 3 7 5s1 2-4-1zm-57 37c3-1 3-2-2-7l-8-4a789 789 0 0 1-13 4c-2 1 2 5 6 7s14 2 17 0zm23-17c4-6 4-7 4-16 0-11-1-15-4-19-4-3-6-2-6 4s-5 17-12 25l-5 7h11c3-2 9 1 5 3l-1 2c0 3 2 1 8-6zm-40 3c4-2 4-6 0-10-3-3-8-3-18 2-2 1-2 5 0 7 2 3 13 3 18 1zM82 423l-3-5 2 11c2 3 2 3 3 0l-2-6zm380 4c4-1 9-6 9-8l-2-1c-2 0-3-2-3-3 0-3-5-4-12-1-6 1-6 2-6 6 0 7 5 9 14 7zm39-3c11-13 12-36 3-36-4 0-5 2-5 6l-3 8-3 6-6 8-6 6 4 2h5l3 1 4 3 4-4zm-8-1c0-2 3-4 4-3v2c-1 2-4 2-4 1zm-38-14c4-2 4-4 2-7l-3-5c0-3-1-3-5-1-3 2-3 3-3 6v6c1 2 5 2 9 1zm31-2-2-2c-2-3-1-4 2-1l3 1c3-2 6-10 6-18 1-8 1-8-2-11-2-2-4-4-5-3l-3 5-5 12-4 7 3 3c1 1 2 3 1 4 0 2 0 2 2 3 3 2 4 2 4 0zm-414-7c-5-6-8-30-7-50 3-27 3-35 1-38-2-5-7-8-11-8-3 0-11 5-14 8-2 3-7 15-8 21-2 12 0 34 5 45l5 11 7 6c5 5 7 6 11 6l8 3c3 2 3 2 4 0l-1-4zm400 5-2-1 1 1c2 2 3 2 1 0zm0-12 4-7c3-4 4-6 4-14 1-10 1-10-2-13-1-2-3-3-4-2l-2 6-1 7-9 16c-3 3-3 5 2 7 3 0 4 1 4 2-1 3 2 2 4-2zm-24-2 2-2c0-2-6-9-7-9l1 12c1 1 1 1 4-1zm18-24 3-11c1-7-4-14-5-8-2 8-4 13-9 19-5 7-4 8 0 9 3 0 3 1 3 3 0 5 6-4 8-12zm-14-5c3-2 6-7 7-11 3-7 3-9 3-17-1-8-1-11-4-17-8-15-20-23-35-23-13 0-17 3-12 8l4 7 4 5 3 4c0 2 0 2 2 1 2-2 5-1 5 1h-2c-2 0-2 0-2 2s1 3 3 4l9 9 8 8 1 4c0 11 1 20 2 20l4-5zm-10-24h1l2 1h-2l-1-1zm-163-11-1-2c-2 0-3 2-2 3s3 0 3-1zm-15-11c3-2 3-4-3-13l-3-7-2-3-4-7c-4-7-6-7-11-2-4 5-4 7-1 10l8 13 5 11 4-1 7-1zm17-5 8-5c0-1-1-4-14-26-8-15-10-16-15-12l-6 4c-5 2-6 4-1 12l8 14 6 11c2 5 3 6 14 2zm26-10c2 0 3-1 3-2 0-4-20-39-23-40-1-1-12 2-14 3-1 1 0 2 2 7l7 8c4 2 7 7 6 10l2 5 3 4 2 4c2 2 3 3 5 2l7-1zm-9-9c0-3 1-5 3-5l1 3c0 3-3 4-4 2zm-109-1 1-4c0-4 5-14 11-21 6-6 6-8 3-11l-3-4c0-1-1-2-5-2-11 0-17-9-12-19 2-5 1-6-3-11-4-7-3-8 12-8s16 0 9-7l-8-10-7-9-3-4-3-5-5-7-5-8a308 308 0 0 1-21-29c-1-2-2-2-4 0-5 3-14 12-19 18-8 10-14 22-13 26 0 4 7 16 23 39l16 26c13 21 33 52 35 52l1-1zm-43-79-3-5-2-4-6-9-5-9c-2-1-2-4 0-6 1-1 2-1 3 1v2l-1-1h-1l3 4 4 6 4 5 2 4 2 4c2 1 3 2 3 4-1 3 0 4 1 4l2 3c0 3-3 1-6-3zm-22-37a529 529 0 0 1 0-2c3 3 3 3 4 1 0-2 0-2 1 0v3c-1 3-3 2-5-2zm189 90c5-5 9-11 11-15l6-9c2 0 3-2 3-5 0-4-1-7-5-15l-8-18c-4-8-5-10-6-7s-3 2-6-1l-3-3-3 4-2 4-6-3c-6-4-8-4-9 0s-3 7-5 7c-1 0-3 0-5-2-6-2-7-2-8 4l-2 5-7-2-7-2-3 11 2 2 2 2c0 2 3 8 5 9 1 0 2 2 2 5l2 6 19-6c13-5 37-6 44-2 3 2 3 3 0 3-2-1-3 0-3 1 0 3-7 14-15 21l-7 9 5 5 9-8zm-36-37h1c2 0 2 1 0 1-1 0-2 0-1-1zm-28 43 2-2-5 1c-1 2 1 2 3 1zm-19-7 7-8c1-1-1-5-9-17-5-7-9-11-10-11l-2 4c-1 3-2 5-4 5-2 1-9 9-9 11l7 8 8 10 4 4 8-6zm19-3c-1-2-4 0-3 1h2l1-1zm-50-18c2-2 2-3 1-6-1-4-2-6-7-6-4-1-7 1-6 7s8 9 12 5zm46-41 7-3 26-14c6-2 15-11 16-14 1-1 0-4-3-8l-5-6-2 4c-2 3-9 10-21 17l-8 6c0 4-3 6-10 6s-12-2-14-7c-3-4-4-4-5 0-1 3 1 4 4 4s4 1 4 2c0 2-1 3-2 3-2 2 0 4 3 4l4 2-2 1c-2 0-3 2-2 5 1 1 1 2 3 1l7-3zm9-9c-3-1-2-2 0-2l3 2h-3zm48-5-4-8c-3-2-3-1 0 4 2 4 4 6 4 4zm-55-4-2-1c-1 0-4-2-6-5-4-5-5-7-5-10s1-5 2-5c2-1 1-3-1-3-3 0-4 2-4 7 0 11 6 18 13 18 2 0 4 0 3-1zm-20-10c-2-6-2-12 0-12l2-2 8-4 11-7c12-10 18-12 25-10 3 1 3-1-2-9l-24-36-25-8c-42-10-51-11-62-6l-3 3 7 8 11 9 4 4 4-2c7-2 7-2 3-6-2-2-2-4-1-3 5 2 15 2 21 2 7-2 34-2 33-1l-8 1c-14 2-20 4-21 5l1 1c2 0 6 3 6 5l3 3 4 4 2 3 1 2 2 4 2 5c0 4 0 5-2 5l-2-1-3-4c-3-3-3-3-1-5s2-2 1-3l-4-1-8-6c-9-9-10-9-13-9-4 0-11 3-11 4 1 1 0 3-1 4-3 3-3 5 0 5l2-2 2-2c2 0 3 3 2 9 0 4 0 4 2 5l2 3c-1 1 1 2 4 3 8 2 15 10 9 10l-3 1-2 2c-3 1-2 2 2 2 5 0 11 2 12 5 2 4 1 5-5 4h-6c0 2 2 2 6 1 2 0 2 1 1 2-1 2-1 5 2 9l2 5 4 4 4 1v-4zm-5-3 1-1v1l-1 1v-1zm16-22-4-5c-3-3-4-7 0-6s9 5 11 8c1 3 1 3-1 5-3 2-5 1-6-2zm5-2-2-1v1l1 1 1-1zm4-9c1-8 9-13 14-9l2 4c0 2-1 2-4 2-4 0-5 1-8 3-3 4-5 4-4 0zm-8-9c-2-4-1-7 1-10 3-4 6-6 10-6 5 0 13 6 10 8l-5-1c-5-2-9 0-10 4l-1 5c-1 4-4 4-5 0zm16 45 11-7-2-1-4-6c-3-4-3-6-2-9 2-7-2-5-13 4-5 5-7 7-6 8l1 4c0 8 6 10 15 7zm-8-2c0-1 0-2 1-1l1 1-1 1-1-1zm10-4c-2-3-2-4 0-4 1 0 2 0 1 1s0 1 1 1v4l-2-2zm-4-12 1-1 1 1-2 1v-1zm26 3c4-3 1-12-5-14-7-4-9-3-9 4s10 15 14 10zm-11-12 1-1 2 1-1 1-2-1zm-145 0 8-9c1 0 5-10 5-16l2-12 1-9c0-3 0-3-1-1l-4 8-5 11a462 462 0 0 0-13 36l7-8zm22-20c5-5 5-8 4-23-1-11-2-13-3-14l-3 4c-2 4-7 37-6 38s4 0 8-5zm45-6-1-2-1 2 1 1 1-1zm-78-33c1-2-1-3-2 0v2l2-2zm29-6 12-8 6-5c0-2-6-10-13-18s-13-10-19-9c-5 1-11 7-12 13s4 18 15 31c2 2 4 1 11-4zm-20 3c2-2 1-4-1-7-2-2-4-3-6-2-3 1-4 5-1 5s5 2 4 3c-1 2 2 2 4 1zm-10-19c0-6-3-12-6-12-2 0-6 3-6 5l-2 1c-3 0-9 3-8 4l6 1c6 0 9 1 12 4 2 3 4 2 4-3zm-8-6c-1-3-1-4 1-4l1 3c1 4 0 4-2 1zm70 4-1-4-1-4c-2-13-3-15-8-13-2 0-2 1 0 2 2 2 2 3 1 4v6l2 4 1 1-2 1c-3 0-3 3-1 4l5 1c4 2 4 1 4-2zm-64-13 3-3c1 0 2-1 2-3-1-1 0-2 1-2 4-1 8-6 7-7l-1-2c0-1 3-1 5 2 2 2 4 2 10-1l5-3v3c0 4 2 4 4 2l4-2 2-2c0-2-1-2-3-2-5 0-6-1-4-3h2c1 2 5 1 5-1s-1-3-2-2c-2 0-3-1-3-2l-1-2h-1l-1-1-1 4c0 4-1 5-6 4h-13c-12 0-12 0-13 2l3 5 3 3-3 2-8 11c1 2 4 2 4 0zm50-9c0-2-4-3-5-2-1 2 1 3 3 3l2-1zm16 0-2-3c-3-1-4 0-2 2s4 3 4 1zm-64-5c0-1 0-2-1 0v2c1 2 1 1 1-2z"/><path fill="#189f9f" d="M255 924c-15-4-22-8-33-17-9-7-11-11-13-18l-3-12c-2-6-2-6 0-13 2-9 7-16 25-33 16-17 26-28 26-30s-6-3-10-2a239 239 0 0 1-27 0c-5 1-6 1-10-2s-4-3-8-1l-8 2c-3 0-10-3-10-5s-4-3-7-2c-6 3-16 3-24 2-9-2-14-4-20-9-8-5-11-9-16-19-4-8-4-9-4-20s0-11 4-19c5-10 13-19 22-24 6-3 16-7 17-6l-5 6c-2 0-14 8-17 12-8 9-13 25-12 36l5 13c7 15 19 22 37 24 6 1 9 0 11-1l6-1c4 0 14-6 15-9l3-6 3-3v3l2 2c2 0 12-15 15-23 3-7 4-9 3-14l-1-5h10c7 0 10 1 12 2 2 2 4 2 8 2 3-1 5 0 7 1h7l8-1c5 0 6 0 9 3l6 9 3 6 4-5c9-15 19-23 30-24 7 0 11 1 21 7 4 3 6 4 10 4 8 0 10 1 16 10 4 7 4 8 5 16 0 12-2 17-16 45-11 23-12 25-15 41-7 29-11 39-20 50-5 8-19 20-25 24-13 7-29 9-46 4zm25-5h-3 3zm-32-5-5-2-5-2-4-2c-1 1 15 8 17 8l-3-2zm39-6 12-5c3-3 9-7 15-9l3-1-2 3 2-1c3-2 4-4 3-4l-1-2h2c1 2 11-13 13-22 11-36 15-47 28-77 12-27 12-42 0-50-5-4-10-4-9-1l2 4-2-1c-1-3-5-4-10-2-5 3-8 9-7 17 0 4 0 6-3 13l-5 10-2 5-1 5-3 5a460 460 0 0 1-7 18c-1 5-2 7-4 9-3 3-3 4-3 7 1 2 0 3-4 7-4 3-4 4-3 7l-1 7-7 16-6 9c-5 11-20 25-32 29-3 1-2 1 5 1 12-1 22-5 32-15 10-9 14-13 23-32l8-14a97 97 0 0 1-13 28c-7 13-18 24-27 29-9 4-26 8-34 7-3 0-2 0 3 2 10 3 23 2 35-2zm37-69 8-23 1 1-9 22zm10-27 3-7-1 5-2 2zm7-17 2-6 1-1-2 6c-1 2-1 3-1 1zm14-43c0-3 0-6 1-5l-1 11v-6zM232 907c0-1-3-4-4-3l1 2 3 1zm8 0h-2v1l2-1zm11-9 7-4c2 0 9-10 9-14 2-5-3-19-8-25-4-5-4-7-1-12 4-5 4-7-3-8l-14 1-9 1-6 6c-8 9-13 21-13 31 0 12 11 24 25 27 6 2 8 2 13-3zm48-56h-2c-1 0-1 0 0 0h2zm-18-5c-2-1-1-1 2-1h6l-4-2h-7c-2 2-2 2 0 3 3 2 5 2 3 0zm-1-7h-2l1 1 1-1zm-12-5c2-1 4-4 5-7l6-7c4-3 8-10 12-20l3-7-2-1c-4-4-7-3-13 3l-8 7c-4 1-13 10-20 21l-9 11c-3 2 0 3 11 3 10 0 12-1 15-3zm-17-36 9-5 2-1c2 0 6-8 8-14 1-4 2-4 2-2l-2 6v4l4 3 3 3 4-5c3-3 4-4 4-2s2 2 12 0l3-1-3 2c-3 2-2 4 3 5 8 2 20-8 22-18 2-8 1-11-4-15-4-3-4-3-11-1-6 1-10 4-10 8l-2 1-4 2-3 2-1-5c-2-9-8-16-17-17-5-1-7 1-4 6l3 5-3-2c-3-6-16-12-16-8l2 6c2 5 2 7 0 3-3-6-12-14-16-14l-1 9v4c-1-5-6-13-9-13-1 0-2 2-3 9s-2 10-5 14-3 5-1 6 6 8 6 11 3 1 6-4c2-4 3-4 3-3 1 2 1 2 2 1l2-2 3 1 4 8c0 2-5 2-6 0l-3-1c-3 0-5 1-8 5l-8 8-4 4c0 1 12-1 17-3l9-7 4-4 4-4c3-4 3-5 3-2l1 3c1-1 3 0 5 2l2 3-3-2c-3-1-3 0-10 6-10 9-10 9-5 9 2 0 6-1 10-4zm52-17 2-2v2l-3 2 1-2zm6 1 1-1 1 1-1 1-1-1zm-24 0 1-3 1-1-1 3-1 1zm-33-7c0-2 1-3 1-1l-1 3v-2zm35 0 1-2v3l-1-1zm-34-10c1-2 1-3 1-1v4l-1-3zm13 33c5-2 8-5 6-7-1-1-4 0-11 6-3 4-4 4-1 4l6-3zm-58-2 9-6 4-3-2-3c-2-4-3-4-6-4-3 1-6 2-8 5l-16 12v1c2 2 14 1 19-2zm87-33 1-2 2-3c1-3 1-3-3 2-2 3-2 4-1 4l1-1zm309 87-16-3c-22-5-39-10-57-16a314 314 0 0 0-69-18c-8-1-25-6-29-9-5-3-8-8-8-13l3-36 6-9c6-7 17-13 26-14 5 0 6-1 8-5 2-3 5-5 10-7 9-4 10-7 3-12-6-3-9-7-11-14s-2-8-1-12c2-6 4-8 9-10 3-2 4-4 1-9-2-5 1-12 6-15 4-2 4-2 3-8-1-4-1-6 1-9 2-4 3-5 11-9 3-1 3-1 4 1l1-2c0-2-1-3-2-3l-2-5c0-6-2-8-4-4l-4 5c-2 3-4 3-10 3-7 0-7 0-8 3-2 5-5 7-11 8-4 1-6 2-6 4-3 8-7 11-16 11-4 0-5 1-10 6-7 7-18 16-25 19l-14 4-19 5c-10 2-12 3-24 2-19-1-34-4-46-10-3-1-3-1-6 1s-5 3-12 3c-9 0-9 0-12 4l-8 5c-4 1-5 2-6 7-2 4-3 5-8 8-5 2-7 4-8 7l-5 5-4 4c-1 6-3 8-7 11s-5 5-6 8-2 5-5 6c-4 2-5 2-2-2 4-5 4-7 1-8-2-1-2-1 1-2 6-2 11-6 13-9 2-4 2-5-1-5s-2-2 4-5c9-4 9-7 0-9-8-1-14-5-20-13-5-7-7-13-7-19 0-7-2-9-6-4-6 7-6 23-1 30 3 4 3 6 0 6-2 0-7-11-8-16-1-4-1-5-3-5-5 0-10 17-7 27 2 5 4 7 7 3l2-2v3c0 4 0 4-5 5-4 1-4 1-6-4l-2-8c0-7-5-7-8-1-2 5-3 24-1 29 2 4 5 6 7 4 1-1 2-1 2 2l-2 4 1 2c7 5 7 5 5 5-3 0-14-11-17-17-3-7-5-17-4-19v-5l2-5c1-6 5-11 10-12 4-1 4-1 5-6 0-7 3-11 9-12 4-2 4-2 5-7 1-6 6-10 11-11 3 0 4-1 5-3 2-12 5-16 13-18 3-1 3-2 4-6 0-7 3-10 9-13 5-2 5-3 7-8 1-7 5-15 9-17l7-2c4-1 5-2 7-6 4-9 11-16 19-19l7-4-6-4c-15-6-35-16-42-21-4-2-15-12-24-22-16-15-18-17-21-16-1 1-3 2-3 4-4 12-5 15-11 21-5 6-5 7-5 12 0 8-2 13-6 15-7 5-10 8-10 12 0 5-2 10-5 11l-3 5-3 8c-3 4-3 6-3 11l-2 14c-5 20-16 34-32 42l-9 4H91c-11 0-14-1-19-3-13-6-22-19-22-33v-5l3 8c2 6 3 9 8 14 8 8 16 11 28 12 11 1 17-1 27-6 14-7 26-25 28-41 0-7 0-7-2-9l-3-6c-3-10-14-21-21-21-3 0-3 0-3-3 0-2-1-3-2-3v10c1 10 0 15-5 20l-8 7c-3 2-3 2-3 0l2-4 1-5 1-12-1-3-3 2c-5 3-9 2-8-1 1-5 4-9 7-9s4 0 4-2-1-2-4-2l-4-1-2-3c-4-2-6-4-6-6l2-7c3-6 3-12 0-11v-1c1-2 1-2-1 0-2 1-6 0-6-1l3-6c4-8 4-12-1-9h-5c-3-1-3-1-2-4 0-2 1-5 3-6 2-3 3-4 2-9 0-5 0-6 3-7 3-2 4-4 6-10v-3l4 3 4 3-1 7c0 6 0 6 3 8 3 3 4 11 2 17-2 3-2 4 0 5 2 3 5 1 7-3l7-6c4-2 4-3 5-8 0-6 2-9 5-10 4-2 7-6 7-11 0-3 0-5 4-10 3-4 5-7 5-10l1-7v-7l-3-12c-2-8-2-11-1-16 2-10 6-17 13-24 6-5 8-7 17-10l13-5c2 0 6-3 9-7 14-16 31-27 52-35l7-3c1-2-4-12-6-13l-8 2c-5 2-9 3-17 3-14 1-18 0-26-8a492 492 0 0 1-75-106l-12-23c-2-3-2-5 1-18 3-12 7-23 17-42 8-16 8-18 2-23-4-4-12-5-15-2-4 3-11 7-12 6l3-4 5-10c3-8 1-13-5-16-5-3-5-4-2-4s7 2 8 4c0 1 1 2 3 2 2-1 3-8 0-13-1-3-2-4-4-4s-6 3-6 5l-2 1-8 3c-4 2-7 3-9 2s-1-1 3-3c8-3 15-9 19-17 4-7 4-8 4-17l-1-12 1-3 1 2c0 1 6 7 10 9 5 3 9 2 15 0 7-4 12-8 13-15 2-8 5-5 6 7 1 8 2 11 8 16 5 4 13 5 20 2l4-2-3 8c-3 6-4 8-4 16-1 8-1 8 3 12 4 5 9 7 22 9 25 4 40 7 48 10s8 3 8 6c0 4 3 10 12 24l9 15 7 13c8 9 14 22 14 25-1 2 1 5 4 12l3 9h-2v-3c0-2-8-13-9-13l-1-4c1-3 0-5-4-10-2-4-4-7-5-6l-2 5c-2 5-4 6-16 14-9 6-11 7-14 11-1 2-1 1-2-1l-3-2-5-2-3-3 2 3 2 3-4-3c-2-1-2-3-1-3 2 1 1-1-1-2l-1-6v-5l1 5 4 6c4 4 16 1 24-6l3-2-4-3c-4-4-7-10-5-11l2 4c3 5 5 6 12 5s8-2 7-8c0-6-3-10-9-12-3-2-4-2-6 0l-3 3c0 1-5 1-5-1-1-3 11-6 16-4 4 2 3 0-2-10-14-24-23-37-27-38l-14-4-24-6c-16-4-34-7-38-6-7 1-18 8-14 8l8 6a12173 12173 0 0 1 15 15l9-3c10-3 22-7 26-6l-5 2c-7 2-7 3-3 3l7 1c2 0 4 1 5 3l4 4 3 4 1 2 2 4 2 3 2 5c0 4 0 5-2 5l-2-1-3-4c-3-3-3-3-1-5s2-2 1-3l-4-1-8-6-11-9-1-1c1-1 0-1-3-1-5 1-18 7-16 7l3-1c4-2 6 1 3 4s-3 5 0 5l2-2 2-2c2 0 3 3 2 9 0 4 0 4 2 5 3 2 2 5-1 5l4 2c5 1 12 6 11 7l-4-1h-5 1l5 2c3 1 3 1-3 6-2 1-1 1 4 2 6 0 10 2 10 4l-3 1h-6l-2 1 3 2 4 1c3-1 3 0 2 1-1 2-1 6 2 8l1 4c0 3 3 6 6 6 4 0 5 2 3 4s-1 6 3 6c3 0 4 1 4 3l-2 2c-2 2 0 4 3 4l4 2-2 1c-1 0-2 0-2 4l1 4 17-7 14-8a144 144 0 0 0 26-16l1 2c0 2 2 5 5 8 3 5 3 7 3 9-1 5-2 5-8 1l-7-3-3 5-4 5s-3 0-5-2c-6-2-7-2-8 1l-1 3c1-2 1-1 1 1-1 4-3 6-3 4l-1-1-5-1-6-2c-2 0-5 8-5 11l3 3 2 2c0 2 3 8 5 9 1 0 2 2 2 5l2 5v3h2c19-9 33-12 46-12l12 2c2 1-7 16-18 28-3 2-5 5-5 6l3 3 2 3 4-2c4-3 14-14 19-23l4-6c2 0 4-5 4-8a395 395 0 0 1-13-31c-4-10-6-12-8-8h-3c-1-1 0-2 1-2 2-1 2-2 2-4s1-3 2-2c2 0 6 8 14 25 8 18 9 25 5 32-5 10-12 19-23 27l-5 6c0 3 10 19 13 19l9-2c15-6 43-11 58-11 9 0 13 1 16 6l4 5 1 2 2 5 8 13 6 11v-3l1-4 1 3 3 4 9 9 4 5 4 8c2 5 2 15 1 16v9l3-3 3-2-1 2c-1 1-3 2-3 4-1 1-1 1 1 1 3-1 4 0 7 5 2 3 3 4 2 7l-1 3 4 1 6 4c2 3 2 3 0 5-2 1-2 2 0 1 2 0 2 0 1 1v3l4 1c3 1 3 1 1-1-3-2-3-3 1-5 2-2 2-2 5 0 1 1 2 2 1 4 0 2 0 3 2 3 3 1 5 3 3 6-1 1-1 1 0 0 1 0 1 1-1 2l-2 1-3 2c-2 3-1 3 4 5l6 1c1-1 3 0 5 2 3 3 3 3 1 4l-3 3 3-1 5-4 5-5-6 8-4 5h2c0 2 6 2 10 1 5-2 10 1 6 3l-1 3v2l-3 2c-1 2-1 2 1 1s9-8 11-12l2-1c0 1-2 6-6 10-2 2-2 3-1 3l6-2c3 1 4 1 4 3l4 6c3 2 4 4 4 5l3 3c3 0 4 1 4 4l-2 5c-2 0-1 1 4 1s6 0 7 3l1 5 1 2 5 3 6 4v1c-2 2-1 2 2 1l6-1h3l-3-2c-2-2-2-2 0-3l5 3c4 4 8 5 14 5l2 1 5 4c12 8 12 8 17 18 3 6 4 10 4 15l1 7-4 12c-4 13-4 17 2 21l4 3-6 3c-11 6-15 11-15 19 0 9 3 11 6 5 1-3 9-11 11-11l-3 5c-8 11-8 19 0 25 4 4 8 5 14 4l28-17 5-4-5 6c-4 6-8 14-8 19 0 4 2 11 5 13 8 8 30-4 38-22 7-13 8-22 6-42-1-11-7-27-15-42-5-9-21-26-29-29-5-2-5-2-7-1-2 2-2 2-2 0l-3-7c-3-6-7-8-11-6-3 2-2 2-4-4-1-4-7-10-9-9l-3 1-3-3c-3-6-10-10-13-7-2 2-2 2-4-3-4-8-9-10-13-6-2 1-2 1-3-1 0-2-1-4-3-5s-2-2 0-4l1-3 3 3 5 3c5 0 8 2 11 6 3 5 4 5 7 5 5 0 7 2 10 6 2 3 3 4 6 4 4 0 8 4 10 9 1 2 2 3 7 3h5l3 6c4 9 4 9 7 10 5 1 16 9 25 18 10 8 14 16 21 34 7 17 9 41 4 54-4 11-8 19-17 27-6 6-8 8-14 10-9 3-12 3-18 0-8-4-10-12-7-25 1-4-1-4-6 0s-15 9-18 9c-4 0-11-4-13-7l-4-7-5-9-4-6c-1-2-11 3-11 6-1 1 0 3 1 5 2 4 2 4 0 8s-4 6-11 10c-5 4-5 4-5 9s0 5-5 10l-6 6 2 3 1 6c0 4-3 8-9 11-5 3-6 5-4 7l1 4c0 3 0 5-4 8-5 5-13 8-19 9l-6 1 5-3c14-6 23-17 17-21-1-1 0-2 4-5 5-4 10-11 10-15l-2-3c-1-2-1-3 3-5l6-6c2-3 3-9 2-10s1-3 6-7c8-8 11-14 9-19-1-3-1-3 5-8 7-6 10-12 7-15-2-2 2-5 4-3 1 1 2 1 6-2l9-6c6-2 6-4 2-7-3-1-3-1-6 1-3 3-3 3 1-5 8-16 9-29 3-43-4-9-8-14-16-20-7-5-16-7-26-6-8 0-21 6-27 12-4 4-4 4-10 3s-14 1-23 7c-3 3-5 3-6 3-1-2-8-1-15 2l-11 9c-4 4-6 6-7 5l-8 4c-5 3-6 3-8 2-4-3-13-1-19 4a51 51 0 0 0-9 9c-1 2-1 2-1-1v-2c-1 1-3 0-4-1-3-3-14-7-18-7l-4-1-4-1-4-1c0-2-2-3-5-3l-3 5c-2 5-5 8-11 11-5 2-8 2-3-1 10-6 13-8 13-15 1-4 0-5-2-5a70 70 0 0 0-21 6c-3 1-3 2-3 5l1 8c0 3 0 3 4 3 8 0 1 3-9 3l-10 1 4 2 4 2c1 1-2 4-4 4-3 0-2 3 1 3 2 0 2 1 2 2-1 1 0 2 2 3s2 1 0 2h-3c-1-2-6-1-6 1s26 0 33-2l-1 1c-3 2-14 4-21 4-4 0-5 0-3 1l2 7c0 4 0 5 2 5 2 1 3 3 0 4l-1 3-2 4c-1 2 2 7 5 6 2-1 3 2 1 4-2 1-7 10-7 12l4 2c4 0 5 2 2 3-4 2-3 4 3 8 4 2 5 3 7 2s3-1 8 1l9 5c1 1 4 2 9 2h8c1 3 21-6 29-12 5-4 6-6 2-8s-13-11-15-15c-4-7-2-7 3 0 4 5 9 10 12 10l-3-4c-6-6-5-11 3-10 5 1 6-2 5-10l1-8c2-2 2-2 3-1s1 0 1-3c0-4 1-3 3 5l4 13c1 3 1 3 2 1 1-1 1-2-1-4l-1-4c0-2 1-2 4-3 5 0 7-2 7-3a4840 4840 0 0 0 4-12c1-1 1 0 2 3l3 5v-2c-2-2-2-5-1-3h7c7-1 11-3 11-7l1-5 2-3 2 2c2 2 3 3 4 2l4-2c3 0 4 0 5-3 0-2 1-3 3-3 1 1 2 0 4-4l2-9c0-2 1-3 1-1l1 2c2 0 3-4 2-6-1-1-1-2 1-5 3-5 5-7 5-4l2-2 3-3v-3l1-5c1-2 2-2 2-1l-1 3c-2 1-2 2 0 2 3 0 4 4 2 9s0 21 3 26c0 2 4 6 7 10 5 4 7 6 13 8l10 3c2 2 2 4 0 5s-2 2 1 3l-4 1c-9 0-21-5-31-13l-2-1c2 2 2 3 1 3-2-1-2 1-2 6 0 3 1 6 4 9 4 4 4 5 2 6s-2 2 2 4l9 2c5 1 4 3-1 3-5-1-12-5-17-9-2-1-4-3-5-2-1 0 1 3 3 3 3 0 3 3 0 4-7 2-4 10 7 21 4 4 5 6 2 7l11 2c6 0 7 0 4 1h-12c-13-1-26-8-30-17l-1-1 2 5c3 2 4 5 4 11 1 8 4 14 7 15s2 3 0 4-1 1 2 3l5 1-5-1c-6 0-14-3-17-5-3-3-5-1-5 6 0 5 0 6 5 10 7 8 6 11-3 7-3-1-5-2-6-1l-2-1-2-2 1 2c1 2 2 2 1 4-2 2 0 9 4 13l4 6c1 3 1 3 10 2 9 0 13 1 8 2l-4 3c-2 3-2 3 0 6a7542 7542 0 0 1 6 13l-3 7c-6 11-23 16-37 11-4-2-4-2-2 0l3 1 1 2c-1 2 2 4 12 10 9 5 12 6 20 7l13 2 6 1h3c0 2 3 4 5 3l4 1 6 3c3 0 4 0 7-3 2-2 3-2 4-1l1 3c-1 2 0 2 1 2l8 2 7 1a56 56 0 0 1 28 9c1 0 2 1 2 3 1 3 2 3 10 4h17l5-2 3-1 1 1 5-2 6-4 2-1c2 0 2 0 1 1l-1 3-1 1v-1c1-1 1-1 0 0v3c3 4 1 13-3 17l-3 3 3-2c7-5 12-17 12-29l1-10c0-10-14-24-34-30a147 147 0 0 0-49-11l-22-2c-25-1-34-2-34-3l50-2c25 0 42 3 65 13 10 4 20 12 25 21 3 5 3 18 2 32s-3 20-8 24c-4 4-30 19-40 23-10 5-12 5-18 3zm3-9c2-1 2-2 2-5-1-3 0-5 1-7 3-5 2-6-7-6l-12-1-13-4a2124 2124 0 0 1-58-13l-64-14a50 50 0 0 1-24-15c-1 0-1 8 1 13 1 3 2 5 7 7 10 6 27 11 52 16a255 255 0 0 1 35 10l30 9c26 9 46 12 50 10zm18-9-2-2c-2 0-2 1-2 2s0 2 2 2l2-2zm16-4-2 1v1l2-2zm-37-13c0-3-4-6-8-6l-11-2c-3-2-9-2-12-2l-7-2-15-3c-12-2-12-3-12-5-1-3-1-3-4-3l-8 7a665 665 0 0 1 54 14c14 5 22 5 23 2zm-80-18 3-4c2-2 2-6 0-6-1 0-8 10-8 12h2l3-2zm-8-1 3-6c1-2 2-4 1-5l-7-1c-7 0-14-2-14-4 0-3-5-7-12-9l-9-4-4-2c-4 0-5-1-5-9l-2-9c-2-2-3-5-3-7-1-4-2-4-9 0-10 6-20 19-21 27-1 4 0 5 4 9 6 6 13 10 26 12l36 7c13 3 15 4 16 1zm-11-45c5-3 9-8 9-14 0-4-3-9-5-9l-2 2-3 4-3 2a59590 59590 0 0 1 7-19l-5-1-8-1c-4-1-5 0-7 4l-3 9c0 3 0 4 3 7 4 3 4 4 0 2h-2l-1 1c-2 0-4-6-4-10s-2-3-7 1c-4 5-6 9-5 12 2 6 7 9 10 7 2-2 2-1 0 1l-2 3 4 1c10 3 17 2 24-2zm-26-51-1-1v2c1 1 2 1 1-1zm-233-6c5-2 11-8 10-9l-5-3c-7-3-7-3 0-3 9 1 14-1 19-5l3-3-7-5c-9-5-21-17-25-24-3-4-3-6-3-14l-1-10c-3-2-10 13-10 21 0 6 2 16 4 18 1 1 2 1 4-2 3-3 3-3 5 7 0 6 0 7-2 8s-2 1 1 4c2 3 2 3 0 2-3-1-5-3-4-5 0-1 0-2-1-1l-2-3-4-6c-3-2-4-8-4-16l-1-8c-2-1-7 4-10 11-3 6-3 8-3 17 0 10 1 13 5 13l3-4 2-5v7c0 7-1 9-3 8-3-1-2 1 2 5 6 6 10 8 17 7l10-2zm46-27 3-1-8-6-14-9c-7-6-17-19-19-23v-31c2-6 1-6-4-1-7 7-10 19-9 32 2 13 8 22 12 16l2-2 1 3 1 4c1 1 0 2-2 3l-3 1 3 3c5 5 11 9 18 10 7 2 15 2 19 1zm26-3c1-1-7-9-10-11-2 0-4-3-5-5-2-3-3-4-5-4-5 0-8-1-9-4l-2-5c0-2 5-2 9 1 2 2 3 2 4 0l3-6c1-4 1-5-1-7-3-4-6-12-6-16 0-9 3-16 10-18l6-3 2-2-2-5c-3-4-3-6-3-11l2-8c0-3 0-3-5-2l-9 2-8 4c-5 3-15 11-22 19-2 3-5 7-7 14-2 8-3 10-2 19 0 11 2 15 12 26 8 8 18 14 35 21 5 2 12 2 13 1zm15-12-1-1v2c2 1 2 1 1-1zm170-25-2-1 1 2c1 1 2 1 1-1zm14-19c0-1 0-1 0 0v2-2zm-7-10-1 1v1l1-2zm-187-10c-2-2-3-2-3 0l3 1c2 0 2-1 0-1zm2-3-2-1v1c2 2 3 2 2 0zm198-1h-2 2zm-372-16c1-4 3-8 5-9 1-1 3-4 3-8l3-5c3 0 7-4 9-9 2-4 3-8 3-15 1-8 1-9 3-8 3 2 5-1 9-9 3-6 3-7 2-15l-1-10c0-2 0-1 2 3 2 7 3 8 6 5 3-4 6-17 5-22l1-5c1 0 2 7 1 17v10l2 1 5-1 4-1c4-1 16-10 22-16a50 50 0 0 0 11-14c1-1 5-13 6-22 1-8 0-17-3-26-2-5-4-8-9-13l-11-9c-5-2-5-2-8 0l-4 2 2 2 3 2-9-1h-7l-4-1h-3l-5-1c-4 0-4 0-4 2 1 1 0 2-2 3h-4v2c0 3-2 7-5 7l-3 1h-3c-2 0-3 0-3 2l-1 4c-3 3-4 12-3 17l1 5 1 2v1c-1 1-1 1 1 1l2-1 4-1c2 0 3 0 2 1l5 2c4 2 4 3 3 4l-7 1c-6 0-14 4-15 7 0 6 0 7 3 8 1 2 3 2 4 2 2-1 4 1 4 3 0 3 0 3-8 2-7-1-8-1-12 2-5 4-7 6-7 10l-1 3c-2 1 0 3 6 3 5 1 7 2 9 4l5 3c2 0 9 13 8 17 0 3 0 2-2-3-2-8-6-13-8-13l-10-1c-10-1-16 0-18 3l-1 6-3 4v1l2 1 5 2c5 2 15 9 15 11 0 1-1 1-3-1s-2-2-1 1l3 3 2 2c0 2-1 2-2-1-1-1-3-2-4-1 0 0-2 0-3-2-4-3-9-4-14-3-7 1-11 4-11 7v4c-1 2 2 4 7 4 5 1 8 3 8 4-1 3-2 3-9 3-6 0-12 2-12 4s6 6 10 9l5 4 5 5 7 10c4 9 5 9 9-2zm-6-23-4-4-1-1-1-3c-2-2-2-2 0-1 3 1 7 6 9 10s1 3-3-1zm38-72c0-2-1-3-2-3-1 1-2-1-3-3l-1-2 1-1 7 10c0 2 0 1-2-1zm-10-48c0-1 0-2 1-1 2 0 2 2 1 2l-2-1zm58-26c-5-4-7-8-5-9 3-3 7 2 9 10 1 4 0 3-4-1zm83 171c0-4 0-5-1-3l1 8v-5zm-219-3-1-1-2 1 2 1 1-1zm258-6v-7c-1-3-1-3-3-2a230 230 0 0 1-14 3c-6 2 3 10 11 10 5 0 5-1 6-4zm-28-1c1-2 1-2-1-2s-3 0-3 2l1 2 3-2zm-216 0c1-1 0-2-1-2-1-1-1-1-1 1s1 3 2 1zm325-8c1-2 9-5 13-5l7 1c2 1 4 1 8-2l7-3 6-5 8-7c4-3 15-6 19-5 2 1 4 0 6-1 4-3 9-6 12-6l4-1c2-2 2-2-2-7l-4-6h-9c-14-1-25-6-30-16-3-6-4-13-2-19 0-4 0-4-3-6-5-2-6-3-7-7 0-2-1-3-4-3-5 0-8-4-9-8 0-4-1-4-3-5-5 0-6 1-7 12l-3 20-4 23c-2 12-5 19-6 17l1-5c3-10 7-35 8-55 4-50-11-110-34-142-6-10-10-12-16-12-12 0-52 6-71 11-8 2-28 9-27 10l6-2c6-2 6-2 8 0l7 2c0-3 1-3 3-1l1 4c0 2 0 3 1 2l1 1 1-1c2-3 5-5 4-2l-2 5c0 3 0 3 2 3 3 0 3 2 1 3l-4-2-3-3 3 3 2 4 1 1 1 3 4 4 3 6c0 5 2 10 4 11 3 0 6 5 6 12 0 4 1 6 3 7 2 2 4 9 2 10l-1 5v4l3-3c2-2 5-3 5-1l-2 3c-3 4-2 6 2 6 3 0 4 1 4 2l-4 1c-3 0-3 1-2 2l3 2c4 0 4 1 1 4-2 2-2 6 1 7l1 5 5 20v3c-1 2 2 11 4 11l1 5v6h1c3-1 4 0 2 2-1 2-3 7-2 9a144 144 0 0 1 4 24c1 6 4 29 3 31-2 3-1 3 6 1 18-6 35-14 41-18 5-3 4 0-2 4-3 3-7 5-11 6-6 2-11 6-11 8l4 2c12 3 15 4 21 8 7 4 9 5 10 3zm-63-179 2-2c1 0 2 0 1 1 0 3-3 3-3 1zm-15-37c1-1 4-2 5 0l-3 1c-1 1-2 0-2-1zm-2-6v-3c1 0 3 1 3 3s-2 1-3 0zm-8-6-2-4 5-1c4 0 5 0 6 2s0 4-2 3l-3 1c-1 2-2 1-4-1zm-5-13c-2-2 0-3 4-1l2 2c0 1-5 1-6-1zm-7 237c8-2 15-4 17-6l-4-7-4-6-3-5c-3-1-7-9-7-14l-1-5v-1l4-2v-5l-2-6c0-3-3-6-4-5l-1 4c0 6-2 7-5 2l-2-12c0-7 0-9-3-12l-2-4-3-3c-3-2-6-11-6-17l-2-6-5-21c0-3-1-7-3-9l-3-5-3-4-2-10c0-6 0-9-3-13l-4-6c-2-1-5-6-5-12l-1-5-1-5-1-5-1-4c-1-2-2-4-5-5l-4-2-7 3c-21 10-61 35-61 38l6 1c19 3 28 7 40 19 9 10 13 19 13 33 0 19-7 32-23 49-4 4-19 14-24 16a269 269 0 0 0 60 47l14 8 10 5h15l26-3zm-225-20c-1-1-1 0-1 1 1 1 1 2 2 1l-1-2zm234-19-3-1c-1-1-2 0-2 2l1 3c1 1 4-2 4-4zm201 0 3-2c2 0 5-4 4-5-1-3-9-3-16-1l-8 3c-1 1 8 7 12 7l5-2zm-418-6-2-2v-1c-2 1 0 4 2 4v-1zm403-6c11-3 12-4 11-6l-5-2-6-2-9-6c-3-1-6-3-6-5l-4-3-5-4c0-2-1-2-6-2l-10 1c-6 0-6 0-6 2 0 7 10 20 19 25 9 4 15 5 27 2zm-392-17c-1-2-1-2-2 0s0 3 2 2c2 0 2-1 0-2zm360-18c3-1 3-2-2-7l-8-4a789 789 0 0 1-13 4c-2 1 2 5 6 7s14 2 17 0zm-350-3 2-2c-2 0-3-2-2-4 2-4 0-3-2 1l-2 6 4-1zm8-2-3-1 1 1h2zm325-9c4-2 4-6 0-10-3-3-8-3-18 2-2 1-2 5 0 7 2 3 13 3 18 1zm-335-5-1-1-1 1 1 1 1-1zm317-7c4-1 9-6 9-8l-2-1c-2 0-3-2-3-3 0-3-5-4-12-1-6 1-6 2-6 6 0 7 5 9 14 7zm-7-18c4-2 4-4 2-7l-3-5c0-3-1-3-5-1-3 2-3 3-3 6v6c1 2 5 2 9 1zm-7-18 2-2c0-2-6-9-7-9l1 12c1 1 1 1 4-1zm-169-64-1-2c-2 0-3 2-2 3s3 0 3-1zm-15-11c3-2 3-4-3-13l-3-7-2-3-4-7c-4-7-6-7-11-2-4 5-4 7-1 10l8 13 5 11 4-1 7-1zm17-5 9-4c1-1 1-2-3-8l-4-9-2-4-3-4 2 1 2 1c2-1 5 1 7 5 3 7 5 10 7 11v3c-2 2-1 2 5 1l7-2c2 0 3-1 3-2a250 250 0 0 0-24-43l-14 4c-3 1-3 2-2 2 4 3 11 17 8 17s-12-11-12-14c0-2-3-1-7 2l-7 3c-3 2-3 2-2 0 0-2 0-2-2-2s-3 1-3 3l1 2 2 1 12 23 5 8 2 5c2 4 2 4 13 0zm18-21 1-1 1 1-1 1-1-1zm-83 19-3-1c-1 1 0 1 1 1h2zm-21-19c0-2 0-2-1 1v2l1-3zm-6 2 1-5c0-4 5-14 11-21 6-6 6-8 3-11l-3-4c0-1-2-2-5-2-11 0-17-9-12-19 2-5 1-6-3-11-5-7-3-8 12-8s16 0 9-7l-8-10-7-9-3-4-3-5-5-7-5-8a308 308 0 0 1-21-29c-1-2-2-2-4 0-5 3-14 12-19 18-8 10-14 22-13 26 0 4 7 16 23 39l16 26c13 21 33 52 35 52l1-1zm-43-80-3-5-2-4-6-9-5-8c-2-2-2-5 0-7 1-1 2-1 3 1v2l-2-1c0-1 0-1 0 0l3 4 4 6 4 5 2 4 2 4c2 1 3 2 2 4 0 3 1 4 2 4l2 3c0 3-3 1-6-3zm-22-37a529 529 0 0 1 0-2c3 3 3 3 4 1 0-2 0-2 1 0v3c-1 3-3 2-5-2zm74 105-1 1c-1 2-1 2 1 1v-2zm32-16 7-8c1-1-1-5-9-17-5-7-9-11-10-11l-2 4c-1 3-2 5-4 5-2 1-9 9-9 11l7 8 8 10 4 4 8-6zm-16 2-1-1h-1l1 1h1zm35-5c-1-2-4 0-3 1h2l1-1zm-50-18c1-2 2-3 1-6-1-4-2-6-7-6-4-1-7 1-6 7s8 9 12 5zm-1-80-1 2h1v-2zm-3-7c1-2 0-2-1-1l-2 6v3l1-3 2-5zm-72-9 8-9c1 0 5-10 5-16l2-12 1-9c0-3 0-3-1-1l-4 8-5 11a462 462 0 0 0-13 36l7-8zm20-17 7-8V91c-1-3-5-2-7 2-1 4-7 39-6 40s1 1 6-3zm47-9-1-2-1 2 1 1 1-1zm-78-33c1-2-1-3-2 0v2l2-2zm28-5 14-9 6-4c0-3-12-18-18-23l-7-6c-5-1-12 1-15 3-8 8-7 18 3 33 6 9 8 11 10 11l7-5zm-19 2c2-2 1-4-1-7-2-2-4-3-6-2-3 1-4 5-1 5s5 2 4 3c-1 2 2 2 4 1zm52-21-1-4-2-4c-1-13-2-15-7-13-2 0-2 1 0 2 2 2 2 3 1 4v6l2 4 1 1-2 1c-3 0-3 3-1 4l4 1c4 2 5 1 5-2zm-64-13 3-3c1 0 2-1 2-3-1-1 0-2 1-2 4-1 8-6 7-7l-1-1c0-2 3-2 5 1 2 2 4 2 10-1l5-3v3c0 4 1 4 4 2l4-2 2-2c0-2-1-2-4-2-4 0-5-1-3-3h2c1 2 5 1 5-1s-1-3-2-2c-2 0-3-1-3-2l-1-2h-1l-1-1-1 4c0 4-1 5-6 4h-13c-12 0-12 0-13 2l3 5 3 3-3 2-8 11c1 2 4 2 4 0zm50-9c0-2-4-3-5-2-1 2 1 3 3 3l2-1zm15 0-1-3c-3-1-4 0-2 2s3 3 3 1zm-63-4c0-2 0-3-1-1v2c1 2 1 1 1-1zm433 734-1-1 5-1c2 0 3 0 2 1 0 2-4 2-6 1zm-385-6c-4-1-11-7-11-8l4 2c2 2 6 4 9 4 4 2 6 4 3 4l-5-2zm44 0 2-2v2l-1 1-1-1zm-58-13-2-6c0-4 0-4 2 3v3zm60-35h2c1 1 1 2-1 2s-2-1-1-2zm-7 0-4-2c-1-1-1-2 2-1l4 3h1-3zm-9-6-2-3 3 2 2 3-3-2zm14-18c-3-4-3-5 1-2l2 4-3-2zm308-9 5-1 5 1c0 2-10 2-10 0zm17-22 4-1c2 0 2 0 1 1h-5zm-171-43 1-2 1 2-1 1-1-1zm194-5h5c2 0 1 1-2 1l-3-1zm12-1 3-1v1h-3zm-152-7c-1-4 0-25 2-25v25l-1 3-1-3zm251-6-7-1c-9 0-15-4-20-13-2-4-3-21-1-21l1 3c0 10 6 22 12 26 6 3 11 2 17-2 4-4 4-5 4-10l-2-10c-3-4-3-6-1-6l1 1 3 7c4 7 4 12-1 20-5 7-5 8-6 6zm-93-5c-1-1 1-1 3-2h5c0 2-8 3-8 2zm-212-9c-1-1 1-3 3-3 2 1 2 1 1 3-1 1-3 2-4 0zm-307-7c-2-3-3-5-2-9s0-5-3-7c-4-4-4-10 0-15l3-4-5-4c-7-4-7-10-2-18 3-4 3-4 0-8-2-2-2-4-2-9 1-6 1-7-2-9l-3-5v-8l-5-3-8-6c-4-4-4-5-4-11s0-6-5-11c-5-4-6-7-8-12-4-13-3-19 7-25 6-4 6-4 6-10 1-7 5-12 14-18 5-3 7-6 5-8-1 0-3-4-4-9-10-31-5-57 12-69 7-4 15-4 21 0 7 5 9 9 9 21l-2 22c-2 7-2 16-2 25 0 15 2 23 8 32 10 14 15 34 14 50-1 11-3 13-3 4a101 101 0 0 0-9-40l-5-11-2-4-2-4-2-4c-3-7-4-21-3-41 3-32 3-35 1-39-1-4-7-10-11-10-3 0-11 4-14 7l-7 11c-2 6-3 9-3 19-1 14 0 23 5 37 3 9 4 11 8 15s4 4 1 2c-8-4-14-3-20 3-4 4-8 13-6 15s2 3-2 4c-4 2-9 8-10 12-2 7 4 25 8 27 3 1 6-2 5-5-1-4 0-4 2-3 3 2 3 2 0 5s-4 9-3 13c0 1 2 5 5 7 4 5 5 5 9 5s7-1 11-3c7-4 8-3 2 2-7 5-10 9-10 12s2 8 5 10l1 6c-1 4 1 10 4 13 2 2 2 2-1 5-5 7-3 17 4 22l3 3-2 3c-5 4-4 9 2 15 2 3 3 3 1 5v12c2 2 2 3 0 3-1 0-3-2-4-5zm411-6c0-2 1-3 1 0v2l-1-2zm-80 1 12-9c1 0 1 1-1 2l-7 5-4 2zm-307-5 4-1c1 0 2 0 0 1h-4zm320-6 2-3c1-2 2-1 1 2-1 2-3 2-3 1zm238-4c0-2 0-3 2-3v4l-2-1zm-67-4h4c2 1 1 1-1 1l-3-1zm-11-4 2-2 1-2c0-1 5-5 7-5 1 0 1 5-1 7h-3l-3 1c-1 2-3 2-3 1zm-39-10 1-3h1l-1 3c-1 2-1 2-1 0zm108-11c0-3 4-10 6-10l2 2c1 2 1 3-2 6-3 4-6 5-6 2zm-105 0 1-2h1l-1 2h-1zm68-39c0-2 4-3 5-2v2h-5zm-34-11 2-2c1-1 1-1 0 0l-2 2zm23-42c-1-25-15-43-34-44l-11 2c-5 2-6 3-6 5v3l-4-4c-4-4-5-4-6-3-2 2-2 2-4-4s-6-8-10-6l-2 1-1-6c-1-5-1-6-5-9-5-4-6-3-9 5-1 6-10 20-11 19l4-8c7-12 8-27 2-33-3-3-5-2-7 4l-2 7v-3l1-9c1-5 1-6-1-9l-4-2c-1 0-2-3-2-10-1-12-5-21-12-29s-15-12-27-13c-9 0-9 0-6-2 18-6 40 3 47 21 2 5 3 17 1 24 0 3 0 4 3 4 4 1 5 2 5 6s0 4 6 5c3 1 6 6 6 10 0 5 1 6 6 6 6 0 9 3 9 10l1 5h4c4 0 6 2 7 6 1 5 1 6 4 6l4 2c2 1 3 1 9-2 5-3 8-4 14-4 7-1 8-1 15 3 13 6 19 17 19 40l-1 14c-1 1-1-2-2-8zm-82-16c0-2 3-4 4-3v2c-1 2-4 2-4 1zm-450-4c0-6 10-17 17-17 6 0 10 3 13 8l2 5-3-4c-4-4-10-6-14-5l-13 12c-1 2-2 2-2 1zm468-14 1-1v2l-1-1zM277 228h1c2 0 2 1 0 1-1 0-2 0-1-1zm-24-35c-2-1-1-2 1-2l3 2h-4zm-3-5 2-1 1 1-2 2-1-2zm-24-16 3-1c2 0 3 1 1 1-2 2-4 2-4 0zm21 0c0-1 0-2 1-1l1 2-1 1-1-2zm10-4c-2-2-1-2 1-2l2 2c0 2-2 3-3 0zm-19-9 1-2 1 2-2 1v-1zm0-10-4-5c-3-3-4-7-1-6h3l1 2c0 3 4 8 7 7 2-1 2 3-1 4-3 2-4 1-5-2zm30-2 1-1 2 1-1 1-2-1zm-19-11 2-4c4-3 10-3 11 0 0 2 0 2-3 2-2-1-4-1-6 1-3 3-4 3-4 1zm-9-9c-1-4 2-10 6-13 4-2 4-2 8 0 6 3 6 5 0 4-5 0-6 0-8 2l-3 6c0 4-2 5-3 1zm-54-32c-3-2-3-3-1-2l7 1 5 2-6 2c-1 1-3-1-5-3zm-83-35c-1-3-1-4 1-4l1 3c0 4 0 4-2 1z"/><path fill="#1a69b2" d="M255 924c-15-4-22-8-33-17-9-7-11-11-13-18l-3-12c-2-6-2-6 0-13 2-9 7-16 25-33 16-17 26-28 26-30s-6-3-10-2a239 239 0 0 1-27 0c-5 1-6 1-10-2s-4-3-8-1l-8 2c-3 0-10-3-10-5s-4-3-7-2c-6 3-16 3-24 2-9-2-14-4-20-9-8-5-11-9-16-19-4-8-4-9-4-20s0-11 4-19c7-14 20-25 33-29 9-2 7 0-4 7l-11 8c-8 9-14 26-13 38l5 13c5 10 13 17 22 21 9 3 22 4 27 2l7-2c4-1 12-5 12-7l1-1c3 0 11-6 15-12 3-3 7-10 8-15 3-7 4-9 3-14l-1-5h10c7 0 10 1 12 2 2 2 4 2 8 2 3-1 5 0 7 1h7l8-1c5 0 6 0 9 3l6 9 3 6 4-5c9-15 19-23 30-24 7 0 11 1 21 7 4 3 6 4 10 4 8 0 10 1 16 10 4 7 4 8 5 16 0 12-2 17-16 45-11 23-12 25-15 41-7 29-11 39-20 50-5 8-19 20-25 24-13 7-29 9-46 4zm29-6c17-3 44-31 50-51 11-36 15-47 28-77 12-27 12-42 0-50-5-4-10-4-9-1l2 4-2-1c-3-7-12-11-22-11s-20 4-27 11-12 13-10 13l2-2 2-2 1 1-2 3-2 2-4 2-3 2-1-5c-2-9-8-16-17-17-5-1-7 1-4 6l3 5-3-2c-3-6-16-12-16-8l2 6c2 5 2 7 0 3-3-6-12-14-16-14l-1 9v4c-1-5-6-13-9-13-1 0-2 2-3 8-1 8-2 10-5 16l-6 9c-3 4-10 11-17 15l-6 6 7 1c8-1 14-3 23-10l6-4 4-5c2-4 3-4 3-3l-1 3v3c0 1-14 16-16 16l-1 1c0 2 11 1 16-2 6-3 15-11 19-16l2-4v5c0 5-1 6-8 12l-7 7h5c3 0 5 0 10-4l9-5 2-1c2 0 6-8 8-14 1-4 2-4 2-2s-3 12-5 13l-1 3-4 5-4 4c1 1 8-2 11-5l5-2 6-6c4-4 5-5 5-3s2 2 12 0l3-1-3 2c-2 2-2 2-1 3 8 7 23-3 26-17 2-6 2-6 3-4 2 8-5 19-14 24-6 3-7 3-12 2l-8-3c-4-2-6-2-11 3l-4 3-2 2-3 3c-3 1-12 10-20 21l-9 11c-3 2 0 3 12 2a63 63 0 0 1 22 3l18 5c2 2-2 1-10-1l-9-2v2c0 2 0 2-5 2h-30c-8 1-8 1-14 7-8 9-13 21-13 31 0 6 4 15 9 19l6 5 6 3 5 2 6 1 7 1h9c11-1 21-5 31-15 10-9 14-13 23-33l8-13a97 97 0 0 1-13 28c-7 13-18 24-27 29l-23 7c-7 1-23-1-28-3s-6-1-2 2c18 10 37 15 54 11zm14-74c-1-1 0-2 1-2l1 2-1 1-1-1zm-13-5c-4-1-5-3-4-3l7 3c8 3 5 3-3 0zm39 0 8-23 1 1-9 22zm10-27 3-7-1 4-2 3zm7-17 2-6 1-1-2 6c-1 2-1 3-1 1zm-38-23 2-2v2l-3 2 1-2zm-18 0 1-2 1-1-1 3h-1zm-33-6c0-2 1-3 1-1l-1 3v-2zm35 0 1-2v3l-1-1zm-33-10v-1 4-3zm101-4c0-3 0-6 1-5l-1 11v-6zm-52-5 6-1c7-1 4 1-2 2-4 0-5 0-4-1zm301 94-16-3c-22-5-39-10-57-16a314 314 0 0 0-69-18c-8-1-25-6-29-9-5-3-8-8-8-13l3-36 6-9c6-7 17-13 26-14 5 0 6-1 8-5 2-3 5-5 10-7 9-4 10-7 3-12-6-3-9-7-11-14s-2-8-1-12c2-6 4-8 9-10 4-2 4-4 1-9-2-5 1-12 6-15 4-2 4-2 3-8-1-4-1-6 1-9 2-4 3-5 11-9h4c0 3 6 16 10 19 5 4 17 9 27 9 9 1 9 1 4 2-16 3-37-7-40-19l-2-6c-1-2-2-1-6 2-5 6-6 17-1 28 3 7 7 9 19 13l4 2c-12-1-22-7-26-16l-3-4c-2 1-6 7-6 11 0 8 9 24 14 24l4 3c3 3 3 3-2 1s-12-7-12-9c0-1-4-7-6-7s-6 7-6 12l1 9c2 10 18 19 34 17 7 0 11 1 6 2l-4 3c-2 3-2 3 0 6a4025 4025 0 0 1 6 13c-1 0-2 2-2 5-4 11-21 18-36 14l-6-2c-5-2-10-8-11-14-1-4-2-4-9 0-10 6-20 19-21 27-1 4 0 5 4 9 6 6 13 9 26 12l37 7c13 4 15 4 15 1 2-6 5-11 8-12l3-2 1-1c2 0 2 0 0 1l-1 3-4 7-4 7c0 1 4 0 5-2 1-3 13-15 13-13 1 1-5 9-8 12l-2 3a712 712 0 0 1 54 14c18 5 28 6 38 2 10-3 23-9 31-15 11-7 11-4 1 3-9 6-19 12-28 14l-9 4c-3 2-17 2-23 1a1013 1013 0 0 0-71-17l-64-14a50 50 0 0 1-24-15c-1 0-1 8 1 13 1 3 2 5 7 7 10 6 27 11 52 16a255 255 0 0 1 35 10l30 9c32 10 48 12 60 8 17-6 37-17 42-24 3-5 6-16 6-23l1-10c0-11-14-24-34-30a147 147 0 0 0-49-11l-22-2c-25-1-34-2-34-3l50-2c25 0 42 3 65 13 10 4 20 12 25 21 3 4 4 18 2 32-1 14-3 20-8 24-4 4-30 19-40 23-10 5-12 5-17 3zm-99-99c5-3 9-8 9-14 0-4-3-9-5-9l-2 2-3 4-2 2a59590 59590 0 0 1 6-19l-5-1-8-1c-4-1-5-1-7 4l-3 9c0 3 0 4 3 7 3 2 3 3 2 3l-5-2c-2 0-4-4-4-8 0-3-1-3-5-1-4 3-8 10-7 14s4 7 6 7l2 2c0 2 4 3 11 5 4 1 12-1 17-4zm-332-11-9-11c-3-7-5-17-4-19v-5l2-6c1-5 5-10 10-11 4-1 4-1 5-6 0-7 3-11 9-12 4-2 4-2 5-7 1-6 6-10 11-11 3-1 4-1 5-3 2-12 5-16 13-18 3-1 3-2 4-6 1-7 3-10 9-13 5-2 5-3 7-8 1-8 5-15 9-17l7-3c4 0 5-1 7-5 4-9 11-16 19-19l7-4-6-4c-15-6-35-16-42-21l-24-22c-16-16-18-17-21-16-1 1-3 2-3 4-4 12-5 15-11 21-5 6-5 7-5 12 0 8-2 13-6 15-7 5-10 8-10 12 0 5-2 10-5 11l-3 5-3 8c-3 4-3 6-3 11l-2 14c-5 20-16 34-32 42l-9 4H91c-11 0-14-1-19-3-13-6-22-19-22-33v-6l3 9c2 6 3 9 8 14 8 8 16 11 28 12 11 1 17-1 27-6 14-7 28-27 28-43 0-12-5-29-11-35v-2c2 0 7 7 9 12l4 5c1 1 5-6 6-12l4-5c1-1 3-4 3-8l3-5c3 0 7-5 9-9s3-8 3-15c1-8 1-9 3-8 3 2 5-1 9-9 3-6 3-7 2-15l-1-10c0-2 0-1 2 3 2 7 3 8 6 5 3-4 6-17 5-22l1-5c2 0 2 7 1 17v10l2 1 5-1 4-1c4-1 16-10 22-16 6-7 10-11 9-12l2-2c1-1 5-13 6-22 1-8 0-18-3-26s-11-17-21-23c-10-5-14-6-28-6-12 0-14 0-20 3-19 8-31 23-36 43-1 8-2 16 0 18l3-1c6-4 16-7 23-7s13 2 6 2l-12 3c-8 2-10 3-14 8-5 5-8 10-7 11l5-1c6-3 14-3 16-1 2 1 2 1-3 1s-12 3-17 7c-4 3-8 11-9 14 0 2 0 2 4 2 5-1 5 0 0 3-6 3-11 7-14 12s-2 7 2 7l7 1-3 1c-9 0-19 7-21 14l-1 6c-1 4-1 5 4 3 4-1 10 0 10 2l-5 1c-6 0-9 2-9 6 0 2 1 3 5 6 1 1 2 2 0 2l-3 5-3 6-1 2c0 1 0 2 2 2 3 0 5 9 4 17-1 4-12 15-13 13l2-4c3-3 6-10 6-16s-1-8-4-6c-4 2-5 0-2-5l2-9c1-6-2-11-3-6-1 2-9 7-12 7-2 0-2 0 3-5 5-4 6-7 7-11 2-7 1-11-1-14s-6-2-7 2l-4 3-5 1 5-4 6-5 2-6c3-5 3-12 0-14-1-1-2-1-6 3l-5 5 3-6c5-8 6-17 2-19-2-2-2-4-1-7 0-2 1-1 4 1 4 3 4 3 3 10 0 6 0 6 3 8 3 3 4 11 2 17-2 3-2 4 0 5 2 3 5 1 7-3l7-6c4-2 4-3 5-8 0-6 2-9 5-10 4-2 7-6 7-11 0-3 0-5 4-10 3-4 5-7 5-10l1-7v-7l-3-13c-2-7-2-10-1-15 2-10 6-17 13-24 6-5 9-7 17-10l13-5c2 0 6-3 9-7 14-16 31-27 52-35l7-3c1-2-4-12-6-13l-8 2c-5 2-9 3-17 3-14 1-18 0-26-8a492 492 0 0 1-75-106l-12-23c-2-3-2-5 1-18 3-12 7-23 17-42 8-16 8-18 2-23-4-4-12-5-15-2-4 3-11 7-12 6l3-4 5-10c3-8 1-13-5-16-5-3-5-5-2-5s7 3 8 5c0 1 1 2 3 2 2-1 3-8 1-13-2-3-3-4-5-4s-6 3-6 5l-2 1-8 3c-4 2-7 3-9 2s-1-1 3-3c8-3 15-9 19-17 4-7 4-8 4-17l-1-12 1-3 1 2c0 1 6 7 10 9 5 3 9 2 16-1 6-3 11-7 12-14 2-8 5-5 6 7 1 8 2 11 8 16 5 4 13 5 20 2l4-2-3 8c-3 6-4 8-4 16-1 8 0 8 3 12 4 5 9 7 22 9 25 4 40 7 48 10s8 3 8 6c0 4 3 10 12 24l9 15 8 13c7 9 13 22 13 25-1 2 1 5 4 12l3 9h-2v-3c0-2-8-13-9-13l-1-4c1-3 0-5-4-10-2-4-4-7-5-6l-2 5c-2 5-4 6-15 14-10 6-12 7-15 11-1 2-1 1-2-1l-3-2-7-4c-3-4-4-6-4-9v-5l2 5c0 3 2 6 3 6 4 4 16 1 24-6l3-2-4-3c-4-4-7-10-5-11l2 4c3 5 5 6 13 5 6-1 7-2 6-8 0-6-3-10-9-12-3-2-4-2-6 0l-3 3c0 1-5 1-5-1-1-3 11-6 16-4 4 2 3 0-2-10-14-24-23-37-27-38l-14-4-24-6c-16-4-34-7-38-6-7 1-20 9-20 12l-2 1c-1 0-3 1-4 4-2 5-7 39-6 40 2 2 11-6 13-11 1-3 1-4 16-11 11-6 35-14 44-15h6l-10 3-11 3a128 128 0 0 0-46 27c0 1 0 2-2 2-2 1-17 15-21 21l-8 12c-4 8-5 9-4 14 0 3 2 6 3 7 3 3 3 4 3 6l1 1 3 4 4 7 2 4 3 4a146 146 0 0 1 21 34 363 363 0 0 0 33 49c2-1 3-4 3-7 0-4 5-14 11-21 6-6 6-8 3-11l-3-4c0-1-1-2-5-2-11 0-17-9-12-19 2-5 1-6-3-11-3-5-3-7 3-8l7 1h17a128 128 0 0 0 59-20 146 146 0 0 0 26-16l1 2 5 8c3 5 3 7 3 9-1 5-2 5-8 1l-7-3-3 5-3 5c-1 0-4 0-6-2s-5-2-6-2-4 5-3 7l-1 2c-2 2-2 2-6 0-8-3-9-3-11 3l-3 7-6-1-6-2c-2 0-4 6-4 10 0 2 0 3-2 3l-5-2c-4-2-5-2-5 1 0 5-2 10-5 10-2 1-9 9-9 11l6 7c7 7 11 13 10 15l-4-3c-2-3-4-4-5-4-2 1-9 11-12 17l-4 11c-1 7-1 8 1 11 3 5 7 7 18 7 9-1 21-3 23-5v-5l-5-10 7-8c6-7 11-9 11-6 0 2 7 15 12 22l6 12c2 4 3 5 5 5 4 0 15-5 18-7l5-2 6-1 7-2c2 0 3-1 3-3a250 250 0 0 0-24-42l-18 6a4796 4796 0 0 1-19 9c0-2 16-13 24-16 9-3 12-2 17 2l6 4c4 0 22-24 20-26-3-2-33 2-40 6l-5 2a127 127 0 0 0-29 15l-14 11c-6 6-8 7-9 6-2-2-2-3 1-6l10-8c4-3 7-6 8-5l14-9 8-4 13-5a84 84 0 0 1 47-5c2 1-7 16-18 28-3 2-5 5-5 6l3 3 2 3 4-2c4-3 14-14 19-23l4-6c2 0 4-5 4-8a395 395 0 0 1-13-31c-4-10-6-12-8-8h-3c-1-1 0-2 1-2 2-1 2-2 2-4s1-3 2-2c2 0 6 8 14 25 8 18 9 25 5 32-5 10-12 19-23 27l-5 6c0 3 10 19 13 19l9-2c15-6 43-11 58-11 9 0 13 1 16 6l4 5 1 2 2 5c2 1 5 8 9 14l8 15c3 5 10 26 12 35l3 9 6-4c6-5 7-5 1 2l-3 6-1 1c-2 0-2 5-1 9s3 4 6 2c1-2 2-2 3-1l3-2 2-1c-2 5-3 7-7 9s-4 2-4 6c0 7 1 8 6 7l6-2 4-2 4-3c3-3 3 0-1 4-3 4-5 6-11 7l-6 2v5c0 4 0 5 3 6 3 3 11 2 16-1 2-2 5-3 7-3 3-1 3-1 3 2l-3 3-12 4c-2 1-2 5 1 7 2 3 12 3 16 1l6-2a38 38 0 0 0 18-13l2-1-8 9-8 9-11 3c-5 1-6 3-3 6 5 5 11 5 26 3 5-1 14-8 19-15 3-4 5-3 2 1l-14 15c-6 4-6 4-15 5-12 0-12 1-8 10 4 7 11 14 19 18 8 3 21 3 31-1l9-3 3-1 2-1 4-1-1 1c-8 7-12 10-18 12-6 1-8 3-8 4 0 3 15 6 18 3 4-3 7-4 13-6l8-2c3-2 5-1 12 0l12 2 3 1 5 4c12 8 12 8 17 18 3 6 4 10 4 15l1 7-4 12c-4 13-4 17 2 21l4 3-6 3c-11 6-15 11-15 19 0 9 3 11 6 5 1-3 10-11 11-11l-3 5c-8 11-8 19 0 25 4 4 8 5 14 4l28-17 5-4-5 6c-4 6-8 14-8 19 0 4 2 11 5 13 8 8 30-4 38-22 7-13 8-22 6-42-1-11-7-27-15-42-5-9-21-26-29-29-5-2-5-2-7-1-2 2-2 2-2 0l-3-7c-3-6-7-8-11-6-2 2-2 2-4-4-1-5-7-10-9-9l-3 1-3-3c-3-6-10-10-13-7-2 2-2 2-4-3-4-8-9-10-13-6-2 1-2 1-3-1 0-2-1-4-3-5-1-1-2-2 0-4l1-3 3 3 5 3c5 0 8 2 11 6 3 5 4 5 7 5 5 0 7 2 10 6 2 3 3 4 6 4 4 0 8 4 10 9 1 2 2 3 7 3h5l3 6c4 9 4 9 7 10 5 1 16 9 25 18 10 8 14 16 21 34 7 17 9 41 4 54-4 11-8 19-17 27-6 6-8 8-14 10-9 3-12 3-18 0-8-4-10-12-7-25 1-4-1-4-6 0s-15 9-18 9c-4 0-11-4-13-7l-4-7-5-9-4-6c-1-2-11 3-11 6-1 1 0 3 1 5 2 4 2 4 0 8s-4 6-11 10c-5 4-5 4-5 9s0 5-5 10l-6 6 2 3 2 6c0 4-4 8-10 11-5 3-6 5-4 7l1 4c0 3 0 5-4 8-5 5-13 8-19 9l-5 1 4-2c14-7 23-18 17-22-1-1 0-2 4-5 5-4 10-11 10-15l-2-3c-1-2-1-3 3-5l6-6c2-3 4-9 2-10-1-1 1-3 6-7 8-8 11-14 9-19-1-3-1-3 5-8 7-6 10-12 7-15-2-2 2-5 4-3 1 1 2 1 6-2l9-6c6-2 6-4 2-7-3-1-3-1-6 1-3 3-3 3 1-5 8-16 9-29 3-43-4-9-8-14-16-20-7-5-16-7-26-6-8 0-21 6-27 12-4 4-4 4-10 3s-14 1-22 7c-4 3-6 3-7 3-1-2-8-1-15 3l-11 8c-4 4-6 6-7 5l-8 4c-5 3-6 3-8 2-6-4-21 3-26 11-3 5-4 3-1-3l2-5-6-2c-11-5-31-9-31-6l2 2c3 3 1 3-2 1-5-3-6-2-9 3-2 5-5 8-11 11-5 2-8 2-3-1 10-6 13-8 13-15 1-4 0-5-2-5a52 52 0 0 0-19 5l-3 1c-2 2-2 3-2 9l1 7h4l4 1-4 1c-6 2-20 2-24 0s-7-7-7-10-1-4-7-1c-4 2-6 3-7 7-3 6-2 9 2 16 3 5 9 7 22 9 10 1 29 0 35-2l-1 1c-4 3-18 4-30 3-12 0-17-1-22-5l-6-3c-1 0-3-2-4-5-2-4-2-11 0-18 1-3 0-3-5-2l-9 2-8 4c-5 3-15 11-22 19l-7 14c-2 8-3 10-2 19 0 8 1 10 3 15l5 8 6 6c11 8 23 15 25 15l7 2 9 3 3 1 12 2c32 6 80-4 100-19 5-4 6-6 2-8s-13-11-15-15c-4-7-2-7 3 0 6 8 13 12 22 12 7 0 9-1 12-6l3-3-3-3-3-4 5 1c4 1 6 1 9-1 5-1 9-7 9-10 0-2 0-2 2-1 6 1 13 1 16-1 6-3 7-6 3-11-2-5-5-11-5-15 0-2 0-2 2 0l3 7 4 8 5 4 8-4-1-3c-2-3 1-9 4-12s3-3 2-8c-2-6-1-8 1-3 3 8 5 6 5-8 0-9 0-13 2-16 2-6 4-4 2 2-3 8-1 31 3 36l7 8c3 3 17 8 24 9 9 1 9 2 0 1-14 0-28-8-33-17-3-6-5-6-9 0-2 4-2 5-2 9 1 7 3 10 10 16 6 5 15 10 20 10l1 1c0 2-7 0-14-3-6-3-14-10-14-13l-1-1-2-2-2-2-3 3-4 7-3 5-2-5c0-6-2-8-4-4l-4 5c-2 3-4 3-10 3-7 0-7 0-8 3-2 5-5 7-11 8-4 1-6 2-6 4-3 8-7 11-16 11-4 0-5 1-10 6-7 7-18 16-25 19l-14 4-19 5c-10 2-12 3-24 2-19-1-34-4-46-10-3-1-3-1-6 1s-5 3-12 3c-8 0-9 0-12 4l-8 5c-4 1-5 2-6 7-2 4-3 5-8 8-5 2-7 4-8 7l-5 5-4 4c-1 6-3 8-7 11s-5 5-6 8-2 5-4 6c-5 2-6 2-3-2 4-5 4-7 1-8-2-1-2-1 2-2 5-2 10-6 12-9 2-4 2-5-1-5s-2-2 4-5c9-4 9-7 0-9-8-1-14-5-20-13-5-7-7-13-7-19 0-4 0-6-2-7-2 0-6 4-8 10-1 6 0 18 3 23 2 4 2 6 0 6s-7-11-8-16c0-4-1-5-3-5-1 0-3 1-5 5s-2 6-2 14l1 12c3 3 3 6 1 6s-6-8-6-13c0-4-2-6-4-5-4 2-5 7-6 18 0 10 0 12 2 16l3 6 4 5c7 4 7 5 5 5s-5-3-8-6zm73-46c5-3 11-8 10-9l-5-3c-7-3-7-3 0-3 9 1 14-1 19-5l3-3-7-5c-9-5-21-17-25-24-3-4-3-7-3-14l-1-10c-2-1-6 4-8 11-2 5-2 7-2 15l3 11 1 7v3l-2-3c-4-4-5-9-5-18l-1-7c-2-1-6 4-10 11-3 6-3 8-3 17 0 8 0 10 2 12l2 3c-2 3 5 11 12 14 5 3 14 3 20 0zm-9-19-2-3c0-1 2 0 3 2 4 4 3 4-1 1zm-5-7v-2l1 1v2l-1-1zm60-1 3-1-8-6-14-9c-7-6-17-19-19-23v-31c2-6 1-6-4-1-7 7-10 19-9 32 1 7 2 10 5 14l4 7c0 2 7 9 12 13 7 4 23 7 30 5zm61-106v-7c0-3-1-3-3-2l-6 1-7 2c-3 1-4 1-3 3l1 3 4 2 8 2c5 0 5-1 6-4zm81-9c2-2 9-5 13-5l7 1c2 1 4 1 8-2l7-3 7-5 7-7c4-3 15-6 19-5 2 1 4 0 6-1 4-3 9-6 12-6l4-1c2-2 2-2-2-7l-4-6h-8c-15-1-26-6-31-16-3-6-4-13-2-19 0-4 0-4-3-6-5-2-6-3-7-7 0-2-1-3-4-3-5 0-8-4-9-8 0-4-1-4-3-5-5 0-6 1-7 12l-3 20-4 23c-2 12-5 19-6 17l1-5c3-10 7-35 8-55 4-50-11-110-34-143-9-12-10-12-37-9a240 240 0 0 0-103 31c-7 0-69 37-69 41l6 1c19 3 28 7 40 19 9 10 13 19 13 33 0 19-7 32-23 49-4 4-17 13-24 16l1 1 2 3 2 2 13 10a732 732 0 0 0 59 40l8 5 15-1a163 163 0 0 0 38-6 369 369 0 0 0 48-11c8-3 24-10 28-13 5-3 4 0-2 4-3 3-7 5-11 6-6 2-11 6-11 8l4 2c12 3 15 4 21 8 7 4 9 5 10 3zm-69-73c0-2 0-3 2-5 3-3 5-4 5-2l-1 2-2 5c0 4-3 4-4 0zm-14-72c-3-1-5-3-5-6 0-2 4-7 7-7 1 0 1 1-1 4-2 4-2 6 2 6 3 0 4 1 4 2 0 2-4 2-7 1zm-30-75c-2-3-2-3-1-6l3-4 1 1-2 5c0 3 0 3 2 3l2 1c-1 3-2 2-5 0zm-57-7c3-2 3-4-3-13l-3-7-2-3-4-7c-4-7-6-7-11-2-4 5-4 7-1 10l8 13 5 11 4-1 7-1zm-65-73c2-2 2-3 1-6-1-4-2-6-7-6-4-1-7 1-6 7s8 9 12 5zm-76-96 8-9c1 0 5-10 5-16l2-12 1-9c0-3 0-3-1-1l-4 8-5 11a462 462 0 0 0-13 36l7-8zm-11-59c1-2-1-3-2 0v2l2-2zm28-5 14-9 6-5c0-2-12-17-18-22l-7-6c-5-1-12 1-15 3-8 8-7 18 3 33 6 9 8 11 10 11l7-5zm-19 2c2-2 1-4-1-7-2-2-4-3-6-2-3 1-4 5-1 5s5 2 4 3c-1 2 2 2 4 1zm52-21-1-4-1-4c-2-13-3-15-8-13-2 0-2 1 0 2 2 2 2 3 1 4v6l2 4 1 1-2 1c-3 0-3 3-1 4l5 1c4 2 4 1 4-2zm-64-13 3-3c1 0 2-1 2-3-1-1 0-2 1-2 4-1 8-6 7-7l-1-2c0-1 3-1 5 2 2 2 4 2 10-1l5-3v3c0 4 2 4 4 2l4-2 2-2c0-2-1-2-3-2-5 0-6-1-4-3h2c1 2 5 1 5-1s-1-3-2-2c-2 0-3-1-3-2l-1-2h-1l-1-1-1 4c0 4-1 5-6 4h-13c-12 0-12 0-13 2l3 5 3 3-3 2-8 11c1 2 4 2 4 0zm50-9c0-2-4-3-5-2-1 2 1 3 3 3l2-1zm16 0-2-3c-3-1-4 0-2 2s4 3 4 1zm-64-5c0-1 0-2-1 0v2c1 2 1 1 1-2zm94 681h3c1 1 0 2-2 2s-2-1-1-2zm-7 0-4-2c-1-2-1-2 2-1l4 3h1-3zm-9-6-2-3 3 2 2 3-3-2zm14-18c-3-4-3-5 1-2l2 4-3-2zm308-9 5-1 5 1c0 2-10 2-10 0zm17-22 4-1c2 0 3 0 1 1h-5zm-198-17c-3-2-3-6 0-8s5-2 3 1c-2 1-1 5 1 5 2 1 2 4 0 4l-4-2zm221-31h5c2 0 1 1-2 1l-3-1zm12-1 3-1v1h-3zm-118-5c-4-5-5-9-5-16v-6l3 9a168 168 0 0 0 4 16l-2-3zm-34-2c-1-4 0-25 2-25v25l-1 3-1-3zm-93-4c-1-2 1-4 3-4l1 2c0 3-3 4-4 2zm344-2-7-1c-9 0-15-4-20-13-2-4-3-21-1-21l1 3c0 10 6 22 12 26 6 3 11 2 17-3 4-3 4-4 4-9l-2-10c-3-4-3-6-1-6l2 1 2 7c4 7 4 12-1 20-5 7-5 8-6 6zm-195-4c-2-3-5-10-5-13l1 1 4 8c3 5 3 7 0 4zm102-1c-1-1 1-1 3-2h5c0 2-8 3-8 2zM50 580c-2-3-2-5-2-9 1-4 0-5-3-8-4-3-4-9 0-14l3-4-5-4c-7-4-7-10-2-18 3-4 3-4 0-8-2-2-2-4-2-9 1-6 1-7-2-9l-3-5v-8l-5-3-8-6c-3-4-4-5-4-11s0-6-5-11c-5-4-6-7-8-12-4-13-2-19 7-25 6-4 6-4 6-10 1-7 5-12 14-18 5-3 7-6 5-8l-4-9c-10-32-5-57 12-69 7-4 15-4 21 0 7 5 9 9 9 21l-2 22c-2 7-2 16-2 25 0 15 2 23 8 32 10 14 16 34 14 50-1 11-3 13-3 4a101 101 0 0 0-9-40l-5-11-2-4-2-4-2-4c-3-7-4-21-3-41 3-32 3-35 1-39-1-4-7-10-11-10-3 0-11 4-14 7l-7 11c-2 6-3 9-3 19-1 14 0 23 5 37 3 9 4 11 8 15s4 4 1 2c-8-4-14-3-20 3-4 4-8 13-6 15s2 3-2 4c-4 2-9 8-10 12-1 7 5 25 8 27 3 1 6-2 5-6 0-3 0-3 2-2 3 2 3 2 0 5s-4 9-3 13c0 1 2 5 5 7 4 5 5 5 9 5s7-1 11-3c7-4 8-3 2 2-7 5-10 9-10 12s2 8 5 10l1 6c-1 4 1 10 4 13 2 2 2 2-1 5-5 7-3 17 4 22l3 3-2 3c-5 4-4 9 2 15 2 3 3 3 1 5v12c2 2 2 3 0 3-1 0-3-2-4-5zm411-6c0-2 1-3 1 0v2l-1-2zm-80 1 12-9c1 0 1 1-1 2l-7 5-4 2zm-307-5 4-1c2 0 2 0 0 1h-4zm17-6c-1-2 0-3 4-5s5-2 2 1c-3 4-5 5-6 4zm303 0 2-3c2-2 2-1 1 2-1 2-3 2-3 1zm238-4c0-2 0-3 2-3v4l-2-1zm-119-11 2-2 1 1-1 2-2-1zm-388-6-3-3 3 2c4 1 6 3 4 3l-4-2zm390-1 1-3h1l-1 3c-1 2-1 2-1 0zm-370-6a72 72 0 0 0-6-8c-2-2-2-2 0-1 3 1 8 6 9 10 2 4 1 3-3-1zm381-3c-1-1 0-3 1-5l1-1v3l-1 3v2l-1-2zm-8-2 1-2h1l-1 2h-1zm-386-6c-4-1-4-3 0-2l4 2h-4zm18-18-9-6-4-3c1-1 10 4 13 7 5 5 5 6 0 2zm22-12-5-11-1-4c2 1 9 15 8 18 0 3 0 2-2-3zm-14-19-1-1 3 1c3 2 2 2-2 0zm25-12c0-2-1-3-2-3 0 0-2-1-2-3l-1-3 7 10c0 2 0 1-2-1zm-12-12-1-1 3 1c2 2 1 2-2 0zm404-13c-1-25-15-43-34-44l-11 2c-5 2-6 3-6 5v3l-4-4c-4-4-5-4-6-3-2 2-2 2-4-4s-6-8-10-6l-2 1-1-6c0-5-1-6-5-9-5-4-6-3-9 5-1 6-10 20-11 19l4-8c7-12 8-27 2-33-3-3-5-2-7 4l-2 7v-3l1-9c1-5 1-6-1-9l-4-3c-1 0-2-2-2-9-1-12-5-21-12-29s-15-12-27-13c-9 0-9 0-6-2 19-6 40 3 47 21 2 5 3 17 1 24 0 3 0 4 3 4 4 1 5 2 5 6s0 4 6 5c3 1 6 6 6 10 0 5 1 6 6 6 6-1 9 3 9 10l1 5h4c4 0 6 2 7 6 1 5 1 6 4 6l4 1c2 2 3 2 9-1 5-3 9-4 14-4 7-1 8-1 15 3 13 6 19 17 19 40l-1 14c-1 1-1-2-2-8zM43 419c0-6 10-17 17-17 6 0 10 3 13 8l2 4-3-3c-3-4-10-6-14-5l-13 12c-1 2-2 2-2 1zm468-14 1-1v2l-1-1zM299 290l1-1 1 1-1 1-1-1zm-20-5v-3l2 2v2l-2-1zm-133-73-3-5-2-4-6-9-5-9c-2-1-2-5 0-6 1-1 2-1 3 1v2l-1-1h-1l3 4 4 6 4 5 2 4 2 4c2 1 3 2 3 4-1 3 0 4 1 4l2 3c0 3-3 1-6-3zm-22-37a529 529 0 0 1 0-2c3 3 3 3 4 1 0-2 0-2 1 0v3c-1 3-3 2-5-2zm70-9c-3-2 1-13 5-15 3-3 13-3 16 0 3 2 3 3-3 3s-10 2-13 8c-4 5-4 5-5 4zm44-7 1-2 1 2-2 1v-1zm-57-5-2-6c0-8 2-13 8-15 4-2 4-2 10-1 6 2 14 7 12 8l-3-1h-17c-3 2-6 7-6 12 0 3-1 5-2 3zm68-18 2-4c4-3 10-3 11 0 0 2 0 2-3 1-2 0-4 0-6 2-3 3-4 3-4 1zm-9-9c-1-4 2-10 6-13 4-2 4-2 8 0 6 3 6 5 0 4-5 0-6 0-8 2l-2 6c-1 4-3 5-4 1zM104 60c-2-3-2-4 0-4l1 3c1 4 0 4-1 1z"/><path fill="#324541" d="M255 924c-15-4-22-8-33-17-9-7-11-11-13-18l-3-12c-2-6-2-6 0-13 2-8 8-17 19-28a974 974 0 0 0 19-17 491 491 0 0 0-30 40c-4 10-4 17-1 24l6 10c12 12 40 16 58 8 8-4 21-15 27-23l11-20 8-14a97 97 0 0 1-13 28c-7 13-18 24-27 29l-23 7c-7 1-23-1-28-3s-6-1-2 2c18 10 37 15 54 11 17-3 44-31 50-51 11-36 15-47 28-77 12-27 12-42 0-50-5-4-10-4-9-1 2 4 2 5 0 2s-5-6-8-7c-8-4-19-4-28-1-7 3-16 10-21 17-3 5-3 7 1 3 1-2 2-2 2-1l-2 3-2 2-4 2-3 2-1-5c-2-9-8-16-17-17-5-1-7 1-4 6l3 5-3-2c-3-6-16-12-16-8l2 6c2 5 2 7 0 3-3-6-12-14-16-14l-1 9v4c-1-5-6-13-9-13-1 0-2 2-3 9s-2 10-5 14c-5 9-18 21-15 16l1-2c2 0 12-15 15-23 3-7 4-9 3-14l-1-5h10c7 0 10 1 12 2 2 2 4 2 8 2 3-1 5 0 7 1h7l8-1c5 0 6 0 9 3l6 9 3 6 4-5c9-15 19-23 30-24 7 0 11 1 21 7 4 3 6 4 10 4 8 0 10 1 16 10 4 7 4 8 5 16 0 12-2 17-16 45-11 23-12 25-15 41-7 29-11 39-20 50-5 8-19 20-25 24-13 7-29 9-46 4zm43-80c-1-1 0-1 1-1l1 1-1 1-1-1zm306-3-16-3c-22-5-39-10-57-16a314 314 0 0 0-69-18c-8-1-25-6-29-9-5-3-8-8-8-13l3-36 6-9c6-7 17-13 26-14 5 0 6-1 8-5 2-3 5-5 10-7 9-4 10-7 3-12-6-3-9-7-11-14s-2-8-1-12c2-6 4-8 9-10 3-2 4-4 1-9-2-5 1-12 6-15 4-2 4-2 3-8-1-4-1-6 1-9 2-4 3-5 11-9h4c0 3 6 16 10 19 5 4 17 9 27 10 9 0 9 0 4 1-18 3-41-9-41-23 0-5-7-2-10 4-2 5-2 19 1 23 2 3 2 4 1 4l-3-4-2-4c-3 0-7 6-7 10 0 9 4 19 11 24 3 2 4 4 3 4-2 0-11-9-12-12-2-7-10 0-10 9s1 13 6 18c7 6 17 9 28 8 8 0 12 1 7 2l-4 3c-2 3-2 3 0 6a4025 4025 0 0 1 6 13l-2 5c-3 8-13 14-24 15-7 0-16-2-18-4s0-2 5 0l12 2c6 0 8-1 12-4 6-3 10-8 10-14 0-4-3-9-5-9l-2 2-3 4-2 2a59590 59590 0 0 1 6-19l-5-1-8-1c-4-1-5 0-7 4l-3 9c0 3 0 4 3 7 4 4 4 4-1 2-3-2-4-4-4-9 0-4-1-5-6-3-3 2-9 9-9 11s-2 2-3-1c-1-2-4-1-12 5-13 9-20 18-22 31-2 9-1 19 2 22 2 3 12 8 21 11l42 11 56 16 32 10c19 4 29 2 51-9 13-7 22-13 25-18s5-15 5-22l1-10c0-10-14-24-34-30a147 147 0 0 0-49-11l-22-2c-25-1-34-2-34-3l50-2c25 0 42 3 65 13 10 4 20 12 25 21 3 4 3 18 2 32s-3 20-8 24c-4 4-30 19-40 23-10 5-12 5-18 3zm-318-2c-7-2-8-3-5-3l12 5-7-2zm38 0 8-23 1 1-9 22zm-41-5-10-2-4-1c-1-2 12-1 19 2 11 4 8 4-5 1zm51-22 3-7-1 4-2 3zm270-2 4-1 21-6a157 157 0 0 0 28-16c2 0 2 0 1 2-6 6-26 17-38 20-8 3-19 3-16 1zm-45-7-8-3 12 2c9 3 7 4-4 1zm-304-3-6-1a505 505 0 0 1-39-2c-4-3-4-3-8-1l-8 2c-3 0-10-3-10-5s-4-3-7-2c-6 3-16 3-24 2-9-2-14-4-20-9-8-5-11-9-16-19-4-8-4-9-4-20s0-11 4-19c6-12 14-20 24-25 8-4 15-6 15-4l-8 4c-13 7-23 18-26 31-2 7-1 21 1 26 4 13 14 23 26 28 5 2 8 2 17 2h19l4 3c5 2 13 1 18-1 4-3 7-3 5 0l-1 3c1 2 7 2 16-1l7-2 1 2c0 3 4 4 7 3l22-1-6 7-3-1zm286-2h3-3zm-200-3 2-6 1-1-2 6c-1 2-1 3-1 1zm177-2c-1 0-1-1 2-1l5 1c1 2-5 2-7 0zm-15-3-1-1 4 1h-3zm-230-2 1-1 1 1-2 1v-1zm224 0h2c1 1 1 1-1 1l-1-1zm-202-5-5-4-3-1 6-2c6-1 8-1 4 1-2 1-2 2-1 3 3 4 13 2 18-3l2-1c1 1-5 6-9 8-4 1-10 1-12-1zm-18 0 4-5c3-4 4-4 4-2v2l-4 3-4 2zm-13-1 2-5 4-8c1-4 2-4 2-2 0 3-4 12-6 14l-2 1zm-18-3 2-5c3-4 3-4 3-2 0 3-3 7-4 7h-1zm-19-5 4-6c1-2 1-2 1 0l-3 6-3 3 1-3zm299 0 2-2c2 0 2 1 0 2h-2zm-223-2 2-2v2l-3 2 1-2zm-18 1 1-3 1-1-1 3-1 1zm36-6 3-5-2 8c-2 1-2 0-1-3zm-69-1c0-2 1-3 1-1l-1 3v-2zm35 0 1-2v3l-1-1zm-33-10v-1 4-3zm101-4c0-3 0-6 1-5l-1 11v-6zm-47-5c2-1 3-2 4-1s0 1-4 2h-4l4-1zm-133-14c-5-4-4-5 1-1 7 4 7 5 5 5l-6-4zm40-6c4-5 4-7 1-8-2-1-2-1 1-2 6-2 11-6 13-9 2-4 2-5-1-5s-2-2 1-4c5-1 10-5 10-7l-3-2c-9-2-11-3-15-6-5-2-8-6-8-8l4 3c6 7 11 9 18 8l10-2c5-2 11-8 10-9l-5-3c-7-3-7-3 0-3 9 1 14-1 19-5l3-3-7-5c-7-4-19-14-17-14l7 5c8 7 10 8 18 10 10 1 21 1 21-1l-8-5-14-10c-7-5-15-15-14-18l3 3c5 8 19 19 34 25 26 12 70 12 105 1 15-5 32-14 32-18l-3-3c-4-2-13-11-15-15-4-7-2-7 3 0 6 8 13 12 23 12 6 0 6-1 10-4 4-4 4-5 1-7-3-3-2-4 3-4 8 2 17-4 17-10 0-3 1-4 5-1 7 3 20-4 19-11l-1-3 4 3c3 1 4 2 7 0l4-2-1-3v-7l11-12 2-4 2 4c2 8 6 15 10 18 3 3 18 8 25 9 9 1 9 2 0 1-14 0-28-8-33-17-3-6-5-6-9 0-2 4-2 5-2 10 1 4 1 5-2 5-3 2-4 3-7 10l-3 5-2-5c0-6-2-8-4-4l-4 5c-2 3-4 3-10 3-7 0-7 0-8 3-2 5-5 7-11 8-4 1-6 2-6 4-3 8-7 11-16 11-4 0-5 1-10 6-7 7-18 16-25 19l-14 4-19 5c-10 2-12 3-24 2-19-1-34-4-46-10-3-1-3-1-6 1s-5 3-12 3c-9 0-9 0-12 4l-8 5c-4 1-5 2-6 7-2 4-3 5-8 8-5 2-7 4-8 7l-5 5-4 4c-1 6-3 8-7 12-4 2-5 4-6 7s-2 5-4 6c-5 2-6 2-3-2zm-10-9h3c1 1 0 2-2 2s-2-1-1-2zm-7 0-4-2c-1-1-1-2 2-1l4 3h1-3zm-9-6-2-3 3 3 2 2-3-2zm-27-8-2-6v-2l2-5c1-6 5-10 10-12 4-1 4-1 5-6 0-7 3-11 9-12 4-2 4-2 5-7 1-6 6-10 11-11 3 0 4-1 5-3 2-12 5-16 13-18 3-1 3-2 4-6 1-7 3-10 9-13 5-2 5-3 7-8 1-7 5-15 9-17l7-2c4-1 5-2 7-6 4-9 11-16 19-19l7-4-6-4c-15-6-35-16-42-21-4-2-15-12-24-22-16-15-18-17-21-16-1 1-3 2-3 4-4 13-5 15-11 21-5 6-5 7-5 12 0 8-2 13-6 15-7 5-10 8-10 12 0 5-2 10-5 11l-3 5-3 8c-3 4-3 6-3 11l-2 14c-5 20-16 34-32 42l-9 4H91c-11 0-14-1-19-3-13-6-22-19-22-33v-5l3 8c2 6 3 9 8 14 8 8 16 12 28 12 24 1 44-13 53-39 3-6 2-22 0-30s-1-10 1-4 4 6 6 0l3-8 4-5c1-1 3-4 3-8l3-5c3 0 7-4 9-9 2-4 3-8 3-15 1-8 1-9 3-8 3 2 5-1 9-9 3-6 3-7 2-15l-1-10c0-2 0-1 2 3 2 7 3 8 6 5 3-4 6-17 5-22l1-5c2 0 2 7 1 17 0 10 0 10 2 11l2 2a251 251 0 0 0 57 45l18 11 11 6h15c15-1 17-1 51-9l19-4c10-2 37-13 45-18 5-4 5-2-1 3-3 3-7 5-11 6-6 2-11 6-11 8l4 2c11 3 15 4 22 8 5 4 7 5 8 4 8-6 15-7 21-5 2 1 4 1 8-2l7-3 7-5 7-7c4-3 15-6 19-5 2 1 4 0 6-1 4-3 9-6 12-6l4-1c2-2 2-2-2-7l-4-6h-8c-15-1-26-6-31-16-3-6-4-13-2-19 0-4 0-4-3-6-5-2-6-3-7-7 0-2-1-3-4-3-5 0-8-4-9-9 0-2-1-3-3-4-5 0-6 2-7 12l-3 20-4 23c-2 12-5 19-6 17l1-5c3-10 7-35 8-55 4-50-11-110-34-142-9-13-10-13-37-10a266 266 0 0 0-95 26l-10 3c-11 3-69 38-70 43 0 1 1 2 5 2l14 3c16 4 30 15 37 29 4 7 4 8 4 19l-2 18c-3 7-4 7-2 0 6-17 2-36-9-47-7-7-16-13-23-15a79 79 0 0 0-33-1c-21 6-36 23-41 44-1 9-2 17 0 19l4-2c4-2 15-5 20-5h5l-5 1c-9 1-20 10-24 19-2 3-1 4 4 2s13-3 15-2 2 1 0 1c-4 0-14 4-18 8-5 3-9 10-10 14 0 2 0 2 3 2h4l-7 5c-7 5-13 13-11 16l5 1 5 1-3 1c-14 0-26 13-22 23v4c-2 2-1 6 0 8 2 2 1 11-1 14-1 3-2 5 0 6l3 4c3 4 3 10 0 15-3 4-3 4-2-2v-14l-4-1-2-2 2-9c1-8 0-10-5-10-2 0-2-1-1-2l1-8c2-6 1-10-4-12-3-1-3-1 0-8s2-13-2-15c-2-1-3-1-2-7 1-7-1-12-3-11s-2-1-1-4c0-1 1-1 4 1 4 3 4 3 3 10 0 6 0 6 3 8 3 3 4 11 2 17-2 3-2 4 0 5 2 3 5 1 7-3l7-6c4-2 4-3 5-8 0-6 2-9 5-10 4-2 7-6 7-11 0-3 0-5 4-10 3-4 5-7 5-10l1-7v-7l-3-12c-2-8-2-11-1-16 2-10 6-17 13-24 6-5 9-7 17-10l13-5c2 0 6-3 9-7 14-16 31-27 52-35l7-3c1-2-4-12-6-13l-8 2c-5 2-9 3-17 3-14 1-18 0-26-8a492 492 0 0 1-75-106l-12-23c-2-3-2-5 1-18 3-12 7-23 17-42 8-16 8-18 2-23-4-4-12-5-15-2-4 3-11 7-12 6l3-4 5-10c3-8 1-13-5-16-5-3-5-4-2-4s7 2 8 4c0 1 1 2 3 2 2-1 3-8 1-13-2-3-3-4-5-4s-6 3-6 5l-2 1-8 3c-4 2-7 3-9 2s-1-1 3-3c8-3 15-9 19-17 4-7 4-8 4-17l-1-12 1-3 1 2c0 1 6 7 10 9 5 3 9 2 15 0 7-4 12-8 13-15 2-8 5-5 6 8a19 19 0 0 0 28 17l4-2-3 8c-3 6-4 8-4 16-1 8-1 8 3 12 4 5 9 7 22 9 25 4 40 7 48 10s8 3 8 6c0 4 3 10 12 24l9 15 8 13c7 9 13 22 13 25-1 2 1 5 4 12l3 9h-2v-2c0-3-8-14-9-14l-1-4c1-3 0-5-4-10-2-4-4-7-5-6l-2 5c-2 5-4 6-16 14-9 6-11 7-14 11-1 2-1 2-2-1l-3-2-7-4c-3-4-4-6-4-9v-5l2 5c0 3 2 6 3 6 4 4 16 1 24-6l3-2-4-3c-4-4-7-10-5-11l2 4c3 5 5 6 12 5s8-2 7-8c0-6-3-10-9-12-3-2-4-2-6 0l-3 3c0 1-5 1-5-1-1-3 11-6 16-4 4 2 3 0-2-10-14-24-23-37-27-38l-14-4-24-6c-16-4-34-7-38-6-7 1-20 9-20 12l-2 1-4 1-1 1 5-7 4-6c-2 0-10 5-12 8s-3 5-2 7c0 3 0 5-2 8a359 359 0 0 0-22 64v4c-3 9-2 11 16 39l21 32c10 17 34 54 37 56 2 2 4 1 4-3 0-7 6-20 13-26 4-4 4-3 0 2-6 11-9 16-10 22-1 7-1 8 1 11 3 5 7 7 18 7 9 0 21-3 23-5 1-1 1-3-1-7l-3-7c-1-3 12-16 15-16 2 0 1 1-4 7-8 7-9 9-5 14 3 3 8 12 12 21 2 4 2 4 7 3l9-2 6-3c7-1 16-5 18-7l5-2 6-1 7-2c2 0 3-1 3-2a250 250 0 0 0-24-43c-3 0-12 3-17 6l-6 2-5 3c-5 4-7 2-2-2 6-5 18-10 25-11l6-1 4 5c2 3 5 5 6 5l1 2c-1 2 0 3 2 5l2 3 4-2c4-3 14-14 19-23l4-6c2 0 4-5 4-8a395 395 0 0 1-13-31c-4-10-6-12-8-8h-3c-1-1 0-2 1-2 2-1 2-2 2-4s1-3 2-2c2 0 6 8 14 25 8 19 9 25 5 32-5 10-12 19-23 27l-5 6c0 3 10 19 13 19l9-2c15-6 43-11 58-11 9 0 13 1 16 6l4 5 1 2 2 5a503 503 0 0 1 23 45l4 15 4 14 1 4c-1 3 1 13 3 15l2 24c0 8 1 10 7 11 4 0 5 1 5 2 0 6 5 11 11 11 1 0 2 1 2 3 0 3 3 6 7 9 2 0 3 2 3 5 0 10 12 26 24 29 7 3 17 3 24 0 5-2 11-2 9 0l-7 3-6 3c-1 3 7 8 12 8 4 1 6 0 13-4l11-6 5-1c2-2 4-2 12 0l12 2 2 1 5 4c12 8 12 8 17 18 3 6 4 10 4 15l1 7-4 12c-4 13-4 17 2 21l4 3-6 3c-11 6-15 11-15 19 0 9 3 11 6 5 1-3 9-11 11-11l-3 5c-8 11-8 19 0 25 4 4 8 5 14 4 4-1 28-16 28-17l5-4-5 6c-4 6-8 14-8 19s2 11 5 13c8 8 30-4 38-22 7-13 8-22 6-42-1-11-7-27-15-42-5-9-21-26-29-29-5-2-5-2-7-1-2 2-2 2-2 0l-3-7c-3-6-7-8-11-6-2 2-2 2-4-4-1-4-7-10-9-9l-3 1c-1 0-2 0-3-3-3-6-10-10-13-7-2 2-2 2-4-3-4-8-9-10-13-6-2 1-2 1-3-1 0-2-1-4-3-5s-2-2 0-4l1-3 3 3 5 3c5 0 8 2 11 7 3 4 4 4 7 4 5 0 7 2 10 6 2 3 3 4 6 4 4 0 8 4 10 9 1 2 2 3 7 3h5l3 6c4 9 4 9 7 10 5 1 16 9 25 18 10 8 14 16 21 34 7 17 9 41 4 54-4 11-8 19-17 27-6 6-8 8-14 10-9 3-12 3-18 0-8-4-10-12-7-25 1-4-1-4-6 0s-15 9-18 9c-4 0-11-4-13-7l-4-7-5-9-4-6c-1-2-11 3-11 6-1 1 0 3 1 5 2 4 2 4 0 8s-4 6-11 10c-5 4-5 4-5 9s0 5-5 10l-6 6 2 3 1 6c0 4-3 8-9 11-5 3-6 5-4 7l1 4c0 3 0 5-4 8-5 5-13 8-19 9l-6 1 5-2c14-7 23-18 17-22-1-1 0-2 4-5 5-4 10-11 10-15l-2-3c-1-2-1-3 3-5l6-5c2-4 3-10 2-11s1-3 6-7c8-8 11-14 9-19-1-3-1-3 5-8 7-6 10-12 7-15-2-2 2-5 4-3 1 1 2 1 6-2l9-6c6-2 6-4 2-7-3-1-3-1-6 1-3 3-3 3 1-5 8-16 9-29 3-43-4-9-8-14-16-20-7-5-16-7-26-6-8 0-21 6-27 12-4 4-4 4-10 3s-14 1-23 7c-3 3-5 4-6 3-1-2-8-1-15 3l-11 8c-4 4-6 6-7 5l-8 4c-5 3-6 3-8 2-6-4-21 3-26 11-3 5-4 3-1-2l2-5-5-3c-7-4-21-7-27-7-5 0-5 0-5 2 1 2 1 2-1 2-5-2-5-2-8 3-2 5-5 8-11 11-5 2-8 2-3-1 10-6 13-8 13-15 1-4 0-5-2-5l-8 2-17 3c-19 4-21 4-22 8l1 5c4 4 16 7 21 4h6l4 1-4 1c-6 2-20 2-24 0-3-2-8-8-7-10 1-3-2-4-7-2l-7 1c-6-3-15-1-26 5-10 5-26 21-29 28-2 7-4 9-3 5 2-8 0-9-5-4-4 3-10 14-11 20l-4 4c-3 1-7 6-10 13l-3 6c-5 0-11 8-14 17-2 4-3 6-5 6-4 0-8 5-10 12-2 4-2 5-4 5h-4c-3 1-7 10-9 15 0 2-1 3-2 3-5 0-10 7-11 17-2 9-2 9-3 4zM112 88c1-2-1-3-2 0v2l2-2zm28-5 14-9 6-4c0-3-12-18-18-23l-7-6c-5-1-12 1-15 3-8 8-7 18 3 33 6 9 8 11 10 11l7-5zm-19 2c2-2 1-3-1-7-2-2-4-2-6-2-3 1-4 5-1 5s5 2 4 3c-1 2 2 2 4 1zm52-21-1-4-1-4c-2-13-3-15-8-13-2 0-2 1 0 2 2 2 2 3 1 4v6l2 4 1 1-2 1c-3 0-3 3-1 4l4 1c5 2 5 1 5-2zm-64-13c0-1 1-2 3-2l2-4c-1-1 0-2 1-2 4-1 8-6 7-7l-1-1c0-2 3-2 5 1 2 2 4 2 10-1l5-2v2c0 4 2 4 4 2l4-2 2-2c0-2-1-2-3-2-5 0-6-1-4-3h2c1 2 5 1 5-1s-1-2-2-2c-2 0-3-1-3-2l-1-2h-1l-1-1-1 4c0 4-1 5-6 4h-13c-12 0-12 0-13 2l3 5 3 3-3 2-8 11c1 2 4 2 4 0zm50-9c0-2-4-3-5-2-1 2 1 3 3 3l2-1zm16 0-2-2c-3-2-4-1-2 1 2 3 4 3 4 1zm-64-4c0-2 0-3-1-1v2c1 2 1 1 1-1zm92 656c-3-4-3-5 1-2l2 4-3-2zm308-9 5-1 5 1c0 2-10 2-10 0zm-274-19-2-3c0-1 2 0 3 2 4 4 3 4-1 1zm280-3c-5 0-13-3-15-5-3-2-1-3 2-1l12 4c7 3 8 3 1 2zm11 0 4-1c2 0 3 0 1 1h-5zm-296-4c-1-1 0-2 1-1v2l-1-1zm98-13-2-3c0-2 1-5 3-6s2-1 1 2c0 3 0 4 2 6v2c-1 1-3 0-4-1zm207-32c-8-3-19-11-19-15l7 5c6 5 15 10 20 10l1 1c0 1-4 1-9-1zm14 1h5c2 0 1 1-2 1l-3-1zm12-1 3-1v1h-3zm-118-5c-3-4-5-11-5-17 0-5 0-5 3 4a168 168 0 0 0 4 16l-2-3zm-34-2c-1-4 0-25 2-25v25l-1 3-1-3zm-92-5c1-4 3-4 3-1 0 2 0 3-2 3l-1-2zm343-1-7-1c-9 0-15-4-20-13-2-4-3-21-1-21l1 3c0 10 6 22 12 26 6 3 11 2 17-2 4-4 4-5 4-10l-2-10c-3-4-3-6-1-6l1 1 3 7c4 7 4 12-1 20-5 7-5 8-6 6zm-93-5c-1-1 1-1 3-2h5c0 2-8 3-8 2zm-105-6-2-6c1-1 2 1 3 4 2 7 1 8-1 2zM50 580c-2-3-3-5-2-9s0-5-3-7c-4-4-4-10 0-14l3-5-5-4c-7-4-7-10-2-18 3-4 3-4 0-8-2-2-2-4-2-9 1-6 1-7-2-9l-3-5v-8l-5-3-8-6c-4-4-4-5-4-11s0-6-5-11c-5-4-6-7-8-12-4-13-3-19 7-25 6-4 6-4 6-10 1-7 5-12 14-18 5-3 7-6 5-8-1 0-3-4-4-9-10-31-5-57 12-69 7-4 15-4 21 0 7 5 9 9 9 21l-2 22c-2 7-2 16-2 25 0 15 2 23 8 32 10 14 15 34 14 50-1 11-3 13-3 4a101 101 0 0 0-9-40l-5-11-2-4-2-4-2-4c-3-7-4-21-3-41 3-32 3-34 1-39-1-4-7-10-11-10-3 0-11 4-14 7l-7 11c-2 6-3 9-3 19-1 14 0 23 5 38 3 8 4 10 8 14s4 4 1 2c-8-3-14-3-20 3-4 4-8 13-6 15s2 3-2 4c-4 2-9 8-10 12-1 7 4 25 8 27 3 1 6-2 5-5-1-4 0-4 2-2 3 1 3 1 0 4s-4 9-3 13c0 1 2 5 5 7 4 5 5 5 9 5s7-1 11-3c7-4 8-3 2 2-7 5-10 9-10 12s2 8 5 10l1 6c-1 5 1 10 4 13 2 2 2 2-1 5-5 7-3 17 4 22l3 3-2 3c-5 4-4 9 2 15 2 3 3 3 1 5v12c2 2 2 3 0 3-1 0-3-2-4-5zm285 2c-8-1-15-4-17-8-2-2-2-3-1-3l1 2c4 6 23 9 42 7l14-2-1 1c-6 3-25 5-38 3zm156-1v-1 3-2zm-30-7c0-2 1-2 1 0v2l-1-2zm-80 1 12-9c1 0 1 1-1 2l-7 5-4 2zm-307-5 4-1c1 0 2 0 0 1h-4zm238-2c-2-3-1-16 2-17v13c1 4 0 6-2 4zm82-4 2-3c2-2 2-1 1 2-1 2-3 2-3 1zm238-4c0-2 0-3 2-3v4l-2-1zm-495-6h1l2 2-3-2zm384-6c0-5 3-13 4-12s-2 15-3 16-1-1-1-4zm-394-4c-1-2-1-2 1-1l1 2-2-1zm388-2 1-3h1l-1 3c-1 2-1 2-1 0zm-372-9-4-6c3 1 8 7 9 10 3 4 1 3-5-4zm382-1 2-4c2-3 2-1 0 3-1 3-2 3-2 1zm-7-1 1-2h1l-1 2h-1zm-386-6c-4-1-4-3 0-2l4 2h-4zm-48-7c1-2 3-2 3-2 1 0 1 1-1 2l-4 2 2-2zm66-11-4-5 4 3c5 5 5 6 0 2zm-9-8-1-1 3 1v2l-2-2zm31-4-5-11-1-4c2 1 9 15 8 18 0 3 0 2-2-3zm371-10 5-3c2 0 4-2 5-3 2-1 2 0 0 2-3 3-8 6-10 6v-2zm-334-6 2-1h1l-3 1zm158-7c-2-2-1-7 2-8 3-3 4-2 2 1l-2 5c0 3-1 4-2 2zm-184-8c-1-4-1-5 1-2l1 4-2-2zm-6-8 1-1 1 1v1l-2-1zm-5-4c-2-2-2-2 0-1l3 2c0 1-1 1-3-1zm339-4 9-10 3-3c1 3-11 17-16 18-2 0-1-1 4-5zm64-9c-1-25-15-43-34-44l-11 2c-5 2-6 3-6 5v3l-4-4c-4-4-5-4-6-3-2 2-2 2-4-4s-6-8-10-6l-2 1-1-6c0-5-1-6-5-9-5-4-6-3-9 5-1 6-10 20-11 19l4-8c7-12 8-27 2-33-3-3-5-2-7 4l-2 7v-3l1-9c1-5 1-6-1-9l-4-2c-1 0-2-3-2-10-1-12-5-21-12-29s-15-12-27-13c-9 0-9 0-6-2 18-6 40 3 47 21 2 5 3 17 1 25 0 2 0 3 3 3 4 1 5 2 5 6s0 4 6 5c3 1 6 6 6 10 0 5 1 6 6 6 6 0 9 3 9 10l1 5h4c4 0 6 2 7 6 1 5 1 6 4 6l4 2c2 1 3 1 9-2 5-3 8-4 14-4 7-1 8-1 15 3 13 6 19 17 19 40l-1 14c-1 1-1-2-2-8zm-87-1 6-5 6-5 3-4 2-1c0 2-10 12-14 14l-3 1zM43 419c0-6 10-17 17-17 6 0 10 3 13 8l2 5-3-4c-3-4-10-6-14-5l-13 12c-1 2-2 2-2 1zm420-13 5-5-1 2c-1 3-4 4-4 3zm48-1 1-1v2l-1-1zm-160-7c-3-1-5-3-5-6 0-2 4-7 7-7 1 0 1 1-1 4-2 4-2 6 2 6 3 0 4 1 4 2 0 2-5 2-7 1zm102-7 2-3c3-2 3-2 2 1-2 3-4 3-4 2zm-9-16 8-8c0 2-5 8-7 9-1 1-2 0-1-1zm-123-52c-2-3-2-3-1-6l3-4 1 1-2 5c0 3 0 3 2 3l2 1c-1 3-2 2-5 0zm-22-33 1-1 1 1-1 1-1-1zm-20-5v-3l2 2v2l-2-1zm-60-10c-2-1-1-3 1-2 1 0 4-1 6-4 4-4 9-7 8-4l-6 6c-5 5-7 6-9 4zm17-14c2-2 13-10 17-11l6-4 24-10c9-3 11-3 23-3l15 1-1 5c-2 3-2 3-2 1 1-5-2-6-13-5s-19 3-29 7a7669 7669 0 0 1-28 13l-5 3c-5 4-8 6-7 3zm69-3a270 270 0 0 1 12-15c1 1-13 19-15 19l3-4zm-101-24c-3-5-6-7-9-7s-4-1-5-3l-4-6c-5-4-4-5 6-4l20-1a176 176 0 0 0 81-37l1 2c0 2 2 5 5 8 3 5 3 7 3 9-1 5-2 5-8 1l-7-3-3 5-4 5s-3 0-5-2-5-2-6-2-4 4-4 7-2 4-7 2l-6-2c-1 0-3 2-4 5l-3 7-6-1c-5-3-7-2-9 2l-1 5-1 3c-2 1-3 1-6-1-4-2-7-1-7 2s-2 8-4 8h-4c-1 1-2 0-3-2zm-10-68c-3-2 1-13 5-15 3-3 13-3 16 0 3 2 3 3-3 3s-10 2-13 8c-4 5-4 6-5 4zm44-7 1-2 1 2-2 1v-1zm-57-5-2-6c0-8 2-13 8-15 4-2 4-2 10-1l10 5c3 3 3 4-1 2-5-1-13-2-16 0-4 1-7 7-7 12 0 3-1 5-2 3zm-58-4 3-3-1 2c-3 3-4 4-2 1zm12-14 3-2-1 2h-2zm114 0 2-4c4-3 10-3 11 0 0 2 0 2-3 1-2 0-4 0-6 2-3 3-4 3-4 1zm-104-8 4-4 3-4 6-3c6-5 12-8 23-12 15-6 22-8 28-9h7l-10 3-11 3a186 186 0 0 0-50 26zm95-1c-1-4 2-10 6-13 4-2 4-2 8 0 6 3 6 5 0 4-5 0-6 0-8 2l-2 6c-1 4-3 5-4 1zM103 60c-1-3-1-4 1-4l1 3c0 4 0 4-2 1z"/></svg>