<svg xmlns="http://www.w3.org/2000/svg" viewBox="0 0 400 400" width="400" height="400">
  <!-- Neutral backing so the icon reads on both dark and light themes -->
  <circle cx="200" cy="200" r="190" fill="#333333" opacity="0.65"/>

  <!-- Launchpad scene centered on the patch -->
  <g transform="translate(200, 205)">
    <!-- Launch tower / gantry on the left -->
    <g stroke="#a3a3a3" stroke-width="2" fill="none" shape-rendering="crispEdges">
      <!-- Tower legs -->
      <line x1="-82" y1="80" x2="-82" y2="-95"/>
      <line x1="-48" y1="80" x2="-48" y2="-95"/>
      <!-- Cross braces -->
      <line x1="-82" y1="58" x2="-48" y2="42"/>
      <line x1="-82" y1="42" x2="-48" y2="58"/>
      <line x1="-82" y1="24" x2="-48" y2="8"/>
      <line x1="-82" y1="8" x2="-48" y2="24"/>
      <line x1="-82" y1="-8" x2="-48" y2="-24"/>
      <line x1="-82" y1="-24" x2="-48" y2="-8"/>
      <line x1="-82" y1="-42" x2="-48" y2="-58"/>
      <line x1="-82" y1="-58" x2="-48" y2="-42"/>
      <line x1="-82" y1="-76" x2="-48" y2="-92"/>
      <line x1="-82" y1="-92" x2="-48" y2="-76"/>
      <!-- Tower top -->
      <line x1="-88" y1="-95" x2="-42" y2="-95"/>
      <!-- Service arm to rocket -->
      <line x1="-48" y1="-35" x2="-22" y2="-35"/>
      <line x1="-48" y1="-25" x2="-22" y2="-25"/>
    </g>

    <!-- Rocket on the pad -->
    <g transform="translate(0, 16)">
      <!-- Rocket fins -->
      <path d="M -28 -20 L -61 15 L -28 5 Z" fill="#a3a3a3"/>
      <path d="M 28 -20 L 61 15 L 28 5 Z" fill="#a3a3a3"/>

      <!-- Main hull -->
      <path d="M 0 -125 L 32 5 Q 0 22 -32 5 Z" fill="#f8fafc" stroke="#e5e5e5" stroke-width="2"/>

      <!-- Window -->
      <circle cx="0" cy="-65" r="14" fill="#0f172a" stroke="#94a3b8" stroke-width="2"/>
      <circle cx="4" cy="-69" r="4" fill="#ffffff" opacity="0.2"/>

      <!-- Body detail -->
      <line x1="0" y1="-30" x2="0" y2="-5" stroke="#94a3b8" stroke-width="2" opacity="0.5"/>
      <rect x="-11" y="-42" width="22" height="6" rx="2" fill="#94a3b8" opacity="0.5"/>
    </g>

    <!-- Launch platform -->
    <rect x="-72" y="38" width="144" height="14" fill="#333333" stroke="#525252" stroke-width="2"/>
    <rect x="-56" y="52" width="112" height="10" fill="#1f1f1f" stroke="#333333" stroke-width="2"/>

    <!-- Exhaust flames -->
    <path d="M -20 60 Q -10 100 0 110 Q 10 100 20 60 Q 0 82 -20 60" fill="#f59e0b"/>
    <path d="M -11 60 Q -5 90 0 98 Q 5 90 11 60 Q 0 76 -11 60" fill="#fbbf24" opacity="0.7"/>
  </g>
</svg>
