<svg xmlns="http://www.w3.org/2000/svg" viewBox="0 0 400 400" width="400" height="400">
  <!-- HUD frame -->
  <circle cx="200" cy="200" r="190" fill="none" stroke="#333333" stroke-width="2" shape-rendering="crispEdges"/>
  <g stroke="#525252" stroke-width="2" shape-rendering="crispEdges">
    <line x1="200" y1="10" x2="200" y2="38"/>
    <line x1="200" y1="362" x2="200" y2="390"/>
    <line x1="10" y1="200" x2="38" y2="200"/>
    <line x1="362" y1="200" x2="390" y2="200"/>
  </g>
  <circle cx="200" cy="200" r="172" fill="none" stroke="#525252" stroke-width="1" stroke-dasharray="6 6" opacity="0.6"/>
  <!-- Asteroid belt -->
  <g>
    <path d="M40 280 Q200 -20 360 280" fill="none" stroke="#525252" stroke-width="2" stroke-dasharray="6 6" opacity="0.4"/>
    <g opacity="0.85">
      <path d="M57.6 225.4 L50.1 229.9 L44.5 228.7 L47.2 218.2 L56.2 216.2 Z" fill="#6b7280"/>
      <path d="M77.3 231.7 L75.1 240.3 L64.6 239.8 L57.9 233.0 L63.2 224.3 L72.2 219.7 L78.1 226.6 Z" fill="#6b7280"/>
      <path d="M107.1 238.5 L103.3 244.9 L94.0 244.5 L88.9 236.0 L99.0 227.5 L106.1 233.5 Z" fill="#525252"/>
      <path d="M96.9 195.9 L94.0 200.6 L91.7 198.1 L86.3 194.8 L88.6 187.6 L91.9 187.4 L98.1 189.0 Z" fill="#6b7280"/>
      <path d="M110.6 182.1 L105.4 187.5 L100.0 184.6 L96.5 182.1 L98.6 174.8 L105.2 173.6 L109.8 176.4 Z" fill="#4b5563"/>
      <path d="M107.5 175.1 L99.4 183.8 L89.8 181.2 L88.1 168.3 L98.7 161.7 L106.4 161.5 Z" fill="#525252"/>
      <path d="M100.6 162.8 L91.6 170.9 L80.3 168.2 L77.1 158.1 L86.5 154.0 L96.7 151.5 Z" fill="#525252"/>
      <path d="M150.1 139.4 L144.6 143.8 L137.1 139.9 L132.7 136.1 L139.9 129.4 L149.1 129.9 Z" fill="#525252"/>
      <path d="M136.8 171.4 L131.0 176.0 L127.9 172.4 L127.6 164.5 L135.8 166.9 Z" fill="#78716c"/>
      <path d="M160.5 151.3 L148.5 154.1 L143.0 147.2 L147.8 140.1 L156.5 139.9 Z" fill="#525252"/>
      <path d="M183.5 154.2 L173.7 163.6 L165.5 158.8 L165.7 153.0 L171.7 148.3 L178.1 151.4 Z" fill="#525252"/>
      <path d="M148.6 145.1 L141.8 149.1 L133.8 145.2 L133.5 135.7 L147.9 136.4 Z" fill="#6b7280"/>
      <path d="M200.8 127.1 L188.4 134.7 L175.3 131.8 L178.4 119.7 L182.3 111.4 L195.0 118.0 Z" fill="#4b5563"/>
      <path d="M182.7 121.6 L180.3 125.9 L172.1 123.3 L169.4 117.2 L176.5 106.0 L180.5 111.2 Z" fill="#78716c"/>
      <path d="M226.8 118.6 L218.0 127.5 L202.5 124.4 L204.7 114.3 L212.8 103.1 L225.2 105.7 Z" fill="#525252"/>
      <path d="M227.6 144.1 L223.2 148.0 L217.4 144.1 L219.3 138.0 L226.5 137.4 Z" fill="#6b7280"/>
      <path d="M235.7 145.9 L230.0 148.9 L224.4 147.4 L222.1 143.3 L225.8 140.5 L228.1 136.9 L233.2 140.7 Z" fill="#4b5563"/>
      <path d="M270.2 135.9 L255.1 143.9 L242.2 132.7 L242.8 113.2 L259.3 119.5 Z" fill="#525252"/>
      <path d="M256.4 155.8 L248.5 158.5 L245.0 161.7 L241.7 155.1 L242.4 147.5 L246.4 143.7 L252.8 146.7 Z" fill="#525252"/>
      <path d="M292.8 143.7 L281.3 149.2 L270.1 149.8 L262.4 141.6 L270.0 129.2 L276.7 118.6 L290.5 128.3 Z" fill="#6b7280"/>
      <path d="M267.5 174.5 L259.7 184.4 L248.1 178.7 L247.0 169.3 L251.4 163.2 L263.7 167.2 Z" fill="#6b7280"/>
      <path d="M265.4 156.7 L256.4 164.8 L247.4 162.7 L237.2 154.5 L248.1 146.7 L254.0 145.7 L268.5 148.4 Z" fill="#6b7280"/>
      <path d="M284.4 176.3 L274.8 176.3 L265.1 178.9 L258.2 168.4 L263.8 158.6 L271.4 157.7 L277.3 164.3 Z" fill="#6b7280"/>
      <path d="M285.9 180.4 L273.4 189.4 L260.8 180.2 L268.6 167.8 L280.4 167.7 Z" fill="#4b5563"/>
      <path d="M291.3 217.3 L279.3 224.9 L264.1 227.2 L260.6 216.2 L263.4 205.5 L273.3 202.3 L282.4 206.7 Z" fill="#78716c"/>
      <path d="M328.8 206.2 L325.4 210.9 L317.2 211.1 L315.6 205.0 L319.1 200.6 L321.1 196.4 L331.0 200.2 Z" fill="#78716c"/>
      <path d="M306.0 230.8 L298.2 241.3 L289.2 238.8 L292.2 226.2 L295.5 218.0 L308.1 222.6 Z" fill="#6b7280"/>
      <path d="M360.5 239.5 L359.3 241.4 L353.9 240.6 L351.6 239.2 L350.5 233.1 L357.1 230.2 L360.0 233.7 Z" fill="#78716c"/>
      <path d="M331.7 284.8 L321.3 295.2 L305.6 286.7 L298.8 266.2 L308.8 264.1 L325.4 269.9 Z" fill="#78716c"/>
    </g>
  </g>
</svg>
