<svg xmlns="http://www.w3.org/2000/svg" viewBox="0 0 400 400" width="400" height="400">
  <!-- HUD frame -->
  <circle cx="200" cy="200" r="190" fill="none" stroke="#333333" stroke-width="2" shape-rendering="crispEdges"/>
  <g stroke="#525252" stroke-width="2" shape-rendering="crispEdges">
    <line x1="200" y1="10" x2="200" y2="38"/>
    <line x1="200" y1="362" x2="200" y2="390"/>
    <line x1="10" y1="200" x2="38" y2="200"/>
    <line x1="362" y1="200" x2="390" y2="200"/>
  </g>
  <circle cx="200" cy="200" r="172" fill="none" stroke="#525252" stroke-width="1" stroke-dasharray="6 6" opacity="0.6"/>

  <!-- Traditional brutalist astronauts -->
  <defs>
    <g id="astro">
      <!-- Life-support backpack (lowered, behind torso) -->
      <rect x="-48" y="-35" width="96" height="80" rx="12" fill="#475569"/>

      <!-- Arms (closer to torso) -->
      <path d="M -55 44 L -72 88" stroke="#e2e8f0" stroke-width="16" stroke-linecap="round"/>
      <path d="M 55 44 L 72 88" stroke="#e2e8f0" stroke-width="16" stroke-linecap="round"/>
      <circle cx="-73" cy="91" r="10" fill="#334155"/>
      <circle cx="73" cy="91" r="10" fill="#334155"/>

      <!-- Torso -->
      <path d="M -60 40 L -46 112 Q 0 128 46 112 L 60 40 Q 0 56 -60 40" fill="#e2e8f0" stroke="#cbd5e1" stroke-width="2"/>

      <!-- Neck ring -->
      <rect x="-40" y="28" width="80" height="16" rx="4" fill="#94a3b8"/>

      <!-- Helmet -->
      <circle cx="0" cy="-22" r="52" fill="#f8fafc" stroke="#cbd5e1" stroke-width="2"/>

      <!-- Visor -->
      <rect x="-38" y="-28" width="76" height="48" rx="20" fill="#0f172a"/>
      <ellipse cx="-16" cy="-14" rx="12" ry="6" fill="#ffffff" opacity="0.18"/>
      <line x1="-34" y1="8" x2="34" y2="8" stroke="#475569" stroke-width="2" opacity="0.5"/>

      <!-- Chest box / Swiss flag -->
      <g transform="translate(-14, 56)">
        <rect x="0" y="0" width="28" height="28" rx="2" fill="#da291c"/>
        <rect x="10" y="3" width="8" height="22" fill="#ffffff"/>
        <rect x="3" y="10" width="22" height="8" fill="#ffffff"/>
      </g>

      <!-- Chest detail lines -->
      <line x1="-22" y1="92" x2="22" y2="92" stroke="#94a3b8" stroke-width="2" opacity="0.5"/>
    </g>
  </defs>

  <!-- Side crew -->
  <use href="#astro" transform="translate(116, 238) scale(0.58)"/>
  <use href="#astro" transform="translate(284, 238) scale(0.58)"/>

  <!-- Center commander -->
  <use href="#astro" transform="translate(200, 198) scale(0.85)"/>
</svg>
