<svg xmlns="http://www.w3.org/2000/svg" viewBox="0 0 400 400" width="400" height="400">
  <!-- HUD frame -->
  <circle cx="200" cy="200" r="190" fill="none" stroke="#333333" stroke-width="2" shape-rendering="crispEdges"/>
  <g stroke="#525252" stroke-width="2" shape-rendering="crispEdges">
    <line x1="200" y1="10" x2="200" y2="38"/>
    <line x1="200" y1="362" x2="200" y2="390"/>
    <line x1="10" y1="200" x2="38" y2="200"/>
    <line x1="362" y1="200" x2="390" y2="200"/>
  </g>
  <circle cx="200" cy="200" r="172" fill="none" stroke="#525252" stroke-width="1" stroke-dasharray="6 6" opacity="0.6"/>
  <!-- Ceres -->
  <g>
    <circle cx="200" cy="200" r="125" fill="#a18872" stroke="#5c4d41" stroke-width="2"/>
    <g fill="#5c4d41" opacity="0.55">
      <circle cx="150" cy="170" r="22"/>
      <circle cx="250" cy="200" r="18"/>
      <circle cx="190" cy="260" r="14"/>
      <circle cx="280" cy="240" r="11"/>
      <circle cx="120" cy="230" r="10"/>
      <circle cx="260" cy="130" r="9"/>
    </g>
    <g fill="#3d322b" opacity="0.35">
      <circle cx="150" cy="170" r="14"/>
      <circle cx="250" cy="200" r="11"/>
      <circle cx="190" cy="260" r="9"/>
    </g>
    <!-- Bright spots -->
    <g fill="#f0ebe6" opacity="0.85">
      <circle cx="180" cy="150" r="8"/>
      <circle cx="192" cy="156" r="4"/>
    </g>
    <g fill="none" stroke="#5c4d41" stroke-width="3" opacity="0.25">
      <path d="M85 200 Q200 180 315 200"/>
      <path d="M95 240 Q200 220 305 240"/>
    </g>
    <ellipse cx="155" cy="145" rx="50" ry="35" fill="#ffffff" opacity="0.15"/>
  </g>
</svg>
