<svg xmlns="http://www.w3.org/2000/svg" viewBox="0 0 400 400" width="400" height="400">
  <!-- HUD frame -->
  <circle cx="200" cy="200" r="190" fill="none" stroke="#333333" stroke-width="2" shape-rendering="crispEdges"/>
  <g stroke="#525252" stroke-width="2" shape-rendering="crispEdges">
    <line x1="200" y1="10" x2="200" y2="38"/>
    <line x1="200" y1="362" x2="200" y2="390"/>
    <line x1="10" y1="200" x2="38" y2="200"/>
    <line x1="362" y1="200" x2="390" y2="200"/>
  </g>
  <circle cx="200" cy="200" r="172" fill="none" stroke="#525252" stroke-width="1" stroke-dasharray="6 6" opacity="0.6"/>
  <!-- Earth -->
  <g>
    <circle cx="200" cy="200" r="150" fill="#0d4a8c" stroke="#1a6fc4" stroke-width="2"/>
    <g fill="#14a085" stroke="#0f766e" stroke-width="1.5">
      <path d="M120 160 Q150 130 190 150 T260 180 Q280 220 250 260 T160 280 Q110 260 110 210 T120 160Z"/>
      <path d="M210 110 Q250 100 270 140 T260 200 Q230 210 210 180 T190 130 T210 110Z"/>
      <path d="M90 230 Q120 220 140 250 T120 290 Q90 280 80 250 T90 230Z"/>
    </g>
    <g fill="none" stroke="#ffffff" stroke-width="3" opacity="0.35">
      <path d="M70 200 Q200 180 330 200"/>
      <path d="M80 240 Q200 220 320 240"/>
    </g>
    <circle cx="200" cy="200" r="150" fill="none" stroke="#00c2ff" stroke-width="1.5" opacity="0.5"/>
    <ellipse cx="160" cy="150" rx="50" ry="35" fill="#ffffff" opacity="0.12"/>
  </g>
</svg>
