<svg xmlns="http://www.w3.org/2000/svg" viewBox="0 0 400 400" width="400" height="400">
  <!-- HUD frame -->
  <circle cx="200" cy="200" r="190" fill="none" stroke="#333333" stroke-width="2" shape-rendering="crispEdges"/>
  <g stroke="#525252" stroke-width="2" shape-rendering="crispEdges">
    <line x1="200" y1="10" x2="200" y2="38"/>
    <line x1="200" y1="362" x2="200" y2="390"/>
    <line x1="10" y1="200" x2="38" y2="200"/>
    <line x1="362" y1="200" x2="390" y2="200"/>
  </g>
  <circle cx="200" cy="200" r="172" fill="none" stroke="#525252" stroke-width="1" stroke-dasharray="6 6" opacity="0.6"/>
  <!-- Eris -->
  <g>
    <circle cx="200" cy="200" r="120" fill="#c8cdd8" stroke="#5f6b7a" stroke-width="2"/>
    <g fill="#768191" opacity="0.45">
      <ellipse cx="250" cy="170" rx="34" ry="22"/>
      <ellipse cx="150" cy="230" rx="26" ry="18"/>
      <ellipse cx="220" cy="250" rx="18" ry="12"/>
      <ellipse cx="170" cy="150" rx="14" ry="10"/>
    </g>
    <g fill="#5f6b7a" opacity="0.25">
      <ellipse cx="170" cy="210" rx="12" ry="7"/>
      <ellipse cx="230" cy="190" rx="10" ry="6"/>
    </g>
    <g fill="none" stroke="#768191" stroke-width="3" opacity="0.3">
      <path d="M95 190 Q200 175 305 190"/>
      <path d="M100 220 Q200 205 300 220"/>
    </g>
    <ellipse cx="160" cy="150" rx="45" ry="32" fill="#ffffff" opacity="0.22"/>
  </g>
</svg>
