<svg xmlns="http://www.w3.org/2000/svg" viewBox="0 0 400 400" width="400" height="400">
  <!-- Document / clipboard -->
  <rect x="210" y="70" width="130" height="170" rx="12" fill="#f8fafc" stroke="#e5e5e5" stroke-width="6"/>
  <line x1="240" y1="120" x2="310" y2="120" stroke="#94a3b8" stroke-width="8" stroke-linecap="round"/>
  <line x1="240" y1="155" x2="310" y2="155" stroke="#94a3b8" stroke-width="8" stroke-linecap="round"/>
  <line x1="240" y1="190" x2="280" y2="190" stroke="#94a3b8" stroke-width="8" stroke-linecap="round"/>

  <!-- Rocket -->
  <g transform="translate(140, 260) rotate(-45)">
    <!-- Fins -->
    <polygon points="-30,25 -65,-12 -30,-2" fill="#a3a3a3"/>
    <polygon points="30,25 65,-12 30,-2" fill="#a3a3a3"/>
    <!-- Hull -->
    <path d="M 0,130 L 35,-5 Q 0,-25 -35,-5 Z" fill="#f8fafc" stroke="#e5e5e5" stroke-width="4"/>
    <!-- Window -->
    <circle cx="0" cy="65" r="16" fill="#0f172a" stroke="#94a3b8" stroke-width="4"/>
    <circle cx="5" cy="60" r="5" fill="#ffffff" opacity="0.25"/>
    <!-- Exhaust -->
    <path d="M -18,-8 Q -9,-40 0,-52 Q 9,-40 18,-8 Q 0,-24 -18,-8" fill="#f59e0b"/>
  </g>
</svg>
