<svg xmlns="http://www.w3.org/2000/svg" viewBox="0 0 400 400" width="400" height="400">
  <!-- HUD frame -->
  <circle cx="200" cy="200" r="190" fill="none" stroke="#333333" stroke-width="2" shape-rendering="crispEdges"/>
  <g stroke="#525252" stroke-width="2" shape-rendering="crispEdges">
    <line x1="200" y1="10" x2="200" y2="38"/>
    <line x1="200" y1="362" x2="200" y2="390"/>
    <line x1="10" y1="200" x2="38" y2="200"/>
    <line x1="362" y1="200" x2="390" y2="200"/>
  </g>
  <circle cx="200" cy="200" r="172" fill="none" stroke="#525252" stroke-width="1" stroke-dasharray="6 6" opacity="0.6"/>
  <!-- Jupiter -->
  <g>
    <circle cx="200" cy="200" r="140" fill="#c49a5e" stroke="#7a552d" stroke-width="2"/>
    <g fill="none" stroke-width="5" opacity="0.75">
      <path d="M65 158 Q200 138 335 158" stroke="#8f5e2d"/>
      <path d="M62 188 Q200 173 338 188" stroke="#6b401d"/>
      <path d="M65 218 Q200 208 335 218" stroke="#8f5e2d"/>
      <path d="M70 248 Q200 243 330 248" stroke="#6b401d"/>
      <path d="M85 125 Q200 115 315 125" stroke="#a06b35"/>
      <path d="M90 280 Q200 285 310 280" stroke="#6b401d"/>
    </g>
    <ellipse cx="258" cy="210" rx="26" ry="16" fill="#b85c3e"/>
    <ellipse cx="258" cy="210" rx="18" ry="10" fill="#d47354" opacity="0.6"/>
    <ellipse cx="158" cy="155" rx="55" ry="40" fill="#ffffff" opacity="0.15"/>
  </g>
</svg>
