<svg xmlns="http://www.w3.org/2000/svg" viewBox="0 0 400 400" width="400" height="400">
  <!-- HUD frame -->
  <circle cx="200" cy="200" r="190" fill="none" stroke="#333333" stroke-width="2" shape-rendering="crispEdges"/>
  <g stroke="#525252" stroke-width="2" shape-rendering="crispEdges">
    <line x1="200" y1="10" x2="200" y2="38"/>
    <line x1="200" y1="362" x2="200" y2="390"/>
    <line x1="10" y1="200" x2="38" y2="200"/>
    <line x1="362" y1="200" x2="390" y2="200"/>
  </g>
  <circle cx="200" cy="200" r="172" fill="none" stroke="#525252" stroke-width="1" stroke-dasharray="6 6" opacity="0.6"/>
  <!-- Mars -->
  <g>
    <circle cx="200" cy="200" r="150" fill="#b3392c" stroke="#6b1e16" stroke-width="2"/>
    <g fill="#5c1a12" opacity="0.7">
      <path d="M130 140 Q170 120 220 150 T280 220 Q260 280 190 270 T100 210 Q90 170 130 140Z"/>
      <path d="M230 110 Q270 120 280 170 T240 220 Q200 200 210 150 T230 110Z"/>
    </g>
    <ellipse cx="200" cy="82" rx="34" ry="17" fill="#ffffff" opacity="0.4"/>
    <g fill="none" stroke="#ff9e80" stroke-width="4" opacity="0.35">
      <path d="M90 200 Q200 180 310 200"/>
      <path d="M100 250 Q200 230 300 250"/>
    </g>
    <ellipse cx="160" cy="150" rx="50" ry="35" fill="#ffffff" opacity="0.1"/>
    <!-- Moons -->
    <g fill="#a8a29e" opacity="0.95">
      <circle cx="334" cy="86" r="9"/>
      <circle cx="84" cy="318" r="7"/>
    </g>
  </g>
</svg>
