<svg xmlns="http://www.w3.org/2000/svg" viewBox="0 0 400 400" width="400" height="400">
  <!-- HUD frame -->
  <circle cx="200" cy="200" r="190" fill="none" stroke="#333333" stroke-width="2" shape-rendering="crispEdges"/>
  <g stroke="#525252" stroke-width="2" shape-rendering="crispEdges">
    <line x1="200" y1="10" x2="200" y2="38"/>
    <line x1="200" y1="362" x2="200" y2="390"/>
    <line x1="10" y1="200" x2="38" y2="200"/>
    <line x1="362" y1="200" x2="390" y2="200"/>
  </g>
  <circle cx="200" cy="200" r="172" fill="none" stroke="#525252" stroke-width="1" stroke-dasharray="6 6" opacity="0.6"/>
  <!-- Mercury -->
  <g>
    <circle cx="200" cy="200" r="150" fill="#a0a0a0" stroke="#5a5a5a" stroke-width="2"/>
    <circle cx="150" cy="170" r="24" fill="#707070"/>
    <circle cx="150" cy="170" r="18" fill="#858585"/>
    <circle cx="240" cy="210" r="21" fill="#707070"/>
    <circle cx="240" cy="210" r="16" fill="#858585"/>
    <circle cx="190" cy="270" r="15" fill="#707070"/>
    <circle cx="190" cy="270" r="11" fill="#858585"/>
    <circle cx="280" cy="150" r="13" fill="#707070"/>
    <circle cx="110" cy="230" r="9" fill="#707070"/>
    <circle cx="260" cy="260" r="8" fill="#707070"/>
    <g stroke="#5a5a5a" stroke-width="3" opacity="0.5" fill="none">
      <path d="M85 200 Q200 180 315 200"/>
      <path d="M95 240 Q200 220 305 240"/>
    </g>
    <ellipse cx="155" cy="145" rx="50" ry="35" fill="#ffffff" opacity="0.18"/>
  </g>
</svg>
