<svg xmlns="http://www.w3.org/2000/svg" viewBox="0 0 400 400" width="400" height="400">
  <!-- HUD frame -->
  <circle cx="200" cy="200" r="190" fill="none" stroke="#333333" stroke-width="2" shape-rendering="crispEdges"/>
  <g stroke="#525252" stroke-width="2" shape-rendering="crispEdges">
    <line x1="200" y1="10" x2="200" y2="38"/>
    <line x1="200" y1="362" x2="200" y2="390"/>
    <line x1="10" y1="200" x2="38" y2="200"/>
    <line x1="362" y1="200" x2="390" y2="200"/>
  </g>
  <circle cx="200" cy="200" r="172" fill="none" stroke="#525252" stroke-width="1" stroke-dasharray="6 6" opacity="0.6"/>
  <!-- Moon -->
  <g>
    <circle cx="200" cy="200" r="150" fill="#a6a6a6" stroke="#5c5c5c" stroke-width="2"/>
    <g fill="#707070">
      <circle cx="155" cy="160" r="26"/>
      <circle cx="245" cy="190" r="20"/>
      <circle cx="190" cy="260" r="16"/>
      <circle cx="280" cy="240" r="13"/>
      <circle cx="115" cy="230" r="11"/>
      <circle cx="260" cy="130" r="10"/>
    </g>
    <g fill="#858585" opacity="0.6">
      <circle cx="155" cy="160" r="20"/>
      <circle cx="245" cy="190" r="15"/>
      <circle cx="190" cy="260" r="12"/>
    </g>
    <g fill="#5c5c5c" opacity="0.4">
      <path d="M120 200 L180 190 L200 230 L150 250 Z"/>
      <path d="M230 150 L280 160 L270 200 L220 190 Z"/>
    </g>
    <g fill="none" stroke="#5c5c5c" stroke-width="3" opacity="0.25">
      <path d="M85 200 Q200 175 315 200"/>
      <path d="M95 240 Q200 215 305 240"/>
    </g>
    <ellipse cx="160" cy="140" rx="50" ry="35" fill="#ffffff" opacity="0.15"/>
  </g>
</svg>
