<svg xmlns="http://www.w3.org/2000/svg" viewBox="0 0 400 400" width="400" height="400">
  <!-- HUD frame -->
  <circle cx="200" cy="200" r="190" fill="none" stroke="#333333" stroke-width="2" shape-rendering="crispEdges"/>
  <g stroke="#525252" stroke-width="2" shape-rendering="crispEdges">
    <line x1="200" y1="10" x2="200" y2="38"/>
    <line x1="200" y1="362" x2="200" y2="390"/>
    <line x1="10" y1="200" x2="38" y2="200"/>
    <line x1="362" y1="200" x2="390" y2="200"/>
  </g>
  <circle cx="200" cy="200" r="172" fill="none" stroke="#525252" stroke-width="1" stroke-dasharray="6 6" opacity="0.6"/>
  <!-- Neptune -->
  <g>
    <circle cx="200" cy="200" r="150" fill="#312e81" stroke="#1e1b4b" stroke-width="2"/>
    <g fill="none" stroke="#818cf8" stroke-width="6" opacity="0.45">
      <path d="M60 170 Q200 140 340 170"/>
      <path d="M60 210 Q200 190 340 210"/>
      <path d="M60 250 Q200 240 340 250"/>
    </g>
    <g transform="translate(260, 220)" fill="#a78bfa" stroke="#c4b5fd" stroke-width="1.5">
      <path d="M0 -16 L14 0 L0 16 L-14 0 Z" fill="#a78bfa"/>
      <circle cx="0" cy="0" r="8" fill="#ffffff" opacity="0.5"/>
    </g>
    <ellipse cx="155" cy="145" rx="55" ry="40" fill="#a78bfa" opacity="0.15"/>
  </g>
</svg>
