<svg xmlns="http://www.w3.org/2000/svg" viewBox="0 0 400 400" width="400" height="400">
  <!-- HUD frame -->
  <circle cx="200" cy="200" r="190" fill="none" stroke="#333333" stroke-width="2" shape-rendering="crispEdges"/>
  <g stroke="#525252" stroke-width="2" shape-rendering="crispEdges">
    <line x1="200" y1="10" x2="200" y2="38"/>
    <line x1="200" y1="362" x2="200" y2="390"/>
    <line x1="10" y1="200" x2="38" y2="200"/>
    <line x1="362" y1="200" x2="390" y2="200"/>
  </g>
  <circle cx="200" cy="200" r="172" fill="none" stroke="#525252" stroke-width="1" stroke-dasharray="6 6" opacity="0.6"/>
  <!-- Pluto -->
  <g>
    <circle cx="200" cy="200" r="115" fill="#e0d6cc" stroke="#b8a99c" stroke-width="2"/>
    <!-- Tombaugh Regio / Pluto's heart -->
    <path d="M200 245 C170 220 125 190 125 160 C125 125 160 115 195 135 C200 138 200 138 205 135 C240 115 275 125 275 160 C275 190 230 220 200 245Z" fill="#ffffff"/>
    <g fill="#a65e4e" opacity="0.6">
      <ellipse cx="270" cy="190" rx="36" ry="26"/>
      <ellipse cx="130" cy="230" rx="26" ry="20"/>
      <ellipse cx="230" cy="130" rx="22" ry="16"/>
      <ellipse cx="190" cy="270" rx="20" ry="14"/>
    </g>
    <g fill="none" stroke="#8f4a3d" stroke-width="3" opacity="0.2">
      <path d="M95 200 Q200 185 305 200"/>
    </g>
    <ellipse cx="160" cy="155" rx="42" ry="28" fill="#ffffff" opacity="0.25"/>
    <!-- Charon -->
    <g>
      <circle cx="328" cy="246" r="59" fill="#a8a29e" stroke="#78716c" stroke-width="2"/>
      <ellipse cx="318" cy="236" rx="15" ry="11" fill="#d6d3d1" opacity="0.3"/>
    </g>
  </g>
</svg>
