<svg xmlns="http://www.w3.org/2000/svg" viewBox="0 0 400 400" width="400" height="400">
  <!-- HUD frame -->
  <circle cx="200" cy="200" r="190" fill="#0f0f0f" stroke="#333333" stroke-width="2" shape-rendering="crispEdges"/>
  <g stroke="#525252" stroke-width="2" shape-rendering="crispEdges">
    <line x1="200" y1="10" x2="200" y2="38"/>
    <line x1="200" y1="362" x2="200" y2="390"/>
    <line x1="10" y1="200" x2="38" y2="200"/>
    <line x1="362" y1="200" x2="390" y2="200"/>
  </g>
  <circle cx="200" cy="200" r="172" fill="none" stroke="#525252" stroke-width="1" stroke-dasharray="6 6" opacity="0.6"/>

  <!-- Reentry capsule: upper section of the mission rocket -->
  <g transform="translate(200, 300)">
    <!-- Parachute canopy with Soyuz-style red / white stripes -->
    <defs>
      <clipPath id="canopyClip">
        <path d="M -110 -140 A 110 70 0 0 1 110 -140 Z"/>
      </clipPath>
    </defs>
    <g clip-path="url(#canopyClip)">
      <rect x="-120" y="-210" width="240" height="14" fill="#ffffff"/>
      <rect x="-120" y="-196" width="240" height="14" fill="#da291c"/>
      <rect x="-120" y="-182" width="240" height="14" fill="#ffffff"/>
      <rect x="-120" y="-168" width="240" height="14" fill="#da291c"/>
      <rect x="-120" y="-154" width="240" height="14" fill="#ffffff"/>
    </g>
    <path d="M -110 -140 A 110 70 0 0 1 110 -140 Z" fill="none" stroke="#94a3b8" stroke-width="1.5"/>

    <!-- Parachute cords -->
    <g stroke="#94a3b8" stroke-width="2" opacity="0.85">
      <line x1="-95" y1="-140" x2="-24" y2="0"/>
      <line x1="95" y1="-140" x2="24" y2="0"/>
      <line x1="0" y1="-165" x2="0" y2="0"/>
    </g>

    <!-- Capsule body lowered below the chute -->
    <g transform="translate(0, 35)">
      <!-- Main hull: nose cone from the same rocket family -->
      <path d="M 0 -120 L 24 -35 Q 0 -18 -24 -35 Z" fill="#f8fafc" stroke="#e5e5e5" stroke-width="2"/>

      <!-- Window -->
      <circle cx="0" cy="-68" r="11" fill="#0f172a" stroke="#94a3b8" stroke-width="2"/>
      <circle cx="3" cy="-71" r="3" fill="#ffffff" opacity="0.2"/>

      <!-- Body detail -->
      <line x1="0" y1="-42" x2="0" y2="-28" stroke="#94a3b8" stroke-width="2" opacity="0.5"/>
      <rect x="-9" y="-48" width="18" height="5" rx="2" fill="#94a3b8" opacity="0.5"/>

      <!-- Reentry base glow -->
      <path d="M -16 -18 Q 0 -2 16 -18 Q 0 -12 -16 -18" fill="#f59e0b" opacity="0.85"/>
      <path d="M -9 -16 Q 0 -8 9 -16 Q 0 -12 -9 -16" fill="#fbbf24" opacity="0.6"/>
    </g>
  </g>
</svg>
