<svg xmlns="http://www.w3.org/2000/svg" viewBox="0 0 400 400" width="400" height="400">
  <!-- HUD frame -->
  <circle cx="200" cy="200" r="190" fill="none" stroke="#333333" stroke-width="2" shape-rendering="crispEdges"/>
  <g stroke="#525252" stroke-width="2" shape-rendering="crispEdges">
    <line x1="200" y1="10" x2="200" y2="38"/>
    <line x1="200" y1="362" x2="200" y2="390"/>
    <line x1="10" y1="200" x2="38" y2="200"/>
    <line x1="362" y1="200" x2="390" y2="200"/>
  </g>
  <circle cx="200" cy="200" r="172" fill="none" stroke="#525252" stroke-width="1" stroke-dasharray="6 6" opacity="0.6"/>
  <!-- Saturn -->
  <g>
    <ellipse cx="200" cy="200" rx="185" ry="52" fill="none" stroke="#b08d3e" stroke-width="3" opacity="0.35" transform="rotate(-15 200 200)"/>
    <circle cx="200" cy="200" r="95" fill="#c99e45" stroke="#7a5c22" stroke-width="2"/>
    <g fill="none" stroke="#8f6a28" stroke-width="4" opacity="0.4">
      <path d="M110 175 Q200 155 290 175"/>
      <path d="M105 205 Q200 195 295 205"/>
      <path d="M110 235 Q200 250 290 235"/>
    </g>
    <path d="M 388.7 152.6 A 185 52 -15 0 1 11.3 247.4" fill="none" stroke="#e8c766" stroke-width="4" opacity="0.85" stroke-linecap="square"/>
    <path d="M 356.4 161.3 A 150 42 -15 0 1 43.6 238.7" fill="none" stroke="#fff5d6" stroke-width="2" opacity="0.5" stroke-linecap="square"/>
    <ellipse cx="168" cy="168" rx="40" ry="28" fill="#ffffff" opacity="0.15"/>
  </g>
</svg>
