<svg xmlns="http://www.w3.org/2000/svg" viewBox="0 0 400 400" width="400" height="400">
  <!-- HUD frame -->
  <circle cx="200" cy="200" r="190" fill="none" stroke="#333333" stroke-width="2" shape-rendering="crispEdges"/>
  <g stroke="#525252" stroke-width="2" shape-rendering="crispEdges">
    <line x1="200" y1="10" x2="200" y2="38"/>
    <line x1="200" y1="362" x2="200" y2="390"/>
    <line x1="10" y1="200" x2="38" y2="200"/>
    <line x1="362" y1="200" x2="390" y2="200"/>
  </g>
  <circle cx="200" cy="200" r="172" fill="none" stroke="#525252" stroke-width="1" stroke-dasharray="6 6" opacity="0.6"/>
  <!-- Sun -->
  <g stroke-linecap="square">
    <g stroke="#f59e0b" stroke-width="3">
      <line x1="200" y1="55" x2="200" y2="25"/>
      <line x1="200" y1="345" x2="200" y2="375"/>
      <line x1="55" y1="200" x2="25" y2="200"/>
      <line x1="345" y1="200" x2="375" y2="200"/>
      <line x1="97" y1="97" x2="76" y2="76"/>
      <line x1="303" y1="97" x2="324" y2="76"/>
      <line x1="97" y1="303" x2="76" y2="324"/>
      <line x1="303" y1="303" x2="324" y2="324"/>
    </g>
    <circle cx="200" cy="200" r="118" fill="#fbbf24" stroke="#d97706" stroke-width="2"/>
    <circle cx="155" cy="165" r="22" fill="#d97706" opacity="0.35"/>
    <circle cx="250" cy="230" r="18" fill="#d97706" opacity="0.3"/>
    <circle cx="220" cy="145" r="12" fill="#d97706" opacity="0.4"/>
    <ellipse cx="170" cy="155" rx="38" ry="28" fill="#fff7ed" opacity="0.25"/>
    <g stroke="#d97706" stroke-width="2" opacity="0.5">
      <line x1="130" y1="200" x2="270" y2="200"/>
      <line x1="200" y1="130" x2="200" y2="270"/>
    </g>
  </g>
</svg>
