<svg xmlns="http://www.w3.org/2000/svg" viewBox="0 0 400 400" width="400" height="400">
  <!-- HUD frame -->
  <circle cx="200" cy="200" r="190" fill="none" stroke="#333333" stroke-width="2" shape-rendering="crispEdges"/>
  <g stroke="#525252" stroke-width="2" shape-rendering="crispEdges">
    <line x1="200" y1="10" x2="200" y2="38"/>
    <line x1="200" y1="362" x2="200" y2="390"/>
    <line x1="10" y1="200" x2="38" y2="200"/>
    <line x1="362" y1="200" x2="390" y2="200"/>
  </g>
  <circle cx="200" cy="200" r="172" fill="none" stroke="#525252" stroke-width="1" stroke-dasharray="6 6" opacity="0.6"/>
  <!-- Uranus -->
  <g>
    <path d="M 222.4 374.8 A 175 50 80 0 1 177.6 25.2" fill="none" stroke="#2a8fa8" stroke-width="4" opacity="0.25" stroke-linecap="square"/>
    <circle cx="200" cy="200" r="105" fill="#7de3f4" stroke="#3aa9bf" stroke-width="2"/>
    <g fill="none" stroke="#5bc9d9" stroke-width="4" opacity="0.45" transform="rotate(90 200 200)">
      <path d="M95 180 Q200 160 305 180"/>
      <path d="M90 210 Q200 195 310 210"/>
      <path d="M95 240 Q200 230 305 240"/>
    </g>
    <path d="M 222.4 374.8 A 175 50 80 0 0 177.6 25.2" fill="none" stroke="#4fc3d9" stroke-width="4" opacity="0.85" stroke-linecap="square"/>
    <path d="M 216.1 339.6 A 140 40 80 0 0 183.9 60.4" fill="none" stroke="#d6f7fa" stroke-width="2" opacity="0.5" stroke-linecap="square"/>
    <ellipse cx="168" cy="162" rx="45" ry="30" fill="#ffffff" opacity="0.2"/>
  </g>
</svg>
