<svg xmlns="http://www.w3.org/2000/svg" viewBox="0 0 400 400" width="400" height="400">
  <!-- HUD frame -->
  <circle cx="200" cy="200" r="190" fill="none" stroke="#333333" stroke-width="2" shape-rendering="crispEdges"/>
  <g stroke="#525252" stroke-width="2" shape-rendering="crispEdges">
    <line x1="200" y1="10" x2="200" y2="38"/>
    <line x1="200" y1="362" x2="200" y2="390"/>
    <line x1="10" y1="200" x2="38" y2="200"/>
    <line x1="362" y1="200" x2="390" y2="200"/>
  </g>
  <circle cx="200" cy="200" r="172" fill="none" stroke="#525252" stroke-width="1" stroke-dasharray="6 6" opacity="0.6"/>
  <!-- Venus -->
  <g>
    <circle cx="200" cy="200" r="150" fill="#e8c08a" stroke="#b3864e" stroke-width="2"/>
    <g fill="none" stroke="#fff5e6" stroke-width="5" opacity="0.7">
      <path d="M70 170 Q200 150 330 170"/>
      <path d="M65 210 Q200 195 335 210"/>
      <path d="M75 250 Q200 235 325 250"/>
    </g>
    <g fill="#c49a5a" opacity="0.55">
      <ellipse cx="260" cy="190" rx="34" ry="24"/>
      <ellipse cx="150" cy="240" rx="27" ry="19"/>
      <ellipse cx="220" cy="150" rx="21" ry="15"/>
    </g>
    <ellipse cx="155" cy="145" rx="55" ry="40" fill="#ffffff" opacity="0.2"/>
  </g>
</svg>
